%TF.GenerationSoftware,KiCad,Pcbnew,10.0.3*%
%TF.CreationDate,2026-06-19T20:40:44-04:00*%
%TF.ProjectId,TMi-3,544d692d-332e-46b6-9963-61645f706362,rev?*%
%TF.SameCoordinates,Original*%
%TF.FileFunction,Soldermask,Top*%
%TF.FilePolarity,Negative*%
%FSLAX46Y46*%
G04 Gerber Fmt 4.6, Leading zero omitted, Abs format (unit mm)*
G04 Created by KiCad (PCBNEW 10.0.3) date 2026-06-19 20:40:44*
%MOMM*%
%LPD*%
G01*
G04 APERTURE LIST*
G04 Aperture macros list*
%AMRoundRect*
0 Rectangle with rounded corners*
0 $1 Rounding radius*
0 $2 $3 $4 $5 $6 $7 $8 $9 X,Y pos of 4 corners*
0 Add a 4 corners polygon primitive as box body*
4,1,4,$2,$3,$4,$5,$6,$7,$8,$9,$2,$3,0*
0 Add four circle primitives for the rounded corners*
1,1,$1+$1,$2,$3*
1,1,$1+$1,$4,$5*
1,1,$1+$1,$6,$7*
1,1,$1+$1,$8,$9*
0 Add four rect primitives between the rounded corners*
20,1,$1+$1,$2,$3,$4,$5,0*
20,1,$1+$1,$4,$5,$6,$7,0*
20,1,$1+$1,$6,$7,$8,$9,0*
20,1,$1+$1,$8,$9,$2,$3,0*%
G04 Aperture macros list end*
%ADD10C,3.000000*%
%ADD11R,2.000000X1.905000*%
%ADD12O,2.000000X1.905000*%
%ADD13RoundRect,0.250000X-0.550000X0.550000X-0.550000X-0.550000X0.550000X-0.550000X0.550000X0.550000X0*%
%ADD14C,1.600000*%
%ADD15C,4.740000*%
%ADD16C,2.000000*%
%ADD17RoundRect,0.250000X-0.750000X0.750000X-0.750000X-0.750000X0.750000X-0.750000X0.750000X0.750000X0*%
%ADD18RoundRect,0.250000X-0.625000X0.400000X-0.625000X-0.400000X0.625000X-0.400000X0.625000X0.400000X0*%
%ADD19RoundRect,0.249999X0.850001X-0.850001X0.850001X0.850001X-0.850001X0.850001X-0.850001X-0.850001X0*%
%ADD20C,2.200000*%
%ADD21C,2.600000*%
%ADD22C,3.800000*%
%ADD23RoundRect,0.250000X0.625000X-0.400000X0.625000X0.400000X-0.625000X0.400000X-0.625000X-0.400000X0*%
%ADD24RoundRect,0.249999X-0.850001X-0.850001X0.850001X-0.850001X0.850001X0.850001X-0.850001X0.850001X0*%
%ADD25RoundRect,0.250000X0.475000X-0.337500X0.475000X0.337500X-0.475000X0.337500X-0.475000X-0.337500X0*%
%ADD26RoundRect,0.250000X0.800000X-0.800000X0.800000X0.800000X-0.800000X0.800000X-0.800000X-0.800000X0*%
%ADD27C,2.100000*%
G04 APERTURE END LIST*
D10*
%TO.C,J9*%
X31691436Y-132302351D03*
X31691436Y-116072351D03*
X44391436Y-132302351D03*
X44391436Y-116072351D03*
%TD*%
D11*
%TO.C,Q1*%
X57000000Y-59500000D03*
D12*
X57000000Y-62040000D03*
X57000000Y-64580000D03*
%TD*%
D13*
%TO.C,C6*%
X49495923Y-139393763D03*
D14*
X49495923Y-142893763D03*
%TD*%
D15*
%TO.C,J4*%
X27115000Y-140545208D03*
X40815000Y-140545208D03*
X38315000Y-145745208D03*
%TD*%
D16*
%TO.C,C9*%
X62500000Y-33632323D03*
D17*
X62500000Y-38632323D03*
%TD*%
D18*
%TO.C,R4*%
X61495923Y-86496414D03*
X61495923Y-89596414D03*
%TD*%
D19*
%TO.C,D6*%
X65995923Y-131626414D03*
D20*
X65995923Y-121466414D03*
%TD*%
D13*
%TO.C,C8*%
X49495923Y-174893763D03*
D14*
X49495923Y-178393763D03*
%TD*%
D21*
%TO.C,H1*%
X33000000Y-38000000D03*
D22*
X33000000Y-38000000D03*
%TD*%
D10*
%TO.C,J8*%
X31691436Y-97088065D03*
X31691436Y-80858065D03*
X44391436Y-97088065D03*
X44391436Y-80858065D03*
%TD*%
D11*
%TO.C,Q2*%
X57000000Y-94500000D03*
D12*
X57000000Y-97040000D03*
X57000000Y-99580000D03*
%TD*%
D23*
%TO.C,R5*%
X55995923Y-124596414D03*
X55995923Y-121496414D03*
%TD*%
D11*
%TO.C,Q4*%
X57000000Y-165000000D03*
D12*
X57000000Y-167540000D03*
X57000000Y-170080000D03*
%TD*%
D24*
%TO.C,D1*%
X55920000Y-46000000D03*
D20*
X66080000Y-46000000D03*
%TD*%
D24*
%TO.C,D3*%
X55915923Y-81046414D03*
D20*
X66075923Y-81046414D03*
%TD*%
D13*
%TO.C,C2*%
X49500000Y-69347349D03*
D14*
X49500000Y-72847349D03*
%TD*%
D18*
%TO.C,R2*%
X61500000Y-51450000D03*
X61500000Y-54550000D03*
%TD*%
D25*
%TO.C,C1*%
X57500000Y-72537500D03*
X57500000Y-70462500D03*
%TD*%
%TO.C,C7*%
X56500000Y-178037500D03*
X56500000Y-175962500D03*
%TD*%
D26*
%TO.C,J3*%
X48867500Y-38500000D03*
D27*
X48867500Y-33500000D03*
%TD*%
D11*
%TO.C,Q3*%
X57000000Y-129500000D03*
D12*
X57000000Y-132040000D03*
X57000000Y-134580000D03*
%TD*%
D23*
%TO.C,R1*%
X56000000Y-54550000D03*
X56000000Y-51450000D03*
%TD*%
D25*
%TO.C,C3*%
X57000000Y-107537500D03*
X57000000Y-105462500D03*
%TD*%
%TO.C,C5*%
X56995923Y-142333914D03*
X56995923Y-140258914D03*
%TD*%
D24*
%TO.C,D7*%
X55915923Y-151546414D03*
D20*
X66075923Y-151546414D03*
%TD*%
D15*
%TO.C,J2*%
X27115000Y-105259493D03*
X40815000Y-105259493D03*
X38315000Y-110459493D03*
%TD*%
D19*
%TO.C,D4*%
X65995923Y-96626414D03*
D20*
X65995923Y-86466414D03*
%TD*%
D10*
%TO.C,J10*%
X31691436Y-167516636D03*
X31691436Y-151286636D03*
X44391436Y-167516636D03*
X44391436Y-151286636D03*
%TD*%
D18*
%TO.C,R6*%
X61495923Y-121496414D03*
X61495923Y-124596414D03*
%TD*%
D15*
%TO.C,J5*%
X27115000Y-175830922D03*
X40815000Y-175830922D03*
X38315000Y-181030922D03*
%TD*%
%TO.C,J1*%
X27115000Y-69973779D03*
X40815000Y-69973779D03*
X38315000Y-75173779D03*
%TD*%
D23*
%TO.C,R3*%
X55995923Y-89596414D03*
X55995923Y-86496414D03*
%TD*%
D10*
%TO.C,J7*%
X31691436Y-61730922D03*
X31691436Y-45500922D03*
X44391436Y-61730922D03*
X44391436Y-45500922D03*
%TD*%
D21*
%TO.C,H2*%
X70000000Y-180000000D03*
D22*
X70000000Y-180000000D03*
%TD*%
D19*
%TO.C,D2*%
X66000000Y-61580000D03*
D20*
X66000000Y-51420000D03*
%TD*%
D13*
%TO.C,C4*%
X49495923Y-104393763D03*
D14*
X49495923Y-107893763D03*
%TD*%
D23*
%TO.C,R7*%
X55995923Y-160096414D03*
X55995923Y-156996414D03*
%TD*%
D18*
%TO.C,R8*%
X61495923Y-156996414D03*
X61495923Y-160096414D03*
%TD*%
D19*
%TO.C,D8*%
X65995923Y-167126414D03*
D20*
X65995923Y-156966414D03*
%TD*%
D24*
%TO.C,D5*%
X55915923Y-116046414D03*
D20*
X66075923Y-116046414D03*
%TD*%
M02*
