%TF.GenerationSoftware,KiCad,Pcbnew,10.0.3*%
%TF.CreationDate,2026-06-19T20:40:43-04:00*%
%TF.ProjectId,TMi-3,544d692d-332e-46b6-9963-61645f706362,rev?*%
%TF.SameCoordinates,Original*%
%TF.FileFunction,Copper,L1,Top*%
%TF.FilePolarity,Positive*%
%FSLAX46Y46*%
G04 Gerber Fmt 4.6, Leading zero omitted, Abs format (unit mm)*
G04 Created by KiCad (PCBNEW 10.0.3) date 2026-06-19 20:40:43*
%MOMM*%
%LPD*%
G01*
G04 APERTURE LIST*
G04 Aperture macros list*
%AMRoundRect*
0 Rectangle with rounded corners*
0 $1 Rounding radius*
0 $2 $3 $4 $5 $6 $7 $8 $9 X,Y pos of 4 corners*
0 Add a 4 corners polygon primitive as box body*
4,1,4,$2,$3,$4,$5,$6,$7,$8,$9,$2,$3,0*
0 Add four circle primitives for the rounded corners*
1,1,$1+$1,$2,$3*
1,1,$1+$1,$4,$5*
1,1,$1+$1,$6,$7*
1,1,$1+$1,$8,$9*
0 Add four rect primitives between the rounded corners*
20,1,$1+$1,$2,$3,$4,$5,0*
20,1,$1+$1,$4,$5,$6,$7,0*
20,1,$1+$1,$6,$7,$8,$9,0*
20,1,$1+$1,$8,$9,$2,$3,0*%
G04 Aperture macros list end*
%TA.AperFunction,ComponentPad*%
%ADD10C,3.000000*%
%TD*%
%TA.AperFunction,ComponentPad*%
%ADD11R,2.000000X1.905000*%
%TD*%
%TA.AperFunction,ComponentPad*%
%ADD12O,2.000000X1.905000*%
%TD*%
%TA.AperFunction,ComponentPad*%
%ADD13RoundRect,0.250000X-0.550000X0.550000X-0.550000X-0.550000X0.550000X-0.550000X0.550000X0.550000X0*%
%TD*%
%TA.AperFunction,ComponentPad*%
%ADD14C,1.600000*%
%TD*%
%TA.AperFunction,ComponentPad*%
%ADD15C,4.740000*%
%TD*%
%TA.AperFunction,ComponentPad*%
%ADD16C,2.000000*%
%TD*%
%TA.AperFunction,ComponentPad*%
%ADD17RoundRect,0.250000X-0.750000X0.750000X-0.750000X-0.750000X0.750000X-0.750000X0.750000X0.750000X0*%
%TD*%
%TA.AperFunction,SMDPad,CuDef*%
%ADD18RoundRect,0.250000X-0.625000X0.400000X-0.625000X-0.400000X0.625000X-0.400000X0.625000X0.400000X0*%
%TD*%
%TA.AperFunction,ComponentPad*%
%ADD19RoundRect,0.249999X0.850001X-0.850001X0.850001X0.850001X-0.850001X0.850001X-0.850001X-0.850001X0*%
%TD*%
%TA.AperFunction,ComponentPad*%
%ADD20C,2.200000*%
%TD*%
%TA.AperFunction,ComponentPad*%
%ADD21C,2.600000*%
%TD*%
%TA.AperFunction,ConnectorPad*%
%ADD22C,3.800000*%
%TD*%
%TA.AperFunction,SMDPad,CuDef*%
%ADD23RoundRect,0.250000X0.625000X-0.400000X0.625000X0.400000X-0.625000X0.400000X-0.625000X-0.400000X0*%
%TD*%
%TA.AperFunction,ComponentPad*%
%ADD24RoundRect,0.249999X-0.850001X-0.850001X0.850001X-0.850001X0.850001X0.850001X-0.850001X0.850001X0*%
%TD*%
%TA.AperFunction,SMDPad,CuDef*%
%ADD25RoundRect,0.250000X0.475000X-0.337500X0.475000X0.337500X-0.475000X0.337500X-0.475000X-0.337500X0*%
%TD*%
%TA.AperFunction,ComponentPad*%
%ADD26RoundRect,0.250000X0.800000X-0.800000X0.800000X0.800000X-0.800000X0.800000X-0.800000X-0.800000X0*%
%TD*%
%TA.AperFunction,ComponentPad*%
%ADD27C,2.100000*%
%TD*%
%TA.AperFunction,ViaPad*%
%ADD28C,0.600000*%
%TD*%
%TA.AperFunction,Conductor*%
%ADD29C,1.000000*%
%TD*%
%TA.AperFunction,Conductor*%
%ADD30C,0.200000*%
%TD*%
%TA.AperFunction,Conductor*%
%ADD31C,2.000000*%
%TD*%
G04 APERTURE END LIST*
D10*
%TO.P,J9,S*%
%TO.N,GND*%
X31691436Y-132302351D03*
%TO.P,J9,SN*%
%TO.N,unconnected-(J9-PadSN)*%
X31691436Y-116072351D03*
%TO.P,J9,T*%
%TO.N,Net-(J9-PadT)*%
X44391436Y-132302351D03*
%TO.P,J9,TN*%
%TO.N,unconnected-(J9-PadTN)*%
X44391436Y-116072351D03*
%TD*%
D11*
%TO.P,Q1,1,G_1*%
%TO.N,Net-(D1-K)*%
X57000000Y-59500000D03*
D12*
%TO.P,Q1,2,D_2*%
%TO.N,Net-(D2-A)*%
X57000000Y-62040000D03*
%TO.P,Q1,3,S_3*%
%TO.N,GND*%
X57000000Y-64580000D03*
%TD*%
D13*
%TO.P,C6,1*%
%TO.N,+5V*%
X49495923Y-139393763D03*
D14*
%TO.P,C6,2*%
%TO.N,GND*%
X49495923Y-142893763D03*
%TD*%
D15*
%TO.P,J4,1,1_1*%
%TO.N,Net-(D6-A)*%
X27115000Y-140545208D03*
%TO.P,J4,2,2_2*%
%TO.N,unconnected-(J4-Pad2)*%
X40815000Y-140545208D03*
%TO.P,J4,3,3_3*%
%TO.N,+5V*%
X38315000Y-145745208D03*
%TD*%
D16*
%TO.P,C9,1*%
%TO.N,+5V*%
X62500000Y-33632323D03*
D17*
%TO.P,C9,2*%
%TO.N,GND*%
X62500000Y-38632323D03*
%TD*%
D18*
%TO.P,R4,1*%
%TO.N,GND*%
X61495923Y-86496414D03*
%TO.P,R4,2*%
%TO.N,Net-(D3-K)*%
X61495923Y-89596414D03*
%TD*%
D19*
%TO.P,D6,1,K_1*%
%TO.N,+5V*%
X65995923Y-131626414D03*
D20*
%TO.P,D6,2,A_2*%
%TO.N,Net-(D6-A)*%
X65995923Y-121466414D03*
%TD*%
D13*
%TO.P,C8,1*%
%TO.N,+5V*%
X49495923Y-174893763D03*
D14*
%TO.P,C8,2*%
%TO.N,GND*%
X49495923Y-178393763D03*
%TD*%
D21*
%TO.P,H1,1,1_1*%
%TO.N,unconnected-(H1-Pad1)_2*%
X33000000Y-38000000D03*
D22*
%TO.N,unconnected-(H1-Pad1)*%
X33000000Y-38000000D03*
%TD*%
D10*
%TO.P,J8,S*%
%TO.N,GND*%
X31691436Y-97088065D03*
%TO.P,J8,SN*%
%TO.N,unconnected-(J8-PadSN)*%
X31691436Y-80858065D03*
%TO.P,J8,T*%
%TO.N,Net-(J8-PadT)*%
X44391436Y-97088065D03*
%TO.P,J8,TN*%
%TO.N,unconnected-(J8-PadTN)*%
X44391436Y-80858065D03*
%TD*%
D11*
%TO.P,Q2,1,G_1*%
%TO.N,Net-(D3-K)*%
X57000000Y-94500000D03*
D12*
%TO.P,Q2,2,D_2*%
%TO.N,Net-(D4-A)*%
X57000000Y-97040000D03*
%TO.P,Q2,3,S_3*%
%TO.N,GND*%
X57000000Y-99580000D03*
%TD*%
D23*
%TO.P,R5,1*%
%TO.N,Net-(J9-PadT)*%
X55995923Y-124596414D03*
%TO.P,R5,2*%
%TO.N,Net-(D5-K)*%
X55995923Y-121496414D03*
%TD*%
D11*
%TO.P,Q4,1,G_1*%
%TO.N,Net-(D7-K)*%
X57000000Y-165000000D03*
D12*
%TO.P,Q4,2,D_2*%
%TO.N,Net-(D8-A)*%
X57000000Y-167540000D03*
%TO.P,Q4,3,S_3*%
%TO.N,GND*%
X57000000Y-170080000D03*
%TD*%
D24*
%TO.P,D1,1,K_1*%
%TO.N,Net-(D1-K)*%
X55920000Y-46000000D03*
D20*
%TO.P,D1,2,A_2*%
%TO.N,GND*%
X66080000Y-46000000D03*
%TD*%
D24*
%TO.P,D3,1,K_1*%
%TO.N,Net-(D3-K)*%
X55915923Y-81046414D03*
D20*
%TO.P,D3,2,A_2*%
%TO.N,GND*%
X66075923Y-81046414D03*
%TD*%
D13*
%TO.P,C2,1*%
%TO.N,+5V*%
X49500000Y-69347349D03*
D14*
%TO.P,C2,2*%
%TO.N,GND*%
X49500000Y-72847349D03*
%TD*%
D18*
%TO.P,R2,1*%
%TO.N,GND*%
X61500000Y-51450000D03*
%TO.P,R2,2*%
%TO.N,Net-(D1-K)*%
X61500000Y-54550000D03*
%TD*%
D25*
%TO.P,C1,1*%
%TO.N,GND*%
X57500000Y-72537500D03*
%TO.P,C1,2*%
%TO.N,+5V*%
X57500000Y-70462500D03*
%TD*%
%TO.P,C7,1*%
%TO.N,GND*%
X56500000Y-178037500D03*
%TO.P,C7,2*%
%TO.N,+5V*%
X56500000Y-175962500D03*
%TD*%
D26*
%TO.P,J3,1,Pin_1_1*%
%TO.N,GND*%
X48867500Y-38500000D03*
D27*
%TO.P,J3,2,Pin_2_2*%
%TO.N,+5V*%
X48867500Y-33500000D03*
%TD*%
D11*
%TO.P,Q3,1,G_1*%
%TO.N,Net-(D5-K)*%
X57000000Y-129500000D03*
D12*
%TO.P,Q3,2,D_2*%
%TO.N,Net-(D6-A)*%
X57000000Y-132040000D03*
%TO.P,Q3,3,S_3*%
%TO.N,GND*%
X57000000Y-134580000D03*
%TD*%
D23*
%TO.P,R1,1*%
%TO.N,Net-(J7-PadT)*%
X56000000Y-54550000D03*
%TO.P,R1,2*%
%TO.N,Net-(D1-K)*%
X56000000Y-51450000D03*
%TD*%
D25*
%TO.P,C3,1*%
%TO.N,GND*%
X57000000Y-107537500D03*
%TO.P,C3,2*%
%TO.N,+5V*%
X57000000Y-105462500D03*
%TD*%
%TO.P,C5,1*%
%TO.N,GND*%
X56995923Y-142333914D03*
%TO.P,C5,2*%
%TO.N,+5V*%
X56995923Y-140258914D03*
%TD*%
D24*
%TO.P,D7,1,K_1*%
%TO.N,Net-(D7-K)*%
X55915923Y-151546414D03*
D20*
%TO.P,D7,2,A_2*%
%TO.N,GND*%
X66075923Y-151546414D03*
%TD*%
D15*
%TO.P,J2,1,1_1*%
%TO.N,Net-(D4-A)*%
X27115000Y-105259493D03*
%TO.P,J2,2,2_2*%
%TO.N,unconnected-(J2-Pad2)*%
X40815000Y-105259493D03*
%TO.P,J2,3,3_3*%
%TO.N,+5V*%
X38315000Y-110459493D03*
%TD*%
D19*
%TO.P,D4,1,K_1*%
%TO.N,+5V*%
X65995923Y-96626414D03*
D20*
%TO.P,D4,2,A_2*%
%TO.N,Net-(D4-A)*%
X65995923Y-86466414D03*
%TD*%
D10*
%TO.P,J10,S*%
%TO.N,GND*%
X31691436Y-167516636D03*
%TO.P,J10,SN*%
%TO.N,unconnected-(J10-PadSN)*%
X31691436Y-151286636D03*
%TO.P,J10,T*%
%TO.N,Net-(J10-PadT)*%
X44391436Y-167516636D03*
%TO.P,J10,TN*%
%TO.N,unconnected-(J10-PadTN)*%
X44391436Y-151286636D03*
%TD*%
D18*
%TO.P,R6,1*%
%TO.N,GND*%
X61495923Y-121496414D03*
%TO.P,R6,2*%
%TO.N,Net-(D5-K)*%
X61495923Y-124596414D03*
%TD*%
D15*
%TO.P,J5,1,1_1*%
%TO.N,Net-(D8-A)*%
X27115000Y-175830922D03*
%TO.P,J5,2,2_2*%
%TO.N,unconnected-(J5-Pad2)*%
X40815000Y-175830922D03*
%TO.P,J5,3,3_3*%
%TO.N,+5V*%
X38315000Y-181030922D03*
%TD*%
%TO.P,J1,1,1_1*%
%TO.N,Net-(D2-A)*%
X27115000Y-69973779D03*
%TO.P,J1,2,2_2*%
%TO.N,unconnected-(J1-Pad2)*%
X40815000Y-69973779D03*
%TO.P,J1,3,3_3*%
%TO.N,+5V*%
X38315000Y-75173779D03*
%TD*%
D23*
%TO.P,R3,1*%
%TO.N,Net-(J8-PadT)*%
X55995923Y-89596414D03*
%TO.P,R3,2*%
%TO.N,Net-(D3-K)*%
X55995923Y-86496414D03*
%TD*%
D10*
%TO.P,J7,S*%
%TO.N,GND*%
X31691436Y-61730922D03*
%TO.P,J7,SN*%
%TO.N,unconnected-(J7-PadSN)*%
X31691436Y-45500922D03*
%TO.P,J7,T*%
%TO.N,Net-(J7-PadT)*%
X44391436Y-61730922D03*
%TO.P,J7,TN*%
%TO.N,unconnected-(J7-PadTN)*%
X44391436Y-45500922D03*
%TD*%
D21*
%TO.P,H2,1,1_1*%
%TO.N,unconnected-(H2-Pad1)_2*%
X70000000Y-180000000D03*
D22*
%TO.N,unconnected-(H2-Pad1)*%
X70000000Y-180000000D03*
%TD*%
D19*
%TO.P,D2,1,K_1*%
%TO.N,+5V*%
X66000000Y-61580000D03*
D20*
%TO.P,D2,2,A_2*%
%TO.N,Net-(D2-A)*%
X66000000Y-51420000D03*
%TD*%
D13*
%TO.P,C4,1*%
%TO.N,+5V*%
X49495923Y-104393763D03*
D14*
%TO.P,C4,2*%
%TO.N,GND*%
X49495923Y-107893763D03*
%TD*%
D23*
%TO.P,R7,1*%
%TO.N,Net-(J10-PadT)*%
X55995923Y-160096414D03*
%TO.P,R7,2*%
%TO.N,Net-(D7-K)*%
X55995923Y-156996414D03*
%TD*%
D18*
%TO.P,R8,1*%
%TO.N,GND*%
X61495923Y-156996414D03*
%TO.P,R8,2*%
%TO.N,Net-(D7-K)*%
X61495923Y-160096414D03*
%TD*%
D19*
%TO.P,D8,1,K_1*%
%TO.N,+5V*%
X65995923Y-167126414D03*
D20*
%TO.P,D8,2,A_2*%
%TO.N,Net-(D8-A)*%
X65995923Y-156966414D03*
%TD*%
D24*
%TO.P,D5,1,K_1*%
%TO.N,Net-(D5-K)*%
X55915923Y-116046414D03*
D20*
%TO.P,D5,2,A_2*%
%TO.N,GND*%
X66075923Y-116046414D03*
%TD*%
D28*
%TO.N,GND*%
X56500000Y-144500000D03*
X57000000Y-75000000D03*
X56000000Y-180000000D03*
X56500000Y-110000000D03*
%TD*%
%TO.N,GND*%
D29*
X56500000Y-144500000D02*
X56500000Y-142829837D01*
X56500000Y-178037500D02*
X56500000Y-179500000D01*
D30*
X61500000Y-156950000D02*
X61500000Y-156080000D01*
X49597349Y-178250000D02*
X49500000Y-178347349D01*
X61500000Y-51450000D02*
X61500000Y-50580000D01*
X61500000Y-50580000D02*
X66080000Y-46000000D01*
D29*
X57500000Y-74500000D02*
X57000000Y-75000000D01*
D30*
X61500000Y-120580000D02*
X66080000Y-116000000D01*
X61500000Y-85580000D02*
X66080000Y-81000000D01*
D29*
X56500000Y-179500000D02*
X56000000Y-180000000D01*
D30*
X49597349Y-72750000D02*
X49500000Y-72847349D01*
X49597349Y-142750000D02*
X49500000Y-142847349D01*
D29*
X57000000Y-107537500D02*
X57000000Y-109500000D01*
X56500000Y-142829837D02*
X56995923Y-142333914D01*
D30*
X49597349Y-107750000D02*
X49500000Y-107847349D01*
X61500000Y-156080000D02*
X66080000Y-151500000D01*
D29*
X57000000Y-109500000D02*
X56500000Y-110000000D01*
D30*
X61500000Y-86450000D02*
X61500000Y-85580000D01*
D29*
X57500000Y-72537500D02*
X57500000Y-74500000D01*
D30*
X61500000Y-121450000D02*
X61500000Y-120580000D01*
%TO.N,Net-(J9-PadT)*%
X51572358Y-124550000D02*
X56000000Y-124550000D01*
X44391436Y-131730922D02*
X51572358Y-124550000D01*
%TO.N,Net-(D1-K)*%
X58400000Y-51450000D02*
X61500000Y-54550000D01*
X55920000Y-46000000D02*
X55920000Y-51370000D01*
X55920000Y-51370000D02*
X56000000Y-51450000D01*
X56000000Y-51450000D02*
X58400000Y-51450000D01*
X61500000Y-55000000D02*
X61500000Y-54550000D01*
X57000000Y-59500000D02*
X61500000Y-55000000D01*
%TO.N,Net-(D2-A)*%
X66000000Y-53040000D02*
X57000000Y-62040000D01*
X32088779Y-65000000D02*
X27115000Y-69973779D01*
X57000000Y-62040000D02*
X53960000Y-62040000D01*
X53960000Y-62040000D02*
X51000000Y-65000000D01*
X66000000Y-51420000D02*
X66000000Y-53040000D01*
X51000000Y-65000000D02*
X32088779Y-65000000D01*
%TO.N,Net-(D6-A)*%
X57000000Y-132040000D02*
X53960000Y-132040000D01*
X66000000Y-123040000D02*
X57000000Y-132040000D01*
X32088779Y-135000000D02*
X27115000Y-139973779D01*
X51000000Y-135000000D02*
X32088779Y-135000000D01*
X53960000Y-132040000D02*
X51000000Y-135000000D01*
X66000000Y-121420000D02*
X66000000Y-123040000D01*
%TO.N,+5V*%
D29*
X49500000Y-69347349D02*
X56097349Y-69347349D01*
D31*
X71500000Y-137500000D02*
X71500000Y-161622337D01*
D29*
X66250000Y-70250000D02*
X71500000Y-65000000D01*
X56995923Y-175796414D02*
X50398574Y-175796414D01*
D31*
X62367677Y-33500000D02*
X62500000Y-33632323D01*
D29*
X50398574Y-175796414D02*
X49495923Y-174893763D01*
D31*
X71500000Y-99500000D02*
X71500000Y-129000000D01*
D29*
X65995923Y-96626414D02*
X68373586Y-96626414D01*
X50398574Y-105296414D02*
X49495923Y-104393763D01*
D31*
X48867500Y-33500000D02*
X62367677Y-33500000D01*
X71500000Y-93500000D02*
X71500000Y-99500000D01*
X62500000Y-33632323D02*
X71500000Y-42632323D01*
X71500000Y-161622337D02*
X71500000Y-165000000D01*
D29*
X47732416Y-104393763D02*
X49495923Y-104393763D01*
X68373586Y-96626414D02*
X71500000Y-93500000D01*
X67203586Y-175796414D02*
X71500000Y-171500000D01*
X56097349Y-69347349D02*
X57000000Y-70250000D01*
X56995923Y-140296414D02*
X68703586Y-140296414D01*
X48018131Y-139393763D02*
X49495923Y-139393763D01*
X38315000Y-181030922D02*
X41666686Y-181030922D01*
D31*
X71500000Y-42632323D02*
X71500000Y-58500000D01*
X71500000Y-165000000D02*
X71500000Y-171500000D01*
D29*
X41666686Y-110459493D02*
X47732416Y-104393763D01*
X56093272Y-139393763D02*
X56995923Y-140296414D01*
X47493116Y-69347349D02*
X49500000Y-69347349D01*
X69373586Y-167126414D02*
X71500000Y-165000000D01*
X41666686Y-145745208D02*
X48018131Y-139393763D01*
X57000000Y-70250000D02*
X66250000Y-70250000D01*
X47803845Y-174893763D02*
X49495923Y-174893763D01*
X68420000Y-61580000D02*
X71500000Y-58500000D01*
D31*
X71500000Y-66000000D02*
X71500000Y-93500000D01*
X71500000Y-65000000D02*
X71500000Y-66000000D01*
D29*
X56995923Y-175796414D02*
X67203586Y-175796414D01*
X41666686Y-75173779D02*
X47493116Y-69347349D01*
X68703586Y-140296414D02*
X71500000Y-137500000D01*
X38315000Y-110459493D02*
X41666686Y-110459493D01*
X66000000Y-61580000D02*
X68420000Y-61580000D01*
D31*
X71500000Y-58500000D02*
X71500000Y-65000000D01*
D29*
X56995923Y-105296414D02*
X65703586Y-105296414D01*
X68873586Y-131626414D02*
X71500000Y-129000000D01*
X49495923Y-139393763D02*
X56093272Y-139393763D01*
X56995923Y-105296414D02*
X50398574Y-105296414D01*
X65995923Y-167126414D02*
X69373586Y-167126414D01*
X65995923Y-131626414D02*
X68873586Y-131626414D01*
X65703586Y-105296414D02*
X71500000Y-99500000D01*
D31*
X71500000Y-129000000D02*
X71500000Y-137500000D01*
D29*
X38315000Y-75173779D02*
X41666686Y-75173779D01*
X38315000Y-145745208D02*
X41666686Y-145745208D01*
X41666686Y-181030922D02*
X47803845Y-174893763D01*
%TO.N,Net-(D3-K)*%
D30*
X56000000Y-86450000D02*
X58400000Y-86450000D01*
X61500000Y-90000000D02*
X61500000Y-89550000D01*
X55920000Y-81000000D02*
X55920000Y-86370000D01*
X55920000Y-86370000D02*
X56000000Y-86450000D01*
X57000000Y-94500000D02*
X61500000Y-90000000D01*
X58400000Y-86450000D02*
X61500000Y-89550000D01*
%TO.N,Net-(J8-PadT)*%
X44391436Y-96730922D02*
X51572358Y-89550000D01*
X51572358Y-89550000D02*
X56000000Y-89550000D01*
%TO.N,Net-(D4-A)*%
X66000000Y-88040000D02*
X57000000Y-97040000D01*
X66000000Y-86420000D02*
X66000000Y-88040000D01*
X57000000Y-97040000D02*
X53960000Y-97040000D01*
X32088779Y-100000000D02*
X27115000Y-104973779D01*
X53960000Y-97040000D02*
X51000000Y-100000000D01*
X51000000Y-100000000D02*
X32088779Y-100000000D01*
%TO.N,Net-(D5-K)*%
X56000000Y-121450000D02*
X58400000Y-121450000D01*
X57000000Y-129500000D02*
X61500000Y-125000000D01*
X55920000Y-121370000D02*
X56000000Y-121450000D01*
X58400000Y-121450000D02*
X61500000Y-124550000D01*
X55920000Y-116000000D02*
X55920000Y-121370000D01*
X61500000Y-125000000D02*
X61500000Y-124550000D01*
%TO.N,Net-(D7-K)*%
X58400000Y-156950000D02*
X61500000Y-160050000D01*
X57000000Y-165000000D02*
X61500000Y-160500000D01*
X61500000Y-160500000D02*
X61500000Y-160050000D01*
X55920000Y-156870000D02*
X56000000Y-156950000D01*
X56000000Y-156950000D02*
X58400000Y-156950000D01*
X55920000Y-151500000D02*
X55920000Y-156870000D01*
%TO.N,Net-(D8-A)*%
X57000000Y-167540000D02*
X53960000Y-167540000D01*
X51000000Y-170500000D02*
X32088779Y-170500000D01*
X66000000Y-158540000D02*
X57000000Y-167540000D01*
X66000000Y-156920000D02*
X66000000Y-158540000D01*
X32088779Y-170500000D02*
X27115000Y-175473779D01*
X53960000Y-167540000D02*
X51000000Y-170500000D01*
%TO.N,Net-(J7-PadT)*%
X44391436Y-61730922D02*
X51572358Y-54550000D01*
X51572358Y-54550000D02*
X56000000Y-54550000D01*
%TO.N,Net-(J10-PadT)*%
X44391436Y-167230922D02*
X51572358Y-160050000D01*
X51572358Y-160050000D02*
X56000000Y-160050000D01*
%TD*%
M02*
