%TF.GenerationSoftware,KiCad,Pcbnew,10.0.3*%
%TF.CreationDate,2026-06-19T20:40:44-04:00*%
%TF.ProjectId,TMi-3,544d692d-332e-46b6-9963-61645f706362,rev?*%
%TF.SameCoordinates,Original*%
%TF.FileFunction,Copper,L2,Bot*%
%TF.FilePolarity,Positive*%
%FSLAX46Y46*%
G04 Gerber Fmt 4.6, Leading zero omitted, Abs format (unit mm)*
G04 Created by KiCad (PCBNEW 10.0.3) date 2026-06-19 20:40:44*
%MOMM*%
%LPD*%
G01*
G04 APERTURE LIST*
G04 Aperture macros list*
%AMRoundRect*
0 Rectangle with rounded corners*
0 $1 Rounding radius*
0 $2 $3 $4 $5 $6 $7 $8 $9 X,Y pos of 4 corners*
0 Add a 4 corners polygon primitive as box body*
4,1,4,$2,$3,$4,$5,$6,$7,$8,$9,$2,$3,0*
0 Add four circle primitives for the rounded corners*
1,1,$1+$1,$2,$3*
1,1,$1+$1,$4,$5*
1,1,$1+$1,$6,$7*
1,1,$1+$1,$8,$9*
0 Add four rect primitives between the rounded corners*
20,1,$1+$1,$2,$3,$4,$5,0*
20,1,$1+$1,$4,$5,$6,$7,0*
20,1,$1+$1,$6,$7,$8,$9,0*
20,1,$1+$1,$8,$9,$2,$3,0*%
G04 Aperture macros list end*
%TA.AperFunction,ComponentPad*%
%ADD10C,3.000000*%
%TD*%
%TA.AperFunction,ComponentPad*%
%ADD11R,2.000000X1.905000*%
%TD*%
%TA.AperFunction,ComponentPad*%
%ADD12O,2.000000X1.905000*%
%TD*%
%TA.AperFunction,ComponentPad*%
%ADD13RoundRect,0.250000X-0.550000X0.550000X-0.550000X-0.550000X0.550000X-0.550000X0.550000X0.550000X0*%
%TD*%
%TA.AperFunction,ComponentPad*%
%ADD14C,1.600000*%
%TD*%
%TA.AperFunction,ComponentPad*%
%ADD15C,4.740000*%
%TD*%
%TA.AperFunction,ComponentPad*%
%ADD16C,2.000000*%
%TD*%
%TA.AperFunction,ComponentPad*%
%ADD17RoundRect,0.250000X-0.750000X0.750000X-0.750000X-0.750000X0.750000X-0.750000X0.750000X0.750000X0*%
%TD*%
%TA.AperFunction,ComponentPad*%
%ADD18RoundRect,0.249999X0.850001X-0.850001X0.850001X0.850001X-0.850001X0.850001X-0.850001X-0.850001X0*%
%TD*%
%TA.AperFunction,ComponentPad*%
%ADD19C,2.200000*%
%TD*%
%TA.AperFunction,ComponentPad*%
%ADD20C,2.600000*%
%TD*%
%TA.AperFunction,ConnectorPad*%
%ADD21C,3.800000*%
%TD*%
%TA.AperFunction,ComponentPad*%
%ADD22RoundRect,0.249999X-0.850001X-0.850001X0.850001X-0.850001X0.850001X0.850001X-0.850001X0.850001X0*%
%TD*%
%TA.AperFunction,ComponentPad*%
%ADD23RoundRect,0.250000X0.800000X-0.800000X0.800000X0.800000X-0.800000X0.800000X-0.800000X-0.800000X0*%
%TD*%
%TA.AperFunction,ComponentPad*%
%ADD24C,2.100000*%
%TD*%
%TA.AperFunction,ViaPad*%
%ADD25C,0.600000*%
%TD*%
G04 APERTURE END LIST*
D10*
%TO.P,J9,S*%
%TO.N,GND*%
X31691436Y-132302351D03*
%TO.P,J9,SN*%
%TO.N,unconnected-(J9-PadSN)*%
X31691436Y-116072351D03*
%TO.P,J9,T*%
%TO.N,Net-(J9-PadT)*%
X44391436Y-132302351D03*
%TO.P,J9,TN*%
%TO.N,unconnected-(J9-PadTN)*%
X44391436Y-116072351D03*
%TD*%
D11*
%TO.P,Q1,1,G_1*%
%TO.N,Net-(D1-K)*%
X57000000Y-59500000D03*
D12*
%TO.P,Q1,2,D_2*%
%TO.N,Net-(D2-A)*%
X57000000Y-62040000D03*
%TO.P,Q1,3,S_3*%
%TO.N,GND*%
X57000000Y-64580000D03*
%TD*%
D13*
%TO.P,C6,1*%
%TO.N,+5V*%
X49495923Y-139393763D03*
D14*
%TO.P,C6,2*%
%TO.N,GND*%
X49495923Y-142893763D03*
%TD*%
D15*
%TO.P,J4,1,1_1*%
%TO.N,Net-(D6-A)*%
X27115000Y-140545208D03*
%TO.P,J4,2,2_2*%
%TO.N,unconnected-(J4-Pad2)*%
X40815000Y-140545208D03*
%TO.P,J4,3,3_3*%
%TO.N,+5V*%
X38315000Y-145745208D03*
%TD*%
D16*
%TO.P,C9,1*%
%TO.N,+5V*%
X62500000Y-33632323D03*
D17*
%TO.P,C9,2*%
%TO.N,GND*%
X62500000Y-38632323D03*
%TD*%
D18*
%TO.P,D6,1,K_1*%
%TO.N,+5V*%
X65995923Y-131626414D03*
D19*
%TO.P,D6,2,A_2*%
%TO.N,Net-(D6-A)*%
X65995923Y-121466414D03*
%TD*%
D13*
%TO.P,C8,1*%
%TO.N,+5V*%
X49495923Y-174893763D03*
D14*
%TO.P,C8,2*%
%TO.N,GND*%
X49495923Y-178393763D03*
%TD*%
D20*
%TO.P,H1,1,1_1*%
%TO.N,unconnected-(H1-Pad1)_2*%
X33000000Y-38000000D03*
D21*
%TO.N,unconnected-(H1-Pad1)_1*%
X33000000Y-38000000D03*
%TD*%
D10*
%TO.P,J8,S*%
%TO.N,GND*%
X31691436Y-97088065D03*
%TO.P,J8,SN*%
%TO.N,unconnected-(J8-PadSN)*%
X31691436Y-80858065D03*
%TO.P,J8,T*%
%TO.N,Net-(J8-PadT)*%
X44391436Y-97088065D03*
%TO.P,J8,TN*%
%TO.N,unconnected-(J8-PadTN)*%
X44391436Y-80858065D03*
%TD*%
D11*
%TO.P,Q2,1,G_1*%
%TO.N,Net-(D3-K)*%
X57000000Y-94500000D03*
D12*
%TO.P,Q2,2,D_2*%
%TO.N,Net-(D4-A)*%
X57000000Y-97040000D03*
%TO.P,Q2,3,S_3*%
%TO.N,GND*%
X57000000Y-99580000D03*
%TD*%
D11*
%TO.P,Q4,1,G_1*%
%TO.N,Net-(D7-K)*%
X57000000Y-165000000D03*
D12*
%TO.P,Q4,2,D_2*%
%TO.N,Net-(D8-A)*%
X57000000Y-167540000D03*
%TO.P,Q4,3,S_3*%
%TO.N,GND*%
X57000000Y-170080000D03*
%TD*%
D22*
%TO.P,D1,1,K_1*%
%TO.N,Net-(D1-K)*%
X55920000Y-46000000D03*
D19*
%TO.P,D1,2,A_2*%
%TO.N,GND*%
X66080000Y-46000000D03*
%TD*%
D22*
%TO.P,D3,1,K_1*%
%TO.N,Net-(D3-K)*%
X55915923Y-81046414D03*
D19*
%TO.P,D3,2,A_2*%
%TO.N,GND*%
X66075923Y-81046414D03*
%TD*%
D13*
%TO.P,C2,1*%
%TO.N,+5V*%
X49500000Y-69347349D03*
D14*
%TO.P,C2,2*%
%TO.N,GND*%
X49500000Y-72847349D03*
%TD*%
D23*
%TO.P,J3,1,Pin_1_1*%
%TO.N,GND*%
X48867500Y-38500000D03*
D24*
%TO.P,J3,2,Pin_2_2*%
%TO.N,+5V*%
X48867500Y-33500000D03*
%TD*%
D11*
%TO.P,Q3,1,G_1*%
%TO.N,Net-(D5-K)*%
X57000000Y-129500000D03*
D12*
%TO.P,Q3,2,D_2*%
%TO.N,Net-(D6-A)*%
X57000000Y-132040000D03*
%TO.P,Q3,3,S_3*%
%TO.N,GND*%
X57000000Y-134580000D03*
%TD*%
D22*
%TO.P,D7,1,K_1*%
%TO.N,Net-(D7-K)*%
X55915923Y-151546414D03*
D19*
%TO.P,D7,2,A_2*%
%TO.N,GND*%
X66075923Y-151546414D03*
%TD*%
D15*
%TO.P,J2,1,1_1*%
%TO.N,Net-(D4-A)*%
X27115000Y-105259493D03*
%TO.P,J2,2,2_2*%
%TO.N,unconnected-(J2-Pad2)*%
X40815000Y-105259493D03*
%TO.P,J2,3,3_3*%
%TO.N,+5V*%
X38315000Y-110459493D03*
%TD*%
D18*
%TO.P,D4,1,K_1*%
%TO.N,+5V*%
X65995923Y-96626414D03*
D19*
%TO.P,D4,2,A_2*%
%TO.N,Net-(D4-A)*%
X65995923Y-86466414D03*
%TD*%
D10*
%TO.P,J10,S*%
%TO.N,GND*%
X31691436Y-167516636D03*
%TO.P,J10,SN*%
%TO.N,unconnected-(J10-PadSN)*%
X31691436Y-151286636D03*
%TO.P,J10,T*%
%TO.N,Net-(J10-PadT)*%
X44391436Y-167516636D03*
%TO.P,J10,TN*%
%TO.N,unconnected-(J10-PadTN)*%
X44391436Y-151286636D03*
%TD*%
D15*
%TO.P,J5,1,1_1*%
%TO.N,Net-(D8-A)*%
X27115000Y-175830922D03*
%TO.P,J5,2,2_2*%
%TO.N,unconnected-(J5-Pad2)*%
X40815000Y-175830922D03*
%TO.P,J5,3,3_3*%
%TO.N,+5V*%
X38315000Y-181030922D03*
%TD*%
%TO.P,J1,1,1_1*%
%TO.N,Net-(D2-A)*%
X27115000Y-69973779D03*
%TO.P,J1,2,2_2*%
%TO.N,unconnected-(J1-Pad2)*%
X40815000Y-69973779D03*
%TO.P,J1,3,3_3*%
%TO.N,+5V*%
X38315000Y-75173779D03*
%TD*%
D10*
%TO.P,J7,S*%
%TO.N,GND*%
X31691436Y-61730922D03*
%TO.P,J7,SN*%
%TO.N,unconnected-(J7-PadSN)*%
X31691436Y-45500922D03*
%TO.P,J7,T*%
%TO.N,Net-(J7-PadT)*%
X44391436Y-61730922D03*
%TO.P,J7,TN*%
%TO.N,unconnected-(J7-PadTN)*%
X44391436Y-45500922D03*
%TD*%
D20*
%TO.P,H2,1,1_1*%
%TO.N,unconnected-(H2-Pad1)_2*%
X70000000Y-180000000D03*
D21*
%TO.N,unconnected-(H2-Pad1)_1*%
X70000000Y-180000000D03*
%TD*%
D18*
%TO.P,D2,1,K_1*%
%TO.N,+5V*%
X66000000Y-61580000D03*
D19*
%TO.P,D2,2,A_2*%
%TO.N,Net-(D2-A)*%
X66000000Y-51420000D03*
%TD*%
D13*
%TO.P,C4,1*%
%TO.N,+5V*%
X49495923Y-104393763D03*
D14*
%TO.P,C4,2*%
%TO.N,GND*%
X49495923Y-107893763D03*
%TD*%
D18*
%TO.P,D8,1,K_1*%
%TO.N,+5V*%
X65995923Y-167126414D03*
D19*
%TO.P,D8,2,A_2*%
%TO.N,Net-(D8-A)*%
X65995923Y-156966414D03*
%TD*%
D22*
%TO.P,D5,1,K_1*%
%TO.N,Net-(D5-K)*%
X55915923Y-116046414D03*
D19*
%TO.P,D5,2,A_2*%
%TO.N,GND*%
X66075923Y-116046414D03*
%TD*%
D25*
%TO.N,GND*%
X56500000Y-144500000D03*
X57000000Y-75000000D03*
X56000000Y-180000000D03*
X56500000Y-110000000D03*
%TD*%
%TA.AperFunction,Conductor*%
%TO.N,GND*%
G36*
X73138868Y-29519454D02*
G01*
X73219650Y-29573430D01*
X73323909Y-29677689D01*
X73347168Y-29704532D01*
X73449836Y-29841680D01*
X73491765Y-29929315D01*
X73499500Y-29990896D01*
X73499500Y-183334102D01*
X73480546Y-183429390D01*
X73449834Y-183483323D01*
X73347173Y-183620461D01*
X73323909Y-183647310D01*
X73147310Y-183823909D01*
X73120462Y-183847173D01*
X72983321Y-183949835D01*
X72895684Y-183991765D01*
X72834103Y-183999500D01*
X40706636Y-183999500D01*
X40611348Y-183980546D01*
X40530566Y-183926570D01*
X40476590Y-183845788D01*
X40457636Y-183750500D01*
X40476590Y-183655212D01*
X40530566Y-183574430D01*
X40548673Y-183558020D01*
X40581206Y-183531321D01*
X40581215Y-183531313D01*
X40581219Y-183531310D01*
X40815388Y-183297141D01*
X41025476Y-183041148D01*
X41209461Y-182765795D01*
X41365571Y-182473734D01*
X41492302Y-182167779D01*
X41588434Y-181850874D01*
X41653040Y-181526074D01*
X41685500Y-181196504D01*
X41685500Y-180865340D01*
X41653040Y-180535770D01*
X41588434Y-180210970D01*
X41573849Y-180162889D01*
X41492306Y-179894078D01*
X41492305Y-179894077D01*
X41492302Y-179894065D01*
X41468705Y-179837098D01*
X67099500Y-179837098D01*
X67099500Y-180162901D01*
X67135975Y-180486610D01*
X67135977Y-180486627D01*
X67208462Y-180804207D01*
X67208468Y-180804228D01*
X67316062Y-181111716D01*
X67356892Y-181196501D01*
X67457415Y-181405237D01*
X67457419Y-181405243D01*
X67457421Y-181405247D01*
X67533341Y-181526074D01*
X67630739Y-181681081D01*
X67833857Y-181935783D01*
X68064217Y-182166143D01*
X68318919Y-182369261D01*
X68594763Y-182542585D01*
X68888278Y-182683935D01*
X68888281Y-182683936D01*
X68888283Y-182683937D01*
X69028136Y-182732873D01*
X69195773Y-182791532D01*
X69195780Y-182791533D01*
X69195792Y-182791537D01*
X69513372Y-182864022D01*
X69513376Y-182864022D01*
X69513383Y-182864024D01*
X69705218Y-182885639D01*
X69837098Y-182900499D01*
X69837111Y-182900500D01*
X70162889Y-182900500D01*
X70162901Y-182900499D01*
X70262809Y-182889241D01*
X70486617Y-182864024D01*
X70486624Y-182864022D01*
X70486627Y-182864022D01*
X70804207Y-182791537D01*
X70804214Y-182791534D01*
X70804227Y-182791532D01*
X71111722Y-182683935D01*
X71405237Y-182542585D01*
X71681081Y-182369261D01*
X71935783Y-182166143D01*
X72166143Y-181935783D01*
X72369261Y-181681081D01*
X72542585Y-181405237D01*
X72683935Y-181111722D01*
X72791532Y-180804227D01*
X72852806Y-180535770D01*
X72864022Y-180486627D01*
X72864022Y-180486624D01*
X72864024Y-180486617D01*
X72889241Y-180262809D01*
X72900499Y-180162901D01*
X72900500Y-180162888D01*
X72900500Y-179837111D01*
X72900499Y-179837098D01*
X72880742Y-179661754D01*
X72864024Y-179513383D01*
X72864022Y-179513376D01*
X72864022Y-179513372D01*
X72791537Y-179195792D01*
X72791531Y-179195771D01*
X72788522Y-179187173D01*
X72683935Y-178888278D01*
X72542585Y-178594763D01*
X72369261Y-178318919D01*
X72166143Y-178064217D01*
X71935783Y-177833857D01*
X71681081Y-177630739D01*
X71681080Y-177630738D01*
X71405247Y-177457421D01*
X71405243Y-177457419D01*
X71405237Y-177457415D01*
X71405227Y-177457410D01*
X71405223Y-177457408D01*
X71111716Y-177316062D01*
X70804228Y-177208468D01*
X70804207Y-177208462D01*
X70486627Y-177135977D01*
X70486610Y-177135975D01*
X70162901Y-177099500D01*
X70162889Y-177099500D01*
X69837111Y-177099500D01*
X69837098Y-177099500D01*
X69513389Y-177135975D01*
X69513372Y-177135977D01*
X69195792Y-177208462D01*
X69195771Y-177208468D01*
X68888283Y-177316062D01*
X68594776Y-177457408D01*
X68594752Y-177457421D01*
X68318919Y-177630738D01*
X68318912Y-177630744D01*
X68064220Y-177833854D01*
X68064212Y-177833861D01*
X67833861Y-178064212D01*
X67833854Y-178064220D01*
X67630744Y-178318912D01*
X67630738Y-178318919D01*
X67457421Y-178594752D01*
X67457408Y-178594776D01*
X67316062Y-178888283D01*
X67208468Y-179195771D01*
X67208462Y-179195792D01*
X67135977Y-179513372D01*
X67135975Y-179513389D01*
X67099500Y-179837098D01*
X41468705Y-179837098D01*
X41409333Y-179693761D01*
X41380826Y-179624938D01*
X41380824Y-179624934D01*
X41370022Y-179598856D01*
X48997934Y-179598856D01*
X49191511Y-179661754D01*
X49393599Y-179693761D01*
X49393615Y-179693763D01*
X49598231Y-179693763D01*
X49598246Y-179693761D01*
X49800335Y-179661754D01*
X49800337Y-179661753D01*
X49993910Y-179598857D01*
X49495922Y-179100869D01*
X48997934Y-179598856D01*
X41370022Y-179598856D01*
X41365571Y-179588110D01*
X41314455Y-179492479D01*
X41312983Y-179489541D01*
X41300970Y-179445823D01*
X41287799Y-179402402D01*
X41288126Y-179399077D01*
X41287242Y-179395858D01*
X41292875Y-179350858D01*
X41297322Y-179305715D01*
X41298896Y-179302770D01*
X41299311Y-179299456D01*
X41321742Y-179260027D01*
X41343120Y-179220032D01*
X41345701Y-179217913D01*
X41347353Y-179215010D01*
X41383157Y-179187173D01*
X41418221Y-179158397D01*
X41421833Y-179157104D01*
X41424054Y-179155378D01*
X41435278Y-179152293D01*
X41487017Y-179133781D01*
X41634952Y-179104356D01*
X41951857Y-179008224D01*
X42233047Y-178891751D01*
X42257810Y-178881494D01*
X42257812Y-178881493D01*
X42549873Y-178725383D01*
X42825226Y-178541398D01*
X43081219Y-178331310D01*
X43121074Y-178291455D01*
X48195923Y-178291455D01*
X48195923Y-178496070D01*
X48195924Y-178496086D01*
X48227932Y-178698177D01*
X48290827Y-178891751D01*
X48788816Y-178393763D01*
X48736155Y-178341102D01*
X49095923Y-178341102D01*
X49095923Y-178446424D01*
X49123182Y-178548157D01*
X49175843Y-178639369D01*
X49250317Y-178713843D01*
X49341529Y-178766504D01*
X49443262Y-178793763D01*
X49548584Y-178793763D01*
X49650317Y-178766504D01*
X49741529Y-178713843D01*
X49816003Y-178639369D01*
X49868664Y-178548157D01*
X49895923Y-178446424D01*
X49895923Y-178393762D01*
X50203029Y-178393762D01*
X50701017Y-178891750D01*
X50763913Y-178698177D01*
X50763914Y-178698175D01*
X50795921Y-178496086D01*
X50795923Y-178496070D01*
X50795923Y-178291455D01*
X50795921Y-178291439D01*
X50763914Y-178089351D01*
X50701016Y-177895774D01*
X50203029Y-178393762D01*
X49895923Y-178393762D01*
X49895923Y-178341102D01*
X49868664Y-178239369D01*
X49816003Y-178148157D01*
X49741529Y-178073683D01*
X49650317Y-178021022D01*
X49548584Y-177993763D01*
X49443262Y-177993763D01*
X49341529Y-178021022D01*
X49250317Y-178073683D01*
X49175843Y-178148157D01*
X49123182Y-178239369D01*
X49095923Y-178341102D01*
X48736155Y-178341102D01*
X48290827Y-177895774D01*
X48227935Y-178089339D01*
X48227930Y-178089358D01*
X48195924Y-178291439D01*
X48195923Y-178291455D01*
X43121074Y-178291455D01*
X43315388Y-178097141D01*
X43525476Y-177841148D01*
X43709461Y-177565795D01*
X43865571Y-177273734D01*
X43992302Y-176967779D01*
X44088434Y-176650874D01*
X44153040Y-176326074D01*
X44185500Y-175996504D01*
X44185500Y-175665340D01*
X44153040Y-175335770D01*
X44088434Y-175010970D01*
X43992302Y-174694065D01*
X43923929Y-174528998D01*
X43865572Y-174388111D01*
X43865569Y-174388106D01*
X43807536Y-174279534D01*
X47695423Y-174279534D01*
X47695423Y-175507971D01*
X47695424Y-175507979D01*
X47705827Y-175640175D01*
X47760827Y-175858446D01*
X47853916Y-176063389D01*
X47853918Y-176063392D01*
X47853919Y-176063394D01*
X47982100Y-176248412D01*
X47982101Y-176248413D01*
X47982104Y-176248417D01*
X48141269Y-176407582D01*
X48326297Y-176535770D01*
X48531240Y-176628859D01*
X48749511Y-176683859D01*
X48749514Y-176683859D01*
X48749517Y-176683860D01*
X48820932Y-176689480D01*
X48881706Y-176694263D01*
X48947432Y-176694262D01*
X49042717Y-176713215D01*
X49123499Y-176767190D01*
X49177477Y-176847971D01*
X49196432Y-176943258D01*
X49177479Y-177038547D01*
X49123504Y-177119329D01*
X49042723Y-177173307D01*
X49024378Y-177180075D01*
X48997934Y-177188667D01*
X49495923Y-177686656D01*
X49993911Y-177188667D01*
X49967465Y-177180075D01*
X49882698Y-177132603D01*
X49822550Y-177056306D01*
X49796178Y-176962799D01*
X49807597Y-176866317D01*
X49855069Y-176781550D01*
X49931366Y-176721402D01*
X50024873Y-176695030D01*
X50044408Y-176694262D01*
X50110139Y-176694262D01*
X50242335Y-176683859D01*
X50460606Y-176628859D01*
X50665549Y-176535770D01*
X50850577Y-176407582D01*
X51009742Y-176248417D01*
X51137930Y-176063389D01*
X51231019Y-175858446D01*
X51286019Y-175640175D01*
X51296423Y-175507980D01*
X51296422Y-174279547D01*
X51286019Y-174147351D01*
X51231019Y-173929080D01*
X51137930Y-173724137D01*
X51137926Y-173724131D01*
X51009745Y-173539113D01*
X51009744Y-173539112D01*
X51009742Y-173539109D01*
X50850577Y-173379944D01*
X50850573Y-173379941D01*
X50850572Y-173379940D01*
X50665554Y-173251759D01*
X50665552Y-173251758D01*
X50665549Y-173251756D01*
X50528699Y-173189596D01*
X50460609Y-173158668D01*
X50460607Y-173158667D01*
X50460606Y-173158667D01*
X50242335Y-173103667D01*
X50242334Y-173103666D01*
X50242331Y-173103666D01*
X50242328Y-173103665D01*
X50110145Y-173093263D01*
X48881714Y-173093263D01*
X48749510Y-173103667D01*
X48531236Y-173158668D01*
X48377864Y-173228333D01*
X48326297Y-173251756D01*
X48326295Y-173251756D01*
X48326291Y-173251759D01*
X48141273Y-173379940D01*
X47982100Y-173539113D01*
X47853919Y-173724131D01*
X47760828Y-173929076D01*
X47705826Y-174147354D01*
X47705825Y-174147357D01*
X47695423Y-174279534D01*
X43807536Y-174279534D01*
X43709465Y-174096055D01*
X43709459Y-174096046D01*
X43525477Y-173820698D01*
X43525476Y-173820696D01*
X43315388Y-173564703D01*
X43081219Y-173330534D01*
X42825226Y-173120446D01*
X42779502Y-173089894D01*
X42549875Y-172936462D01*
X42549866Y-172936456D01*
X42257813Y-172780351D01*
X42257810Y-172780349D01*
X41951864Y-172653623D01*
X41951857Y-172653620D01*
X41951852Y-172653618D01*
X41951843Y-172653615D01*
X41634961Y-172557490D01*
X41634954Y-172557488D01*
X41634952Y-172557488D01*
X41310152Y-172492882D01*
X41310150Y-172492881D01*
X41310146Y-172492881D01*
X40980582Y-172460422D01*
X40649418Y-172460422D01*
X40649417Y-172460422D01*
X40319853Y-172492881D01*
X39995038Y-172557490D01*
X39678156Y-172653615D01*
X39678135Y-172653623D01*
X39372189Y-172780349D01*
X39372186Y-172780351D01*
X39080133Y-172936456D01*
X39080124Y-172936462D01*
X38804776Y-173120444D01*
X38548784Y-173330531D01*
X38314609Y-173564706D01*
X38104522Y-173820698D01*
X37920540Y-174096046D01*
X37920534Y-174096055D01*
X37764429Y-174388108D01*
X37764427Y-174388111D01*
X37637701Y-174694057D01*
X37637693Y-174694078D01*
X37541568Y-175010960D01*
X37476959Y-175335775D01*
X37444500Y-175665339D01*
X37444500Y-175665340D01*
X37444500Y-175996504D01*
X37476960Y-176326074D01*
X37493173Y-176407585D01*
X37541568Y-176650883D01*
X37637693Y-176967765D01*
X37637701Y-176967786D01*
X37764427Y-177273732D01*
X37764429Y-177273735D01*
X37813997Y-177366470D01*
X37842200Y-177459442D01*
X37832677Y-177556129D01*
X37786879Y-177641812D01*
X37711777Y-177703446D01*
X37642978Y-177728063D01*
X37495048Y-177757488D01*
X37495038Y-177757490D01*
X37178156Y-177853615D01*
X37178135Y-177853623D01*
X36872189Y-177980349D01*
X36872186Y-177980351D01*
X36580133Y-178136456D01*
X36580124Y-178136462D01*
X36304776Y-178320444D01*
X36048784Y-178530531D01*
X35814609Y-178764706D01*
X35604522Y-179020698D01*
X35420540Y-179296046D01*
X35420534Y-179296055D01*
X35264429Y-179588108D01*
X35264427Y-179588111D01*
X35137701Y-179894057D01*
X35137693Y-179894078D01*
X35041568Y-180210960D01*
X34976959Y-180535775D01*
X34944500Y-180865339D01*
X34944500Y-181196504D01*
X34965059Y-181405247D01*
X34976960Y-181526074D01*
X35007792Y-181681081D01*
X35041568Y-181850883D01*
X35137693Y-182167765D01*
X35137701Y-182167786D01*
X35264427Y-182473732D01*
X35264429Y-182473735D01*
X35420534Y-182765788D01*
X35420540Y-182765797D01*
X35510545Y-182900499D01*
X35604524Y-183041148D01*
X35814612Y-183297141D01*
X36048781Y-183531310D01*
X36048785Y-183531313D01*
X36048793Y-183531321D01*
X36081327Y-183558020D01*
X36142962Y-183633121D01*
X36171165Y-183726092D01*
X36161643Y-183822780D01*
X36115844Y-183908463D01*
X36040743Y-183970098D01*
X35947772Y-183998301D01*
X35923364Y-183999500D01*
X24990897Y-183999500D01*
X24960383Y-183993430D01*
X24929317Y-183991765D01*
X24913168Y-183984038D01*
X24895609Y-183980546D01*
X24841676Y-183949834D01*
X24704538Y-183847173D01*
X24677689Y-183823909D01*
X24573430Y-183719650D01*
X24519454Y-183638868D01*
X24500500Y-183543580D01*
X24500500Y-178571949D01*
X24519454Y-178476661D01*
X24573430Y-178395879D01*
X24654212Y-178341903D01*
X24749500Y-178322949D01*
X24844788Y-178341903D01*
X24907459Y-178379466D01*
X25104774Y-178541398D01*
X25184660Y-178594776D01*
X25380124Y-178725381D01*
X25380133Y-178725387D01*
X25672186Y-178881492D01*
X25672189Y-178881494D01*
X25813076Y-178939851D01*
X25978143Y-179008224D01*
X26295048Y-179104356D01*
X26619848Y-179168962D01*
X26949418Y-179201422D01*
X26949421Y-179201422D01*
X27280579Y-179201422D01*
X27280582Y-179201422D01*
X27610152Y-179168962D01*
X27934952Y-179104356D01*
X28251857Y-179008224D01*
X28533047Y-178891751D01*
X28557810Y-178881494D01*
X28557812Y-178881493D01*
X28849873Y-178725383D01*
X29125226Y-178541398D01*
X29381219Y-178331310D01*
X29615388Y-178097141D01*
X29825476Y-177841148D01*
X30009461Y-177565795D01*
X30165571Y-177273734D01*
X30292302Y-176967779D01*
X30388434Y-176650874D01*
X30453040Y-176326074D01*
X30485500Y-175996504D01*
X30485500Y-175665340D01*
X30453040Y-175335770D01*
X30388434Y-175010970D01*
X30292302Y-174694065D01*
X30223929Y-174528998D01*
X30165572Y-174388111D01*
X30165570Y-174388108D01*
X30009465Y-174096055D01*
X30009459Y-174096046D01*
X29825477Y-173820698D01*
X29825476Y-173820696D01*
X29615388Y-173564703D01*
X29381219Y-173330534D01*
X29125226Y-173120446D01*
X29079502Y-173089894D01*
X28849875Y-172936462D01*
X28849866Y-172936456D01*
X28557813Y-172780351D01*
X28557810Y-172780349D01*
X28251864Y-172653623D01*
X28251857Y-172653620D01*
X28251852Y-172653618D01*
X28251843Y-172653615D01*
X27934961Y-172557490D01*
X27934954Y-172557488D01*
X27934952Y-172557488D01*
X27610152Y-172492882D01*
X27610150Y-172492881D01*
X27610146Y-172492881D01*
X27280582Y-172460422D01*
X26949418Y-172460422D01*
X26949417Y-172460422D01*
X26619853Y-172492881D01*
X26295038Y-172557490D01*
X25978156Y-172653615D01*
X25978135Y-172653623D01*
X25672189Y-172780349D01*
X25672186Y-172780351D01*
X25380133Y-172936456D01*
X25380124Y-172936462D01*
X25104776Y-173120444D01*
X25104765Y-173120452D01*
X24907463Y-173282374D01*
X24821780Y-173328172D01*
X24725093Y-173337695D01*
X24632122Y-173309492D01*
X24557020Y-173247857D01*
X24511222Y-173162174D01*
X24500500Y-173089894D01*
X24500500Y-170580000D01*
X55587713Y-170580000D01*
X55606416Y-170637566D01*
X55710213Y-170841280D01*
X55844592Y-171026236D01*
X56006263Y-171187907D01*
X56191220Y-171322286D01*
X56191219Y-171322286D01*
X56394936Y-171426084D01*
X56394941Y-171426086D01*
X56499999Y-171460222D01*
X56500000Y-171460222D01*
X56500000Y-170580001D01*
X56499999Y-170580000D01*
X55587713Y-170580000D01*
X24500500Y-170580000D01*
X24500500Y-169239556D01*
X30675622Y-169239556D01*
X30804952Y-169314225D01*
X31047182Y-169414561D01*
X31300423Y-169482415D01*
X31300421Y-169482415D01*
X31560348Y-169516636D01*
X31822524Y-169516636D01*
X32082449Y-169482415D01*
X32335692Y-169414560D01*
X32577911Y-169314229D01*
X32707248Y-169239556D01*
X31691435Y-168223743D01*
X30675622Y-169239556D01*
X24500500Y-169239556D01*
X24500500Y-167385548D01*
X29691436Y-167385548D01*
X29691436Y-167647723D01*
X29725656Y-167907649D01*
X29793511Y-168160892D01*
X29893838Y-168403103D01*
X29893840Y-168403107D01*
X29968514Y-168532447D01*
X30984327Y-167516635D01*
X30915384Y-167447692D01*
X30991436Y-167447692D01*
X30991436Y-167585580D01*
X31018337Y-167720818D01*
X31071104Y-167848210D01*
X31147710Y-167962860D01*
X31245212Y-168060362D01*
X31359862Y-168136968D01*
X31487254Y-168189735D01*
X31622492Y-168216636D01*
X31760380Y-168216636D01*
X31895618Y-168189735D01*
X32023010Y-168136968D01*
X32137660Y-168060362D01*
X32235162Y-167962860D01*
X32311768Y-167848210D01*
X32364535Y-167720818D01*
X32391436Y-167585580D01*
X32391436Y-167516635D01*
X32398543Y-167516635D01*
X33414356Y-168532448D01*
X33489029Y-168403111D01*
X33589360Y-168160892D01*
X33657215Y-167907649D01*
X33691436Y-167647723D01*
X33691436Y-167385548D01*
X33690205Y-167376198D01*
X41890936Y-167376198D01*
X41890936Y-167657073D01*
X41922381Y-167936146D01*
X41984876Y-168209954D01*
X42077631Y-168475035D01*
X42077637Y-168475049D01*
X42199492Y-168728083D01*
X42199495Y-168728089D01*
X42348912Y-168965883D01*
X42348913Y-168965884D01*
X42524020Y-169185461D01*
X42722611Y-169384052D01*
X42888866Y-169516636D01*
X42942188Y-169559159D01*
X43179982Y-169708576D01*
X43179987Y-169708578D01*
X43179991Y-169708581D01*
X43433028Y-169830437D01*
X43433033Y-169830438D01*
X43433036Y-169830440D01*
X43477341Y-169845942D01*
X43698118Y-169923196D01*
X43971927Y-169985691D01*
X44146353Y-170005344D01*
X44250998Y-170017135D01*
X44251011Y-170017136D01*
X44531861Y-170017136D01*
X44531873Y-170017135D01*
X44616576Y-170007591D01*
X44810945Y-169985691D01*
X45084754Y-169923196D01*
X45349844Y-169830437D01*
X45602881Y-169708581D01*
X45840684Y-169559159D01*
X46060261Y-169384052D01*
X46258852Y-169185461D01*
X46433959Y-168965884D01*
X46583381Y-168728081D01*
X46705237Y-168475044D01*
X46797996Y-168209954D01*
X46860491Y-167936145D01*
X46891936Y-167657061D01*
X46891936Y-167376211D01*
X46884752Y-167312454D01*
X46880144Y-167271553D01*
X46860491Y-167097127D01*
X46797996Y-166823318D01*
X46705237Y-166558228D01*
X46583381Y-166305191D01*
X46583378Y-166305187D01*
X46583376Y-166305182D01*
X46433959Y-166067388D01*
X46258852Y-165847811D01*
X46060261Y-165649220D01*
X45840684Y-165474113D01*
X45840685Y-165474113D01*
X45840683Y-165474112D01*
X45602889Y-165324695D01*
X45602883Y-165324692D01*
X45349849Y-165202837D01*
X45349835Y-165202831D01*
X45162006Y-165137107D01*
X45084754Y-165110076D01*
X45084756Y-165110076D01*
X44810946Y-165047581D01*
X44531873Y-165016136D01*
X44531861Y-165016136D01*
X44251011Y-165016136D01*
X44250998Y-165016136D01*
X43971925Y-165047581D01*
X43698117Y-165110076D01*
X43433036Y-165202831D01*
X43433022Y-165202837D01*
X43179988Y-165324692D01*
X43179982Y-165324695D01*
X42942188Y-165474112D01*
X42722614Y-165649217D01*
X42722606Y-165649224D01*
X42524024Y-165847806D01*
X42524017Y-165847814D01*
X42348912Y-166067388D01*
X42199495Y-166305182D01*
X42199492Y-166305188D01*
X42077637Y-166558222D01*
X42077631Y-166558236D01*
X41984876Y-166823317D01*
X41922381Y-167097125D01*
X41890936Y-167376198D01*
X33690205Y-167376198D01*
X33657215Y-167125622D01*
X33589361Y-166872382D01*
X33489025Y-166630152D01*
X33414356Y-166500822D01*
X32398543Y-167516635D01*
X32391436Y-167516635D01*
X32391436Y-167447692D01*
X32364535Y-167312454D01*
X32311768Y-167185062D01*
X32235162Y-167070412D01*
X32137660Y-166972910D01*
X32023010Y-166896304D01*
X31895618Y-166843537D01*
X31760380Y-166816636D01*
X31622492Y-166816636D01*
X31487254Y-166843537D01*
X31359862Y-166896304D01*
X31245212Y-166972910D01*
X31147710Y-167070412D01*
X31071104Y-167185062D01*
X31018337Y-167312454D01*
X30991436Y-167447692D01*
X30915384Y-167447692D01*
X29968514Y-166500822D01*
X29893844Y-166630157D01*
X29893838Y-166630168D01*
X29793511Y-166872379D01*
X29725656Y-167125622D01*
X29691436Y-167385548D01*
X24500500Y-167385548D01*
X24500500Y-165793714D01*
X30675622Y-165793714D01*
X31691435Y-166809527D01*
X32707248Y-165793714D01*
X32577907Y-165719040D01*
X32577903Y-165719038D01*
X32335692Y-165618711D01*
X32082448Y-165550856D01*
X32082450Y-165550856D01*
X31822524Y-165516636D01*
X31560348Y-165516636D01*
X31300422Y-165550856D01*
X31047179Y-165618711D01*
X30804968Y-165719038D01*
X30804957Y-165719044D01*
X30675622Y-165793714D01*
X24500500Y-165793714D01*
X24500500Y-163989463D01*
X54999500Y-163989463D01*
X54999500Y-166010531D01*
X54999501Y-166010543D01*
X55010113Y-166129914D01*
X55066090Y-166325545D01*
X55066093Y-166325553D01*
X55165911Y-166516646D01*
X55193229Y-166609881D01*
X55182787Y-166706473D01*
X55175253Y-166727218D01*
X55099180Y-166910876D01*
X55099176Y-166910888D01*
X55032916Y-167158174D01*
X54999500Y-167411994D01*
X54999500Y-167668005D01*
X55023224Y-167848210D01*
X55032917Y-167921829D01*
X55099178Y-168169118D01*
X55136051Y-168258139D01*
X55197146Y-168405635D01*
X55197148Y-168405639D01*
X55197150Y-168405643D01*
X55270360Y-168532447D01*
X55325153Y-168627352D01*
X55325163Y-168627367D01*
X55443099Y-168781063D01*
X55481007Y-168830465D01*
X55662035Y-169011493D01*
X55662039Y-169011496D01*
X55667799Y-169017256D01*
X55666304Y-169018750D01*
X55717203Y-169085097D01*
X55742339Y-169178944D01*
X55729647Y-169275267D01*
X55713607Y-169309474D01*
X55714653Y-169310007D01*
X55606416Y-169522433D01*
X55587713Y-169580000D01*
X56766026Y-169580000D01*
X56662292Y-169639890D01*
X56559890Y-169742292D01*
X56487482Y-169867708D01*
X56450000Y-170007591D01*
X56450000Y-170152409D01*
X56487482Y-170292292D01*
X56559890Y-170417708D01*
X56662292Y-170520110D01*
X56787708Y-170592518D01*
X56927591Y-170630000D01*
X57072409Y-170630000D01*
X57212292Y-170592518D01*
X57233972Y-170580001D01*
X57500000Y-170580001D01*
X57500000Y-171460222D01*
X57605058Y-171426086D01*
X57605063Y-171426084D01*
X57808780Y-171322286D01*
X57993736Y-171187907D01*
X58155407Y-171026236D01*
X58289786Y-170841280D01*
X58393583Y-170637566D01*
X58412287Y-170580000D01*
X57500001Y-170580000D01*
X57500000Y-170580001D01*
X57233972Y-170580001D01*
X57337708Y-170520110D01*
X57440110Y-170417708D01*
X57512518Y-170292292D01*
X57550000Y-170152409D01*
X57550000Y-170007591D01*
X57512518Y-169867708D01*
X57440110Y-169742292D01*
X57337708Y-169639890D01*
X57233974Y-169580000D01*
X58412287Y-169580000D01*
X58393583Y-169522433D01*
X58285347Y-169310007D01*
X58287735Y-169308790D01*
X58260202Y-169234204D01*
X58263998Y-169137123D01*
X58304655Y-169048885D01*
X58332888Y-169017945D01*
X58332201Y-169017258D01*
X58425596Y-168923862D01*
X58518993Y-168830465D01*
X58674844Y-168627357D01*
X58802850Y-168405643D01*
X58900822Y-168169118D01*
X58967083Y-167921829D01*
X59000500Y-167668006D01*
X59000500Y-167411994D01*
X58967083Y-167158171D01*
X58900822Y-166910882D01*
X58824745Y-166727218D01*
X58815456Y-166680515D01*
X58805800Y-166633911D01*
X58806011Y-166633034D01*
X58805792Y-166631931D01*
X58823996Y-166538475D01*
X58834703Y-166512032D01*
X58839698Y-166505907D01*
X58933909Y-166325549D01*
X58966347Y-166212184D01*
X63895423Y-166212184D01*
X63895423Y-168040643D01*
X63905825Y-168172815D01*
X63905827Y-168172828D01*
X63960826Y-168391098D01*
X64053915Y-168596039D01*
X64053920Y-168596048D01*
X64182099Y-168781063D01*
X64182100Y-168781064D01*
X64182103Y-168781068D01*
X64341269Y-168940234D01*
X64341272Y-168940236D01*
X64341273Y-168940237D01*
X64526288Y-169068416D01*
X64526291Y-169068418D01*
X64526296Y-169068421D01*
X64731239Y-169161511D01*
X64949510Y-169216510D01*
X64949519Y-169216510D01*
X64949521Y-169216511D01*
X65043001Y-169223867D01*
X65081705Y-169226914D01*
X65081706Y-169226914D01*
X66910140Y-169226914D01*
X66910141Y-169226914D01*
X67003632Y-169219556D01*
X67042324Y-169216511D01*
X67042324Y-169216510D01*
X67042336Y-169216510D01*
X67260607Y-169161511D01*
X67465550Y-169068421D01*
X67650577Y-168940234D01*
X67809743Y-168781068D01*
X67937930Y-168596041D01*
X68031020Y-168391098D01*
X68086019Y-168172827D01*
X68086312Y-168169111D01*
X68096422Y-168040643D01*
X68096423Y-168040631D01*
X68096423Y-166212197D01*
X68096422Y-166212184D01*
X68086020Y-166080012D01*
X68086019Y-166080010D01*
X68086019Y-166080001D01*
X68031020Y-165861730D01*
X67937930Y-165656787D01*
X67937927Y-165656782D01*
X67937925Y-165656779D01*
X67809746Y-165471764D01*
X67809745Y-165471763D01*
X67809743Y-165471760D01*
X67650577Y-165312594D01*
X67650573Y-165312591D01*
X67650572Y-165312590D01*
X67465557Y-165184411D01*
X67465548Y-165184406D01*
X67260607Y-165091317D01*
X67042337Y-165036318D01*
X67042324Y-165036316D01*
X66910152Y-165025914D01*
X66910141Y-165025914D01*
X65081705Y-165025914D01*
X65081693Y-165025914D01*
X64949521Y-165036316D01*
X64949508Y-165036318D01*
X64731238Y-165091317D01*
X64526297Y-165184406D01*
X64526288Y-165184411D01*
X64341273Y-165312590D01*
X64182099Y-165471764D01*
X64053920Y-165656779D01*
X64053915Y-165656788D01*
X63960826Y-165861729D01*
X63905827Y-166079999D01*
X63905825Y-166080012D01*
X63895423Y-166212184D01*
X58966347Y-166212184D01*
X58989886Y-166129918D01*
X59000500Y-166010537D01*
X59000499Y-163989464D01*
X58989886Y-163870082D01*
X58933909Y-163674451D01*
X58839698Y-163494093D01*
X58711109Y-163336391D01*
X58553407Y-163207802D01*
X58553402Y-163207799D01*
X58373053Y-163113593D01*
X58373052Y-163113592D01*
X58373049Y-163113591D01*
X58177418Y-163057614D01*
X58058037Y-163047000D01*
X58058035Y-163047000D01*
X55941968Y-163047000D01*
X55941956Y-163047001D01*
X55822585Y-163057613D01*
X55626954Y-163113590D01*
X55626946Y-163113593D01*
X55446597Y-163207799D01*
X55446592Y-163207802D01*
X55288893Y-163336389D01*
X55288889Y-163336393D01*
X55160302Y-163494092D01*
X55160299Y-163494097D01*
X55066093Y-163674446D01*
X55066090Y-163674454D01*
X55010115Y-163870078D01*
X55010114Y-163870082D01*
X54999500Y-163989463D01*
X24500500Y-163989463D01*
X24500500Y-156828740D01*
X63895423Y-156828740D01*
X63895423Y-157104088D01*
X63931363Y-157377080D01*
X64002628Y-157643046D01*
X64108000Y-157897435D01*
X64108002Y-157897439D01*
X64108004Y-157897443D01*
X64245668Y-158135883D01*
X64245674Y-158135893D01*
X64413295Y-158354342D01*
X64607995Y-158549042D01*
X64826444Y-158716663D01*
X64826453Y-158716668D01*
X64826453Y-158716669D01*
X65064893Y-158854332D01*
X65064902Y-158854337D01*
X65319291Y-158959709D01*
X65585257Y-159030974D01*
X65858249Y-159066914D01*
X66133597Y-159066914D01*
X66406589Y-159030974D01*
X66672555Y-158959709D01*
X66926944Y-158854337D01*
X67165402Y-158716663D01*
X67383851Y-158549042D01*
X67578551Y-158354342D01*
X67746172Y-158135893D01*
X67883846Y-157897435D01*
X67989218Y-157643046D01*
X68060483Y-157377080D01*
X68096423Y-157104088D01*
X68096423Y-156828740D01*
X68060483Y-156555748D01*
X67989218Y-156289782D01*
X67883846Y-156035393D01*
X67746172Y-155796935D01*
X67578551Y-155578486D01*
X67383851Y-155383786D01*
X67165402Y-155216165D01*
X67165392Y-155216159D01*
X67165392Y-155216158D01*
X66926952Y-155078495D01*
X66926948Y-155078493D01*
X66926944Y-155078491D01*
X66672555Y-154973119D01*
X66672556Y-154973119D01*
X66672553Y-154973118D01*
X66557383Y-154942259D01*
X66406589Y-154901854D01*
X66406584Y-154901853D01*
X66406585Y-154901853D01*
X66133597Y-154865914D01*
X65858249Y-154865914D01*
X65585261Y-154901853D01*
X65319293Y-154973118D01*
X65319292Y-154973118D01*
X65145573Y-155045075D01*
X65064902Y-155078491D01*
X65064900Y-155078491D01*
X65064893Y-155078495D01*
X64826453Y-155216158D01*
X64826453Y-155216159D01*
X64826448Y-155216162D01*
X64826444Y-155216165D01*
X64662607Y-155341880D01*
X64607992Y-155383788D01*
X64413297Y-155578483D01*
X64413295Y-155578486D01*
X64245674Y-155796935D01*
X64245671Y-155796939D01*
X64245668Y-155796944D01*
X64245667Y-155796944D01*
X64108004Y-156035384D01*
X64002627Y-156289783D01*
X64002627Y-156289784D01*
X63931363Y-156555748D01*
X63895423Y-156828740D01*
X24500500Y-156828740D01*
X24500500Y-151146198D01*
X29190936Y-151146198D01*
X29190936Y-151427073D01*
X29222381Y-151706146D01*
X29284876Y-151979954D01*
X29377631Y-152245035D01*
X29377637Y-152245049D01*
X29499492Y-152498083D01*
X29499495Y-152498089D01*
X29648912Y-152735883D01*
X29648913Y-152735884D01*
X29824020Y-152955461D01*
X30022611Y-153154052D01*
X30022614Y-153154054D01*
X30242188Y-153329159D01*
X30479982Y-153478576D01*
X30479987Y-153478578D01*
X30479991Y-153478581D01*
X30733028Y-153600437D01*
X30733033Y-153600438D01*
X30733036Y-153600440D01*
X30777341Y-153615942D01*
X30998118Y-153693196D01*
X31271927Y-153755691D01*
X31446353Y-153775344D01*
X31550998Y-153787135D01*
X31551011Y-153787136D01*
X31831861Y-153787136D01*
X31831873Y-153787135D01*
X31911147Y-153778202D01*
X32110945Y-153755691D01*
X32384754Y-153693196D01*
X32649844Y-153600437D01*
X32902881Y-153478581D01*
X33140684Y-153329159D01*
X33360261Y-153154052D01*
X33558852Y-152955461D01*
X33733959Y-152735884D01*
X33883381Y-152498081D01*
X34005237Y-152245044D01*
X34097996Y-151979954D01*
X34160491Y-151706145D01*
X34191936Y-151427061D01*
X34191936Y-151146211D01*
X34191935Y-151146198D01*
X41890936Y-151146198D01*
X41890936Y-151427073D01*
X41922381Y-151706146D01*
X41984876Y-151979954D01*
X42077631Y-152245035D01*
X42077637Y-152245049D01*
X42199492Y-152498083D01*
X42199495Y-152498089D01*
X42348912Y-152735883D01*
X42348913Y-152735884D01*
X42524020Y-152955461D01*
X42722611Y-153154052D01*
X42722614Y-153154054D01*
X42942188Y-153329159D01*
X43179982Y-153478576D01*
X43179987Y-153478578D01*
X43179991Y-153478581D01*
X43433028Y-153600437D01*
X43433033Y-153600438D01*
X43433036Y-153600440D01*
X43477341Y-153615942D01*
X43698118Y-153693196D01*
X43971927Y-153755691D01*
X44146353Y-153775344D01*
X44250998Y-153787135D01*
X44251011Y-153787136D01*
X44531861Y-153787136D01*
X44531873Y-153787135D01*
X44611147Y-153778202D01*
X44810945Y-153755691D01*
X45084754Y-153693196D01*
X45349844Y-153600437D01*
X45602881Y-153478581D01*
X45840684Y-153329159D01*
X46060261Y-153154052D01*
X46258852Y-152955461D01*
X46433959Y-152735884D01*
X46583381Y-152498081D01*
X46705237Y-152245044D01*
X46797996Y-151979954D01*
X46860491Y-151706145D01*
X46891936Y-151427061D01*
X46891936Y-151146211D01*
X46860491Y-150867127D01*
X46806867Y-150632184D01*
X53815423Y-150632184D01*
X53815423Y-152460643D01*
X53825825Y-152592815D01*
X53825827Y-152592828D01*
X53880826Y-152811098D01*
X53973915Y-153016039D01*
X53973920Y-153016048D01*
X54102099Y-153201063D01*
X54102100Y-153201064D01*
X54102103Y-153201068D01*
X54261269Y-153360234D01*
X54261272Y-153360236D01*
X54261273Y-153360237D01*
X54446288Y-153488416D01*
X54446291Y-153488418D01*
X54446296Y-153488421D01*
X54651239Y-153581511D01*
X54869510Y-153636510D01*
X54869519Y-153636510D01*
X54869521Y-153636511D01*
X54963001Y-153643867D01*
X55001705Y-153646914D01*
X55001706Y-153646914D01*
X56830140Y-153646914D01*
X56830141Y-153646914D01*
X56923632Y-153639556D01*
X56962324Y-153636511D01*
X56962324Y-153636510D01*
X56962336Y-153636510D01*
X57180607Y-153581511D01*
X57385550Y-153488421D01*
X57570577Y-153360234D01*
X57729743Y-153201068D01*
X57857930Y-153016041D01*
X57876716Y-152974683D01*
X65354758Y-152974683D01*
X65354758Y-152974684D01*
X65461730Y-153029190D01*
X65461745Y-153029196D01*
X65701248Y-153107014D01*
X65701267Y-153107019D01*
X65949988Y-153146412D01*
X65950004Y-153146414D01*
X66201842Y-153146414D01*
X66201857Y-153146412D01*
X66450578Y-153107019D01*
X66450597Y-153107014D01*
X66690103Y-153029195D01*
X66690113Y-153029191D01*
X66797086Y-152974684D01*
X66075922Y-152253520D01*
X65354758Y-152974683D01*
X57876716Y-152974683D01*
X57951020Y-152811098D01*
X58006019Y-152592827D01*
X58016423Y-152460632D01*
X58016423Y-151420495D01*
X64475923Y-151420495D01*
X64475923Y-151672332D01*
X64475924Y-151672348D01*
X64515317Y-151921069D01*
X64515322Y-151921088D01*
X64593140Y-152160593D01*
X64593143Y-152160600D01*
X64647652Y-152267577D01*
X65368817Y-151546413D01*
X65296409Y-151474005D01*
X65525923Y-151474005D01*
X65525923Y-151618823D01*
X65563405Y-151758706D01*
X65635813Y-151884122D01*
X65738215Y-151986524D01*
X65863631Y-152058932D01*
X66003514Y-152096414D01*
X66148332Y-152096414D01*
X66288215Y-152058932D01*
X66413631Y-151986524D01*
X66516033Y-151884122D01*
X66588441Y-151758706D01*
X66625923Y-151618823D01*
X66625923Y-151546413D01*
X66783029Y-151546413D01*
X67504193Y-152267577D01*
X67558700Y-152160604D01*
X67558704Y-152160594D01*
X67636523Y-151921088D01*
X67636528Y-151921069D01*
X67675921Y-151672348D01*
X67675923Y-151672332D01*
X67675923Y-151420495D01*
X67675921Y-151420479D01*
X67636528Y-151171758D01*
X67636523Y-151171739D01*
X67558705Y-150932236D01*
X67558699Y-150932221D01*
X67504193Y-150825249D01*
X67504192Y-150825249D01*
X66783029Y-151546413D01*
X66625923Y-151546413D01*
X66625923Y-151474005D01*
X66588441Y-151334122D01*
X66516033Y-151208706D01*
X66413631Y-151106304D01*
X66288215Y-151033896D01*
X66148332Y-150996414D01*
X66003514Y-150996414D01*
X65863631Y-151033896D01*
X65738215Y-151106304D01*
X65635813Y-151208706D01*
X65563405Y-151334122D01*
X65525923Y-151474005D01*
X65296409Y-151474005D01*
X64647652Y-150825248D01*
X64593144Y-150932226D01*
X64593141Y-150932233D01*
X64515321Y-151171743D01*
X64515317Y-151171758D01*
X64475924Y-151420479D01*
X64475923Y-151420495D01*
X58016423Y-151420495D01*
X58016423Y-150632196D01*
X58006019Y-150500001D01*
X57951020Y-150281730D01*
X57876715Y-150118143D01*
X65354757Y-150118143D01*
X66075922Y-150839307D01*
X66797086Y-150118143D01*
X66797086Y-150118142D01*
X66690109Y-150063634D01*
X66690102Y-150063631D01*
X66450597Y-149985813D01*
X66450578Y-149985808D01*
X66201857Y-149946415D01*
X66201842Y-149946414D01*
X65950004Y-149946414D01*
X65949988Y-149946415D01*
X65701267Y-149985808D01*
X65701252Y-149985812D01*
X65461742Y-150063632D01*
X65461735Y-150063635D01*
X65354757Y-150118143D01*
X57876715Y-150118143D01*
X57857930Y-150076787D01*
X57857927Y-150076782D01*
X57857925Y-150076779D01*
X57729746Y-149891764D01*
X57729745Y-149891763D01*
X57729743Y-149891760D01*
X57570577Y-149732594D01*
X57570573Y-149732591D01*
X57570572Y-149732590D01*
X57385557Y-149604411D01*
X57385548Y-149604406D01*
X57180607Y-149511317D01*
X56962337Y-149456318D01*
X56962324Y-149456316D01*
X56830152Y-149445914D01*
X56830141Y-149445914D01*
X55001705Y-149445914D01*
X55001693Y-149445914D01*
X54869521Y-149456316D01*
X54869508Y-149456318D01*
X54651238Y-149511317D01*
X54446297Y-149604406D01*
X54446288Y-149604411D01*
X54261273Y-149732590D01*
X54102099Y-149891764D01*
X53973920Y-150076779D01*
X53973915Y-150076788D01*
X53880826Y-150281729D01*
X53825827Y-150499999D01*
X53825825Y-150500012D01*
X53815423Y-150632184D01*
X46806867Y-150632184D01*
X46797996Y-150593318D01*
X46705237Y-150328228D01*
X46583381Y-150075191D01*
X46583378Y-150075187D01*
X46583376Y-150075182D01*
X46433959Y-149837388D01*
X46258854Y-149617814D01*
X46258852Y-149617811D01*
X46060261Y-149419220D01*
X45840684Y-149244113D01*
X45840685Y-149244113D01*
X45840683Y-149244112D01*
X45602889Y-149094695D01*
X45602883Y-149094692D01*
X45349849Y-148972837D01*
X45349835Y-148972831D01*
X45162006Y-148907107D01*
X45084754Y-148880076D01*
X45084756Y-148880076D01*
X44810946Y-148817581D01*
X44531873Y-148786136D01*
X44531861Y-148786136D01*
X44251011Y-148786136D01*
X44250998Y-148786136D01*
X43971925Y-148817581D01*
X43698117Y-148880076D01*
X43433036Y-148972831D01*
X43433022Y-148972837D01*
X43179988Y-149094692D01*
X43179982Y-149094695D01*
X42942188Y-149244112D01*
X42722614Y-149419217D01*
X42722606Y-149419224D01*
X42524024Y-149617806D01*
X42524017Y-149617814D01*
X42348912Y-149837388D01*
X42199495Y-150075182D01*
X42199492Y-150075188D01*
X42077637Y-150328222D01*
X42077631Y-150328236D01*
X41984876Y-150593317D01*
X41922381Y-150867125D01*
X41890936Y-151146198D01*
X34191935Y-151146198D01*
X34160491Y-150867127D01*
X34097996Y-150593318D01*
X34005237Y-150328228D01*
X33883381Y-150075191D01*
X33883378Y-150075187D01*
X33883376Y-150075182D01*
X33733959Y-149837388D01*
X33558854Y-149617814D01*
X33558852Y-149617811D01*
X33360261Y-149419220D01*
X33140684Y-149244113D01*
X33140685Y-149244113D01*
X33140683Y-149244112D01*
X32902889Y-149094695D01*
X32902883Y-149094692D01*
X32649849Y-148972837D01*
X32649835Y-148972831D01*
X32462006Y-148907107D01*
X32384754Y-148880076D01*
X32384756Y-148880076D01*
X32110946Y-148817581D01*
X31831873Y-148786136D01*
X31831861Y-148786136D01*
X31551011Y-148786136D01*
X31550998Y-148786136D01*
X31271925Y-148817581D01*
X30998117Y-148880076D01*
X30733036Y-148972831D01*
X30733022Y-148972837D01*
X30479988Y-149094692D01*
X30479982Y-149094695D01*
X30242188Y-149244112D01*
X30022614Y-149419217D01*
X30022606Y-149419224D01*
X29824024Y-149617806D01*
X29824017Y-149617814D01*
X29648912Y-149837388D01*
X29499495Y-150075182D01*
X29499492Y-150075188D01*
X29377637Y-150328222D01*
X29377631Y-150328236D01*
X29284876Y-150593317D01*
X29222381Y-150867125D01*
X29190936Y-151146198D01*
X24500500Y-151146198D01*
X24500500Y-145579625D01*
X34944500Y-145579625D01*
X34944500Y-145910790D01*
X34976959Y-146240354D01*
X35041568Y-146565169D01*
X35137693Y-146882051D01*
X35137701Y-146882072D01*
X35264427Y-147188018D01*
X35264429Y-147188021D01*
X35420534Y-147480074D01*
X35420539Y-147480081D01*
X35604524Y-147755434D01*
X35814612Y-148011427D01*
X36048781Y-148245596D01*
X36304774Y-148455684D01*
X36576460Y-148637218D01*
X36580124Y-148639667D01*
X36580133Y-148639673D01*
X36872186Y-148795778D01*
X36872189Y-148795780D01*
X37013076Y-148854137D01*
X37178143Y-148922510D01*
X37495048Y-149018642D01*
X37819848Y-149083248D01*
X38149418Y-149115708D01*
X38149421Y-149115708D01*
X38480579Y-149115708D01*
X38480582Y-149115708D01*
X38810152Y-149083248D01*
X39134952Y-149018642D01*
X39451857Y-148922510D01*
X39757812Y-148795779D01*
X40049873Y-148639669D01*
X40325226Y-148455684D01*
X40581219Y-148245596D01*
X40815388Y-148011427D01*
X41025476Y-147755434D01*
X41209461Y-147480081D01*
X41365571Y-147188020D01*
X41492302Y-146882065D01*
X41588434Y-146565160D01*
X41653040Y-146240360D01*
X41685500Y-145910790D01*
X41685500Y-145579626D01*
X41653040Y-145250056D01*
X41588434Y-144925256D01*
X41492302Y-144608351D01*
X41365571Y-144302396D01*
X41316001Y-144209657D01*
X41306961Y-144179858D01*
X41293781Y-144151648D01*
X41292987Y-144133792D01*
X41287799Y-144116688D01*
X41289555Y-144098856D01*
X48997934Y-144098856D01*
X49191511Y-144161754D01*
X49393599Y-144193761D01*
X49393615Y-144193763D01*
X49598231Y-144193763D01*
X49598246Y-144193761D01*
X49800335Y-144161754D01*
X49800337Y-144161753D01*
X49993910Y-144098857D01*
X49495922Y-143600869D01*
X48997934Y-144098856D01*
X41289555Y-144098856D01*
X41290851Y-144085699D01*
X41289469Y-144054588D01*
X41295570Y-144037785D01*
X41297322Y-144020001D01*
X41311998Y-143992542D01*
X41322629Y-143963267D01*
X41334696Y-143950078D01*
X41343120Y-143934318D01*
X41367190Y-143914563D01*
X41388212Y-143891588D01*
X41403263Y-143884958D01*
X41418221Y-143872683D01*
X41476233Y-143850462D01*
X41481581Y-143849148D01*
X41634952Y-143818642D01*
X41951857Y-143722510D01*
X42257812Y-143595779D01*
X42549873Y-143439669D01*
X42825226Y-143255684D01*
X43081219Y-143045596D01*
X43315388Y-142811427D01*
X43331779Y-142791455D01*
X48195923Y-142791455D01*
X48195923Y-142996070D01*
X48195924Y-142996086D01*
X48227932Y-143198177D01*
X48290827Y-143391751D01*
X48788816Y-142893763D01*
X48736155Y-142841102D01*
X49095923Y-142841102D01*
X49095923Y-142946424D01*
X49123182Y-143048157D01*
X49175843Y-143139369D01*
X49250317Y-143213843D01*
X49341529Y-143266504D01*
X49443262Y-143293763D01*
X49548584Y-143293763D01*
X49650317Y-143266504D01*
X49741529Y-143213843D01*
X49816003Y-143139369D01*
X49868664Y-143048157D01*
X49895923Y-142946424D01*
X49895923Y-142893762D01*
X50203029Y-142893762D01*
X50701017Y-143391750D01*
X50763913Y-143198177D01*
X50763914Y-143198175D01*
X50795921Y-142996086D01*
X50795923Y-142996070D01*
X50795923Y-142791455D01*
X50795921Y-142791439D01*
X50763914Y-142589351D01*
X50701016Y-142395774D01*
X50203029Y-142893762D01*
X49895923Y-142893762D01*
X49895923Y-142841102D01*
X49868664Y-142739369D01*
X49816003Y-142648157D01*
X49741529Y-142573683D01*
X49650317Y-142521022D01*
X49548584Y-142493763D01*
X49443262Y-142493763D01*
X49341529Y-142521022D01*
X49250317Y-142573683D01*
X49175843Y-142648157D01*
X49123182Y-142739369D01*
X49095923Y-142841102D01*
X48736155Y-142841102D01*
X48290827Y-142395774D01*
X48227935Y-142589339D01*
X48227930Y-142589358D01*
X48195924Y-142791439D01*
X48195923Y-142791455D01*
X43331779Y-142791455D01*
X43525476Y-142555434D01*
X43709461Y-142280081D01*
X43865571Y-141988020D01*
X43992302Y-141682065D01*
X44088434Y-141365160D01*
X44153040Y-141040360D01*
X44185500Y-140710790D01*
X44185500Y-140379626D01*
X44153040Y-140050056D01*
X44088434Y-139725256D01*
X43992302Y-139408351D01*
X43932054Y-139262902D01*
X43865573Y-139102399D01*
X43753130Y-138892033D01*
X43709460Y-138810334D01*
X43709459Y-138810332D01*
X43688880Y-138779534D01*
X47695423Y-138779534D01*
X47695423Y-140007971D01*
X47705827Y-140140175D01*
X47760828Y-140358449D01*
X47791756Y-140426539D01*
X47853916Y-140563389D01*
X47853918Y-140563392D01*
X47853919Y-140563394D01*
X47982100Y-140748412D01*
X47982101Y-140748413D01*
X47982104Y-140748417D01*
X48141269Y-140907582D01*
X48326297Y-141035770D01*
X48531240Y-141128859D01*
X48749511Y-141183859D01*
X48749514Y-141183859D01*
X48749517Y-141183860D01*
X48820932Y-141189480D01*
X48881706Y-141194263D01*
X48947432Y-141194262D01*
X49042717Y-141213215D01*
X49123499Y-141267190D01*
X49177477Y-141347971D01*
X49196432Y-141443258D01*
X49177479Y-141538547D01*
X49123504Y-141619329D01*
X49042723Y-141673307D01*
X49024378Y-141680075D01*
X48997934Y-141688667D01*
X49495923Y-142186656D01*
X49993911Y-141688667D01*
X49967465Y-141680075D01*
X49882698Y-141632603D01*
X49822550Y-141556306D01*
X49796178Y-141462799D01*
X49807597Y-141366317D01*
X49855069Y-141281550D01*
X49931366Y-141221402D01*
X50024873Y-141195030D01*
X50044408Y-141194262D01*
X50110139Y-141194262D01*
X50242335Y-141183859D01*
X50460606Y-141128859D01*
X50665549Y-141035770D01*
X50850577Y-140907582D01*
X51009742Y-140748417D01*
X51137930Y-140563389D01*
X51231019Y-140358446D01*
X51286019Y-140140175D01*
X51296423Y-140007980D01*
X51296422Y-138779547D01*
X51286019Y-138647351D01*
X51231019Y-138429080D01*
X51137930Y-138224137D01*
X51009742Y-138039109D01*
X50850577Y-137879944D01*
X50850573Y-137879941D01*
X50850572Y-137879940D01*
X50665554Y-137751759D01*
X50665552Y-137751758D01*
X50665549Y-137751756D01*
X50528699Y-137689596D01*
X50460609Y-137658668D01*
X50460607Y-137658667D01*
X50460606Y-137658667D01*
X50242335Y-137603667D01*
X50242334Y-137603666D01*
X50242331Y-137603666D01*
X50242328Y-137603665D01*
X50110145Y-137593263D01*
X48881714Y-137593263D01*
X48749510Y-137603667D01*
X48531236Y-137658668D01*
X48377864Y-137728333D01*
X48326297Y-137751756D01*
X48326295Y-137751756D01*
X48326291Y-137751759D01*
X48141273Y-137879940D01*
X47982100Y-138039113D01*
X47853919Y-138224131D01*
X47760828Y-138429076D01*
X47705826Y-138647354D01*
X47705825Y-138647357D01*
X47695423Y-138779534D01*
X43688880Y-138779534D01*
X43525476Y-138534982D01*
X43315388Y-138278989D01*
X43081219Y-138044820D01*
X42825226Y-137834732D01*
X42561728Y-137658668D01*
X42549875Y-137650748D01*
X42549866Y-137650742D01*
X42257813Y-137494637D01*
X42257810Y-137494635D01*
X41951864Y-137367909D01*
X41951857Y-137367906D01*
X41951852Y-137367904D01*
X41951843Y-137367901D01*
X41634961Y-137271776D01*
X41634954Y-137271774D01*
X41634952Y-137271774D01*
X41310152Y-137207168D01*
X41310150Y-137207167D01*
X41310146Y-137207167D01*
X40980582Y-137174708D01*
X40649418Y-137174708D01*
X40649417Y-137174708D01*
X40319853Y-137207167D01*
X39995038Y-137271776D01*
X39678156Y-137367901D01*
X39678135Y-137367909D01*
X39372189Y-137494635D01*
X39372186Y-137494637D01*
X39080133Y-137650742D01*
X39080124Y-137650748D01*
X38804776Y-137834730D01*
X38548784Y-138044817D01*
X38314609Y-138278992D01*
X38104522Y-138534984D01*
X37920540Y-138810332D01*
X37920534Y-138810341D01*
X37764429Y-139102394D01*
X37764427Y-139102397D01*
X37637701Y-139408343D01*
X37637693Y-139408364D01*
X37541568Y-139725246D01*
X37476959Y-140050061D01*
X37444500Y-140379625D01*
X37444500Y-140710790D01*
X37476507Y-141035766D01*
X37476960Y-141040360D01*
X37507725Y-141195030D01*
X37541568Y-141365169D01*
X37637693Y-141682051D01*
X37637701Y-141682072D01*
X37764427Y-141988018D01*
X37764429Y-141988021D01*
X37813997Y-142080756D01*
X37842200Y-142173728D01*
X37832677Y-142270415D01*
X37786879Y-142356098D01*
X37711777Y-142417732D01*
X37642978Y-142442349D01*
X37495048Y-142471774D01*
X37495038Y-142471776D01*
X37178156Y-142567901D01*
X37178135Y-142567909D01*
X36872189Y-142694635D01*
X36872186Y-142694637D01*
X36580133Y-142850742D01*
X36580124Y-142850748D01*
X36304776Y-143034730D01*
X36048784Y-143244817D01*
X35814609Y-143478992D01*
X35604522Y-143734984D01*
X35420540Y-144010332D01*
X35420534Y-144010341D01*
X35264429Y-144302394D01*
X35264427Y-144302397D01*
X35137701Y-144608343D01*
X35137693Y-144608364D01*
X35041568Y-144925246D01*
X34976959Y-145250061D01*
X34944500Y-145579625D01*
X24500500Y-145579625D01*
X24500500Y-143286235D01*
X24519454Y-143190947D01*
X24573430Y-143110165D01*
X24654212Y-143056189D01*
X24749500Y-143037235D01*
X24844788Y-143056189D01*
X24907459Y-143093752D01*
X25104774Y-143255684D01*
X25308411Y-143391750D01*
X25380124Y-143439667D01*
X25380133Y-143439673D01*
X25672186Y-143595778D01*
X25672189Y-143595780D01*
X25813076Y-143654137D01*
X25978143Y-143722510D01*
X26295048Y-143818642D01*
X26619848Y-143883248D01*
X26949418Y-143915708D01*
X26949421Y-143915708D01*
X27280579Y-143915708D01*
X27280582Y-143915708D01*
X27610152Y-143883248D01*
X27934952Y-143818642D01*
X28251857Y-143722510D01*
X28557812Y-143595779D01*
X28849873Y-143439669D01*
X29125226Y-143255684D01*
X29381219Y-143045596D01*
X29615388Y-142811427D01*
X29825476Y-142555434D01*
X30009461Y-142280081D01*
X30165571Y-141988020D01*
X30292302Y-141682065D01*
X30388434Y-141365160D01*
X30453040Y-141040360D01*
X30485500Y-140710790D01*
X30485500Y-140379626D01*
X30453040Y-140050056D01*
X30388434Y-139725256D01*
X30292302Y-139408351D01*
X30223929Y-139243284D01*
X30165572Y-139102397D01*
X30165570Y-139102394D01*
X30009465Y-138810341D01*
X30009459Y-138810332D01*
X29988880Y-138779534D01*
X29825476Y-138534982D01*
X29615388Y-138278989D01*
X29381219Y-138044820D01*
X29125226Y-137834732D01*
X28861728Y-137658668D01*
X28849875Y-137650748D01*
X28849866Y-137650742D01*
X28557813Y-137494637D01*
X28557810Y-137494635D01*
X28251864Y-137367909D01*
X28251857Y-137367906D01*
X28251852Y-137367904D01*
X28251843Y-137367901D01*
X27934961Y-137271776D01*
X27934954Y-137271774D01*
X27934952Y-137271774D01*
X27610152Y-137207168D01*
X27610150Y-137207167D01*
X27610146Y-137207167D01*
X27280582Y-137174708D01*
X26949418Y-137174708D01*
X26949417Y-137174708D01*
X26619853Y-137207167D01*
X26295038Y-137271776D01*
X25978156Y-137367901D01*
X25978135Y-137367909D01*
X25672189Y-137494635D01*
X25672186Y-137494637D01*
X25380133Y-137650742D01*
X25380124Y-137650748D01*
X25104776Y-137834730D01*
X25104765Y-137834738D01*
X24907463Y-137996660D01*
X24821780Y-138042458D01*
X24725093Y-138051981D01*
X24632122Y-138023778D01*
X24557020Y-137962143D01*
X24511222Y-137876460D01*
X24500500Y-137804180D01*
X24500500Y-135080000D01*
X55587713Y-135080000D01*
X55606416Y-135137566D01*
X55710213Y-135341280D01*
X55844592Y-135526236D01*
X56006263Y-135687907D01*
X56191220Y-135822286D01*
X56191219Y-135822286D01*
X56394936Y-135926084D01*
X56394941Y-135926086D01*
X56499999Y-135960222D01*
X56500000Y-135960222D01*
X56500000Y-135080001D01*
X56499999Y-135080000D01*
X55587713Y-135080000D01*
X24500500Y-135080000D01*
X24500500Y-134025271D01*
X30675622Y-134025271D01*
X30804952Y-134099940D01*
X31047182Y-134200276D01*
X31300423Y-134268130D01*
X31300421Y-134268130D01*
X31560348Y-134302351D01*
X31822524Y-134302351D01*
X32082449Y-134268130D01*
X32335692Y-134200275D01*
X32577911Y-134099944D01*
X32707248Y-134025271D01*
X31691435Y-133009458D01*
X30675622Y-134025271D01*
X24500500Y-134025271D01*
X24500500Y-132171263D01*
X29691436Y-132171263D01*
X29691436Y-132433438D01*
X29725656Y-132693364D01*
X29793511Y-132946607D01*
X29893838Y-133188818D01*
X29893840Y-133188822D01*
X29968514Y-133318162D01*
X30984327Y-132302350D01*
X30915384Y-132233407D01*
X30991436Y-132233407D01*
X30991436Y-132371295D01*
X31018337Y-132506533D01*
X31071104Y-132633925D01*
X31147710Y-132748575D01*
X31245212Y-132846077D01*
X31359862Y-132922683D01*
X31487254Y-132975450D01*
X31622492Y-133002351D01*
X31760380Y-133002351D01*
X31895618Y-132975450D01*
X32023010Y-132922683D01*
X32137660Y-132846077D01*
X32235162Y-132748575D01*
X32311768Y-132633925D01*
X32364535Y-132506533D01*
X32391436Y-132371295D01*
X32391436Y-132302350D01*
X32398543Y-132302350D01*
X33414356Y-133318163D01*
X33489029Y-133188826D01*
X33589360Y-132946607D01*
X33657215Y-132693364D01*
X33691436Y-132433438D01*
X33691436Y-132171263D01*
X33690205Y-132161913D01*
X41890936Y-132161913D01*
X41890936Y-132442788D01*
X41922381Y-132721861D01*
X41984876Y-132995669D01*
X42077631Y-133260750D01*
X42077637Y-133260764D01*
X42199492Y-133513798D01*
X42199495Y-133513804D01*
X42348912Y-133751598D01*
X42383803Y-133795350D01*
X42524020Y-133971176D01*
X42722611Y-134169767D01*
X42845954Y-134268130D01*
X42942188Y-134344874D01*
X43179982Y-134494291D01*
X43179987Y-134494293D01*
X43179991Y-134494296D01*
X43433028Y-134616152D01*
X43433033Y-134616153D01*
X43433036Y-134616155D01*
X43477341Y-134631657D01*
X43698118Y-134708911D01*
X43971927Y-134771406D01*
X44146353Y-134791059D01*
X44250998Y-134802850D01*
X44251011Y-134802851D01*
X44531861Y-134802851D01*
X44531875Y-134802850D01*
X44656145Y-134788848D01*
X44656146Y-134788848D01*
X44709049Y-134782886D01*
X44810945Y-134771406D01*
X45084754Y-134708911D01*
X45349844Y-134616152D01*
X45602881Y-134494296D01*
X45840684Y-134344874D01*
X46060261Y-134169767D01*
X46258852Y-133971176D01*
X46433959Y-133751599D01*
X46583381Y-133513796D01*
X46705237Y-133260759D01*
X46797996Y-132995669D01*
X46860491Y-132721860D01*
X46891936Y-132442776D01*
X46891936Y-132161926D01*
X46884752Y-132098169D01*
X46880144Y-132057268D01*
X46860491Y-131882842D01*
X46797996Y-131609033D01*
X46705237Y-131343943D01*
X46583381Y-131090906D01*
X46583378Y-131090902D01*
X46583376Y-131090897D01*
X46433959Y-130853103D01*
X46321589Y-130712196D01*
X46258852Y-130633526D01*
X46060261Y-130434935D01*
X45840684Y-130259828D01*
X45840685Y-130259828D01*
X45840683Y-130259827D01*
X45602889Y-130110410D01*
X45602883Y-130110407D01*
X45349849Y-129988552D01*
X45349835Y-129988546D01*
X45162006Y-129922822D01*
X45084754Y-129895791D01*
X45084756Y-129895791D01*
X44810946Y-129833296D01*
X44531873Y-129801851D01*
X44531861Y-129801851D01*
X44251011Y-129801851D01*
X44250998Y-129801851D01*
X43971925Y-129833296D01*
X43698117Y-129895791D01*
X43433036Y-129988546D01*
X43433022Y-129988552D01*
X43179988Y-130110407D01*
X43179982Y-130110410D01*
X42942188Y-130259827D01*
X42722614Y-130434932D01*
X42722606Y-130434939D01*
X42524024Y-130633521D01*
X42524017Y-130633529D01*
X42348912Y-130853103D01*
X42199495Y-131090897D01*
X42199492Y-131090903D01*
X42077637Y-131343937D01*
X42077631Y-131343951D01*
X41984876Y-131609032D01*
X41922381Y-131882840D01*
X41890936Y-132161913D01*
X33690205Y-132161913D01*
X33657215Y-131911337D01*
X33589361Y-131658097D01*
X33489025Y-131415867D01*
X33414356Y-131286537D01*
X32398543Y-132302350D01*
X32391436Y-132302350D01*
X32391436Y-132233407D01*
X32364535Y-132098169D01*
X32311768Y-131970777D01*
X32235162Y-131856127D01*
X32137660Y-131758625D01*
X32023010Y-131682019D01*
X31895618Y-131629252D01*
X31760380Y-131602351D01*
X31622492Y-131602351D01*
X31487254Y-131629252D01*
X31359862Y-131682019D01*
X31245212Y-131758625D01*
X31147710Y-131856127D01*
X31071104Y-131970777D01*
X31018337Y-132098169D01*
X30991436Y-132233407D01*
X30915384Y-132233407D01*
X29968514Y-131286537D01*
X29893844Y-131415872D01*
X29893838Y-131415883D01*
X29793511Y-131658094D01*
X29725656Y-131911337D01*
X29691436Y-132171263D01*
X24500500Y-132171263D01*
X24500500Y-130579429D01*
X30675622Y-130579429D01*
X31691435Y-131595242D01*
X32707248Y-130579429D01*
X32577907Y-130504755D01*
X32577903Y-130504753D01*
X32335692Y-130404426D01*
X32082448Y-130336571D01*
X32082450Y-130336571D01*
X31822524Y-130302351D01*
X31560348Y-130302351D01*
X31300422Y-130336571D01*
X31047179Y-130404426D01*
X30804968Y-130504753D01*
X30804957Y-130504759D01*
X30675622Y-130579429D01*
X24500500Y-130579429D01*
X24500500Y-128489463D01*
X54999500Y-128489463D01*
X54999500Y-130510531D01*
X54999501Y-130510543D01*
X55010113Y-130629914D01*
X55010113Y-130629917D01*
X55010114Y-130629918D01*
X55011147Y-130633526D01*
X55066090Y-130825545D01*
X55066093Y-130825553D01*
X55165911Y-131016646D01*
X55193229Y-131109881D01*
X55182787Y-131206473D01*
X55175253Y-131227218D01*
X55099180Y-131410876D01*
X55099176Y-131410888D01*
X55032916Y-131658174D01*
X55006855Y-131856127D01*
X54999500Y-131911994D01*
X54999500Y-132168006D01*
X55032917Y-132421829D01*
X55099178Y-132669118D01*
X55121025Y-132721861D01*
X55197146Y-132905635D01*
X55197148Y-132905639D01*
X55197150Y-132905643D01*
X55237453Y-132975450D01*
X55325153Y-133127352D01*
X55325163Y-133127367D01*
X55471567Y-133318163D01*
X55481007Y-133330465D01*
X55662035Y-133511493D01*
X55662039Y-133511496D01*
X55667799Y-133517256D01*
X55666304Y-133518750D01*
X55717203Y-133585097D01*
X55742339Y-133678944D01*
X55729647Y-133775267D01*
X55713607Y-133809474D01*
X55714653Y-133810007D01*
X55606416Y-134022433D01*
X55587713Y-134080000D01*
X56766026Y-134080000D01*
X56662292Y-134139890D01*
X56559890Y-134242292D01*
X56487482Y-134367708D01*
X56450000Y-134507591D01*
X56450000Y-134652409D01*
X56487482Y-134792292D01*
X56559890Y-134917708D01*
X56662292Y-135020110D01*
X56787708Y-135092518D01*
X56927591Y-135130000D01*
X57072409Y-135130000D01*
X57212292Y-135092518D01*
X57233972Y-135080001D01*
X57500000Y-135080001D01*
X57500000Y-135960222D01*
X57605058Y-135926086D01*
X57605063Y-135926084D01*
X57808780Y-135822286D01*
X57993736Y-135687907D01*
X58155407Y-135526236D01*
X58289786Y-135341280D01*
X58393583Y-135137566D01*
X58412287Y-135080000D01*
X57500001Y-135080000D01*
X57500000Y-135080001D01*
X57233972Y-135080001D01*
X57337708Y-135020110D01*
X57440110Y-134917708D01*
X57512518Y-134792292D01*
X57550000Y-134652409D01*
X57550000Y-134507591D01*
X57512518Y-134367708D01*
X57440110Y-134242292D01*
X57337708Y-134139890D01*
X57233974Y-134080000D01*
X58412287Y-134080000D01*
X58393583Y-134022433D01*
X58285347Y-133810007D01*
X58287735Y-133808790D01*
X58260202Y-133734204D01*
X58263998Y-133637123D01*
X58304655Y-133548885D01*
X58332888Y-133517945D01*
X58332201Y-133517258D01*
X58425596Y-133423862D01*
X58518993Y-133330465D01*
X58674844Y-133127357D01*
X58802850Y-132905643D01*
X58900822Y-132669118D01*
X58967083Y-132421829D01*
X59000500Y-132168006D01*
X59000500Y-131911994D01*
X58967083Y-131658171D01*
X58900822Y-131410882D01*
X58824745Y-131227218D01*
X58815456Y-131180515D01*
X58805800Y-131133911D01*
X58806011Y-131133034D01*
X58805792Y-131131931D01*
X58823996Y-131038475D01*
X58834703Y-131012032D01*
X58839698Y-131005907D01*
X58933909Y-130825549D01*
X58966347Y-130712184D01*
X63895423Y-130712184D01*
X63895423Y-132540643D01*
X63905825Y-132672815D01*
X63905827Y-132672828D01*
X63960826Y-132891098D01*
X64053915Y-133096039D01*
X64053920Y-133096048D01*
X64182099Y-133281063D01*
X64182100Y-133281064D01*
X64182103Y-133281068D01*
X64341269Y-133440234D01*
X64341272Y-133440236D01*
X64341273Y-133440237D01*
X64526288Y-133568416D01*
X64526291Y-133568418D01*
X64526296Y-133568421D01*
X64731239Y-133661511D01*
X64949510Y-133716510D01*
X64949519Y-133716510D01*
X64949521Y-133716511D01*
X65043001Y-133723867D01*
X65081705Y-133726914D01*
X65081706Y-133726914D01*
X66910140Y-133726914D01*
X66910141Y-133726914D01*
X67003632Y-133719556D01*
X67042324Y-133716511D01*
X67042324Y-133716510D01*
X67042336Y-133716510D01*
X67260607Y-133661511D01*
X67465550Y-133568421D01*
X67650577Y-133440234D01*
X67809743Y-133281068D01*
X67937930Y-133096041D01*
X68031020Y-132891098D01*
X68086019Y-132672827D01*
X68086312Y-132669111D01*
X68096422Y-132540643D01*
X68096423Y-132540631D01*
X68096423Y-130712197D01*
X68096422Y-130712184D01*
X68086020Y-130580012D01*
X68086019Y-130580010D01*
X68086019Y-130580001D01*
X68031020Y-130361730D01*
X67937930Y-130156787D01*
X67937927Y-130156782D01*
X67937925Y-130156779D01*
X67809746Y-129971764D01*
X67809745Y-129971763D01*
X67809743Y-129971760D01*
X67650577Y-129812594D01*
X67650573Y-129812591D01*
X67650572Y-129812590D01*
X67465557Y-129684411D01*
X67465548Y-129684406D01*
X67260607Y-129591317D01*
X67042337Y-129536318D01*
X67042324Y-129536316D01*
X66910152Y-129525914D01*
X66910141Y-129525914D01*
X65081705Y-129525914D01*
X65081693Y-129525914D01*
X64949521Y-129536316D01*
X64949508Y-129536318D01*
X64731238Y-129591317D01*
X64526297Y-129684406D01*
X64526288Y-129684411D01*
X64341273Y-129812590D01*
X64182099Y-129971764D01*
X64053920Y-130156779D01*
X64053915Y-130156788D01*
X63960826Y-130361729D01*
X63905827Y-130579999D01*
X63905825Y-130580012D01*
X63895423Y-130712184D01*
X58966347Y-130712184D01*
X58989886Y-130629918D01*
X59000500Y-130510537D01*
X59000499Y-128489464D01*
X58989886Y-128370082D01*
X58933909Y-128174451D01*
X58839698Y-127994093D01*
X58711109Y-127836391D01*
X58553407Y-127707802D01*
X58553402Y-127707799D01*
X58373053Y-127613593D01*
X58373052Y-127613592D01*
X58373049Y-127613591D01*
X58177418Y-127557614D01*
X58058037Y-127547000D01*
X58058035Y-127547000D01*
X55941968Y-127547000D01*
X55941956Y-127547001D01*
X55822585Y-127557613D01*
X55626954Y-127613590D01*
X55626946Y-127613593D01*
X55446597Y-127707799D01*
X55446592Y-127707802D01*
X55288893Y-127836389D01*
X55288889Y-127836393D01*
X55160302Y-127994092D01*
X55160299Y-127994097D01*
X55066093Y-128174446D01*
X55066090Y-128174454D01*
X55010115Y-128370078D01*
X55010114Y-128370082D01*
X54999500Y-128489463D01*
X24500500Y-128489463D01*
X24500500Y-121328740D01*
X63895423Y-121328740D01*
X63895423Y-121604088D01*
X63931363Y-121877080D01*
X64002628Y-122143046D01*
X64108000Y-122397435D01*
X64108002Y-122397439D01*
X64108004Y-122397443D01*
X64245668Y-122635883D01*
X64245674Y-122635893D01*
X64413295Y-122854342D01*
X64607995Y-123049042D01*
X64826444Y-123216663D01*
X64826453Y-123216668D01*
X64826453Y-123216669D01*
X65064893Y-123354332D01*
X65064902Y-123354337D01*
X65319291Y-123459709D01*
X65585257Y-123530974D01*
X65858249Y-123566914D01*
X66133597Y-123566914D01*
X66406589Y-123530974D01*
X66672555Y-123459709D01*
X66926944Y-123354337D01*
X67165402Y-123216663D01*
X67383851Y-123049042D01*
X67578551Y-122854342D01*
X67746172Y-122635893D01*
X67883846Y-122397435D01*
X67989218Y-122143046D01*
X68060483Y-121877080D01*
X68096423Y-121604088D01*
X68096423Y-121328740D01*
X68060483Y-121055748D01*
X67989218Y-120789782D01*
X67883846Y-120535393D01*
X67746172Y-120296935D01*
X67578551Y-120078486D01*
X67383851Y-119883786D01*
X67165402Y-119716165D01*
X67165392Y-119716159D01*
X67165392Y-119716158D01*
X66926952Y-119578495D01*
X66926948Y-119578493D01*
X66926944Y-119578491D01*
X66672555Y-119473119D01*
X66672556Y-119473119D01*
X66672553Y-119473118D01*
X66557383Y-119442259D01*
X66406589Y-119401854D01*
X66406584Y-119401853D01*
X66406585Y-119401853D01*
X66133597Y-119365914D01*
X65858249Y-119365914D01*
X65585261Y-119401853D01*
X65319293Y-119473118D01*
X65319292Y-119473118D01*
X65145573Y-119545075D01*
X65064902Y-119578491D01*
X65064900Y-119578491D01*
X65064893Y-119578495D01*
X64826453Y-119716158D01*
X64826453Y-119716159D01*
X64826448Y-119716162D01*
X64826444Y-119716165D01*
X64662607Y-119841880D01*
X64607992Y-119883788D01*
X64413297Y-120078483D01*
X64413295Y-120078486D01*
X64245674Y-120296935D01*
X64245671Y-120296939D01*
X64245668Y-120296944D01*
X64245667Y-120296944D01*
X64108004Y-120535384D01*
X64002627Y-120789783D01*
X64002627Y-120789784D01*
X63931363Y-121055748D01*
X63895423Y-121328740D01*
X24500500Y-121328740D01*
X24500500Y-115931913D01*
X29190936Y-115931913D01*
X29190936Y-116212788D01*
X29222381Y-116491861D01*
X29284876Y-116765669D01*
X29377631Y-117030750D01*
X29377637Y-117030764D01*
X29499492Y-117283798D01*
X29499495Y-117283804D01*
X29648912Y-117521598D01*
X29654971Y-117529196D01*
X29824020Y-117741176D01*
X30022611Y-117939767D01*
X30022614Y-117939769D01*
X30242188Y-118114874D01*
X30479982Y-118264291D01*
X30479987Y-118264293D01*
X30479991Y-118264296D01*
X30733028Y-118386152D01*
X30733033Y-118386153D01*
X30733036Y-118386155D01*
X30777341Y-118401657D01*
X30998118Y-118478911D01*
X31271927Y-118541406D01*
X31446353Y-118561059D01*
X31550998Y-118572850D01*
X31551011Y-118572851D01*
X31831861Y-118572851D01*
X31831873Y-118572850D01*
X31911147Y-118563917D01*
X32110945Y-118541406D01*
X32384754Y-118478911D01*
X32649844Y-118386152D01*
X32902881Y-118264296D01*
X33140684Y-118114874D01*
X33360261Y-117939767D01*
X33558852Y-117741176D01*
X33733959Y-117521599D01*
X33883381Y-117283796D01*
X34005237Y-117030759D01*
X34097996Y-116765669D01*
X34160491Y-116491860D01*
X34191936Y-116212776D01*
X34191936Y-115931926D01*
X34191935Y-115931913D01*
X41890936Y-115931913D01*
X41890936Y-116212788D01*
X41922381Y-116491861D01*
X41984876Y-116765669D01*
X42077631Y-117030750D01*
X42077637Y-117030764D01*
X42199492Y-117283798D01*
X42199495Y-117283804D01*
X42348912Y-117521598D01*
X42354971Y-117529196D01*
X42524020Y-117741176D01*
X42722611Y-117939767D01*
X42722614Y-117939769D01*
X42942188Y-118114874D01*
X43179982Y-118264291D01*
X43179987Y-118264293D01*
X43179991Y-118264296D01*
X43433028Y-118386152D01*
X43433033Y-118386153D01*
X43433036Y-118386155D01*
X43477341Y-118401657D01*
X43698118Y-118478911D01*
X43971927Y-118541406D01*
X44146353Y-118561059D01*
X44250998Y-118572850D01*
X44251011Y-118572851D01*
X44531861Y-118572851D01*
X44531873Y-118572850D01*
X44611147Y-118563917D01*
X44810945Y-118541406D01*
X45084754Y-118478911D01*
X45349844Y-118386152D01*
X45602881Y-118264296D01*
X45840684Y-118114874D01*
X46060261Y-117939767D01*
X46258852Y-117741176D01*
X46433959Y-117521599D01*
X46583381Y-117283796D01*
X46705237Y-117030759D01*
X46797996Y-116765669D01*
X46860491Y-116491860D01*
X46891936Y-116212776D01*
X46891936Y-115931926D01*
X46890646Y-115920479D01*
X46862622Y-115671758D01*
X46860491Y-115652842D01*
X46797996Y-115379033D01*
X46711624Y-115132197D01*
X46711619Y-115132184D01*
X53815423Y-115132184D01*
X53815423Y-116960643D01*
X53825825Y-117092815D01*
X53825827Y-117092828D01*
X53880826Y-117311098D01*
X53973915Y-117516039D01*
X53973920Y-117516048D01*
X54102099Y-117701063D01*
X54102100Y-117701064D01*
X54102103Y-117701068D01*
X54261269Y-117860234D01*
X54261272Y-117860236D01*
X54261273Y-117860237D01*
X54446288Y-117988416D01*
X54446291Y-117988418D01*
X54446296Y-117988421D01*
X54651239Y-118081511D01*
X54869510Y-118136510D01*
X54869519Y-118136510D01*
X54869521Y-118136511D01*
X54963001Y-118143867D01*
X55001705Y-118146914D01*
X55001706Y-118146914D01*
X56830140Y-118146914D01*
X56830141Y-118146914D01*
X56923632Y-118139556D01*
X56962324Y-118136511D01*
X56962324Y-118136510D01*
X56962336Y-118136510D01*
X57180607Y-118081511D01*
X57385550Y-117988421D01*
X57570577Y-117860234D01*
X57729743Y-117701068D01*
X57857930Y-117516041D01*
X57876716Y-117474683D01*
X65354758Y-117474683D01*
X65354758Y-117474684D01*
X65461730Y-117529190D01*
X65461745Y-117529196D01*
X65701248Y-117607014D01*
X65701267Y-117607019D01*
X65949988Y-117646412D01*
X65950004Y-117646414D01*
X66201842Y-117646414D01*
X66201857Y-117646412D01*
X66450578Y-117607019D01*
X66450597Y-117607014D01*
X66690103Y-117529195D01*
X66690113Y-117529191D01*
X66797086Y-117474684D01*
X66075922Y-116753520D01*
X65354758Y-117474683D01*
X57876716Y-117474683D01*
X57951020Y-117311098D01*
X58006019Y-117092827D01*
X58016423Y-116960632D01*
X58016423Y-115920495D01*
X64475923Y-115920495D01*
X64475923Y-116172332D01*
X64475924Y-116172348D01*
X64515317Y-116421069D01*
X64515322Y-116421088D01*
X64593140Y-116660593D01*
X64593143Y-116660600D01*
X64647652Y-116767577D01*
X65368817Y-116046413D01*
X65296409Y-115974005D01*
X65525923Y-115974005D01*
X65525923Y-116118823D01*
X65563405Y-116258706D01*
X65635813Y-116384122D01*
X65738215Y-116486524D01*
X65863631Y-116558932D01*
X66003514Y-116596414D01*
X66148332Y-116596414D01*
X66288215Y-116558932D01*
X66413631Y-116486524D01*
X66516033Y-116384122D01*
X66588441Y-116258706D01*
X66625923Y-116118823D01*
X66625923Y-116046413D01*
X66783029Y-116046413D01*
X67504193Y-116767577D01*
X67558700Y-116660604D01*
X67558704Y-116660594D01*
X67636523Y-116421088D01*
X67636528Y-116421069D01*
X67675921Y-116172348D01*
X67675923Y-116172332D01*
X67675923Y-115920495D01*
X67675921Y-115920479D01*
X67636528Y-115671758D01*
X67636523Y-115671739D01*
X67558705Y-115432236D01*
X67558699Y-115432221D01*
X67504193Y-115325249D01*
X67504192Y-115325249D01*
X66783029Y-116046413D01*
X66625923Y-116046413D01*
X66625923Y-115974005D01*
X66588441Y-115834122D01*
X66516033Y-115708706D01*
X66413631Y-115606304D01*
X66288215Y-115533896D01*
X66148332Y-115496414D01*
X66003514Y-115496414D01*
X65863631Y-115533896D01*
X65738215Y-115606304D01*
X65635813Y-115708706D01*
X65563405Y-115834122D01*
X65525923Y-115974005D01*
X65296409Y-115974005D01*
X64647652Y-115325248D01*
X64593144Y-115432226D01*
X64593141Y-115432233D01*
X64515321Y-115671743D01*
X64515317Y-115671758D01*
X64475924Y-115920479D01*
X64475923Y-115920495D01*
X58016423Y-115920495D01*
X58016423Y-115132196D01*
X58006019Y-115000001D01*
X57951020Y-114781730D01*
X57876715Y-114618143D01*
X65354757Y-114618143D01*
X66075922Y-115339307D01*
X66797086Y-114618143D01*
X66797086Y-114618142D01*
X66690109Y-114563634D01*
X66690102Y-114563631D01*
X66450597Y-114485813D01*
X66450578Y-114485808D01*
X66201857Y-114446415D01*
X66201842Y-114446414D01*
X65950004Y-114446414D01*
X65949988Y-114446415D01*
X65701267Y-114485808D01*
X65701252Y-114485812D01*
X65461742Y-114563632D01*
X65461735Y-114563635D01*
X65354757Y-114618143D01*
X57876715Y-114618143D01*
X57857930Y-114576787D01*
X57857927Y-114576782D01*
X57857925Y-114576779D01*
X57729746Y-114391764D01*
X57729745Y-114391763D01*
X57729743Y-114391760D01*
X57570577Y-114232594D01*
X57570573Y-114232591D01*
X57570572Y-114232590D01*
X57385557Y-114104411D01*
X57385548Y-114104406D01*
X57180607Y-114011317D01*
X56962337Y-113956318D01*
X56962324Y-113956316D01*
X56830152Y-113945914D01*
X56830141Y-113945914D01*
X55001705Y-113945914D01*
X55001693Y-113945914D01*
X54869521Y-113956316D01*
X54869508Y-113956318D01*
X54651238Y-114011317D01*
X54446297Y-114104406D01*
X54446288Y-114104411D01*
X54261273Y-114232590D01*
X54102099Y-114391764D01*
X53973920Y-114576779D01*
X53973915Y-114576788D01*
X53880826Y-114781729D01*
X53825827Y-114999999D01*
X53825825Y-115000012D01*
X53815423Y-115132184D01*
X46711619Y-115132184D01*
X46705240Y-115113951D01*
X46705234Y-115113937D01*
X46583381Y-114860906D01*
X46583378Y-114860902D01*
X46583376Y-114860897D01*
X46433959Y-114623103D01*
X46258854Y-114403529D01*
X46258852Y-114403526D01*
X46060261Y-114204935D01*
X45840684Y-114029828D01*
X45840685Y-114029828D01*
X45840683Y-114029827D01*
X45602889Y-113880410D01*
X45602883Y-113880407D01*
X45349849Y-113758552D01*
X45349835Y-113758546D01*
X45162006Y-113692822D01*
X45084754Y-113665791D01*
X45084756Y-113665791D01*
X44810946Y-113603296D01*
X44531873Y-113571851D01*
X44531861Y-113571851D01*
X44251011Y-113571851D01*
X44250998Y-113571851D01*
X43971925Y-113603296D01*
X43698117Y-113665791D01*
X43433036Y-113758546D01*
X43433022Y-113758552D01*
X43179988Y-113880407D01*
X43179982Y-113880410D01*
X42942188Y-114029827D01*
X42722614Y-114204932D01*
X42722606Y-114204939D01*
X42524024Y-114403521D01*
X42524017Y-114403529D01*
X42348912Y-114623103D01*
X42199495Y-114860897D01*
X42199492Y-114860903D01*
X42077637Y-115113937D01*
X42077631Y-115113951D01*
X41984876Y-115379032D01*
X41922381Y-115652840D01*
X41890936Y-115931913D01*
X34191935Y-115931913D01*
X34190646Y-115920479D01*
X34162622Y-115671758D01*
X34160491Y-115652842D01*
X34097996Y-115379033D01*
X34005237Y-115113943D01*
X33883381Y-114860906D01*
X33883378Y-114860902D01*
X33883376Y-114860897D01*
X33733959Y-114623103D01*
X33558854Y-114403529D01*
X33558852Y-114403526D01*
X33360261Y-114204935D01*
X33140684Y-114029828D01*
X33140685Y-114029828D01*
X33140683Y-114029827D01*
X32902889Y-113880410D01*
X32902883Y-113880407D01*
X32649849Y-113758552D01*
X32649835Y-113758546D01*
X32462006Y-113692822D01*
X32384754Y-113665791D01*
X32384756Y-113665791D01*
X32110946Y-113603296D01*
X31831873Y-113571851D01*
X31831861Y-113571851D01*
X31551011Y-113571851D01*
X31550998Y-113571851D01*
X31271925Y-113603296D01*
X30998117Y-113665791D01*
X30733036Y-113758546D01*
X30733022Y-113758552D01*
X30479988Y-113880407D01*
X30479982Y-113880410D01*
X30242188Y-114029827D01*
X30022614Y-114204932D01*
X30022606Y-114204939D01*
X29824024Y-114403521D01*
X29824017Y-114403529D01*
X29648912Y-114623103D01*
X29499495Y-114860897D01*
X29499492Y-114860903D01*
X29377637Y-115113937D01*
X29377631Y-115113951D01*
X29284876Y-115379032D01*
X29222381Y-115652840D01*
X29190936Y-115931913D01*
X24500500Y-115931913D01*
X24500500Y-110293910D01*
X34944500Y-110293910D01*
X34944500Y-110625075D01*
X34976959Y-110954639D01*
X35041568Y-111279454D01*
X35137693Y-111596336D01*
X35137701Y-111596357D01*
X35264427Y-111902303D01*
X35264429Y-111902306D01*
X35420534Y-112194359D01*
X35420539Y-112194366D01*
X35604524Y-112469719D01*
X35814612Y-112725712D01*
X36048781Y-112959881D01*
X36304774Y-113169969D01*
X36576460Y-113351503D01*
X36580124Y-113353952D01*
X36580133Y-113353958D01*
X36872186Y-113510063D01*
X36872189Y-113510065D01*
X37013076Y-113568422D01*
X37178143Y-113636795D01*
X37495048Y-113732927D01*
X37819848Y-113797533D01*
X38149418Y-113829993D01*
X38149421Y-113829993D01*
X38480579Y-113829993D01*
X38480582Y-113829993D01*
X38810152Y-113797533D01*
X39134952Y-113732927D01*
X39451857Y-113636795D01*
X39757812Y-113510064D01*
X40049873Y-113353954D01*
X40325226Y-113169969D01*
X40581219Y-112959881D01*
X40815388Y-112725712D01*
X41025476Y-112469719D01*
X41209461Y-112194366D01*
X41365571Y-111902305D01*
X41492302Y-111596350D01*
X41588434Y-111279445D01*
X41653040Y-110954645D01*
X41685500Y-110625075D01*
X41685500Y-110293911D01*
X41653040Y-109964341D01*
X41588434Y-109639541D01*
X41492302Y-109322636D01*
X41399609Y-109098856D01*
X48997934Y-109098856D01*
X49191511Y-109161754D01*
X49393599Y-109193761D01*
X49393615Y-109193763D01*
X49598231Y-109193763D01*
X49598246Y-109193761D01*
X49800335Y-109161754D01*
X49800337Y-109161753D01*
X49993910Y-109098857D01*
X49495922Y-108600869D01*
X48997934Y-109098856D01*
X41399609Y-109098856D01*
X41365571Y-109016681D01*
X41313080Y-108918479D01*
X41310439Y-108912884D01*
X41300137Y-108871646D01*
X41287799Y-108830973D01*
X41288414Y-108824721D01*
X41286892Y-108818626D01*
X41293156Y-108776581D01*
X41297322Y-108734286D01*
X41300283Y-108728745D01*
X41301209Y-108722532D01*
X41323085Y-108686085D01*
X41343120Y-108648603D01*
X41347975Y-108644618D01*
X41351209Y-108639231D01*
X41385364Y-108613933D01*
X41418221Y-108586968D01*
X41425088Y-108584510D01*
X41429282Y-108581405D01*
X41444148Y-108577691D01*
X41487017Y-108562352D01*
X41634952Y-108532927D01*
X41951857Y-108436795D01*
X42257812Y-108310064D01*
X42467138Y-108198177D01*
X42549866Y-108153958D01*
X42549867Y-108153956D01*
X42549873Y-108153954D01*
X42825226Y-107969969D01*
X43042746Y-107791455D01*
X48195923Y-107791455D01*
X48195923Y-107996070D01*
X48195924Y-107996086D01*
X48227932Y-108198177D01*
X48290827Y-108391751D01*
X48788816Y-107893763D01*
X48736155Y-107841102D01*
X49095923Y-107841102D01*
X49095923Y-107946424D01*
X49123182Y-108048157D01*
X49175843Y-108139369D01*
X49250317Y-108213843D01*
X49341529Y-108266504D01*
X49443262Y-108293763D01*
X49548584Y-108293763D01*
X49650317Y-108266504D01*
X49741529Y-108213843D01*
X49816003Y-108139369D01*
X49868664Y-108048157D01*
X49895923Y-107946424D01*
X49895923Y-107893762D01*
X50203029Y-107893762D01*
X50701017Y-108391750D01*
X50763913Y-108198177D01*
X50763914Y-108198175D01*
X50795921Y-107996086D01*
X50795923Y-107996070D01*
X50795923Y-107791455D01*
X50795921Y-107791439D01*
X50763914Y-107589351D01*
X50701016Y-107395774D01*
X50203029Y-107893762D01*
X49895923Y-107893762D01*
X49895923Y-107841102D01*
X49868664Y-107739369D01*
X49816003Y-107648157D01*
X49741529Y-107573683D01*
X49650317Y-107521022D01*
X49548584Y-107493763D01*
X49443262Y-107493763D01*
X49341529Y-107521022D01*
X49250317Y-107573683D01*
X49175843Y-107648157D01*
X49123182Y-107739369D01*
X49095923Y-107841102D01*
X48736155Y-107841102D01*
X48290827Y-107395774D01*
X48227935Y-107589339D01*
X48227930Y-107589358D01*
X48195924Y-107791439D01*
X48195923Y-107791455D01*
X43042746Y-107791455D01*
X43081219Y-107759881D01*
X43315388Y-107525712D01*
X43525476Y-107269719D01*
X43709461Y-106994366D01*
X43865571Y-106702305D01*
X43992302Y-106396350D01*
X44088434Y-106079445D01*
X44153040Y-105754645D01*
X44185500Y-105425075D01*
X44185500Y-105093911D01*
X44153040Y-104764341D01*
X44088434Y-104439541D01*
X43992302Y-104122636D01*
X43940206Y-103996866D01*
X43887634Y-103869944D01*
X43865571Y-103816682D01*
X43865571Y-103816681D01*
X43845715Y-103779534D01*
X47695423Y-103779534D01*
X47695423Y-105007971D01*
X47705826Y-105140168D01*
X47705827Y-105140175D01*
X47760827Y-105358446D01*
X47853916Y-105563389D01*
X47853918Y-105563392D01*
X47853919Y-105563394D01*
X47982100Y-105748412D01*
X47982101Y-105748413D01*
X47982104Y-105748417D01*
X48141269Y-105907582D01*
X48326297Y-106035770D01*
X48531240Y-106128859D01*
X48749511Y-106183859D01*
X48749514Y-106183859D01*
X48749517Y-106183860D01*
X48820932Y-106189480D01*
X48881706Y-106194263D01*
X48947432Y-106194262D01*
X49042717Y-106213215D01*
X49123499Y-106267190D01*
X49177477Y-106347971D01*
X49196432Y-106443258D01*
X49177479Y-106538547D01*
X49123504Y-106619329D01*
X49042723Y-106673307D01*
X49024378Y-106680075D01*
X48997934Y-106688667D01*
X49495923Y-107186656D01*
X49993911Y-106688667D01*
X49967465Y-106680075D01*
X49882698Y-106632603D01*
X49822550Y-106556306D01*
X49796178Y-106462799D01*
X49807597Y-106366317D01*
X49855069Y-106281550D01*
X49931366Y-106221402D01*
X50024873Y-106195030D01*
X50044408Y-106194262D01*
X50110139Y-106194262D01*
X50242335Y-106183859D01*
X50460606Y-106128859D01*
X50665549Y-106035770D01*
X50850577Y-105907582D01*
X51009742Y-105748417D01*
X51137930Y-105563389D01*
X51231019Y-105358446D01*
X51286019Y-105140175D01*
X51296423Y-105007980D01*
X51296422Y-103779547D01*
X51286019Y-103647351D01*
X51231019Y-103429080D01*
X51137930Y-103224137D01*
X51009742Y-103039109D01*
X50850577Y-102879944D01*
X50850573Y-102879941D01*
X50850572Y-102879940D01*
X50665554Y-102751759D01*
X50665552Y-102751758D01*
X50665549Y-102751756D01*
X50528699Y-102689596D01*
X50460609Y-102658668D01*
X50460607Y-102658667D01*
X50460606Y-102658667D01*
X50242335Y-102603667D01*
X50242334Y-102603666D01*
X50242331Y-102603666D01*
X50242328Y-102603665D01*
X50110145Y-102593263D01*
X48881714Y-102593263D01*
X48749510Y-102603667D01*
X48531236Y-102658668D01*
X48377864Y-102728333D01*
X48326297Y-102751756D01*
X48326295Y-102751756D01*
X48326291Y-102751759D01*
X48141273Y-102879940D01*
X47982100Y-103039113D01*
X47853919Y-103224131D01*
X47853916Y-103224135D01*
X47853916Y-103224137D01*
X47842501Y-103249269D01*
X47760828Y-103429076D01*
X47705826Y-103647354D01*
X47705825Y-103647357D01*
X47695423Y-103779534D01*
X43845715Y-103779534D01*
X43813534Y-103719327D01*
X43709465Y-103524626D01*
X43709459Y-103524617D01*
X43645623Y-103429080D01*
X43525476Y-103249267D01*
X43315388Y-102993274D01*
X43081219Y-102759105D01*
X42825226Y-102549017D01*
X42779502Y-102518465D01*
X42549875Y-102365033D01*
X42549866Y-102365027D01*
X42257813Y-102208922D01*
X42257810Y-102208920D01*
X41951864Y-102082194D01*
X41951857Y-102082191D01*
X41951852Y-102082189D01*
X41951843Y-102082186D01*
X41634961Y-101986061D01*
X41634954Y-101986059D01*
X41634952Y-101986059D01*
X41310152Y-101921453D01*
X41310150Y-101921452D01*
X41310146Y-101921452D01*
X40980582Y-101888993D01*
X40649418Y-101888993D01*
X40649417Y-101888993D01*
X40319853Y-101921452D01*
X39995038Y-101986061D01*
X39678156Y-102082186D01*
X39678135Y-102082194D01*
X39372189Y-102208920D01*
X39372186Y-102208922D01*
X39080133Y-102365027D01*
X39080124Y-102365033D01*
X38804776Y-102549015D01*
X38548784Y-102759102D01*
X38314609Y-102993277D01*
X38104522Y-103249269D01*
X37920540Y-103524617D01*
X37920534Y-103524626D01*
X37764429Y-103816679D01*
X37764427Y-103816682D01*
X37637701Y-104122628D01*
X37637693Y-104122649D01*
X37541568Y-104439531D01*
X37476959Y-104764346D01*
X37444500Y-105093910D01*
X37444500Y-105425075D01*
X37476346Y-105748417D01*
X37476960Y-105754645D01*
X37507381Y-105907585D01*
X37541568Y-106079454D01*
X37637693Y-106396336D01*
X37637701Y-106396357D01*
X37764427Y-106702303D01*
X37764429Y-106702306D01*
X37813997Y-106795041D01*
X37842200Y-106888013D01*
X37832677Y-106984700D01*
X37786879Y-107070383D01*
X37711777Y-107132017D01*
X37642978Y-107156634D01*
X37495048Y-107186059D01*
X37495038Y-107186061D01*
X37178156Y-107282186D01*
X37178135Y-107282194D01*
X36872189Y-107408920D01*
X36872186Y-107408922D01*
X36580133Y-107565027D01*
X36580124Y-107565033D01*
X36304776Y-107749015D01*
X36048784Y-107959102D01*
X35814609Y-108193277D01*
X35604522Y-108449269D01*
X35420540Y-108724617D01*
X35420534Y-108724626D01*
X35264429Y-109016679D01*
X35264427Y-109016682D01*
X35137701Y-109322628D01*
X35137693Y-109322649D01*
X35041568Y-109639531D01*
X34976959Y-109964346D01*
X34944500Y-110293910D01*
X24500500Y-110293910D01*
X24500500Y-108000520D01*
X24519454Y-107905232D01*
X24573430Y-107824450D01*
X24654212Y-107770474D01*
X24749500Y-107751520D01*
X24844788Y-107770474D01*
X24907459Y-107808037D01*
X25104774Y-107969969D01*
X25143837Y-107996070D01*
X25380124Y-108153952D01*
X25380133Y-108153958D01*
X25672186Y-108310063D01*
X25672189Y-108310065D01*
X25813076Y-108368422D01*
X25978143Y-108436795D01*
X26295048Y-108532927D01*
X26619848Y-108597533D01*
X26949418Y-108629993D01*
X26949421Y-108629993D01*
X27280579Y-108629993D01*
X27280582Y-108629993D01*
X27610152Y-108597533D01*
X27934952Y-108532927D01*
X28251857Y-108436795D01*
X28557812Y-108310064D01*
X28767138Y-108198177D01*
X28849866Y-108153958D01*
X28849867Y-108153956D01*
X28849873Y-108153954D01*
X29125226Y-107969969D01*
X29381219Y-107759881D01*
X29615388Y-107525712D01*
X29825476Y-107269719D01*
X30009461Y-106994366D01*
X30165571Y-106702305D01*
X30292302Y-106396350D01*
X30388434Y-106079445D01*
X30453040Y-105754645D01*
X30485500Y-105425075D01*
X30485500Y-105093911D01*
X30453040Y-104764341D01*
X30388434Y-104439541D01*
X30292302Y-104122636D01*
X30223929Y-103957569D01*
X30165572Y-103816682D01*
X30165570Y-103816679D01*
X30009465Y-103524626D01*
X30009459Y-103524617D01*
X29945623Y-103429080D01*
X29825476Y-103249267D01*
X29615388Y-102993274D01*
X29381219Y-102759105D01*
X29125226Y-102549017D01*
X29079502Y-102518465D01*
X28849875Y-102365033D01*
X28849866Y-102365027D01*
X28557813Y-102208922D01*
X28557810Y-102208920D01*
X28251864Y-102082194D01*
X28251857Y-102082191D01*
X28251852Y-102082189D01*
X28251843Y-102082186D01*
X27934961Y-101986061D01*
X27934954Y-101986059D01*
X27934952Y-101986059D01*
X27610152Y-101921453D01*
X27610150Y-101921452D01*
X27610146Y-101921452D01*
X27280582Y-101888993D01*
X26949418Y-101888993D01*
X26949417Y-101888993D01*
X26619853Y-101921452D01*
X26295038Y-101986061D01*
X25978156Y-102082186D01*
X25978135Y-102082194D01*
X25672189Y-102208920D01*
X25672186Y-102208922D01*
X25380133Y-102365027D01*
X25380124Y-102365033D01*
X25104776Y-102549015D01*
X25104765Y-102549023D01*
X24907463Y-102710945D01*
X24821780Y-102756743D01*
X24725093Y-102766266D01*
X24632122Y-102738063D01*
X24557020Y-102676428D01*
X24511222Y-102590745D01*
X24500500Y-102518465D01*
X24500500Y-100080000D01*
X55587713Y-100080000D01*
X55606416Y-100137566D01*
X55710213Y-100341280D01*
X55844592Y-100526236D01*
X56006263Y-100687907D01*
X56191220Y-100822286D01*
X56191219Y-100822286D01*
X56394936Y-100926084D01*
X56394941Y-100926086D01*
X56499999Y-100960222D01*
X56500000Y-100960222D01*
X56500000Y-100080001D01*
X56499999Y-100080000D01*
X55587713Y-100080000D01*
X24500500Y-100080000D01*
X24500500Y-98810985D01*
X30675622Y-98810985D01*
X30804952Y-98885654D01*
X31047182Y-98985990D01*
X31300423Y-99053844D01*
X31300421Y-99053844D01*
X31560348Y-99088065D01*
X31822524Y-99088065D01*
X32082449Y-99053844D01*
X32335692Y-98985989D01*
X32577911Y-98885658D01*
X32707248Y-98810985D01*
X31691435Y-97795172D01*
X30675622Y-98810985D01*
X24500500Y-98810985D01*
X24500500Y-96956977D01*
X29691436Y-96956977D01*
X29691436Y-97219152D01*
X29725656Y-97479078D01*
X29793511Y-97732321D01*
X29893838Y-97974532D01*
X29893840Y-97974536D01*
X29968514Y-98103876D01*
X30984327Y-97088064D01*
X30915384Y-97019121D01*
X30991436Y-97019121D01*
X30991436Y-97157009D01*
X31018337Y-97292247D01*
X31071104Y-97419639D01*
X31147710Y-97534289D01*
X31245212Y-97631791D01*
X31359862Y-97708397D01*
X31487254Y-97761164D01*
X31622492Y-97788065D01*
X31760380Y-97788065D01*
X31895618Y-97761164D01*
X32023010Y-97708397D01*
X32137660Y-97631791D01*
X32235162Y-97534289D01*
X32311768Y-97419639D01*
X32364535Y-97292247D01*
X32391436Y-97157009D01*
X32391436Y-97088064D01*
X32398543Y-97088064D01*
X33414356Y-98103877D01*
X33489029Y-97974540D01*
X33589360Y-97732321D01*
X33657215Y-97479078D01*
X33691436Y-97219152D01*
X33691436Y-96956977D01*
X33690205Y-96947627D01*
X41890936Y-96947627D01*
X41890936Y-97228502D01*
X41922381Y-97507575D01*
X41984876Y-97781383D01*
X42077631Y-98046464D01*
X42077637Y-98046478D01*
X42199492Y-98299512D01*
X42199495Y-98299518D01*
X42348912Y-98537312D01*
X42428509Y-98637123D01*
X42524020Y-98756890D01*
X42722611Y-98955481D01*
X42806566Y-99022433D01*
X42942188Y-99130588D01*
X43179982Y-99280005D01*
X43179987Y-99280007D01*
X43179991Y-99280010D01*
X43433028Y-99401866D01*
X43433033Y-99401867D01*
X43433036Y-99401869D01*
X43477341Y-99417371D01*
X43698118Y-99494625D01*
X43971927Y-99557120D01*
X44146353Y-99576773D01*
X44250998Y-99588564D01*
X44251011Y-99588565D01*
X44531861Y-99588565D01*
X44531873Y-99588564D01*
X44611147Y-99579631D01*
X44810945Y-99557120D01*
X45084754Y-99494625D01*
X45349844Y-99401866D01*
X45602881Y-99280010D01*
X45840684Y-99130588D01*
X46060261Y-98955481D01*
X46258852Y-98756890D01*
X46433959Y-98537313D01*
X46583381Y-98299510D01*
X46705237Y-98046473D01*
X46797996Y-97781383D01*
X46860491Y-97507574D01*
X46891936Y-97228490D01*
X46891936Y-96947640D01*
X46884752Y-96883883D01*
X46880144Y-96842982D01*
X46860491Y-96668556D01*
X46797996Y-96394747D01*
X46705237Y-96129657D01*
X46583381Y-95876620D01*
X46583378Y-95876616D01*
X46583376Y-95876611D01*
X46433959Y-95638817D01*
X46425719Y-95628485D01*
X46258852Y-95419240D01*
X46060261Y-95220649D01*
X45840684Y-95045542D01*
X45840685Y-95045542D01*
X45840683Y-95045541D01*
X45602889Y-94896124D01*
X45602883Y-94896121D01*
X45349849Y-94774266D01*
X45349835Y-94774260D01*
X45162006Y-94708536D01*
X45084754Y-94681505D01*
X45084756Y-94681505D01*
X44810946Y-94619010D01*
X44531873Y-94587565D01*
X44531861Y-94587565D01*
X44251011Y-94587565D01*
X44250998Y-94587565D01*
X43971925Y-94619010D01*
X43698117Y-94681505D01*
X43433036Y-94774260D01*
X43433022Y-94774266D01*
X43179988Y-94896121D01*
X43179982Y-94896124D01*
X42942188Y-95045541D01*
X42722614Y-95220646D01*
X42722606Y-95220653D01*
X42524024Y-95419235D01*
X42524017Y-95419243D01*
X42348912Y-95638817D01*
X42199495Y-95876611D01*
X42199492Y-95876617D01*
X42077637Y-96129651D01*
X42077631Y-96129665D01*
X41984876Y-96394746D01*
X41922381Y-96668554D01*
X41890936Y-96947627D01*
X33690205Y-96947627D01*
X33657215Y-96697051D01*
X33589361Y-96443811D01*
X33489025Y-96201581D01*
X33414356Y-96072251D01*
X32398543Y-97088064D01*
X32391436Y-97088064D01*
X32391436Y-97019121D01*
X32364535Y-96883883D01*
X32311768Y-96756491D01*
X32235162Y-96641841D01*
X32137660Y-96544339D01*
X32023010Y-96467733D01*
X31895618Y-96414966D01*
X31760380Y-96388065D01*
X31622492Y-96388065D01*
X31487254Y-96414966D01*
X31359862Y-96467733D01*
X31245212Y-96544339D01*
X31147710Y-96641841D01*
X31071104Y-96756491D01*
X31018337Y-96883883D01*
X30991436Y-97019121D01*
X30915384Y-97019121D01*
X29968514Y-96072251D01*
X29893844Y-96201586D01*
X29893838Y-96201597D01*
X29793511Y-96443808D01*
X29725656Y-96697051D01*
X29691436Y-96956977D01*
X24500500Y-96956977D01*
X24500500Y-95365143D01*
X30675622Y-95365143D01*
X31691435Y-96380956D01*
X32707248Y-95365143D01*
X32577907Y-95290469D01*
X32577903Y-95290467D01*
X32335692Y-95190140D01*
X32082448Y-95122285D01*
X32082450Y-95122285D01*
X31822524Y-95088065D01*
X31560348Y-95088065D01*
X31300422Y-95122285D01*
X31047179Y-95190140D01*
X30804968Y-95290467D01*
X30804957Y-95290473D01*
X30675622Y-95365143D01*
X24500500Y-95365143D01*
X24500500Y-93489463D01*
X54999500Y-93489463D01*
X54999500Y-95510531D01*
X54999501Y-95510543D01*
X55010113Y-95629914D01*
X55066090Y-95825545D01*
X55066093Y-95825553D01*
X55165911Y-96016646D01*
X55193229Y-96109881D01*
X55182787Y-96206473D01*
X55175253Y-96227218D01*
X55099180Y-96410876D01*
X55099176Y-96410888D01*
X55032916Y-96658174D01*
X54999500Y-96911994D01*
X54999500Y-97168005D01*
X55032628Y-97419639D01*
X55032917Y-97421829D01*
X55099178Y-97669118D01*
X55100715Y-97672828D01*
X55197146Y-97905635D01*
X55197148Y-97905639D01*
X55325153Y-98127352D01*
X55325163Y-98127367D01*
X55457260Y-98299518D01*
X55481007Y-98330465D01*
X55662035Y-98511493D01*
X55662039Y-98511496D01*
X55667799Y-98517256D01*
X55666304Y-98518750D01*
X55717203Y-98585097D01*
X55742339Y-98678944D01*
X55729647Y-98775267D01*
X55713607Y-98809474D01*
X55714653Y-98810007D01*
X55606416Y-99022433D01*
X55587713Y-99080000D01*
X56766026Y-99080000D01*
X56662292Y-99139890D01*
X56559890Y-99242292D01*
X56487482Y-99367708D01*
X56450000Y-99507591D01*
X56450000Y-99652409D01*
X56487482Y-99792292D01*
X56559890Y-99917708D01*
X56662292Y-100020110D01*
X56787708Y-100092518D01*
X56927591Y-100130000D01*
X57072409Y-100130000D01*
X57212292Y-100092518D01*
X57233972Y-100080001D01*
X57500000Y-100080001D01*
X57500000Y-100960222D01*
X57605058Y-100926086D01*
X57605063Y-100926084D01*
X57808780Y-100822286D01*
X57993736Y-100687907D01*
X58155407Y-100526236D01*
X58289786Y-100341280D01*
X58393583Y-100137566D01*
X58412287Y-100080000D01*
X57500001Y-100080000D01*
X57500000Y-100080001D01*
X57233972Y-100080001D01*
X57337708Y-100020110D01*
X57440110Y-99917708D01*
X57512518Y-99792292D01*
X57550000Y-99652409D01*
X57550000Y-99507591D01*
X57512518Y-99367708D01*
X57440110Y-99242292D01*
X57337708Y-99139890D01*
X57233974Y-99080000D01*
X58412287Y-99080000D01*
X58393583Y-99022433D01*
X58285347Y-98810007D01*
X58287735Y-98808790D01*
X58260202Y-98734204D01*
X58263998Y-98637123D01*
X58304655Y-98548885D01*
X58332888Y-98517945D01*
X58332201Y-98517258D01*
X58425596Y-98423862D01*
X58518993Y-98330465D01*
X58674844Y-98127357D01*
X58802850Y-97905643D01*
X58900822Y-97669118D01*
X58967083Y-97421829D01*
X59000500Y-97168006D01*
X59000500Y-96911994D01*
X58967083Y-96658171D01*
X58900822Y-96410882D01*
X58824745Y-96227218D01*
X58815456Y-96180515D01*
X58805800Y-96133911D01*
X58806011Y-96133034D01*
X58805792Y-96131931D01*
X58823996Y-96038475D01*
X58834703Y-96012032D01*
X58839698Y-96005907D01*
X58933909Y-95825549D01*
X58966347Y-95712184D01*
X63895423Y-95712184D01*
X63895423Y-97540643D01*
X63905825Y-97672815D01*
X63905827Y-97672828D01*
X63960826Y-97891098D01*
X64053915Y-98096039D01*
X64053920Y-98096048D01*
X64182099Y-98281063D01*
X64182100Y-98281064D01*
X64182103Y-98281068D01*
X64341269Y-98440234D01*
X64341272Y-98440236D01*
X64341273Y-98440237D01*
X64526288Y-98568416D01*
X64526291Y-98568418D01*
X64526296Y-98568421D01*
X64731239Y-98661511D01*
X64949510Y-98716510D01*
X64949519Y-98716510D01*
X64949521Y-98716511D01*
X65043001Y-98723867D01*
X65081705Y-98726914D01*
X65081706Y-98726914D01*
X66910140Y-98726914D01*
X66910141Y-98726914D01*
X67003632Y-98719556D01*
X67042324Y-98716511D01*
X67042324Y-98716510D01*
X67042336Y-98716510D01*
X67260607Y-98661511D01*
X67465550Y-98568421D01*
X67650577Y-98440234D01*
X67809743Y-98281068D01*
X67937930Y-98096041D01*
X68031020Y-97891098D01*
X68086019Y-97672827D01*
X68086312Y-97669111D01*
X68096422Y-97540643D01*
X68096423Y-97540631D01*
X68096423Y-95712197D01*
X68096422Y-95712184D01*
X68086020Y-95580012D01*
X68086019Y-95580010D01*
X68086019Y-95580001D01*
X68031020Y-95361730D01*
X67937930Y-95156787D01*
X67937927Y-95156782D01*
X67937925Y-95156779D01*
X67809746Y-94971764D01*
X67809745Y-94971763D01*
X67809743Y-94971760D01*
X67650577Y-94812594D01*
X67650573Y-94812591D01*
X67650572Y-94812590D01*
X67465557Y-94684411D01*
X67465548Y-94684406D01*
X67260607Y-94591317D01*
X67042337Y-94536318D01*
X67042324Y-94536316D01*
X66910152Y-94525914D01*
X66910141Y-94525914D01*
X65081705Y-94525914D01*
X65081693Y-94525914D01*
X64949521Y-94536316D01*
X64949508Y-94536318D01*
X64731238Y-94591317D01*
X64526297Y-94684406D01*
X64526288Y-94684411D01*
X64341273Y-94812590D01*
X64182099Y-94971764D01*
X64053920Y-95156779D01*
X64053915Y-95156788D01*
X63960826Y-95361729D01*
X63905827Y-95579999D01*
X63905825Y-95580012D01*
X63895423Y-95712184D01*
X58966347Y-95712184D01*
X58989886Y-95629918D01*
X59000500Y-95510537D01*
X59000499Y-93489464D01*
X58989886Y-93370082D01*
X58933909Y-93174451D01*
X58839698Y-92994093D01*
X58711109Y-92836391D01*
X58553407Y-92707802D01*
X58553402Y-92707799D01*
X58373053Y-92613593D01*
X58373052Y-92613592D01*
X58373049Y-92613591D01*
X58177418Y-92557614D01*
X58058037Y-92547000D01*
X58058035Y-92547000D01*
X55941968Y-92547000D01*
X55941956Y-92547001D01*
X55822585Y-92557613D01*
X55626954Y-92613590D01*
X55626946Y-92613593D01*
X55446597Y-92707799D01*
X55446592Y-92707802D01*
X55288893Y-92836389D01*
X55288889Y-92836393D01*
X55160302Y-92994092D01*
X55160299Y-92994097D01*
X55066093Y-93174446D01*
X55066090Y-93174454D01*
X55010115Y-93370078D01*
X55010114Y-93370082D01*
X54999500Y-93489463D01*
X24500500Y-93489463D01*
X24500500Y-86328740D01*
X63895423Y-86328740D01*
X63895423Y-86604088D01*
X63931363Y-86877080D01*
X64002628Y-87143046D01*
X64108000Y-87397435D01*
X64108002Y-87397439D01*
X64108004Y-87397443D01*
X64245668Y-87635883D01*
X64245674Y-87635893D01*
X64413295Y-87854342D01*
X64607995Y-88049042D01*
X64826444Y-88216663D01*
X64826453Y-88216668D01*
X64826453Y-88216669D01*
X65064893Y-88354332D01*
X65064902Y-88354337D01*
X65319291Y-88459709D01*
X65585257Y-88530974D01*
X65858249Y-88566914D01*
X66133597Y-88566914D01*
X66406589Y-88530974D01*
X66672555Y-88459709D01*
X66926944Y-88354337D01*
X67165402Y-88216663D01*
X67383851Y-88049042D01*
X67578551Y-87854342D01*
X67746172Y-87635893D01*
X67883846Y-87397435D01*
X67989218Y-87143046D01*
X68060483Y-86877080D01*
X68096423Y-86604088D01*
X68096423Y-86328740D01*
X68060483Y-86055748D01*
X67989218Y-85789782D01*
X67883846Y-85535393D01*
X67746172Y-85296935D01*
X67578551Y-85078486D01*
X67383851Y-84883786D01*
X67165402Y-84716165D01*
X67165392Y-84716159D01*
X67165392Y-84716158D01*
X66926952Y-84578495D01*
X66926948Y-84578493D01*
X66926944Y-84578491D01*
X66672555Y-84473119D01*
X66672556Y-84473119D01*
X66672553Y-84473118D01*
X66557383Y-84442259D01*
X66406589Y-84401854D01*
X66406584Y-84401853D01*
X66406585Y-84401853D01*
X66133597Y-84365914D01*
X65858249Y-84365914D01*
X65585261Y-84401853D01*
X65319293Y-84473118D01*
X65319292Y-84473118D01*
X65145573Y-84545075D01*
X65064902Y-84578491D01*
X65064900Y-84578491D01*
X65064893Y-84578495D01*
X64826453Y-84716158D01*
X64826453Y-84716159D01*
X64826448Y-84716162D01*
X64826444Y-84716165D01*
X64662607Y-84841880D01*
X64607992Y-84883788D01*
X64413297Y-85078483D01*
X64413295Y-85078486D01*
X64245674Y-85296935D01*
X64245671Y-85296939D01*
X64245668Y-85296944D01*
X64245667Y-85296944D01*
X64108004Y-85535384D01*
X64002627Y-85789783D01*
X64002627Y-85789784D01*
X63931363Y-86055748D01*
X63895423Y-86328740D01*
X24500500Y-86328740D01*
X24500500Y-80717627D01*
X29190936Y-80717627D01*
X29190936Y-80998502D01*
X29222381Y-81277575D01*
X29284876Y-81551383D01*
X29377631Y-81816464D01*
X29377637Y-81816478D01*
X29499492Y-82069512D01*
X29499495Y-82069518D01*
X29648912Y-82307312D01*
X29648913Y-82307313D01*
X29824020Y-82526890D01*
X30022611Y-82725481D01*
X30022614Y-82725483D01*
X30242188Y-82900588D01*
X30479982Y-83050005D01*
X30479987Y-83050007D01*
X30479991Y-83050010D01*
X30733028Y-83171866D01*
X30733033Y-83171867D01*
X30733036Y-83171869D01*
X30777341Y-83187371D01*
X30998118Y-83264625D01*
X31271927Y-83327120D01*
X31446353Y-83346773D01*
X31550998Y-83358564D01*
X31551011Y-83358565D01*
X31831861Y-83358565D01*
X31831873Y-83358564D01*
X31911147Y-83349631D01*
X32110945Y-83327120D01*
X32384754Y-83264625D01*
X32649844Y-83171866D01*
X32902881Y-83050010D01*
X33140684Y-82900588D01*
X33360261Y-82725481D01*
X33558852Y-82526890D01*
X33733959Y-82307313D01*
X33883381Y-82069510D01*
X34005237Y-81816473D01*
X34097996Y-81551383D01*
X34160491Y-81277574D01*
X34183002Y-81077776D01*
X34191935Y-80998502D01*
X34191936Y-80998489D01*
X34191936Y-80717640D01*
X34191935Y-80717627D01*
X41890936Y-80717627D01*
X41890936Y-80998502D01*
X41922381Y-81277575D01*
X41984876Y-81551383D01*
X42077631Y-81816464D01*
X42077637Y-81816478D01*
X42199492Y-82069512D01*
X42199495Y-82069518D01*
X42348912Y-82307312D01*
X42348913Y-82307313D01*
X42524020Y-82526890D01*
X42722611Y-82725481D01*
X42722614Y-82725483D01*
X42942188Y-82900588D01*
X43179982Y-83050005D01*
X43179987Y-83050007D01*
X43179991Y-83050010D01*
X43433028Y-83171866D01*
X43433033Y-83171867D01*
X43433036Y-83171869D01*
X43477341Y-83187371D01*
X43698118Y-83264625D01*
X43971927Y-83327120D01*
X44146353Y-83346773D01*
X44250998Y-83358564D01*
X44251011Y-83358565D01*
X44531861Y-83358565D01*
X44531873Y-83358564D01*
X44611147Y-83349631D01*
X44810945Y-83327120D01*
X45084754Y-83264625D01*
X45349844Y-83171866D01*
X45602881Y-83050010D01*
X45840684Y-82900588D01*
X46060261Y-82725481D01*
X46258852Y-82526890D01*
X46433959Y-82307313D01*
X46583381Y-82069510D01*
X46705237Y-81816473D01*
X46797996Y-81551383D01*
X46860491Y-81277574D01*
X46883002Y-81077776D01*
X46891935Y-80998502D01*
X46891936Y-80998489D01*
X46891936Y-80717640D01*
X46891935Y-80717627D01*
X46860491Y-80438557D01*
X46860491Y-80438556D01*
X46797996Y-80164747D01*
X46786602Y-80132184D01*
X53815423Y-80132184D01*
X53815423Y-81960643D01*
X53825825Y-82092815D01*
X53825827Y-82092828D01*
X53880826Y-82311098D01*
X53973915Y-82516039D01*
X53973920Y-82516048D01*
X54102099Y-82701063D01*
X54102100Y-82701064D01*
X54102103Y-82701068D01*
X54261269Y-82860234D01*
X54261272Y-82860236D01*
X54261273Y-82860237D01*
X54446288Y-82988416D01*
X54446291Y-82988418D01*
X54446296Y-82988421D01*
X54651239Y-83081511D01*
X54869510Y-83136510D01*
X54869519Y-83136510D01*
X54869521Y-83136511D01*
X54963001Y-83143867D01*
X55001705Y-83146914D01*
X55001706Y-83146914D01*
X56830140Y-83146914D01*
X56830141Y-83146914D01*
X56923632Y-83139556D01*
X56962324Y-83136511D01*
X56962324Y-83136510D01*
X56962336Y-83136510D01*
X57180607Y-83081511D01*
X57385550Y-82988421D01*
X57570577Y-82860234D01*
X57729743Y-82701068D01*
X57857930Y-82516041D01*
X57876716Y-82474683D01*
X65354758Y-82474683D01*
X65354758Y-82474684D01*
X65461730Y-82529190D01*
X65461745Y-82529196D01*
X65701248Y-82607014D01*
X65701267Y-82607019D01*
X65949988Y-82646412D01*
X65950004Y-82646414D01*
X66201842Y-82646414D01*
X66201857Y-82646412D01*
X66450578Y-82607019D01*
X66450597Y-82607014D01*
X66690103Y-82529195D01*
X66690113Y-82529191D01*
X66797086Y-82474684D01*
X66075922Y-81753520D01*
X65354758Y-82474683D01*
X57876716Y-82474683D01*
X57951020Y-82311098D01*
X58006019Y-82092827D01*
X58016423Y-81960632D01*
X58016423Y-80920495D01*
X64475923Y-80920495D01*
X64475923Y-81172332D01*
X64475924Y-81172348D01*
X64515317Y-81421069D01*
X64515322Y-81421088D01*
X64593140Y-81660593D01*
X64593143Y-81660600D01*
X64647652Y-81767577D01*
X65368817Y-81046413D01*
X65296409Y-80974005D01*
X65525923Y-80974005D01*
X65525923Y-81118823D01*
X65563405Y-81258706D01*
X65635813Y-81384122D01*
X65738215Y-81486524D01*
X65863631Y-81558932D01*
X66003514Y-81596414D01*
X66148332Y-81596414D01*
X66288215Y-81558932D01*
X66413631Y-81486524D01*
X66516033Y-81384122D01*
X66588441Y-81258706D01*
X66625923Y-81118823D01*
X66625923Y-81046413D01*
X66783029Y-81046413D01*
X67504193Y-81767577D01*
X67558700Y-81660604D01*
X67558704Y-81660594D01*
X67636523Y-81421088D01*
X67636528Y-81421069D01*
X67675921Y-81172348D01*
X67675923Y-81172332D01*
X67675923Y-80920495D01*
X67675921Y-80920479D01*
X67636528Y-80671758D01*
X67636523Y-80671739D01*
X67558705Y-80432236D01*
X67558699Y-80432221D01*
X67504193Y-80325249D01*
X67504192Y-80325249D01*
X66783029Y-81046413D01*
X66625923Y-81046413D01*
X66625923Y-80974005D01*
X66588441Y-80834122D01*
X66516033Y-80708706D01*
X66413631Y-80606304D01*
X66288215Y-80533896D01*
X66148332Y-80496414D01*
X66003514Y-80496414D01*
X65863631Y-80533896D01*
X65738215Y-80606304D01*
X65635813Y-80708706D01*
X65563405Y-80834122D01*
X65525923Y-80974005D01*
X65296409Y-80974005D01*
X64647652Y-80325248D01*
X64593144Y-80432226D01*
X64593141Y-80432233D01*
X64515321Y-80671743D01*
X64515317Y-80671758D01*
X64475924Y-80920479D01*
X64475923Y-80920495D01*
X58016423Y-80920495D01*
X58016423Y-80132196D01*
X58006019Y-80000001D01*
X57951020Y-79781730D01*
X57876715Y-79618143D01*
X65354757Y-79618143D01*
X66075922Y-80339307D01*
X66797086Y-79618143D01*
X66797086Y-79618142D01*
X66690109Y-79563634D01*
X66690102Y-79563631D01*
X66450597Y-79485813D01*
X66450578Y-79485808D01*
X66201857Y-79446415D01*
X66201842Y-79446414D01*
X65950004Y-79446414D01*
X65949988Y-79446415D01*
X65701267Y-79485808D01*
X65701252Y-79485812D01*
X65461742Y-79563632D01*
X65461735Y-79563635D01*
X65354757Y-79618143D01*
X57876715Y-79618143D01*
X57857930Y-79576787D01*
X57857927Y-79576782D01*
X57857925Y-79576779D01*
X57729746Y-79391764D01*
X57729745Y-79391763D01*
X57729743Y-79391760D01*
X57570577Y-79232594D01*
X57570573Y-79232591D01*
X57570572Y-79232590D01*
X57385557Y-79104411D01*
X57385548Y-79104406D01*
X57180607Y-79011317D01*
X56962337Y-78956318D01*
X56962324Y-78956316D01*
X56830152Y-78945914D01*
X56830141Y-78945914D01*
X55001705Y-78945914D01*
X55001693Y-78945914D01*
X54869521Y-78956316D01*
X54869508Y-78956318D01*
X54651238Y-79011317D01*
X54446297Y-79104406D01*
X54446288Y-79104411D01*
X54261273Y-79232590D01*
X54102099Y-79391764D01*
X53973920Y-79576779D01*
X53973915Y-79576788D01*
X53880826Y-79781729D01*
X53825827Y-79999999D01*
X53825825Y-80000012D01*
X53815423Y-80132184D01*
X46786602Y-80132184D01*
X46705237Y-79899657D01*
X46583381Y-79646620D01*
X46583378Y-79646616D01*
X46583376Y-79646611D01*
X46433959Y-79408817D01*
X46420356Y-79391760D01*
X46258852Y-79189240D01*
X46060261Y-78990649D01*
X45840684Y-78815542D01*
X45840685Y-78815542D01*
X45840683Y-78815541D01*
X45602889Y-78666124D01*
X45602883Y-78666121D01*
X45349849Y-78544266D01*
X45349835Y-78544260D01*
X45162006Y-78478536D01*
X45084754Y-78451505D01*
X45084756Y-78451505D01*
X44810946Y-78389010D01*
X44531873Y-78357565D01*
X44531861Y-78357565D01*
X44251011Y-78357565D01*
X44250998Y-78357565D01*
X43971925Y-78389010D01*
X43698117Y-78451505D01*
X43433036Y-78544260D01*
X43433022Y-78544266D01*
X43179988Y-78666121D01*
X43179982Y-78666124D01*
X42942188Y-78815541D01*
X42722614Y-78990646D01*
X42722606Y-78990653D01*
X42524024Y-79189235D01*
X42524017Y-79189243D01*
X42348912Y-79408817D01*
X42199495Y-79646611D01*
X42199492Y-79646617D01*
X42077637Y-79899651D01*
X42077631Y-79899665D01*
X41984876Y-80164746D01*
X41922381Y-80438554D01*
X41890936Y-80717627D01*
X34191935Y-80717627D01*
X34171233Y-80533896D01*
X34160491Y-80438556D01*
X34097996Y-80164747D01*
X34005237Y-79899657D01*
X33883381Y-79646620D01*
X33883378Y-79646616D01*
X33883376Y-79646611D01*
X33733959Y-79408817D01*
X33720356Y-79391760D01*
X33558852Y-79189240D01*
X33360261Y-78990649D01*
X33140684Y-78815542D01*
X33140685Y-78815542D01*
X33140683Y-78815541D01*
X32902889Y-78666124D01*
X32902883Y-78666121D01*
X32649849Y-78544266D01*
X32649835Y-78544260D01*
X32462006Y-78478536D01*
X32384754Y-78451505D01*
X32384756Y-78451505D01*
X32110946Y-78389010D01*
X31831873Y-78357565D01*
X31831861Y-78357565D01*
X31551011Y-78357565D01*
X31550998Y-78357565D01*
X31271925Y-78389010D01*
X30998117Y-78451505D01*
X30733036Y-78544260D01*
X30733022Y-78544266D01*
X30479988Y-78666121D01*
X30479982Y-78666124D01*
X30242188Y-78815541D01*
X30022614Y-78990646D01*
X30022606Y-78990653D01*
X29824024Y-79189235D01*
X29824017Y-79189243D01*
X29648912Y-79408817D01*
X29499495Y-79646611D01*
X29499492Y-79646617D01*
X29377637Y-79899651D01*
X29377631Y-79899665D01*
X29284876Y-80164746D01*
X29222381Y-80438554D01*
X29190936Y-80717627D01*
X24500500Y-80717627D01*
X24500500Y-75008196D01*
X34944500Y-75008196D01*
X34944500Y-75339361D01*
X34976959Y-75668925D01*
X35041568Y-75993740D01*
X35137693Y-76310622D01*
X35137701Y-76310643D01*
X35264427Y-76616589D01*
X35264429Y-76616592D01*
X35420534Y-76908645D01*
X35420539Y-76908652D01*
X35604524Y-77184005D01*
X35814612Y-77439998D01*
X36048781Y-77674167D01*
X36304774Y-77884255D01*
X36576460Y-78065789D01*
X36580124Y-78068238D01*
X36580133Y-78068244D01*
X36872186Y-78224349D01*
X36872189Y-78224351D01*
X37013076Y-78282708D01*
X37178143Y-78351081D01*
X37495048Y-78447213D01*
X37819848Y-78511819D01*
X38149418Y-78544279D01*
X38149421Y-78544279D01*
X38480579Y-78544279D01*
X38480582Y-78544279D01*
X38810152Y-78511819D01*
X39134952Y-78447213D01*
X39451857Y-78351081D01*
X39757812Y-78224350D01*
X40049873Y-78068240D01*
X40325226Y-77884255D01*
X40581219Y-77674167D01*
X40815388Y-77439998D01*
X41025476Y-77184005D01*
X41209461Y-76908652D01*
X41365571Y-76616591D01*
X41492302Y-76310636D01*
X41588434Y-75993731D01*
X41653040Y-75668931D01*
X41685500Y-75339361D01*
X41685500Y-75008197D01*
X41653040Y-74678627D01*
X41588434Y-74353827D01*
X41497010Y-74052442D01*
X49002011Y-74052442D01*
X49195588Y-74115340D01*
X49397676Y-74147347D01*
X49397692Y-74147349D01*
X49602308Y-74147349D01*
X49602323Y-74147347D01*
X49804412Y-74115340D01*
X49804414Y-74115339D01*
X49997987Y-74052443D01*
X49499999Y-73554455D01*
X49002011Y-74052442D01*
X41497010Y-74052442D01*
X41492302Y-74036922D01*
X41365571Y-73730967D01*
X41311332Y-73629493D01*
X41307373Y-73620418D01*
X41299080Y-73582449D01*
X41287799Y-73545259D01*
X41288780Y-73535289D01*
X41286643Y-73525500D01*
X41293513Y-73487241D01*
X41297322Y-73448572D01*
X41302043Y-73439737D01*
X41303815Y-73429875D01*
X41324802Y-73397158D01*
X41343120Y-73362889D01*
X41350863Y-73356533D01*
X41356274Y-73348100D01*
X41388179Y-73325909D01*
X41418221Y-73301254D01*
X41429355Y-73297270D01*
X41436034Y-73292625D01*
X41452214Y-73289091D01*
X41487017Y-73276638D01*
X41634952Y-73247213D01*
X41951857Y-73151081D01*
X42257812Y-73024350D01*
X42549873Y-72868240D01*
X42734253Y-72745041D01*
X48200000Y-72745041D01*
X48200000Y-72949656D01*
X48200001Y-72949672D01*
X48232009Y-73151763D01*
X48294904Y-73345337D01*
X48792893Y-72847349D01*
X48740232Y-72794688D01*
X49100000Y-72794688D01*
X49100000Y-72900010D01*
X49127259Y-73001743D01*
X49179920Y-73092955D01*
X49254394Y-73167429D01*
X49345606Y-73220090D01*
X49447339Y-73247349D01*
X49552661Y-73247349D01*
X49654394Y-73220090D01*
X49745606Y-73167429D01*
X49820080Y-73092955D01*
X49872741Y-73001743D01*
X49900000Y-72900010D01*
X49900000Y-72847348D01*
X50207106Y-72847348D01*
X50705094Y-73345336D01*
X50767990Y-73151763D01*
X50767991Y-73151761D01*
X50799998Y-72949672D01*
X50800000Y-72949656D01*
X50800000Y-72745041D01*
X50799998Y-72745025D01*
X50767991Y-72542937D01*
X50705093Y-72349360D01*
X50207106Y-72847348D01*
X49900000Y-72847348D01*
X49900000Y-72794688D01*
X49872741Y-72692955D01*
X49820080Y-72601743D01*
X49745606Y-72527269D01*
X49654394Y-72474608D01*
X49552661Y-72447349D01*
X49447339Y-72447349D01*
X49345606Y-72474608D01*
X49254394Y-72527269D01*
X49179920Y-72601743D01*
X49127259Y-72692955D01*
X49100000Y-72794688D01*
X48740232Y-72794688D01*
X48294904Y-72349360D01*
X48232012Y-72542925D01*
X48232007Y-72542944D01*
X48200001Y-72745025D01*
X48200000Y-72745041D01*
X42734253Y-72745041D01*
X42825226Y-72684255D01*
X43002542Y-72538736D01*
X43068311Y-72484760D01*
X43081219Y-72474167D01*
X43315388Y-72239998D01*
X43525476Y-71984005D01*
X43709461Y-71708652D01*
X43865571Y-71416591D01*
X43873751Y-71396844D01*
X43882664Y-71375324D01*
X43992302Y-71110636D01*
X44088434Y-70793731D01*
X44153040Y-70468931D01*
X44185500Y-70139361D01*
X44185500Y-69808197D01*
X44153040Y-69478627D01*
X44088434Y-69153827D01*
X43992302Y-68836922D01*
X43949306Y-68733120D01*
X47699500Y-68733120D01*
X47699500Y-69961557D01*
X47699501Y-69961565D01*
X47709904Y-70093761D01*
X47764904Y-70312032D01*
X47857993Y-70516975D01*
X47857995Y-70516978D01*
X47857996Y-70516980D01*
X47986177Y-70701998D01*
X47986178Y-70701999D01*
X47986181Y-70702003D01*
X48145346Y-70861168D01*
X48330374Y-70989356D01*
X48535317Y-71082445D01*
X48753588Y-71137445D01*
X48753591Y-71137445D01*
X48753594Y-71137446D01*
X48825009Y-71143066D01*
X48885783Y-71147849D01*
X48951509Y-71147848D01*
X49046794Y-71166801D01*
X49127576Y-71220776D01*
X49181554Y-71301557D01*
X49200509Y-71396844D01*
X49181556Y-71492133D01*
X49127581Y-71572915D01*
X49046800Y-71626893D01*
X49028455Y-71633661D01*
X49002011Y-71642253D01*
X49500000Y-72140242D01*
X49997988Y-71642253D01*
X49971542Y-71633661D01*
X49886775Y-71586189D01*
X49826627Y-71509892D01*
X49800255Y-71416385D01*
X49811674Y-71319903D01*
X49859146Y-71235136D01*
X49935443Y-71174988D01*
X50028950Y-71148616D01*
X50048485Y-71147848D01*
X50114216Y-71147848D01*
X50246412Y-71137445D01*
X50464683Y-71082445D01*
X50669626Y-70989356D01*
X50854654Y-70861168D01*
X51013819Y-70702003D01*
X51142007Y-70516975D01*
X51235096Y-70312032D01*
X51290096Y-70093761D01*
X51300500Y-69961566D01*
X51300499Y-68733133D01*
X51290096Y-68600937D01*
X51235096Y-68382666D01*
X51142007Y-68177723D01*
X51013819Y-67992695D01*
X50854654Y-67833530D01*
X50854650Y-67833527D01*
X50854649Y-67833526D01*
X50669631Y-67705345D01*
X50669629Y-67705344D01*
X50669626Y-67705342D01*
X50532776Y-67643182D01*
X50464686Y-67612254D01*
X50464684Y-67612253D01*
X50464683Y-67612253D01*
X50246412Y-67557253D01*
X50246411Y-67557252D01*
X50246408Y-67557252D01*
X50246405Y-67557251D01*
X50114222Y-67546849D01*
X48885791Y-67546849D01*
X48753587Y-67557253D01*
X48535313Y-67612254D01*
X48381941Y-67681919D01*
X48330374Y-67705342D01*
X48330372Y-67705342D01*
X48330368Y-67705345D01*
X48145350Y-67833526D01*
X47986177Y-67992699D01*
X47857996Y-68177717D01*
X47764905Y-68382662D01*
X47709903Y-68600940D01*
X47709902Y-68600943D01*
X47699500Y-68733120D01*
X43949306Y-68733120D01*
X43894553Y-68600936D01*
X43865572Y-68530968D01*
X43865570Y-68530965D01*
X43709465Y-68238912D01*
X43709459Y-68238903D01*
X43668576Y-68177717D01*
X43525476Y-67963553D01*
X43315388Y-67707560D01*
X43081219Y-67473391D01*
X42825226Y-67263303D01*
X42779502Y-67232751D01*
X42549875Y-67079319D01*
X42549866Y-67079313D01*
X42257813Y-66923208D01*
X42257810Y-66923206D01*
X41951864Y-66796480D01*
X41951857Y-66796477D01*
X41951852Y-66796475D01*
X41951843Y-66796472D01*
X41634961Y-66700347D01*
X41634954Y-66700345D01*
X41634952Y-66700345D01*
X41310152Y-66635739D01*
X41310150Y-66635738D01*
X41310146Y-66635738D01*
X40980582Y-66603279D01*
X40649418Y-66603279D01*
X40649417Y-66603279D01*
X40319853Y-66635738D01*
X39995038Y-66700347D01*
X39678156Y-66796472D01*
X39678135Y-66796480D01*
X39372189Y-66923206D01*
X39372186Y-66923208D01*
X39080133Y-67079313D01*
X39080124Y-67079319D01*
X38804776Y-67263301D01*
X38548784Y-67473388D01*
X38314609Y-67707563D01*
X38104522Y-67963555D01*
X37920540Y-68238903D01*
X37920534Y-68238912D01*
X37764429Y-68530965D01*
X37764427Y-68530968D01*
X37637701Y-68836914D01*
X37637693Y-68836935D01*
X37541568Y-69153817D01*
X37476959Y-69478632D01*
X37444500Y-69808196D01*
X37444500Y-70139361D01*
X37461506Y-70312032D01*
X37476960Y-70468931D01*
X37523320Y-70702003D01*
X37541568Y-70793740D01*
X37637693Y-71110622D01*
X37637701Y-71110643D01*
X37764427Y-71416589D01*
X37764429Y-71416592D01*
X37813997Y-71509327D01*
X37842200Y-71602299D01*
X37832677Y-71698986D01*
X37786879Y-71784669D01*
X37711777Y-71846303D01*
X37642978Y-71870920D01*
X37495048Y-71900345D01*
X37495038Y-71900347D01*
X37178156Y-71996472D01*
X37178135Y-71996480D01*
X36872189Y-72123206D01*
X36872186Y-72123208D01*
X36580133Y-72279313D01*
X36580124Y-72279319D01*
X36304776Y-72463301D01*
X36048784Y-72673388D01*
X35814609Y-72907563D01*
X35604522Y-73163555D01*
X35420540Y-73438903D01*
X35420534Y-73438912D01*
X35264429Y-73730965D01*
X35264427Y-73730968D01*
X35137701Y-74036914D01*
X35137693Y-74036935D01*
X35041568Y-74353817D01*
X34976959Y-74678632D01*
X34944500Y-75008196D01*
X24500500Y-75008196D01*
X24500500Y-72714806D01*
X24519454Y-72619518D01*
X24573430Y-72538736D01*
X24654212Y-72484760D01*
X24749500Y-72465806D01*
X24844788Y-72484760D01*
X24907459Y-72522323D01*
X25104774Y-72684255D01*
X25150497Y-72714806D01*
X25380124Y-72868238D01*
X25380133Y-72868244D01*
X25672186Y-73024349D01*
X25672189Y-73024351D01*
X25813076Y-73082708D01*
X25978143Y-73151081D01*
X25978155Y-73151084D01*
X25978156Y-73151085D01*
X25980391Y-73151763D01*
X26295048Y-73247213D01*
X26619848Y-73311819D01*
X26949418Y-73344279D01*
X26949421Y-73344279D01*
X27280579Y-73344279D01*
X27280582Y-73344279D01*
X27610152Y-73311819D01*
X27934952Y-73247213D01*
X28251857Y-73151081D01*
X28557812Y-73024350D01*
X28849873Y-72868240D01*
X29125226Y-72684255D01*
X29381219Y-72474167D01*
X29615388Y-72239998D01*
X29825476Y-71984005D01*
X30009461Y-71708652D01*
X30165571Y-71416591D01*
X30173751Y-71396844D01*
X30182664Y-71375324D01*
X30292302Y-71110636D01*
X30388434Y-70793731D01*
X30453040Y-70468931D01*
X30485500Y-70139361D01*
X30485500Y-69808197D01*
X30453040Y-69478627D01*
X30388434Y-69153827D01*
X30292302Y-68836922D01*
X30194553Y-68600936D01*
X30165572Y-68530968D01*
X30165570Y-68530965D01*
X30009465Y-68238912D01*
X30009459Y-68238903D01*
X29968576Y-68177717D01*
X29825476Y-67963553D01*
X29615388Y-67707560D01*
X29381219Y-67473391D01*
X29125226Y-67263303D01*
X29079502Y-67232751D01*
X28849875Y-67079319D01*
X28849866Y-67079313D01*
X28557813Y-66923208D01*
X28557810Y-66923206D01*
X28251864Y-66796480D01*
X28251857Y-66796477D01*
X28251852Y-66796475D01*
X28251843Y-66796472D01*
X27934961Y-66700347D01*
X27934954Y-66700345D01*
X27934952Y-66700345D01*
X27610152Y-66635739D01*
X27610150Y-66635738D01*
X27610146Y-66635738D01*
X27280582Y-66603279D01*
X26949418Y-66603279D01*
X26949417Y-66603279D01*
X26619853Y-66635738D01*
X26295038Y-66700347D01*
X25978156Y-66796472D01*
X25978135Y-66796480D01*
X25672189Y-66923206D01*
X25672186Y-66923208D01*
X25380133Y-67079313D01*
X25380124Y-67079319D01*
X25104776Y-67263301D01*
X25104765Y-67263309D01*
X24907463Y-67425231D01*
X24821780Y-67471029D01*
X24725093Y-67480552D01*
X24632122Y-67452349D01*
X24557020Y-67390714D01*
X24511222Y-67305031D01*
X24500500Y-67232751D01*
X24500500Y-65080000D01*
X55587713Y-65080000D01*
X55606416Y-65137566D01*
X55710213Y-65341280D01*
X55844592Y-65526236D01*
X56006263Y-65687907D01*
X56191220Y-65822286D01*
X56191219Y-65822286D01*
X56394936Y-65926084D01*
X56394941Y-65926086D01*
X56499999Y-65960222D01*
X56500000Y-65960222D01*
X56500000Y-65080001D01*
X56499999Y-65080000D01*
X55587713Y-65080000D01*
X24500500Y-65080000D01*
X24500500Y-63453842D01*
X30675622Y-63453842D01*
X30804952Y-63528511D01*
X31047182Y-63628847D01*
X31300423Y-63696701D01*
X31300421Y-63696701D01*
X31560348Y-63730922D01*
X31822524Y-63730922D01*
X32082449Y-63696701D01*
X32335692Y-63628846D01*
X32577911Y-63528515D01*
X32707248Y-63453842D01*
X31691435Y-62438029D01*
X30675622Y-63453842D01*
X24500500Y-63453842D01*
X24500500Y-61599834D01*
X29691436Y-61599834D01*
X29691436Y-61862009D01*
X29725656Y-62121935D01*
X29793511Y-62375178D01*
X29893838Y-62617389D01*
X29893840Y-62617393D01*
X29968514Y-62746733D01*
X30984327Y-61730921D01*
X30915384Y-61661978D01*
X30991436Y-61661978D01*
X30991436Y-61799866D01*
X31018337Y-61935104D01*
X31071104Y-62062496D01*
X31147710Y-62177146D01*
X31245212Y-62274648D01*
X31359862Y-62351254D01*
X31487254Y-62404021D01*
X31622492Y-62430922D01*
X31760380Y-62430922D01*
X31895618Y-62404021D01*
X32023010Y-62351254D01*
X32137660Y-62274648D01*
X32235162Y-62177146D01*
X32311768Y-62062496D01*
X32364535Y-61935104D01*
X32391436Y-61799866D01*
X32391436Y-61730921D01*
X32398543Y-61730921D01*
X33414356Y-62746734D01*
X33489029Y-62617397D01*
X33589360Y-62375178D01*
X33657215Y-62121935D01*
X33691436Y-61862009D01*
X33691436Y-61599834D01*
X33690205Y-61590484D01*
X41890936Y-61590484D01*
X41890936Y-61871359D01*
X41922381Y-62150432D01*
X41984876Y-62424240D01*
X42077631Y-62689321D01*
X42077637Y-62689335D01*
X42199492Y-62942369D01*
X42199495Y-62942375D01*
X42348912Y-63180169D01*
X42439282Y-63293489D01*
X42524020Y-63399747D01*
X42722611Y-63598338D01*
X42942188Y-63773445D01*
X43179982Y-63922862D01*
X43179987Y-63922864D01*
X43179991Y-63922867D01*
X43433028Y-64044723D01*
X43433033Y-64044724D01*
X43433036Y-64044726D01*
X43477341Y-64060228D01*
X43698118Y-64137482D01*
X43971927Y-64199977D01*
X44146353Y-64219630D01*
X44250998Y-64231421D01*
X44251011Y-64231422D01*
X44531861Y-64231422D01*
X44531873Y-64231421D01*
X44611147Y-64222488D01*
X44810945Y-64199977D01*
X45084754Y-64137482D01*
X45349844Y-64044723D01*
X45602881Y-63922867D01*
X45840684Y-63773445D01*
X46060261Y-63598338D01*
X46258852Y-63399747D01*
X46433959Y-63180170D01*
X46583381Y-62942367D01*
X46705237Y-62689330D01*
X46797996Y-62424240D01*
X46860491Y-62150431D01*
X46891936Y-61871347D01*
X46891936Y-61590497D01*
X46884752Y-61526740D01*
X46871698Y-61410882D01*
X46860491Y-61311413D01*
X46797996Y-61037604D01*
X46705237Y-60772514D01*
X46583381Y-60519477D01*
X46583378Y-60519473D01*
X46583376Y-60519468D01*
X46433959Y-60281674D01*
X46258852Y-60062097D01*
X46060261Y-59863506D01*
X45840684Y-59688399D01*
X45840685Y-59688399D01*
X45840683Y-59688398D01*
X45602889Y-59538981D01*
X45602883Y-59538978D01*
X45349849Y-59417123D01*
X45349835Y-59417117D01*
X45162006Y-59351393D01*
X45084754Y-59324362D01*
X45084756Y-59324362D01*
X44810946Y-59261867D01*
X44531873Y-59230422D01*
X44531861Y-59230422D01*
X44251011Y-59230422D01*
X44250998Y-59230422D01*
X43971925Y-59261867D01*
X43698117Y-59324362D01*
X43433036Y-59417117D01*
X43433022Y-59417123D01*
X43179988Y-59538978D01*
X43179982Y-59538981D01*
X42942188Y-59688398D01*
X42722614Y-59863503D01*
X42722606Y-59863510D01*
X42524024Y-60062092D01*
X42524017Y-60062100D01*
X42348912Y-60281674D01*
X42199495Y-60519468D01*
X42199492Y-60519474D01*
X42077637Y-60772508D01*
X42077631Y-60772522D01*
X41984876Y-61037603D01*
X41922381Y-61311411D01*
X41890936Y-61590484D01*
X33690205Y-61590484D01*
X33657215Y-61339908D01*
X33589361Y-61086668D01*
X33489025Y-60844438D01*
X33414356Y-60715108D01*
X32398543Y-61730921D01*
X32391436Y-61730921D01*
X32391436Y-61661978D01*
X32364535Y-61526740D01*
X32311768Y-61399348D01*
X32235162Y-61284698D01*
X32137660Y-61187196D01*
X32023010Y-61110590D01*
X31895618Y-61057823D01*
X31760380Y-61030922D01*
X31622492Y-61030922D01*
X31487254Y-61057823D01*
X31359862Y-61110590D01*
X31245212Y-61187196D01*
X31147710Y-61284698D01*
X31071104Y-61399348D01*
X31018337Y-61526740D01*
X30991436Y-61661978D01*
X30915384Y-61661978D01*
X29968514Y-60715108D01*
X29893844Y-60844443D01*
X29893838Y-60844454D01*
X29793511Y-61086665D01*
X29725656Y-61339908D01*
X29691436Y-61599834D01*
X24500500Y-61599834D01*
X24500500Y-60008000D01*
X30675622Y-60008000D01*
X31691435Y-61023813D01*
X32707248Y-60008000D01*
X32577907Y-59933326D01*
X32577903Y-59933324D01*
X32335692Y-59832997D01*
X32082448Y-59765142D01*
X32082450Y-59765142D01*
X31822524Y-59730922D01*
X31560348Y-59730922D01*
X31300422Y-59765142D01*
X31047179Y-59832997D01*
X30804968Y-59933324D01*
X30804957Y-59933330D01*
X30675622Y-60008000D01*
X24500500Y-60008000D01*
X24500500Y-58489463D01*
X54999500Y-58489463D01*
X54999500Y-60510531D01*
X54999501Y-60510543D01*
X55010113Y-60629914D01*
X55066090Y-60825545D01*
X55066093Y-60825553D01*
X55165911Y-61016646D01*
X55193229Y-61109881D01*
X55182787Y-61206473D01*
X55175253Y-61227218D01*
X55099180Y-61410876D01*
X55099176Y-61410888D01*
X55032916Y-61658174D01*
X55004851Y-61871347D01*
X54999500Y-61911994D01*
X54999500Y-62168006D01*
X55032917Y-62421829D01*
X55099178Y-62669118D01*
X55107550Y-62689330D01*
X55197146Y-62905635D01*
X55197148Y-62905639D01*
X55325153Y-63127352D01*
X55325163Y-63127367D01*
X55407484Y-63234649D01*
X55481007Y-63330465D01*
X55662035Y-63511493D01*
X55662039Y-63511496D01*
X55667799Y-63517256D01*
X55666304Y-63518750D01*
X55717203Y-63585097D01*
X55742339Y-63678944D01*
X55729647Y-63775267D01*
X55713607Y-63809474D01*
X55714653Y-63810007D01*
X55606416Y-64022433D01*
X55587713Y-64080000D01*
X56766026Y-64080000D01*
X56662292Y-64139890D01*
X56559890Y-64242292D01*
X56487482Y-64367708D01*
X56450000Y-64507591D01*
X56450000Y-64652409D01*
X56487482Y-64792292D01*
X56559890Y-64917708D01*
X56662292Y-65020110D01*
X56787708Y-65092518D01*
X56927591Y-65130000D01*
X57072409Y-65130000D01*
X57212292Y-65092518D01*
X57233972Y-65080001D01*
X57500000Y-65080001D01*
X57500000Y-65960222D01*
X57605058Y-65926086D01*
X57605063Y-65926084D01*
X57808780Y-65822286D01*
X57993736Y-65687907D01*
X58155407Y-65526236D01*
X58289786Y-65341280D01*
X58393583Y-65137566D01*
X58412287Y-65080000D01*
X57500001Y-65080000D01*
X57500000Y-65080001D01*
X57233972Y-65080001D01*
X57337708Y-65020110D01*
X57440110Y-64917708D01*
X57512518Y-64792292D01*
X57550000Y-64652409D01*
X57550000Y-64507591D01*
X57512518Y-64367708D01*
X57440110Y-64242292D01*
X57337708Y-64139890D01*
X57233974Y-64080000D01*
X58412287Y-64080000D01*
X58393583Y-64022433D01*
X58285347Y-63810007D01*
X58287735Y-63808790D01*
X58260202Y-63734204D01*
X58263998Y-63637123D01*
X58304655Y-63548885D01*
X58332888Y-63517945D01*
X58332201Y-63517258D01*
X58455638Y-63393820D01*
X58518993Y-63330465D01*
X58674844Y-63127357D01*
X58802850Y-62905643D01*
X58900822Y-62669118D01*
X58967083Y-62421829D01*
X59000500Y-62168006D01*
X59000500Y-61911994D01*
X58967083Y-61658171D01*
X58900822Y-61410882D01*
X58824745Y-61227218D01*
X58805792Y-61131931D01*
X58824746Y-61036643D01*
X58834088Y-61016645D01*
X58839695Y-61005910D01*
X58839698Y-61005907D01*
X58933909Y-60825549D01*
X58979627Y-60665770D01*
X63899500Y-60665770D01*
X63899500Y-62494229D01*
X63909902Y-62626401D01*
X63909904Y-62626414D01*
X63964903Y-62844684D01*
X64057992Y-63049625D01*
X64057997Y-63049634D01*
X64186176Y-63234649D01*
X64186177Y-63234650D01*
X64186180Y-63234654D01*
X64345346Y-63393820D01*
X64345349Y-63393822D01*
X64345350Y-63393823D01*
X64530365Y-63522002D01*
X64530368Y-63522004D01*
X64530373Y-63522007D01*
X64735316Y-63615097D01*
X64953587Y-63670096D01*
X64953596Y-63670096D01*
X64953598Y-63670097D01*
X65047078Y-63677453D01*
X65085782Y-63680500D01*
X65085783Y-63680500D01*
X66914217Y-63680500D01*
X66914218Y-63680500D01*
X67007709Y-63673142D01*
X67046401Y-63670097D01*
X67046401Y-63670096D01*
X67046413Y-63670096D01*
X67264684Y-63615097D01*
X67469627Y-63522007D01*
X67654654Y-63393820D01*
X67813820Y-63234654D01*
X67942007Y-63049627D01*
X68035097Y-62844684D01*
X68090096Y-62626413D01*
X68100500Y-62494218D01*
X68100500Y-60665782D01*
X68090096Y-60533587D01*
X68035097Y-60315316D01*
X67942007Y-60110373D01*
X67942004Y-60110368D01*
X67942002Y-60110365D01*
X67813823Y-59925350D01*
X67813822Y-59925349D01*
X67813820Y-59925346D01*
X67654654Y-59766180D01*
X67654650Y-59766177D01*
X67654649Y-59766176D01*
X67469634Y-59637997D01*
X67469625Y-59637992D01*
X67264684Y-59544903D01*
X67046414Y-59489904D01*
X67046401Y-59489902D01*
X66914229Y-59479500D01*
X66914218Y-59479500D01*
X65085782Y-59479500D01*
X65085770Y-59479500D01*
X64953598Y-59489902D01*
X64953585Y-59489904D01*
X64735315Y-59544903D01*
X64530374Y-59637992D01*
X64530365Y-59637997D01*
X64345350Y-59766176D01*
X64186176Y-59925350D01*
X64057997Y-60110365D01*
X64057992Y-60110374D01*
X63964903Y-60315315D01*
X63909904Y-60533585D01*
X63909902Y-60533598D01*
X63899500Y-60665770D01*
X58979627Y-60665770D01*
X58989886Y-60629918D01*
X59000500Y-60510537D01*
X59000499Y-58489464D01*
X58989886Y-58370082D01*
X58933909Y-58174451D01*
X58839698Y-57994093D01*
X58711109Y-57836391D01*
X58553407Y-57707802D01*
X58553402Y-57707799D01*
X58373053Y-57613593D01*
X58373052Y-57613592D01*
X58373049Y-57613591D01*
X58177418Y-57557614D01*
X58058037Y-57547000D01*
X58058035Y-57547000D01*
X55941968Y-57547000D01*
X55941956Y-57547001D01*
X55822585Y-57557613D01*
X55626954Y-57613590D01*
X55626946Y-57613593D01*
X55446597Y-57707799D01*
X55446592Y-57707802D01*
X55288893Y-57836389D01*
X55288889Y-57836393D01*
X55160302Y-57994092D01*
X55160299Y-57994097D01*
X55066093Y-58174446D01*
X55066090Y-58174454D01*
X55010115Y-58370078D01*
X55010114Y-58370082D01*
X54999500Y-58489463D01*
X24500500Y-58489463D01*
X24500500Y-51282326D01*
X63899500Y-51282326D01*
X63899500Y-51557674D01*
X63935440Y-51830666D01*
X64006705Y-52096632D01*
X64112077Y-52351021D01*
X64112079Y-52351025D01*
X64112081Y-52351029D01*
X64249745Y-52589469D01*
X64249751Y-52589479D01*
X64417372Y-52807928D01*
X64612072Y-53002628D01*
X64830521Y-53170249D01*
X64830530Y-53170254D01*
X64830530Y-53170255D01*
X65068970Y-53307918D01*
X65068979Y-53307923D01*
X65323368Y-53413295D01*
X65589334Y-53484560D01*
X65862326Y-53520500D01*
X66137674Y-53520500D01*
X66410666Y-53484560D01*
X66676632Y-53413295D01*
X66931021Y-53307923D01*
X67169479Y-53170249D01*
X67387928Y-53002628D01*
X67582628Y-52807928D01*
X67750249Y-52589479D01*
X67887923Y-52351021D01*
X67993295Y-52096632D01*
X68064560Y-51830666D01*
X68100500Y-51557674D01*
X68100500Y-51282326D01*
X68064560Y-51009334D01*
X67993295Y-50743368D01*
X67887923Y-50488979D01*
X67750249Y-50250521D01*
X67582628Y-50032072D01*
X67387928Y-49837372D01*
X67169479Y-49669751D01*
X67169469Y-49669745D01*
X67169469Y-49669744D01*
X66931029Y-49532081D01*
X66931025Y-49532079D01*
X66931021Y-49532077D01*
X66676632Y-49426705D01*
X66676633Y-49426705D01*
X66676630Y-49426704D01*
X66561460Y-49395845D01*
X66410666Y-49355440D01*
X66410661Y-49355439D01*
X66410662Y-49355439D01*
X66137674Y-49319500D01*
X65862326Y-49319500D01*
X65589338Y-49355439D01*
X65323370Y-49426704D01*
X65323369Y-49426704D01*
X65149650Y-49498661D01*
X65068979Y-49532077D01*
X65068977Y-49532077D01*
X65068970Y-49532081D01*
X64830530Y-49669744D01*
X64830530Y-49669745D01*
X64830525Y-49669748D01*
X64830521Y-49669751D01*
X64666684Y-49795466D01*
X64612069Y-49837374D01*
X64417374Y-50032069D01*
X64417372Y-50032072D01*
X64249751Y-50250521D01*
X64249748Y-50250525D01*
X64249745Y-50250530D01*
X64249744Y-50250530D01*
X64112081Y-50488970D01*
X64006704Y-50743369D01*
X64006704Y-50743370D01*
X63935440Y-51009334D01*
X63899500Y-51282326D01*
X24500500Y-51282326D01*
X24500500Y-45360484D01*
X29190936Y-45360484D01*
X29190936Y-45641359D01*
X29222381Y-45920432D01*
X29284876Y-46194240D01*
X29377631Y-46459321D01*
X29377637Y-46459335D01*
X29499492Y-46712369D01*
X29499495Y-46712375D01*
X29648912Y-46950169D01*
X29648913Y-46950170D01*
X29824020Y-47169747D01*
X30022611Y-47368338D01*
X30149621Y-47469625D01*
X30242188Y-47543445D01*
X30479982Y-47692862D01*
X30479987Y-47692864D01*
X30479991Y-47692867D01*
X30733028Y-47814723D01*
X30733033Y-47814724D01*
X30733036Y-47814726D01*
X30777341Y-47830228D01*
X30998118Y-47907482D01*
X31271927Y-47969977D01*
X31446353Y-47989630D01*
X31550998Y-48001421D01*
X31551011Y-48001422D01*
X31831861Y-48001422D01*
X31831873Y-48001421D01*
X31911147Y-47992488D01*
X32110945Y-47969977D01*
X32384754Y-47907482D01*
X32649844Y-47814723D01*
X32902881Y-47692867D01*
X33140684Y-47543445D01*
X33360261Y-47368338D01*
X33558852Y-47169747D01*
X33733959Y-46950170D01*
X33883381Y-46712367D01*
X34005237Y-46459330D01*
X34097996Y-46194240D01*
X34160491Y-45920431D01*
X34191936Y-45641347D01*
X34191936Y-45360497D01*
X34191934Y-45360484D01*
X41890936Y-45360484D01*
X41890936Y-45641359D01*
X41922381Y-45920432D01*
X41984876Y-46194240D01*
X42077631Y-46459321D01*
X42077637Y-46459335D01*
X42199492Y-46712369D01*
X42199495Y-46712375D01*
X42348912Y-46950169D01*
X42348913Y-46950170D01*
X42524020Y-47169747D01*
X42722611Y-47368338D01*
X42849621Y-47469625D01*
X42942188Y-47543445D01*
X43179982Y-47692862D01*
X43179987Y-47692864D01*
X43179991Y-47692867D01*
X43433028Y-47814723D01*
X43433033Y-47814724D01*
X43433036Y-47814726D01*
X43477341Y-47830228D01*
X43698118Y-47907482D01*
X43971927Y-47969977D01*
X44146353Y-47989630D01*
X44250998Y-48001421D01*
X44251011Y-48001422D01*
X44531861Y-48001422D01*
X44531873Y-48001421D01*
X44611147Y-47992488D01*
X44810945Y-47969977D01*
X45084754Y-47907482D01*
X45349844Y-47814723D01*
X45602881Y-47692867D01*
X45840684Y-47543445D01*
X46060261Y-47368338D01*
X46258852Y-47169747D01*
X46433959Y-46950170D01*
X46583381Y-46712367D01*
X46705237Y-46459330D01*
X46797996Y-46194240D01*
X46860491Y-45920431D01*
X46891936Y-45641347D01*
X46891936Y-45360497D01*
X46891935Y-45360484D01*
X46891935Y-45360482D01*
X46863574Y-45108771D01*
X46860983Y-45085782D01*
X46860982Y-45085770D01*
X53819500Y-45085770D01*
X53819500Y-46914229D01*
X53829902Y-47046401D01*
X53829904Y-47046414D01*
X53884903Y-47264684D01*
X53977992Y-47469625D01*
X53977997Y-47469634D01*
X54106176Y-47654649D01*
X54106177Y-47654650D01*
X54106180Y-47654654D01*
X54265346Y-47813820D01*
X54265349Y-47813822D01*
X54265350Y-47813823D01*
X54450365Y-47942002D01*
X54450368Y-47942004D01*
X54450373Y-47942007D01*
X54655316Y-48035097D01*
X54873587Y-48090096D01*
X54873596Y-48090096D01*
X54873598Y-48090097D01*
X54967078Y-48097453D01*
X55005782Y-48100500D01*
X55005783Y-48100500D01*
X56834217Y-48100500D01*
X56834218Y-48100500D01*
X56927709Y-48093142D01*
X56966401Y-48090097D01*
X56966401Y-48090096D01*
X56966413Y-48090096D01*
X57184684Y-48035097D01*
X57389627Y-47942007D01*
X57574654Y-47813820D01*
X57733820Y-47654654D01*
X57862007Y-47469627D01*
X57880793Y-47428269D01*
X65358835Y-47428269D01*
X65358835Y-47428270D01*
X65465807Y-47482776D01*
X65465822Y-47482782D01*
X65705325Y-47560600D01*
X65705344Y-47560605D01*
X65954065Y-47599998D01*
X65954081Y-47600000D01*
X66205919Y-47600000D01*
X66205934Y-47599998D01*
X66454655Y-47560605D01*
X66454674Y-47560600D01*
X66694180Y-47482781D01*
X66694190Y-47482777D01*
X66801163Y-47428270D01*
X66079999Y-46707106D01*
X65358835Y-47428269D01*
X57880793Y-47428269D01*
X57955097Y-47264684D01*
X58010096Y-47046413D01*
X58020500Y-46914218D01*
X58020500Y-45874081D01*
X64480000Y-45874081D01*
X64480000Y-46125918D01*
X64480001Y-46125934D01*
X64519394Y-46374655D01*
X64519399Y-46374674D01*
X64597217Y-46614179D01*
X64597220Y-46614186D01*
X64651729Y-46721163D01*
X65372894Y-45999999D01*
X65300486Y-45927591D01*
X65530000Y-45927591D01*
X65530000Y-46072409D01*
X65567482Y-46212292D01*
X65639890Y-46337708D01*
X65742292Y-46440110D01*
X65867708Y-46512518D01*
X66007591Y-46550000D01*
X66152409Y-46550000D01*
X66292292Y-46512518D01*
X66417708Y-46440110D01*
X66520110Y-46337708D01*
X66592518Y-46212292D01*
X66630000Y-46072409D01*
X66630000Y-45999999D01*
X66787106Y-45999999D01*
X67508270Y-46721163D01*
X67562777Y-46614190D01*
X67562781Y-46614180D01*
X67640600Y-46374674D01*
X67640605Y-46374655D01*
X67679998Y-46125934D01*
X67680000Y-46125918D01*
X67680000Y-45874081D01*
X67679998Y-45874065D01*
X67640605Y-45625344D01*
X67640600Y-45625325D01*
X67562782Y-45385822D01*
X67562776Y-45385807D01*
X67508270Y-45278835D01*
X67508269Y-45278835D01*
X66787106Y-45999999D01*
X66630000Y-45999999D01*
X66630000Y-45927591D01*
X66592518Y-45787708D01*
X66520110Y-45662292D01*
X66417708Y-45559890D01*
X66292292Y-45487482D01*
X66152409Y-45450000D01*
X66007591Y-45450000D01*
X65867708Y-45487482D01*
X65742292Y-45559890D01*
X65639890Y-45662292D01*
X65567482Y-45787708D01*
X65530000Y-45927591D01*
X65300486Y-45927591D01*
X64651729Y-45278834D01*
X64597221Y-45385812D01*
X64597218Y-45385819D01*
X64519398Y-45625329D01*
X64519394Y-45625344D01*
X64480001Y-45874065D01*
X64480000Y-45874081D01*
X58020500Y-45874081D01*
X58020500Y-45085782D01*
X58010096Y-44953587D01*
X57955097Y-44735316D01*
X57880792Y-44571729D01*
X65358834Y-44571729D01*
X66079999Y-45292893D01*
X66801163Y-44571729D01*
X66801163Y-44571728D01*
X66694186Y-44517220D01*
X66694179Y-44517217D01*
X66454674Y-44439399D01*
X66454655Y-44439394D01*
X66205934Y-44400001D01*
X66205919Y-44400000D01*
X65954081Y-44400000D01*
X65954065Y-44400001D01*
X65705344Y-44439394D01*
X65705329Y-44439398D01*
X65465819Y-44517218D01*
X65465812Y-44517221D01*
X65358834Y-44571729D01*
X57880792Y-44571729D01*
X57862007Y-44530373D01*
X57862004Y-44530368D01*
X57862002Y-44530365D01*
X57733823Y-44345350D01*
X57733822Y-44345349D01*
X57733820Y-44345346D01*
X57574654Y-44186180D01*
X57574650Y-44186177D01*
X57574649Y-44186176D01*
X57389634Y-44057997D01*
X57389625Y-44057992D01*
X57184684Y-43964903D01*
X56966414Y-43909904D01*
X56966401Y-43909902D01*
X56834229Y-43899500D01*
X56834218Y-43899500D01*
X55005782Y-43899500D01*
X55005770Y-43899500D01*
X54873598Y-43909902D01*
X54873585Y-43909904D01*
X54655315Y-43964903D01*
X54450374Y-44057992D01*
X54450365Y-44057997D01*
X54265350Y-44186176D01*
X54106176Y-44345350D01*
X53977997Y-44530365D01*
X53977992Y-44530374D01*
X53884903Y-44735315D01*
X53829904Y-44953585D01*
X53829902Y-44953598D01*
X53819500Y-45085770D01*
X46860982Y-45085770D01*
X46860491Y-45081413D01*
X46797996Y-44807604D01*
X46715460Y-44571729D01*
X46705240Y-44542522D01*
X46705234Y-44542508D01*
X46699386Y-44530365D01*
X46583381Y-44289477D01*
X46583378Y-44289473D01*
X46583376Y-44289468D01*
X46433959Y-44051674D01*
X46258854Y-43832100D01*
X46258852Y-43832097D01*
X46060261Y-43633506D01*
X45840684Y-43458399D01*
X45840685Y-43458399D01*
X45840683Y-43458398D01*
X45602889Y-43308981D01*
X45602883Y-43308978D01*
X45349849Y-43187123D01*
X45349835Y-43187117D01*
X45162006Y-43121393D01*
X45084754Y-43094362D01*
X45084756Y-43094362D01*
X44810946Y-43031867D01*
X44531873Y-43000422D01*
X44531861Y-43000422D01*
X44251011Y-43000422D01*
X44250998Y-43000422D01*
X43971925Y-43031867D01*
X43698117Y-43094362D01*
X43433036Y-43187117D01*
X43433022Y-43187123D01*
X43179988Y-43308978D01*
X43179982Y-43308981D01*
X42942188Y-43458398D01*
X42722614Y-43633503D01*
X42722606Y-43633510D01*
X42524024Y-43832092D01*
X42524017Y-43832100D01*
X42348912Y-44051674D01*
X42199495Y-44289468D01*
X42199492Y-44289474D01*
X42077637Y-44542508D01*
X42077631Y-44542522D01*
X41984876Y-44807603D01*
X41922381Y-45081411D01*
X41890936Y-45360484D01*
X34191934Y-45360484D01*
X34191934Y-45360482D01*
X34160983Y-45085782D01*
X34160491Y-45081413D01*
X34097996Y-44807604D01*
X34015460Y-44571729D01*
X34005240Y-44542522D01*
X34005234Y-44542508D01*
X33999386Y-44530365D01*
X33883381Y-44289477D01*
X33883378Y-44289473D01*
X33883376Y-44289468D01*
X33733959Y-44051674D01*
X33558854Y-43832100D01*
X33558852Y-43832097D01*
X33360261Y-43633506D01*
X33140684Y-43458399D01*
X33140685Y-43458399D01*
X33140683Y-43458398D01*
X32902889Y-43308981D01*
X32902883Y-43308978D01*
X32649849Y-43187123D01*
X32649835Y-43187117D01*
X32462006Y-43121393D01*
X32384754Y-43094362D01*
X32384756Y-43094362D01*
X32110946Y-43031867D01*
X31831873Y-43000422D01*
X31831861Y-43000422D01*
X31551011Y-43000422D01*
X31550998Y-43000422D01*
X31271925Y-43031867D01*
X30998117Y-43094362D01*
X30733036Y-43187117D01*
X30733022Y-43187123D01*
X30479988Y-43308978D01*
X30479982Y-43308981D01*
X30242188Y-43458398D01*
X30022614Y-43633503D01*
X30022606Y-43633510D01*
X29824024Y-43832092D01*
X29824017Y-43832100D01*
X29648912Y-44051674D01*
X29499495Y-44289468D01*
X29499492Y-44289474D01*
X29377637Y-44542508D01*
X29377631Y-44542522D01*
X29284876Y-44807603D01*
X29222381Y-45081411D01*
X29190936Y-45360484D01*
X24500500Y-45360484D01*
X24500500Y-37837098D01*
X30099500Y-37837098D01*
X30099500Y-38162901D01*
X30135975Y-38486610D01*
X30135977Y-38486627D01*
X30208462Y-38804207D01*
X30208468Y-38804228D01*
X30316062Y-39111716D01*
X30316065Y-39111722D01*
X30457415Y-39405237D01*
X30457419Y-39405243D01*
X30457421Y-39405247D01*
X30591805Y-39619119D01*
X30630739Y-39681081D01*
X30833857Y-39935783D01*
X31064217Y-40166143D01*
X31318919Y-40369261D01*
X31594763Y-40542585D01*
X31888278Y-40683935D01*
X31888281Y-40683936D01*
X31888283Y-40683937D01*
X32028136Y-40732873D01*
X32195773Y-40791532D01*
X32195780Y-40791533D01*
X32195792Y-40791537D01*
X32513372Y-40864022D01*
X32513376Y-40864022D01*
X32513383Y-40864024D01*
X32705218Y-40885639D01*
X32837098Y-40900499D01*
X32837111Y-40900500D01*
X33162889Y-40900500D01*
X33162901Y-40900499D01*
X33262809Y-40889241D01*
X33486617Y-40864024D01*
X33486624Y-40864022D01*
X33486627Y-40864022D01*
X33804207Y-40791537D01*
X33804214Y-40791534D01*
X33804227Y-40791532D01*
X34111722Y-40683935D01*
X34405237Y-40542585D01*
X34681081Y-40369261D01*
X34935783Y-40166143D01*
X35166143Y-39935783D01*
X35369261Y-39681081D01*
X35542585Y-39405237D01*
X35683935Y-39111722D01*
X35683935Y-39111719D01*
X35683938Y-39111715D01*
X35683939Y-39111712D01*
X35723028Y-39000001D01*
X47317501Y-39000001D01*
X47317501Y-39349984D01*
X47327994Y-39452699D01*
X47327995Y-39452702D01*
X47383140Y-39619119D01*
X47383141Y-39619121D01*
X47475181Y-39768341D01*
X47475184Y-39768345D01*
X47599154Y-39892315D01*
X47599158Y-39892318D01*
X47748378Y-39984358D01*
X47748379Y-39984359D01*
X47914798Y-40039504D01*
X47914805Y-40039505D01*
X48017523Y-40049999D01*
X48367500Y-40049999D01*
X48367500Y-39000001D01*
X48367499Y-39000000D01*
X47317502Y-39000000D01*
X47317501Y-39000001D01*
X35723028Y-39000001D01*
X35749985Y-38922961D01*
X35791532Y-38804227D01*
X35812516Y-38712292D01*
X35864022Y-38486627D01*
X35864022Y-38486624D01*
X35864024Y-38486617D01*
X35870675Y-38427591D01*
X48317500Y-38427591D01*
X48317500Y-38572409D01*
X48354982Y-38712292D01*
X48427390Y-38837708D01*
X48529792Y-38940110D01*
X48655208Y-39012518D01*
X48795091Y-39050000D01*
X48939909Y-39050000D01*
X49079792Y-39012518D01*
X49101472Y-39000001D01*
X49367500Y-39000001D01*
X49367500Y-40049998D01*
X49367501Y-40049999D01*
X49717468Y-40049999D01*
X49717484Y-40049998D01*
X49820199Y-40039505D01*
X49820202Y-40039504D01*
X49986619Y-39984359D01*
X49986621Y-39984358D01*
X50135841Y-39892318D01*
X50135845Y-39892315D01*
X50259815Y-39768345D01*
X50259818Y-39768341D01*
X50351858Y-39619121D01*
X50351859Y-39619120D01*
X50407004Y-39452701D01*
X50407005Y-39452694D01*
X50417499Y-39349981D01*
X50417500Y-39349971D01*
X50417500Y-39132324D01*
X61000001Y-39132324D01*
X61000001Y-39432307D01*
X61010494Y-39535022D01*
X61010495Y-39535025D01*
X61065640Y-39701442D01*
X61065641Y-39701444D01*
X61157681Y-39850664D01*
X61157684Y-39850668D01*
X61281654Y-39974638D01*
X61281658Y-39974641D01*
X61430878Y-40066681D01*
X61430879Y-40066682D01*
X61597298Y-40121827D01*
X61597305Y-40121828D01*
X61700023Y-40132322D01*
X62000000Y-40132322D01*
X62000000Y-39132324D01*
X63000000Y-39132324D01*
X63000000Y-40132321D01*
X63000001Y-40132322D01*
X63299968Y-40132322D01*
X63299984Y-40132321D01*
X63402699Y-40121828D01*
X63402702Y-40121827D01*
X63569119Y-40066682D01*
X63569121Y-40066681D01*
X63718341Y-39974641D01*
X63718345Y-39974638D01*
X63842315Y-39850668D01*
X63842318Y-39850664D01*
X63934358Y-39701444D01*
X63934359Y-39701443D01*
X63989504Y-39535024D01*
X63989505Y-39535017D01*
X63999999Y-39432304D01*
X64000000Y-39432294D01*
X64000000Y-39132324D01*
X63999999Y-39132323D01*
X63000001Y-39132323D01*
X63000000Y-39132324D01*
X62000000Y-39132324D01*
X61999999Y-39132323D01*
X61000002Y-39132323D01*
X61000001Y-39132324D01*
X50417500Y-39132324D01*
X50417500Y-39000001D01*
X50417499Y-39000000D01*
X49367501Y-39000000D01*
X49367500Y-39000001D01*
X49101472Y-39000001D01*
X49205208Y-38940110D01*
X49307610Y-38837708D01*
X49380018Y-38712292D01*
X49417500Y-38572409D01*
X49417500Y-38566497D01*
X62000000Y-38566497D01*
X62000000Y-38698149D01*
X62034075Y-38825316D01*
X62099901Y-38939330D01*
X62192993Y-39032422D01*
X62307007Y-39098248D01*
X62434174Y-39132323D01*
X62565826Y-39132323D01*
X62692993Y-39098248D01*
X62807007Y-39032422D01*
X62900099Y-38939330D01*
X62965925Y-38825316D01*
X63000000Y-38698149D01*
X63000000Y-38566497D01*
X62965925Y-38439330D01*
X62900099Y-38325316D01*
X62807007Y-38232224D01*
X62692993Y-38166398D01*
X62565826Y-38132323D01*
X62434174Y-38132323D01*
X62307007Y-38166398D01*
X62192993Y-38232224D01*
X62099901Y-38325316D01*
X62034075Y-38439330D01*
X62000000Y-38566497D01*
X49417500Y-38566497D01*
X49417500Y-38427591D01*
X49380018Y-38287708D01*
X49307610Y-38162292D01*
X49205208Y-38059890D01*
X49079792Y-37987482D01*
X48939909Y-37950000D01*
X48795091Y-37950000D01*
X48655208Y-37987482D01*
X48529792Y-38059890D01*
X48427390Y-38162292D01*
X48354982Y-38287708D01*
X48317500Y-38427591D01*
X35870675Y-38427591D01*
X35900500Y-38162889D01*
X35900500Y-37837111D01*
X35899964Y-37832355D01*
X35881847Y-37671562D01*
X35879419Y-37650018D01*
X47317500Y-37650018D01*
X47317500Y-37999999D01*
X47317501Y-38000000D01*
X48367499Y-38000000D01*
X48367500Y-37999999D01*
X48367500Y-36950001D01*
X49367500Y-36950001D01*
X49367500Y-37999999D01*
X49367501Y-38000000D01*
X50417498Y-38000000D01*
X50417499Y-37999999D01*
X50417499Y-37832341D01*
X61000000Y-37832341D01*
X61000000Y-38132322D01*
X61000001Y-38132323D01*
X61999999Y-38132323D01*
X62000000Y-38132322D01*
X62000000Y-37132324D01*
X63000000Y-37132324D01*
X63000000Y-38132322D01*
X63000001Y-38132323D01*
X63999998Y-38132323D01*
X63999999Y-38132322D01*
X63999999Y-37832355D01*
X63999998Y-37832338D01*
X63989505Y-37729623D01*
X63989504Y-37729620D01*
X63934359Y-37563203D01*
X63934358Y-37563201D01*
X63842318Y-37413981D01*
X63842315Y-37413977D01*
X63718345Y-37290007D01*
X63718341Y-37290004D01*
X63569121Y-37197964D01*
X63569120Y-37197963D01*
X63402701Y-37142818D01*
X63402694Y-37142817D01*
X63299981Y-37132323D01*
X63000001Y-37132323D01*
X63000000Y-37132324D01*
X62000000Y-37132324D01*
X61999999Y-37132323D01*
X61700024Y-37132323D01*
X61597300Y-37142817D01*
X61597297Y-37142818D01*
X61430880Y-37197963D01*
X61430878Y-37197964D01*
X61281658Y-37290004D01*
X61281654Y-37290007D01*
X61157684Y-37413977D01*
X61157681Y-37413981D01*
X61065641Y-37563201D01*
X61065640Y-37563202D01*
X61010495Y-37729621D01*
X61010494Y-37729628D01*
X61000000Y-37832341D01*
X50417499Y-37832341D01*
X50417499Y-37650032D01*
X50417498Y-37650015D01*
X50407005Y-37547300D01*
X50407004Y-37547297D01*
X50351859Y-37380880D01*
X50351858Y-37380878D01*
X50259818Y-37231658D01*
X50259815Y-37231654D01*
X50135845Y-37107684D01*
X50135841Y-37107681D01*
X49986621Y-37015641D01*
X49986620Y-37015640D01*
X49820201Y-36960495D01*
X49820194Y-36960494D01*
X49717481Y-36950000D01*
X49367501Y-36950000D01*
X49367500Y-36950001D01*
X48367500Y-36950001D01*
X48367499Y-36950000D01*
X48017524Y-36950000D01*
X47914800Y-36960494D01*
X47914797Y-36960495D01*
X47748380Y-37015640D01*
X47748378Y-37015641D01*
X47599158Y-37107681D01*
X47599154Y-37107684D01*
X47475184Y-37231654D01*
X47475181Y-37231658D01*
X47383141Y-37380878D01*
X47383140Y-37380879D01*
X47327995Y-37547298D01*
X47327994Y-37547305D01*
X47317500Y-37650018D01*
X35879419Y-37650018D01*
X35867846Y-37547305D01*
X35864024Y-37513383D01*
X35864022Y-37513376D01*
X35864022Y-37513372D01*
X35791537Y-37195792D01*
X35791531Y-37195771D01*
X35683937Y-36888283D01*
X35542591Y-36594776D01*
X35542585Y-36594763D01*
X35369261Y-36318919D01*
X35166143Y-36064217D01*
X34935783Y-35833857D01*
X34681081Y-35630739D01*
X34681080Y-35630738D01*
X34405247Y-35457421D01*
X34405243Y-35457419D01*
X34405237Y-35457415D01*
X34405227Y-35457410D01*
X34405223Y-35457408D01*
X34111716Y-35316062D01*
X33804228Y-35208468D01*
X33804207Y-35208462D01*
X33486627Y-35135977D01*
X33486610Y-35135975D01*
X33162901Y-35099500D01*
X33162889Y-35099500D01*
X32837111Y-35099500D01*
X32837098Y-35099500D01*
X32513389Y-35135975D01*
X32513372Y-35135977D01*
X32195792Y-35208462D01*
X32195771Y-35208468D01*
X31888283Y-35316062D01*
X31594776Y-35457408D01*
X31594752Y-35457421D01*
X31318919Y-35630738D01*
X31318912Y-35630744D01*
X31064220Y-35833854D01*
X31064212Y-35833861D01*
X30833861Y-36064212D01*
X30833854Y-36064220D01*
X30630744Y-36318912D01*
X30630738Y-36318919D01*
X30457421Y-36594752D01*
X30457408Y-36594776D01*
X30316062Y-36888283D01*
X30208468Y-37195771D01*
X30208462Y-37195792D01*
X30135977Y-37513372D01*
X30135975Y-37513389D01*
X30099500Y-37837098D01*
X24500500Y-37837098D01*
X24500500Y-33365603D01*
X46817000Y-33365603D01*
X46817000Y-33634396D01*
X46852083Y-33900887D01*
X46921651Y-34160519D01*
X46921653Y-34160525D01*
X47024513Y-34408853D01*
X47024518Y-34408864D01*
X47158907Y-34641631D01*
X47158913Y-34641641D01*
X47322544Y-34854890D01*
X47512610Y-35044956D01*
X47725859Y-35208587D01*
X47725868Y-35208592D01*
X47725868Y-35208593D01*
X47958635Y-35342981D01*
X47958638Y-35342982D01*
X47958641Y-35342984D01*
X48206974Y-35445847D01*
X48466609Y-35515416D01*
X48733103Y-35550500D01*
X49001897Y-35550500D01*
X49268391Y-35515416D01*
X49528026Y-35445847D01*
X49776359Y-35342984D01*
X50009141Y-35208587D01*
X50222390Y-35044956D01*
X50412456Y-34854890D01*
X50576087Y-34641641D01*
X50710484Y-34408859D01*
X50813347Y-34160526D01*
X50882916Y-33900891D01*
X50918000Y-33634397D01*
X50918000Y-33501203D01*
X60499500Y-33501203D01*
X60499500Y-33763442D01*
X60533729Y-34023435D01*
X60601601Y-34276740D01*
X60701953Y-34519012D01*
X60701955Y-34519016D01*
X60833073Y-34746121D01*
X60833082Y-34746135D01*
X60992713Y-34954168D01*
X60992718Y-34954174D01*
X61178149Y-35139605D01*
X61178153Y-35139608D01*
X61178154Y-35139609D01*
X61386187Y-35299240D01*
X61386192Y-35299243D01*
X61386197Y-35299247D01*
X61613303Y-35430366D01*
X61855581Y-35530721D01*
X62108884Y-35598593D01*
X62368880Y-35632823D01*
X62631120Y-35632823D01*
X62891116Y-35598593D01*
X63144419Y-35530721D01*
X63386697Y-35430366D01*
X63613803Y-35299247D01*
X63821851Y-35139605D01*
X64007282Y-34954174D01*
X64166924Y-34746126D01*
X64298043Y-34519020D01*
X64398398Y-34276742D01*
X64466270Y-34023439D01*
X64500500Y-33763443D01*
X64500500Y-33501203D01*
X64466270Y-33241207D01*
X64398398Y-32987904D01*
X64298043Y-32745626D01*
X64166924Y-32518520D01*
X64166920Y-32518515D01*
X64166917Y-32518510D01*
X64007286Y-32310477D01*
X64007285Y-32310476D01*
X64007282Y-32310472D01*
X63821851Y-32125041D01*
X63821846Y-32125037D01*
X63821845Y-32125036D01*
X63613812Y-31965405D01*
X63613798Y-31965396D01*
X63552937Y-31930258D01*
X63386697Y-31834280D01*
X63386695Y-31834279D01*
X63386693Y-31834278D01*
X63386689Y-31834276D01*
X63144417Y-31733924D01*
X63034730Y-31704534D01*
X62891116Y-31666053D01*
X62891111Y-31666052D01*
X62891114Y-31666052D01*
X62631120Y-31631823D01*
X62368880Y-31631823D01*
X62108887Y-31666052D01*
X61855582Y-31733924D01*
X61613310Y-31834276D01*
X61613306Y-31834278D01*
X61386201Y-31965396D01*
X61386187Y-31965405D01*
X61178154Y-32125036D01*
X60992713Y-32310477D01*
X60833082Y-32518510D01*
X60833073Y-32518524D01*
X60701955Y-32745629D01*
X60701953Y-32745633D01*
X60601601Y-32987905D01*
X60533729Y-33241210D01*
X60499500Y-33501203D01*
X50918000Y-33501203D01*
X50918000Y-33365603D01*
X50882916Y-33099109D01*
X50813347Y-32839474D01*
X50710484Y-32591141D01*
X50668558Y-32518524D01*
X50576092Y-32358368D01*
X50576087Y-32358359D01*
X50412456Y-32145110D01*
X50222390Y-31955044D01*
X50009141Y-31791413D01*
X50009131Y-31791407D01*
X50009131Y-31791406D01*
X49776364Y-31657018D01*
X49776353Y-31657013D01*
X49638755Y-31600018D01*
X49528026Y-31554153D01*
X49268391Y-31484584D01*
X49268390Y-31484583D01*
X49268387Y-31484583D01*
X49001897Y-31449500D01*
X48733103Y-31449500D01*
X48466612Y-31484583D01*
X48206980Y-31554151D01*
X48206974Y-31554153D01*
X47958646Y-31657013D01*
X47958635Y-31657018D01*
X47725868Y-31791406D01*
X47725868Y-31791407D01*
X47725863Y-31791410D01*
X47725859Y-31791413D01*
X47565922Y-31914136D01*
X47512607Y-31955046D01*
X47322546Y-32145107D01*
X47322544Y-32145110D01*
X47158913Y-32358359D01*
X47158910Y-32358363D01*
X47158907Y-32358368D01*
X47158906Y-32358368D01*
X47024518Y-32591135D01*
X47024513Y-32591146D01*
X46921653Y-32839474D01*
X46921651Y-32839480D01*
X46852083Y-33099112D01*
X46817000Y-33365603D01*
X24500500Y-33365603D01*
X24500500Y-29781420D01*
X24519454Y-29686132D01*
X24573430Y-29605350D01*
X24605350Y-29573430D01*
X24686132Y-29519454D01*
X24781420Y-29500500D01*
X73043580Y-29500500D01*
X73138868Y-29519454D01*
G37*
%TD.AperFunction*%
%TD*%
M02*
