%TF.GenerationSoftware,KiCad,Pcbnew,10.0.3*%
%TF.CreationDate,2026-06-19T20:40:44-04:00*%
%TF.ProjectId,TMi-3,544d692d-332e-46b6-9963-61645f706362,rev?*%
%TF.SameCoordinates,Original*%
%TF.FileFunction,Legend,Top*%
%TF.FilePolarity,Positive*%
%FSLAX46Y46*%
G04 Gerber Fmt 4.6, Leading zero omitted, Abs format (unit mm)*
G04 Created by KiCad (PCBNEW 10.0.3) date 2026-06-19 20:40:44*
%MOMM*%
%LPD*%
G01*
G04 APERTURE LIST*
%ADD10C,0.100000*%
%ADD11C,0.150000*%
%ADD12C,0.254000*%
%ADD13C,0.120000*%
%ADD14C,0.200000*%
G04 APERTURE END LIST*
D10*
X43372419Y-33922306D02*
X43372419Y-34493734D01*
X43372419Y-34208020D02*
X42372419Y-34208020D01*
X42372419Y-34208020D02*
X42515276Y-34303258D01*
X42515276Y-34303258D02*
X42610514Y-34398496D01*
X42610514Y-34398496D02*
X42658133Y-34493734D01*
X42467657Y-33541353D02*
X42420038Y-33493734D01*
X42420038Y-33493734D02*
X42372419Y-33398496D01*
X42372419Y-33398496D02*
X42372419Y-33160401D01*
X42372419Y-33160401D02*
X42420038Y-33065163D01*
X42420038Y-33065163D02*
X42467657Y-33017544D01*
X42467657Y-33017544D02*
X42562895Y-32969925D01*
X42562895Y-32969925D02*
X42658133Y-32969925D01*
X42658133Y-32969925D02*
X42800990Y-33017544D01*
X42800990Y-33017544D02*
X43372419Y-33588972D01*
X43372419Y-33588972D02*
X43372419Y-32969925D01*
X42705752Y-32636591D02*
X43372419Y-32398496D01*
X43372419Y-32398496D02*
X42705752Y-32160401D01*
X26661027Y-31152531D02*
X27232455Y-31152531D01*
X26946741Y-32152531D02*
X26946741Y-31152531D01*
X27946741Y-32104912D02*
X27851503Y-32152531D01*
X27851503Y-32152531D02*
X27661027Y-32152531D01*
X27661027Y-32152531D02*
X27565789Y-32104912D01*
X27565789Y-32104912D02*
X27518170Y-32009673D01*
X27518170Y-32009673D02*
X27518170Y-31628721D01*
X27518170Y-31628721D02*
X27565789Y-31533483D01*
X27565789Y-31533483D02*
X27661027Y-31485864D01*
X27661027Y-31485864D02*
X27851503Y-31485864D01*
X27851503Y-31485864D02*
X27946741Y-31533483D01*
X27946741Y-31533483D02*
X27994360Y-31628721D01*
X27994360Y-31628721D02*
X27994360Y-31723959D01*
X27994360Y-31723959D02*
X27518170Y-31819197D01*
X28851503Y-32104912D02*
X28756265Y-32152531D01*
X28756265Y-32152531D02*
X28565789Y-32152531D01*
X28565789Y-32152531D02*
X28470551Y-32104912D01*
X28470551Y-32104912D02*
X28422932Y-32057292D01*
X28422932Y-32057292D02*
X28375313Y-31962054D01*
X28375313Y-31962054D02*
X28375313Y-31676340D01*
X28375313Y-31676340D02*
X28422932Y-31581102D01*
X28422932Y-31581102D02*
X28470551Y-31533483D01*
X28470551Y-31533483D02*
X28565789Y-31485864D01*
X28565789Y-31485864D02*
X28756265Y-31485864D01*
X28756265Y-31485864D02*
X28851503Y-31533483D01*
X29280075Y-32152531D02*
X29280075Y-31152531D01*
X29375313Y-31771578D02*
X29661027Y-32152531D01*
X29661027Y-31485864D02*
X29280075Y-31866816D01*
X30041980Y-32104912D02*
X30137218Y-32152531D01*
X30137218Y-32152531D02*
X30327694Y-32152531D01*
X30327694Y-32152531D02*
X30422932Y-32104912D01*
X30422932Y-32104912D02*
X30470551Y-32009673D01*
X30470551Y-32009673D02*
X30470551Y-31962054D01*
X30470551Y-31962054D02*
X30422932Y-31866816D01*
X30422932Y-31866816D02*
X30327694Y-31819197D01*
X30327694Y-31819197D02*
X30184837Y-31819197D01*
X30184837Y-31819197D02*
X30089599Y-31771578D01*
X30089599Y-31771578D02*
X30041980Y-31676340D01*
X30041980Y-31676340D02*
X30041980Y-31628721D01*
X30041980Y-31628721D02*
X30089599Y-31533483D01*
X30089599Y-31533483D02*
X30184837Y-31485864D01*
X30184837Y-31485864D02*
X30327694Y-31485864D01*
X30327694Y-31485864D02*
X30422932Y-31533483D01*
X31327694Y-32152531D02*
X31327694Y-31628721D01*
X31327694Y-31628721D02*
X31280075Y-31533483D01*
X31280075Y-31533483D02*
X31184837Y-31485864D01*
X31184837Y-31485864D02*
X30994361Y-31485864D01*
X30994361Y-31485864D02*
X30899123Y-31533483D01*
X31327694Y-32104912D02*
X31232456Y-32152531D01*
X31232456Y-32152531D02*
X30994361Y-32152531D01*
X30994361Y-32152531D02*
X30899123Y-32104912D01*
X30899123Y-32104912D02*
X30851504Y-32009673D01*
X30851504Y-32009673D02*
X30851504Y-31914435D01*
X30851504Y-31914435D02*
X30899123Y-31819197D01*
X30899123Y-31819197D02*
X30994361Y-31771578D01*
X30994361Y-31771578D02*
X31232456Y-31771578D01*
X31232456Y-31771578D02*
X31327694Y-31723959D01*
X31661028Y-31485864D02*
X32041980Y-31485864D01*
X31803885Y-31152531D02*
X31803885Y-32009673D01*
X31803885Y-32009673D02*
X31851504Y-32104912D01*
X31851504Y-32104912D02*
X31946742Y-32152531D01*
X31946742Y-32152531D02*
X32041980Y-32152531D01*
X32375314Y-32152531D02*
X32375314Y-31485864D01*
X32375314Y-31676340D02*
X32422933Y-31581102D01*
X32422933Y-31581102D02*
X32470552Y-31533483D01*
X32470552Y-31533483D02*
X32565790Y-31485864D01*
X32565790Y-31485864D02*
X32661028Y-31485864D01*
X33137219Y-32152531D02*
X33041981Y-32104912D01*
X33041981Y-32104912D02*
X32994362Y-32057292D01*
X32994362Y-32057292D02*
X32946743Y-31962054D01*
X32946743Y-31962054D02*
X32946743Y-31676340D01*
X32946743Y-31676340D02*
X32994362Y-31581102D01*
X32994362Y-31581102D02*
X33041981Y-31533483D01*
X33041981Y-31533483D02*
X33137219Y-31485864D01*
X33137219Y-31485864D02*
X33280076Y-31485864D01*
X33280076Y-31485864D02*
X33375314Y-31533483D01*
X33375314Y-31533483D02*
X33422933Y-31581102D01*
X33422933Y-31581102D02*
X33470552Y-31676340D01*
X33470552Y-31676340D02*
X33470552Y-31962054D01*
X33470552Y-31962054D02*
X33422933Y-32057292D01*
X33422933Y-32057292D02*
X33375314Y-32104912D01*
X33375314Y-32104912D02*
X33280076Y-32152531D01*
X33280076Y-32152531D02*
X33137219Y-32152531D01*
X33899124Y-31485864D02*
X33899124Y-32152531D01*
X33899124Y-31581102D02*
X33946743Y-31533483D01*
X33946743Y-31533483D02*
X34041981Y-31485864D01*
X34041981Y-31485864D02*
X34184838Y-31485864D01*
X34184838Y-31485864D02*
X34280076Y-31533483D01*
X34280076Y-31533483D02*
X34327695Y-31628721D01*
X34327695Y-31628721D02*
X34327695Y-32152531D01*
X35565791Y-32152531D02*
X35565791Y-31152531D01*
X35565791Y-31152531D02*
X35899124Y-31866816D01*
X35899124Y-31866816D02*
X36232457Y-31152531D01*
X36232457Y-31152531D02*
X36232457Y-32152531D01*
X36708648Y-32152531D02*
X36708648Y-31152531D01*
X37280076Y-32152531D02*
X36851505Y-31581102D01*
X37280076Y-31152531D02*
X36708648Y-31723959D01*
X38470553Y-32152531D02*
X38470553Y-31485864D01*
X38470553Y-31152531D02*
X38422934Y-31200150D01*
X38422934Y-31200150D02*
X38470553Y-31247769D01*
X38470553Y-31247769D02*
X38518172Y-31200150D01*
X38518172Y-31200150D02*
X38470553Y-31152531D01*
X38470553Y-31152531D02*
X38470553Y-31247769D01*
X26661027Y-32762475D02*
X27232455Y-32762475D01*
X26946741Y-33762475D02*
X26946741Y-32762475D01*
X27946741Y-33714856D02*
X27851503Y-33762475D01*
X27851503Y-33762475D02*
X27661027Y-33762475D01*
X27661027Y-33762475D02*
X27565789Y-33714856D01*
X27565789Y-33714856D02*
X27518170Y-33619617D01*
X27518170Y-33619617D02*
X27518170Y-33238665D01*
X27518170Y-33238665D02*
X27565789Y-33143427D01*
X27565789Y-33143427D02*
X27661027Y-33095808D01*
X27661027Y-33095808D02*
X27851503Y-33095808D01*
X27851503Y-33095808D02*
X27946741Y-33143427D01*
X27946741Y-33143427D02*
X27994360Y-33238665D01*
X27994360Y-33238665D02*
X27994360Y-33333903D01*
X27994360Y-33333903D02*
X27518170Y-33429141D01*
X28327694Y-33762475D02*
X28851503Y-33095808D01*
X28327694Y-33095808D02*
X28851503Y-33762475D01*
X29803884Y-33667236D02*
X29756265Y-33714856D01*
X29756265Y-33714856D02*
X29613408Y-33762475D01*
X29613408Y-33762475D02*
X29518170Y-33762475D01*
X29518170Y-33762475D02*
X29375313Y-33714856D01*
X29375313Y-33714856D02*
X29280075Y-33619617D01*
X29280075Y-33619617D02*
X29232456Y-33524379D01*
X29232456Y-33524379D02*
X29184837Y-33333903D01*
X29184837Y-33333903D02*
X29184837Y-33191046D01*
X29184837Y-33191046D02*
X29232456Y-33000570D01*
X29232456Y-33000570D02*
X29280075Y-32905332D01*
X29280075Y-32905332D02*
X29375313Y-32810094D01*
X29375313Y-32810094D02*
X29518170Y-32762475D01*
X29518170Y-32762475D02*
X29613408Y-32762475D01*
X29613408Y-32762475D02*
X29756265Y-32810094D01*
X29756265Y-32810094D02*
X29803884Y-32857713D01*
X30375313Y-33762475D02*
X30280075Y-33714856D01*
X30280075Y-33714856D02*
X30232456Y-33667236D01*
X30232456Y-33667236D02*
X30184837Y-33571998D01*
X30184837Y-33571998D02*
X30184837Y-33286284D01*
X30184837Y-33286284D02*
X30232456Y-33191046D01*
X30232456Y-33191046D02*
X30280075Y-33143427D01*
X30280075Y-33143427D02*
X30375313Y-33095808D01*
X30375313Y-33095808D02*
X30518170Y-33095808D01*
X30518170Y-33095808D02*
X30613408Y-33143427D01*
X30613408Y-33143427D02*
X30661027Y-33191046D01*
X30661027Y-33191046D02*
X30708646Y-33286284D01*
X30708646Y-33286284D02*
X30708646Y-33571998D01*
X30708646Y-33571998D02*
X30661027Y-33667236D01*
X30661027Y-33667236D02*
X30613408Y-33714856D01*
X30613408Y-33714856D02*
X30518170Y-33762475D01*
X30518170Y-33762475D02*
X30375313Y-33762475D01*
X31899123Y-33762475D02*
X31899123Y-32762475D01*
X31899123Y-32762475D02*
X32137218Y-32762475D01*
X32137218Y-32762475D02*
X32280075Y-32810094D01*
X32280075Y-32810094D02*
X32375313Y-32905332D01*
X32375313Y-32905332D02*
X32422932Y-33000570D01*
X32422932Y-33000570D02*
X32470551Y-33191046D01*
X32470551Y-33191046D02*
X32470551Y-33333903D01*
X32470551Y-33333903D02*
X32422932Y-33524379D01*
X32422932Y-33524379D02*
X32375313Y-33619617D01*
X32375313Y-33619617D02*
X32280075Y-33714856D01*
X32280075Y-33714856D02*
X32137218Y-33762475D01*
X32137218Y-33762475D02*
X31899123Y-33762475D01*
X33327694Y-33095808D02*
X33327694Y-33762475D01*
X32899123Y-33095808D02*
X32899123Y-33619617D01*
X32899123Y-33619617D02*
X32946742Y-33714856D01*
X32946742Y-33714856D02*
X33041980Y-33762475D01*
X33041980Y-33762475D02*
X33184837Y-33762475D01*
X33184837Y-33762475D02*
X33280075Y-33714856D01*
X33280075Y-33714856D02*
X33327694Y-33667236D01*
X33803885Y-33762475D02*
X33803885Y-32762475D01*
X33803885Y-33238665D02*
X34375313Y-33238665D01*
X34375313Y-33762475D02*
X34375313Y-32762475D01*
X34851504Y-33762475D02*
X34851504Y-33095808D01*
X34851504Y-32762475D02*
X34803885Y-32810094D01*
X34803885Y-32810094D02*
X34851504Y-32857713D01*
X34851504Y-32857713D02*
X34899123Y-32810094D01*
X34899123Y-32810094D02*
X34851504Y-32762475D01*
X34851504Y-32762475D02*
X34851504Y-32857713D01*
X35756265Y-33714856D02*
X35661027Y-33762475D01*
X35661027Y-33762475D02*
X35470551Y-33762475D01*
X35470551Y-33762475D02*
X35375313Y-33714856D01*
X35375313Y-33714856D02*
X35327694Y-33667236D01*
X35327694Y-33667236D02*
X35280075Y-33571998D01*
X35280075Y-33571998D02*
X35280075Y-33286284D01*
X35280075Y-33286284D02*
X35327694Y-33191046D01*
X35327694Y-33191046D02*
X35375313Y-33143427D01*
X35375313Y-33143427D02*
X35470551Y-33095808D01*
X35470551Y-33095808D02*
X35661027Y-33095808D01*
X35661027Y-33095808D02*
X35756265Y-33143427D01*
X36184837Y-33762475D02*
X36184837Y-32762475D01*
X36280075Y-33381522D02*
X36565789Y-33762475D01*
X36565789Y-33095808D02*
X36184837Y-33476760D01*
X37375313Y-33714856D02*
X37280075Y-33762475D01*
X37280075Y-33762475D02*
X37089599Y-33762475D01*
X37089599Y-33762475D02*
X36994361Y-33714856D01*
X36994361Y-33714856D02*
X36946742Y-33619617D01*
X36946742Y-33619617D02*
X36946742Y-33238665D01*
X36946742Y-33238665D02*
X36994361Y-33143427D01*
X36994361Y-33143427D02*
X37089599Y-33095808D01*
X37089599Y-33095808D02*
X37280075Y-33095808D01*
X37280075Y-33095808D02*
X37375313Y-33143427D01*
X37375313Y-33143427D02*
X37422932Y-33238665D01*
X37422932Y-33238665D02*
X37422932Y-33333903D01*
X37422932Y-33333903D02*
X36946742Y-33429141D01*
X37756266Y-33095808D02*
X37994361Y-33762475D01*
X38232456Y-33095808D02*
X37994361Y-33762475D01*
X37994361Y-33762475D02*
X37899123Y-34000570D01*
X37899123Y-34000570D02*
X37851504Y-34048189D01*
X37851504Y-34048189D02*
X37756266Y-34095808D01*
X26756265Y-34467657D02*
X26803884Y-34420038D01*
X26803884Y-34420038D02*
X26899122Y-34372419D01*
X26899122Y-34372419D02*
X27137217Y-34372419D01*
X27137217Y-34372419D02*
X27232455Y-34420038D01*
X27232455Y-34420038D02*
X27280074Y-34467657D01*
X27280074Y-34467657D02*
X27327693Y-34562895D01*
X27327693Y-34562895D02*
X27327693Y-34658133D01*
X27327693Y-34658133D02*
X27280074Y-34800990D01*
X27280074Y-34800990D02*
X26708646Y-35372419D01*
X26708646Y-35372419D02*
X27327693Y-35372419D01*
X27946741Y-34372419D02*
X28041979Y-34372419D01*
X28041979Y-34372419D02*
X28137217Y-34420038D01*
X28137217Y-34420038D02*
X28184836Y-34467657D01*
X28184836Y-34467657D02*
X28232455Y-34562895D01*
X28232455Y-34562895D02*
X28280074Y-34753371D01*
X28280074Y-34753371D02*
X28280074Y-34991466D01*
X28280074Y-34991466D02*
X28232455Y-35181942D01*
X28232455Y-35181942D02*
X28184836Y-35277180D01*
X28184836Y-35277180D02*
X28137217Y-35324800D01*
X28137217Y-35324800D02*
X28041979Y-35372419D01*
X28041979Y-35372419D02*
X27946741Y-35372419D01*
X27946741Y-35372419D02*
X27851503Y-35324800D01*
X27851503Y-35324800D02*
X27803884Y-35277180D01*
X27803884Y-35277180D02*
X27756265Y-35181942D01*
X27756265Y-35181942D02*
X27708646Y-34991466D01*
X27708646Y-34991466D02*
X27708646Y-34753371D01*
X27708646Y-34753371D02*
X27756265Y-34562895D01*
X27756265Y-34562895D02*
X27803884Y-34467657D01*
X27803884Y-34467657D02*
X27851503Y-34420038D01*
X27851503Y-34420038D02*
X27946741Y-34372419D01*
X28661027Y-34467657D02*
X28708646Y-34420038D01*
X28708646Y-34420038D02*
X28803884Y-34372419D01*
X28803884Y-34372419D02*
X29041979Y-34372419D01*
X29041979Y-34372419D02*
X29137217Y-34420038D01*
X29137217Y-34420038D02*
X29184836Y-34467657D01*
X29184836Y-34467657D02*
X29232455Y-34562895D01*
X29232455Y-34562895D02*
X29232455Y-34658133D01*
X29232455Y-34658133D02*
X29184836Y-34800990D01*
X29184836Y-34800990D02*
X28613408Y-35372419D01*
X28613408Y-35372419D02*
X29232455Y-35372419D01*
X30089598Y-34372419D02*
X29899122Y-34372419D01*
X29899122Y-34372419D02*
X29803884Y-34420038D01*
X29803884Y-34420038D02*
X29756265Y-34467657D01*
X29756265Y-34467657D02*
X29661027Y-34610514D01*
X29661027Y-34610514D02*
X29613408Y-34800990D01*
X29613408Y-34800990D02*
X29613408Y-35181942D01*
X29613408Y-35181942D02*
X29661027Y-35277180D01*
X29661027Y-35277180D02*
X29708646Y-35324800D01*
X29708646Y-35324800D02*
X29803884Y-35372419D01*
X29803884Y-35372419D02*
X29994360Y-35372419D01*
X29994360Y-35372419D02*
X30089598Y-35324800D01*
X30089598Y-35324800D02*
X30137217Y-35277180D01*
X30137217Y-35277180D02*
X30184836Y-35181942D01*
X30184836Y-35181942D02*
X30184836Y-34943847D01*
X30184836Y-34943847D02*
X30137217Y-34848609D01*
X30137217Y-34848609D02*
X30089598Y-34800990D01*
X30089598Y-34800990D02*
X29994360Y-34753371D01*
X29994360Y-34753371D02*
X29803884Y-34753371D01*
X29803884Y-34753371D02*
X29708646Y-34800990D01*
X29708646Y-34800990D02*
X29661027Y-34848609D01*
X29661027Y-34848609D02*
X29613408Y-34943847D01*
D11*
X26166666Y-131454819D02*
X26166666Y-132169104D01*
X26166666Y-132169104D02*
X26119047Y-132311961D01*
X26119047Y-132311961D02*
X26023809Y-132407200D01*
X26023809Y-132407200D02*
X25880952Y-132454819D01*
X25880952Y-132454819D02*
X25785714Y-132454819D01*
X26690476Y-132454819D02*
X26880952Y-132454819D01*
X26880952Y-132454819D02*
X26976190Y-132407200D01*
X26976190Y-132407200D02*
X27023809Y-132359580D01*
X27023809Y-132359580D02*
X27119047Y-132216723D01*
X27119047Y-132216723D02*
X27166666Y-132026247D01*
X27166666Y-132026247D02*
X27166666Y-131645295D01*
X27166666Y-131645295D02*
X27119047Y-131550057D01*
X27119047Y-131550057D02*
X27071428Y-131502438D01*
X27071428Y-131502438D02*
X26976190Y-131454819D01*
X26976190Y-131454819D02*
X26785714Y-131454819D01*
X26785714Y-131454819D02*
X26690476Y-131502438D01*
X26690476Y-131502438D02*
X26642857Y-131550057D01*
X26642857Y-131550057D02*
X26595238Y-131645295D01*
X26595238Y-131645295D02*
X26595238Y-131883390D01*
X26595238Y-131883390D02*
X26642857Y-131978628D01*
X26642857Y-131978628D02*
X26690476Y-132026247D01*
X26690476Y-132026247D02*
X26785714Y-132073866D01*
X26785714Y-132073866D02*
X26976190Y-132073866D01*
X26976190Y-132073866D02*
X27071428Y-132026247D01*
X27071428Y-132026247D02*
X27119047Y-131978628D01*
X27119047Y-131978628D02*
X27166666Y-131883390D01*
X61650057Y-62135238D02*
X61602438Y-62230476D01*
X61602438Y-62230476D02*
X61507200Y-62325714D01*
X61507200Y-62325714D02*
X61364342Y-62468571D01*
X61364342Y-62468571D02*
X61316723Y-62563809D01*
X61316723Y-62563809D02*
X61316723Y-62659047D01*
X61554819Y-62611428D02*
X61507200Y-62706666D01*
X61507200Y-62706666D02*
X61411961Y-62801904D01*
X61411961Y-62801904D02*
X61221485Y-62849523D01*
X61221485Y-62849523D02*
X60888152Y-62849523D01*
X60888152Y-62849523D02*
X60697676Y-62801904D01*
X60697676Y-62801904D02*
X60602438Y-62706666D01*
X60602438Y-62706666D02*
X60554819Y-62611428D01*
X60554819Y-62611428D02*
X60554819Y-62420952D01*
X60554819Y-62420952D02*
X60602438Y-62325714D01*
X60602438Y-62325714D02*
X60697676Y-62230476D01*
X60697676Y-62230476D02*
X60888152Y-62182857D01*
X60888152Y-62182857D02*
X61221485Y-62182857D01*
X61221485Y-62182857D02*
X61411961Y-62230476D01*
X61411961Y-62230476D02*
X61507200Y-62325714D01*
X61507200Y-62325714D02*
X61554819Y-62420952D01*
X61554819Y-62420952D02*
X61554819Y-62611428D01*
X61554819Y-61230476D02*
X61554819Y-61801904D01*
X61554819Y-61516190D02*
X60554819Y-61516190D01*
X60554819Y-61516190D02*
X60697676Y-61611428D01*
X60697676Y-61611428D02*
X60792914Y-61706666D01*
X60792914Y-61706666D02*
X60840533Y-61801904D01*
X55254819Y-64897142D02*
X54254819Y-64897142D01*
X55254819Y-63849524D02*
X54778628Y-64182857D01*
X55254819Y-64420952D02*
X54254819Y-64420952D01*
X54254819Y-64420952D02*
X54254819Y-64040000D01*
X54254819Y-64040000D02*
X54302438Y-63944762D01*
X54302438Y-63944762D02*
X54350057Y-63897143D01*
X54350057Y-63897143D02*
X54445295Y-63849524D01*
X54445295Y-63849524D02*
X54588152Y-63849524D01*
X54588152Y-63849524D02*
X54683390Y-63897143D01*
X54683390Y-63897143D02*
X54731009Y-63944762D01*
X54731009Y-63944762D02*
X54778628Y-64040000D01*
X54778628Y-64040000D02*
X54778628Y-64420952D01*
X55254819Y-62944762D02*
X55254819Y-63420952D01*
X55254819Y-63420952D02*
X54254819Y-63420952D01*
X54254819Y-62706666D02*
X54254819Y-62040000D01*
X54254819Y-62040000D02*
X55254819Y-62706666D01*
X55254819Y-62706666D02*
X55254819Y-62040000D01*
X54588152Y-61230476D02*
X55254819Y-61230476D01*
X54207200Y-61468571D02*
X54921485Y-61706666D01*
X54921485Y-61706666D02*
X54921485Y-61087619D01*
X54588152Y-60278095D02*
X55254819Y-60278095D01*
X54207200Y-60516190D02*
X54921485Y-60754285D01*
X54921485Y-60754285D02*
X54921485Y-60135238D01*
X55254819Y-59754285D02*
X54254819Y-59754285D01*
X54254819Y-59754285D02*
X55254819Y-59182857D01*
X55254819Y-59182857D02*
X54254819Y-59182857D01*
X49579256Y-146503343D02*
X49531637Y-146550963D01*
X49531637Y-146550963D02*
X49388780Y-146598582D01*
X49388780Y-146598582D02*
X49293542Y-146598582D01*
X49293542Y-146598582D02*
X49150685Y-146550963D01*
X49150685Y-146550963D02*
X49055447Y-146455724D01*
X49055447Y-146455724D02*
X49007828Y-146360486D01*
X49007828Y-146360486D02*
X48960209Y-146170010D01*
X48960209Y-146170010D02*
X48960209Y-146027153D01*
X48960209Y-146027153D02*
X49007828Y-145836677D01*
X49007828Y-145836677D02*
X49055447Y-145741439D01*
X49055447Y-145741439D02*
X49150685Y-145646201D01*
X49150685Y-145646201D02*
X49293542Y-145598582D01*
X49293542Y-145598582D02*
X49388780Y-145598582D01*
X49388780Y-145598582D02*
X49531637Y-145646201D01*
X49531637Y-145646201D02*
X49579256Y-145693820D01*
X50436399Y-145598582D02*
X50245923Y-145598582D01*
X50245923Y-145598582D02*
X50150685Y-145646201D01*
X50150685Y-145646201D02*
X50103066Y-145693820D01*
X50103066Y-145693820D02*
X50007828Y-145836677D01*
X50007828Y-145836677D02*
X49960209Y-146027153D01*
X49960209Y-146027153D02*
X49960209Y-146408105D01*
X49960209Y-146408105D02*
X50007828Y-146503343D01*
X50007828Y-146503343D02*
X50055447Y-146550963D01*
X50055447Y-146550963D02*
X50150685Y-146598582D01*
X50150685Y-146598582D02*
X50341161Y-146598582D01*
X50341161Y-146598582D02*
X50436399Y-146550963D01*
X50436399Y-146550963D02*
X50484018Y-146503343D01*
X50484018Y-146503343D02*
X50531637Y-146408105D01*
X50531637Y-146408105D02*
X50531637Y-146170010D01*
X50531637Y-146170010D02*
X50484018Y-146074772D01*
X50484018Y-146074772D02*
X50436399Y-146027153D01*
X50436399Y-146027153D02*
X50341161Y-145979534D01*
X50341161Y-145979534D02*
X50150685Y-145979534D01*
X50150685Y-145979534D02*
X50055447Y-146027153D01*
X50055447Y-146027153D02*
X50007828Y-146074772D01*
X50007828Y-146074772D02*
X49960209Y-146170010D01*
D12*
X32076667Y-141134526D02*
X32076667Y-142041669D01*
X32076667Y-142041669D02*
X32016190Y-142223097D01*
X32016190Y-142223097D02*
X31895238Y-142344050D01*
X31895238Y-142344050D02*
X31713809Y-142404526D01*
X31713809Y-142404526D02*
X31592857Y-142404526D01*
X33225714Y-141557859D02*
X33225714Y-142404526D01*
X32923333Y-141074050D02*
X32620952Y-141981192D01*
X32620952Y-141981192D02*
X33407143Y-141981192D01*
D11*
X69109580Y-36298989D02*
X69157200Y-36346608D01*
X69157200Y-36346608D02*
X69204819Y-36489465D01*
X69204819Y-36489465D02*
X69204819Y-36584703D01*
X69204819Y-36584703D02*
X69157200Y-36727560D01*
X69157200Y-36727560D02*
X69061961Y-36822798D01*
X69061961Y-36822798D02*
X68966723Y-36870417D01*
X68966723Y-36870417D02*
X68776247Y-36918036D01*
X68776247Y-36918036D02*
X68633390Y-36918036D01*
X68633390Y-36918036D02*
X68442914Y-36870417D01*
X68442914Y-36870417D02*
X68347676Y-36822798D01*
X68347676Y-36822798D02*
X68252438Y-36727560D01*
X68252438Y-36727560D02*
X68204819Y-36584703D01*
X68204819Y-36584703D02*
X68204819Y-36489465D01*
X68204819Y-36489465D02*
X68252438Y-36346608D01*
X68252438Y-36346608D02*
X68300057Y-36298989D01*
X69204819Y-35822798D02*
X69204819Y-35632322D01*
X69204819Y-35632322D02*
X69157200Y-35537084D01*
X69157200Y-35537084D02*
X69109580Y-35489465D01*
X69109580Y-35489465D02*
X68966723Y-35394227D01*
X68966723Y-35394227D02*
X68776247Y-35346608D01*
X68776247Y-35346608D02*
X68395295Y-35346608D01*
X68395295Y-35346608D02*
X68300057Y-35394227D01*
X68300057Y-35394227D02*
X68252438Y-35441846D01*
X68252438Y-35441846D02*
X68204819Y-35537084D01*
X68204819Y-35537084D02*
X68204819Y-35727560D01*
X68204819Y-35727560D02*
X68252438Y-35822798D01*
X68252438Y-35822798D02*
X68300057Y-35870417D01*
X68300057Y-35870417D02*
X68395295Y-35918036D01*
X68395295Y-35918036D02*
X68633390Y-35918036D01*
X68633390Y-35918036D02*
X68728628Y-35870417D01*
X68728628Y-35870417D02*
X68776247Y-35822798D01*
X68776247Y-35822798D02*
X68823866Y-35727560D01*
X68823866Y-35727560D02*
X68823866Y-35537084D01*
X68823866Y-35537084D02*
X68776247Y-35441846D01*
X68776247Y-35441846D02*
X68728628Y-35394227D01*
X68728628Y-35394227D02*
X68633390Y-35346608D01*
X63780742Y-88213080D02*
X63304551Y-88546413D01*
X63780742Y-88784508D02*
X62780742Y-88784508D01*
X62780742Y-88784508D02*
X62780742Y-88403556D01*
X62780742Y-88403556D02*
X62828361Y-88308318D01*
X62828361Y-88308318D02*
X62875980Y-88260699D01*
X62875980Y-88260699D02*
X62971218Y-88213080D01*
X62971218Y-88213080D02*
X63114075Y-88213080D01*
X63114075Y-88213080D02*
X63209313Y-88260699D01*
X63209313Y-88260699D02*
X63256932Y-88308318D01*
X63256932Y-88308318D02*
X63304551Y-88403556D01*
X63304551Y-88403556D02*
X63304551Y-88784508D01*
X63114075Y-87355937D02*
X63780742Y-87355937D01*
X62733123Y-87594032D02*
X63447408Y-87832127D01*
X63447408Y-87832127D02*
X63447408Y-87213080D01*
X60120742Y-88641652D02*
X60120742Y-89213080D01*
X60120742Y-88927366D02*
X59120742Y-88927366D01*
X59120742Y-88927366D02*
X59263599Y-89022604D01*
X59263599Y-89022604D02*
X59358837Y-89117842D01*
X59358837Y-89117842D02*
X59406456Y-89213080D01*
X59120742Y-88022604D02*
X59120742Y-87927366D01*
X59120742Y-87927366D02*
X59168361Y-87832128D01*
X59168361Y-87832128D02*
X59215980Y-87784509D01*
X59215980Y-87784509D02*
X59311218Y-87736890D01*
X59311218Y-87736890D02*
X59501694Y-87689271D01*
X59501694Y-87689271D02*
X59739789Y-87689271D01*
X59739789Y-87689271D02*
X59930265Y-87736890D01*
X59930265Y-87736890D02*
X60025503Y-87784509D01*
X60025503Y-87784509D02*
X60073123Y-87832128D01*
X60073123Y-87832128D02*
X60120742Y-87927366D01*
X60120742Y-87927366D02*
X60120742Y-88022604D01*
X60120742Y-88022604D02*
X60073123Y-88117842D01*
X60073123Y-88117842D02*
X60025503Y-88165461D01*
X60025503Y-88165461D02*
X59930265Y-88213080D01*
X59930265Y-88213080D02*
X59739789Y-88260699D01*
X59739789Y-88260699D02*
X59501694Y-88260699D01*
X59501694Y-88260699D02*
X59311218Y-88213080D01*
X59311218Y-88213080D02*
X59215980Y-88165461D01*
X59215980Y-88165461D02*
X59168361Y-88117842D01*
X59168361Y-88117842D02*
X59120742Y-88022604D01*
X60120742Y-87260699D02*
X59120742Y-87260699D01*
X59739789Y-87165461D02*
X60120742Y-86879747D01*
X59454075Y-86879747D02*
X59835027Y-87260699D01*
X63980742Y-127284508D02*
X62980742Y-127284508D01*
X62980742Y-127284508D02*
X62980742Y-127046413D01*
X62980742Y-127046413D02*
X63028361Y-126903556D01*
X63028361Y-126903556D02*
X63123599Y-126808318D01*
X63123599Y-126808318D02*
X63218837Y-126760699D01*
X63218837Y-126760699D02*
X63409313Y-126713080D01*
X63409313Y-126713080D02*
X63552170Y-126713080D01*
X63552170Y-126713080D02*
X63742646Y-126760699D01*
X63742646Y-126760699D02*
X63837884Y-126808318D01*
X63837884Y-126808318D02*
X63933123Y-126903556D01*
X63933123Y-126903556D02*
X63980742Y-127046413D01*
X63980742Y-127046413D02*
X63980742Y-127284508D01*
X62980742Y-125855937D02*
X62980742Y-126046413D01*
X62980742Y-126046413D02*
X63028361Y-126141651D01*
X63028361Y-126141651D02*
X63075980Y-126189270D01*
X63075980Y-126189270D02*
X63218837Y-126284508D01*
X63218837Y-126284508D02*
X63409313Y-126332127D01*
X63409313Y-126332127D02*
X63790265Y-126332127D01*
X63790265Y-126332127D02*
X63885503Y-126284508D01*
X63885503Y-126284508D02*
X63933123Y-126236889D01*
X63933123Y-126236889D02*
X63980742Y-126141651D01*
X63980742Y-126141651D02*
X63980742Y-125951175D01*
X63980742Y-125951175D02*
X63933123Y-125855937D01*
X63933123Y-125855937D02*
X63885503Y-125808318D01*
X63885503Y-125808318D02*
X63790265Y-125760699D01*
X63790265Y-125760699D02*
X63552170Y-125760699D01*
X63552170Y-125760699D02*
X63456932Y-125808318D01*
X63456932Y-125808318D02*
X63409313Y-125855937D01*
X63409313Y-125855937D02*
X63361694Y-125951175D01*
X63361694Y-125951175D02*
X63361694Y-126141651D01*
X63361694Y-126141651D02*
X63409313Y-126236889D01*
X63409313Y-126236889D02*
X63456932Y-126284508D01*
X63456932Y-126284508D02*
X63552170Y-126332127D01*
X68920742Y-128689271D02*
X68920742Y-129260699D01*
X68920742Y-128974985D02*
X67920742Y-128974985D01*
X67920742Y-128974985D02*
X68063599Y-129070223D01*
X68063599Y-129070223D02*
X68158837Y-129165461D01*
X68158837Y-129165461D02*
X68206456Y-129260699D01*
X68920742Y-128260699D02*
X67920742Y-128260699D01*
X67920742Y-128260699D02*
X68920742Y-127689271D01*
X68920742Y-127689271D02*
X67920742Y-127689271D01*
X67920742Y-126736890D02*
X67920742Y-127213080D01*
X67920742Y-127213080D02*
X68396932Y-127260699D01*
X68396932Y-127260699D02*
X68349313Y-127213080D01*
X68349313Y-127213080D02*
X68301694Y-127117842D01*
X68301694Y-127117842D02*
X68301694Y-126879747D01*
X68301694Y-126879747D02*
X68349313Y-126784509D01*
X68349313Y-126784509D02*
X68396932Y-126736890D01*
X68396932Y-126736890D02*
X68492170Y-126689271D01*
X68492170Y-126689271D02*
X68730265Y-126689271D01*
X68730265Y-126689271D02*
X68825503Y-126736890D01*
X68825503Y-126736890D02*
X68873123Y-126784509D01*
X68873123Y-126784509D02*
X68920742Y-126879747D01*
X68920742Y-126879747D02*
X68920742Y-127117842D01*
X68920742Y-127117842D02*
X68873123Y-127213080D01*
X68873123Y-127213080D02*
X68825503Y-127260699D01*
X68349313Y-126117842D02*
X68301694Y-126213080D01*
X68301694Y-126213080D02*
X68254075Y-126260699D01*
X68254075Y-126260699D02*
X68158837Y-126308318D01*
X68158837Y-126308318D02*
X68111218Y-126308318D01*
X68111218Y-126308318D02*
X68015980Y-126260699D01*
X68015980Y-126260699D02*
X67968361Y-126213080D01*
X67968361Y-126213080D02*
X67920742Y-126117842D01*
X67920742Y-126117842D02*
X67920742Y-125927366D01*
X67920742Y-125927366D02*
X67968361Y-125832128D01*
X67968361Y-125832128D02*
X68015980Y-125784509D01*
X68015980Y-125784509D02*
X68111218Y-125736890D01*
X68111218Y-125736890D02*
X68158837Y-125736890D01*
X68158837Y-125736890D02*
X68254075Y-125784509D01*
X68254075Y-125784509D02*
X68301694Y-125832128D01*
X68301694Y-125832128D02*
X68349313Y-125927366D01*
X68349313Y-125927366D02*
X68349313Y-126117842D01*
X68349313Y-126117842D02*
X68396932Y-126213080D01*
X68396932Y-126213080D02*
X68444551Y-126260699D01*
X68444551Y-126260699D02*
X68539789Y-126308318D01*
X68539789Y-126308318D02*
X68730265Y-126308318D01*
X68730265Y-126308318D02*
X68825503Y-126260699D01*
X68825503Y-126260699D02*
X68873123Y-126213080D01*
X68873123Y-126213080D02*
X68920742Y-126117842D01*
X68920742Y-126117842D02*
X68920742Y-125927366D01*
X68920742Y-125927366D02*
X68873123Y-125832128D01*
X68873123Y-125832128D02*
X68825503Y-125784509D01*
X68825503Y-125784509D02*
X68730265Y-125736890D01*
X68730265Y-125736890D02*
X68539789Y-125736890D01*
X68539789Y-125736890D02*
X68444551Y-125784509D01*
X68444551Y-125784509D02*
X68396932Y-125832128D01*
X68396932Y-125832128D02*
X68349313Y-125927366D01*
X68920742Y-124784509D02*
X68920742Y-125355937D01*
X68920742Y-125070223D02*
X67920742Y-125070223D01*
X67920742Y-125070223D02*
X68063599Y-125165461D01*
X68063599Y-125165461D02*
X68158837Y-125260699D01*
X68158837Y-125260699D02*
X68206456Y-125355937D01*
X68920742Y-124308318D02*
X68920742Y-124117842D01*
X68920742Y-124117842D02*
X68873123Y-124022604D01*
X68873123Y-124022604D02*
X68825503Y-123974985D01*
X68825503Y-123974985D02*
X68682646Y-123879747D01*
X68682646Y-123879747D02*
X68492170Y-123832128D01*
X68492170Y-123832128D02*
X68111218Y-123832128D01*
X68111218Y-123832128D02*
X68015980Y-123879747D01*
X68015980Y-123879747D02*
X67968361Y-123927366D01*
X67968361Y-123927366D02*
X67920742Y-124022604D01*
X67920742Y-124022604D02*
X67920742Y-124213080D01*
X67920742Y-124213080D02*
X67968361Y-124308318D01*
X67968361Y-124308318D02*
X68015980Y-124355937D01*
X68015980Y-124355937D02*
X68111218Y-124403556D01*
X68111218Y-124403556D02*
X68349313Y-124403556D01*
X68349313Y-124403556D02*
X68444551Y-124355937D01*
X68444551Y-124355937D02*
X68492170Y-124308318D01*
X68492170Y-124308318D02*
X68539789Y-124213080D01*
X68539789Y-124213080D02*
X68539789Y-124022604D01*
X68539789Y-124022604D02*
X68492170Y-123927366D01*
X68492170Y-123927366D02*
X68444551Y-123879747D01*
X68444551Y-123879747D02*
X68349313Y-123832128D01*
X64350742Y-131888318D02*
X63350742Y-131888318D01*
X64350742Y-131316890D02*
X63779313Y-131745461D01*
X63350742Y-131316890D02*
X63922170Y-131888318D01*
X49079256Y-182503343D02*
X49031637Y-182550963D01*
X49031637Y-182550963D02*
X48888780Y-182598582D01*
X48888780Y-182598582D02*
X48793542Y-182598582D01*
X48793542Y-182598582D02*
X48650685Y-182550963D01*
X48650685Y-182550963D02*
X48555447Y-182455724D01*
X48555447Y-182455724D02*
X48507828Y-182360486D01*
X48507828Y-182360486D02*
X48460209Y-182170010D01*
X48460209Y-182170010D02*
X48460209Y-182027153D01*
X48460209Y-182027153D02*
X48507828Y-181836677D01*
X48507828Y-181836677D02*
X48555447Y-181741439D01*
X48555447Y-181741439D02*
X48650685Y-181646201D01*
X48650685Y-181646201D02*
X48793542Y-181598582D01*
X48793542Y-181598582D02*
X48888780Y-181598582D01*
X48888780Y-181598582D02*
X49031637Y-181646201D01*
X49031637Y-181646201D02*
X49079256Y-181693820D01*
X49650685Y-182027153D02*
X49555447Y-181979534D01*
X49555447Y-181979534D02*
X49507828Y-181931915D01*
X49507828Y-181931915D02*
X49460209Y-181836677D01*
X49460209Y-181836677D02*
X49460209Y-181789058D01*
X49460209Y-181789058D02*
X49507828Y-181693820D01*
X49507828Y-181693820D02*
X49555447Y-181646201D01*
X49555447Y-181646201D02*
X49650685Y-181598582D01*
X49650685Y-181598582D02*
X49841161Y-181598582D01*
X49841161Y-181598582D02*
X49936399Y-181646201D01*
X49936399Y-181646201D02*
X49984018Y-181693820D01*
X49984018Y-181693820D02*
X50031637Y-181789058D01*
X50031637Y-181789058D02*
X50031637Y-181836677D01*
X50031637Y-181836677D02*
X49984018Y-181931915D01*
X49984018Y-181931915D02*
X49936399Y-181979534D01*
X49936399Y-181979534D02*
X49841161Y-182027153D01*
X49841161Y-182027153D02*
X49650685Y-182027153D01*
X49650685Y-182027153D02*
X49555447Y-182074772D01*
X49555447Y-182074772D02*
X49507828Y-182122391D01*
X49507828Y-182122391D02*
X49460209Y-182217629D01*
X49460209Y-182217629D02*
X49460209Y-182408105D01*
X49460209Y-182408105D02*
X49507828Y-182503343D01*
X49507828Y-182503343D02*
X49555447Y-182550963D01*
X49555447Y-182550963D02*
X49650685Y-182598582D01*
X49650685Y-182598582D02*
X49841161Y-182598582D01*
X49841161Y-182598582D02*
X49936399Y-182550963D01*
X49936399Y-182550963D02*
X49984018Y-182503343D01*
X49984018Y-182503343D02*
X50031637Y-182408105D01*
X50031637Y-182408105D02*
X50031637Y-182217629D01*
X50031637Y-182217629D02*
X49984018Y-182122391D01*
X49984018Y-182122391D02*
X49936399Y-182074772D01*
X49936399Y-182074772D02*
X49841161Y-182027153D01*
X32238095Y-41454819D02*
X32238095Y-40454819D01*
X32238095Y-40931009D02*
X32809523Y-40931009D01*
X32809523Y-41454819D02*
X32809523Y-40454819D01*
X33809523Y-41454819D02*
X33238095Y-41454819D01*
X33523809Y-41454819D02*
X33523809Y-40454819D01*
X33523809Y-40454819D02*
X33428571Y-40597676D01*
X33428571Y-40597676D02*
X33333333Y-40692914D01*
X33333333Y-40692914D02*
X33238095Y-40740533D01*
X26166666Y-95954819D02*
X26166666Y-96669104D01*
X26166666Y-96669104D02*
X26119047Y-96811961D01*
X26119047Y-96811961D02*
X26023809Y-96907200D01*
X26023809Y-96907200D02*
X25880952Y-96954819D01*
X25880952Y-96954819D02*
X25785714Y-96954819D01*
X26785714Y-96383390D02*
X26690476Y-96335771D01*
X26690476Y-96335771D02*
X26642857Y-96288152D01*
X26642857Y-96288152D02*
X26595238Y-96192914D01*
X26595238Y-96192914D02*
X26595238Y-96145295D01*
X26595238Y-96145295D02*
X26642857Y-96050057D01*
X26642857Y-96050057D02*
X26690476Y-96002438D01*
X26690476Y-96002438D02*
X26785714Y-95954819D01*
X26785714Y-95954819D02*
X26976190Y-95954819D01*
X26976190Y-95954819D02*
X27071428Y-96002438D01*
X27071428Y-96002438D02*
X27119047Y-96050057D01*
X27119047Y-96050057D02*
X27166666Y-96145295D01*
X27166666Y-96145295D02*
X27166666Y-96192914D01*
X27166666Y-96192914D02*
X27119047Y-96288152D01*
X27119047Y-96288152D02*
X27071428Y-96335771D01*
X27071428Y-96335771D02*
X26976190Y-96383390D01*
X26976190Y-96383390D02*
X26785714Y-96383390D01*
X26785714Y-96383390D02*
X26690476Y-96431009D01*
X26690476Y-96431009D02*
X26642857Y-96478628D01*
X26642857Y-96478628D02*
X26595238Y-96573866D01*
X26595238Y-96573866D02*
X26595238Y-96764342D01*
X26595238Y-96764342D02*
X26642857Y-96859580D01*
X26642857Y-96859580D02*
X26690476Y-96907200D01*
X26690476Y-96907200D02*
X26785714Y-96954819D01*
X26785714Y-96954819D02*
X26976190Y-96954819D01*
X26976190Y-96954819D02*
X27071428Y-96907200D01*
X27071428Y-96907200D02*
X27119047Y-96859580D01*
X27119047Y-96859580D02*
X27166666Y-96764342D01*
X27166666Y-96764342D02*
X27166666Y-96573866D01*
X27166666Y-96573866D02*
X27119047Y-96478628D01*
X27119047Y-96478628D02*
X27071428Y-96431009D01*
X27071428Y-96431009D02*
X26976190Y-96383390D01*
X61650057Y-97135238D02*
X61602438Y-97230476D01*
X61602438Y-97230476D02*
X61507200Y-97325714D01*
X61507200Y-97325714D02*
X61364342Y-97468571D01*
X61364342Y-97468571D02*
X61316723Y-97563809D01*
X61316723Y-97563809D02*
X61316723Y-97659047D01*
X61554819Y-97611428D02*
X61507200Y-97706666D01*
X61507200Y-97706666D02*
X61411961Y-97801904D01*
X61411961Y-97801904D02*
X61221485Y-97849523D01*
X61221485Y-97849523D02*
X60888152Y-97849523D01*
X60888152Y-97849523D02*
X60697676Y-97801904D01*
X60697676Y-97801904D02*
X60602438Y-97706666D01*
X60602438Y-97706666D02*
X60554819Y-97611428D01*
X60554819Y-97611428D02*
X60554819Y-97420952D01*
X60554819Y-97420952D02*
X60602438Y-97325714D01*
X60602438Y-97325714D02*
X60697676Y-97230476D01*
X60697676Y-97230476D02*
X60888152Y-97182857D01*
X60888152Y-97182857D02*
X61221485Y-97182857D01*
X61221485Y-97182857D02*
X61411961Y-97230476D01*
X61411961Y-97230476D02*
X61507200Y-97325714D01*
X61507200Y-97325714D02*
X61554819Y-97420952D01*
X61554819Y-97420952D02*
X61554819Y-97611428D01*
X60650057Y-96801904D02*
X60602438Y-96754285D01*
X60602438Y-96754285D02*
X60554819Y-96659047D01*
X60554819Y-96659047D02*
X60554819Y-96420952D01*
X60554819Y-96420952D02*
X60602438Y-96325714D01*
X60602438Y-96325714D02*
X60650057Y-96278095D01*
X60650057Y-96278095D02*
X60745295Y-96230476D01*
X60745295Y-96230476D02*
X60840533Y-96230476D01*
X60840533Y-96230476D02*
X60983390Y-96278095D01*
X60983390Y-96278095D02*
X61554819Y-96849523D01*
X61554819Y-96849523D02*
X61554819Y-96230476D01*
X55254819Y-99897142D02*
X54254819Y-99897142D01*
X55254819Y-98849524D02*
X54778628Y-99182857D01*
X55254819Y-99420952D02*
X54254819Y-99420952D01*
X54254819Y-99420952D02*
X54254819Y-99040000D01*
X54254819Y-99040000D02*
X54302438Y-98944762D01*
X54302438Y-98944762D02*
X54350057Y-98897143D01*
X54350057Y-98897143D02*
X54445295Y-98849524D01*
X54445295Y-98849524D02*
X54588152Y-98849524D01*
X54588152Y-98849524D02*
X54683390Y-98897143D01*
X54683390Y-98897143D02*
X54731009Y-98944762D01*
X54731009Y-98944762D02*
X54778628Y-99040000D01*
X54778628Y-99040000D02*
X54778628Y-99420952D01*
X55254819Y-97944762D02*
X55254819Y-98420952D01*
X55254819Y-98420952D02*
X54254819Y-98420952D01*
X54254819Y-97706666D02*
X54254819Y-97040000D01*
X54254819Y-97040000D02*
X55254819Y-97706666D01*
X55254819Y-97706666D02*
X55254819Y-97040000D01*
X54588152Y-96230476D02*
X55254819Y-96230476D01*
X54207200Y-96468571D02*
X54921485Y-96706666D01*
X54921485Y-96706666D02*
X54921485Y-96087619D01*
X54588152Y-95278095D02*
X55254819Y-95278095D01*
X54207200Y-95516190D02*
X54921485Y-95754285D01*
X54921485Y-95754285D02*
X54921485Y-95135238D01*
X55254819Y-94754285D02*
X54254819Y-94754285D01*
X54254819Y-94754285D02*
X55254819Y-94182857D01*
X55254819Y-94182857D02*
X54254819Y-94182857D01*
X54620742Y-123213080D02*
X54144551Y-123546413D01*
X54620742Y-123784508D02*
X53620742Y-123784508D01*
X53620742Y-123784508D02*
X53620742Y-123403556D01*
X53620742Y-123403556D02*
X53668361Y-123308318D01*
X53668361Y-123308318D02*
X53715980Y-123260699D01*
X53715980Y-123260699D02*
X53811218Y-123213080D01*
X53811218Y-123213080D02*
X53954075Y-123213080D01*
X53954075Y-123213080D02*
X54049313Y-123260699D01*
X54049313Y-123260699D02*
X54096932Y-123308318D01*
X54096932Y-123308318D02*
X54144551Y-123403556D01*
X54144551Y-123403556D02*
X54144551Y-123784508D01*
X53620742Y-122308318D02*
X53620742Y-122784508D01*
X53620742Y-122784508D02*
X54096932Y-122832127D01*
X54096932Y-122832127D02*
X54049313Y-122784508D01*
X54049313Y-122784508D02*
X54001694Y-122689270D01*
X54001694Y-122689270D02*
X54001694Y-122451175D01*
X54001694Y-122451175D02*
X54049313Y-122355937D01*
X54049313Y-122355937D02*
X54096932Y-122308318D01*
X54096932Y-122308318D02*
X54192170Y-122260699D01*
X54192170Y-122260699D02*
X54430265Y-122260699D01*
X54430265Y-122260699D02*
X54525503Y-122308318D01*
X54525503Y-122308318D02*
X54573123Y-122355937D01*
X54573123Y-122355937D02*
X54620742Y-122451175D01*
X54620742Y-122451175D02*
X54620742Y-122689270D01*
X54620742Y-122689270D02*
X54573123Y-122784508D01*
X54573123Y-122784508D02*
X54525503Y-122832127D01*
X58280742Y-123713080D02*
X58280742Y-124284508D01*
X58280742Y-123998794D02*
X57280742Y-123998794D01*
X57280742Y-123998794D02*
X57423599Y-124094032D01*
X57423599Y-124094032D02*
X57518837Y-124189270D01*
X57518837Y-124189270D02*
X57566456Y-124284508D01*
X57280742Y-123094032D02*
X57280742Y-122998794D01*
X57280742Y-122998794D02*
X57328361Y-122903556D01*
X57328361Y-122903556D02*
X57375980Y-122855937D01*
X57375980Y-122855937D02*
X57471218Y-122808318D01*
X57471218Y-122808318D02*
X57661694Y-122760699D01*
X57661694Y-122760699D02*
X57899789Y-122760699D01*
X57899789Y-122760699D02*
X58090265Y-122808318D01*
X58090265Y-122808318D02*
X58185503Y-122855937D01*
X58185503Y-122855937D02*
X58233123Y-122903556D01*
X58233123Y-122903556D02*
X58280742Y-122998794D01*
X58280742Y-122998794D02*
X58280742Y-123094032D01*
X58280742Y-123094032D02*
X58233123Y-123189270D01*
X58233123Y-123189270D02*
X58185503Y-123236889D01*
X58185503Y-123236889D02*
X58090265Y-123284508D01*
X58090265Y-123284508D02*
X57899789Y-123332127D01*
X57899789Y-123332127D02*
X57661694Y-123332127D01*
X57661694Y-123332127D02*
X57471218Y-123284508D01*
X57471218Y-123284508D02*
X57375980Y-123236889D01*
X57375980Y-123236889D02*
X57328361Y-123189270D01*
X57328361Y-123189270D02*
X57280742Y-123094032D01*
X57280742Y-122141651D02*
X57280742Y-122046413D01*
X57280742Y-122046413D02*
X57328361Y-121951175D01*
X57328361Y-121951175D02*
X57375980Y-121903556D01*
X57375980Y-121903556D02*
X57471218Y-121855937D01*
X57471218Y-121855937D02*
X57661694Y-121808318D01*
X57661694Y-121808318D02*
X57899789Y-121808318D01*
X57899789Y-121808318D02*
X58090265Y-121855937D01*
X58090265Y-121855937D02*
X58185503Y-121903556D01*
X58185503Y-121903556D02*
X58233123Y-121951175D01*
X58233123Y-121951175D02*
X58280742Y-122046413D01*
X58280742Y-122046413D02*
X58280742Y-122141651D01*
X58280742Y-122141651D02*
X58233123Y-122236889D01*
X58233123Y-122236889D02*
X58185503Y-122284508D01*
X58185503Y-122284508D02*
X58090265Y-122332127D01*
X58090265Y-122332127D02*
X57899789Y-122379746D01*
X57899789Y-122379746D02*
X57661694Y-122379746D01*
X57661694Y-122379746D02*
X57471218Y-122332127D01*
X57471218Y-122332127D02*
X57375980Y-122284508D01*
X57375980Y-122284508D02*
X57328361Y-122236889D01*
X57328361Y-122236889D02*
X57280742Y-122141651D01*
X61650057Y-167635238D02*
X61602438Y-167730476D01*
X61602438Y-167730476D02*
X61507200Y-167825714D01*
X61507200Y-167825714D02*
X61364342Y-167968571D01*
X61364342Y-167968571D02*
X61316723Y-168063809D01*
X61316723Y-168063809D02*
X61316723Y-168159047D01*
X61554819Y-168111428D02*
X61507200Y-168206666D01*
X61507200Y-168206666D02*
X61411961Y-168301904D01*
X61411961Y-168301904D02*
X61221485Y-168349523D01*
X61221485Y-168349523D02*
X60888152Y-168349523D01*
X60888152Y-168349523D02*
X60697676Y-168301904D01*
X60697676Y-168301904D02*
X60602438Y-168206666D01*
X60602438Y-168206666D02*
X60554819Y-168111428D01*
X60554819Y-168111428D02*
X60554819Y-167920952D01*
X60554819Y-167920952D02*
X60602438Y-167825714D01*
X60602438Y-167825714D02*
X60697676Y-167730476D01*
X60697676Y-167730476D02*
X60888152Y-167682857D01*
X60888152Y-167682857D02*
X61221485Y-167682857D01*
X61221485Y-167682857D02*
X61411961Y-167730476D01*
X61411961Y-167730476D02*
X61507200Y-167825714D01*
X61507200Y-167825714D02*
X61554819Y-167920952D01*
X61554819Y-167920952D02*
X61554819Y-168111428D01*
X60888152Y-166825714D02*
X61554819Y-166825714D01*
X60507200Y-167063809D02*
X61221485Y-167301904D01*
X61221485Y-167301904D02*
X61221485Y-166682857D01*
X55254819Y-170397142D02*
X54254819Y-170397142D01*
X55254819Y-169349524D02*
X54778628Y-169682857D01*
X55254819Y-169920952D02*
X54254819Y-169920952D01*
X54254819Y-169920952D02*
X54254819Y-169540000D01*
X54254819Y-169540000D02*
X54302438Y-169444762D01*
X54302438Y-169444762D02*
X54350057Y-169397143D01*
X54350057Y-169397143D02*
X54445295Y-169349524D01*
X54445295Y-169349524D02*
X54588152Y-169349524D01*
X54588152Y-169349524D02*
X54683390Y-169397143D01*
X54683390Y-169397143D02*
X54731009Y-169444762D01*
X54731009Y-169444762D02*
X54778628Y-169540000D01*
X54778628Y-169540000D02*
X54778628Y-169920952D01*
X55254819Y-168444762D02*
X55254819Y-168920952D01*
X55254819Y-168920952D02*
X54254819Y-168920952D01*
X54254819Y-168206666D02*
X54254819Y-167540000D01*
X54254819Y-167540000D02*
X55254819Y-168206666D01*
X55254819Y-168206666D02*
X55254819Y-167540000D01*
X54588152Y-166730476D02*
X55254819Y-166730476D01*
X54207200Y-166968571D02*
X54921485Y-167206666D01*
X54921485Y-167206666D02*
X54921485Y-166587619D01*
X54588152Y-165778095D02*
X55254819Y-165778095D01*
X54207200Y-166016190D02*
X54921485Y-166254285D01*
X54921485Y-166254285D02*
X54921485Y-165635238D01*
X55254819Y-165254285D02*
X54254819Y-165254285D01*
X54254819Y-165254285D02*
X55254819Y-164682857D01*
X55254819Y-164682857D02*
X54254819Y-164682857D01*
X60261905Y-43984819D02*
X60261905Y-42984819D01*
X60261905Y-42984819D02*
X60500000Y-42984819D01*
X60500000Y-42984819D02*
X60642857Y-43032438D01*
X60642857Y-43032438D02*
X60738095Y-43127676D01*
X60738095Y-43127676D02*
X60785714Y-43222914D01*
X60785714Y-43222914D02*
X60833333Y-43413390D01*
X60833333Y-43413390D02*
X60833333Y-43556247D01*
X60833333Y-43556247D02*
X60785714Y-43746723D01*
X60785714Y-43746723D02*
X60738095Y-43841961D01*
X60738095Y-43841961D02*
X60642857Y-43937200D01*
X60642857Y-43937200D02*
X60500000Y-43984819D01*
X60500000Y-43984819D02*
X60261905Y-43984819D01*
X61785714Y-43984819D02*
X61214286Y-43984819D01*
X61500000Y-43984819D02*
X61500000Y-42984819D01*
X61500000Y-42984819D02*
X61404762Y-43127676D01*
X61404762Y-43127676D02*
X61309524Y-43222914D01*
X61309524Y-43222914D02*
X61214286Y-43270533D01*
X58571428Y-48924819D02*
X58000000Y-48924819D01*
X58285714Y-48924819D02*
X58285714Y-47924819D01*
X58285714Y-47924819D02*
X58190476Y-48067676D01*
X58190476Y-48067676D02*
X58095238Y-48162914D01*
X58095238Y-48162914D02*
X58000000Y-48210533D01*
X59000000Y-48924819D02*
X59000000Y-47924819D01*
X59000000Y-47924819D02*
X59571428Y-48924819D01*
X59571428Y-48924819D02*
X59571428Y-47924819D01*
X60476190Y-48258152D02*
X60476190Y-48924819D01*
X60238095Y-47877200D02*
X60000000Y-48591485D01*
X60000000Y-48591485D02*
X60619047Y-48591485D01*
X60904762Y-47924819D02*
X61571428Y-47924819D01*
X61571428Y-47924819D02*
X61142857Y-48924819D01*
X61857143Y-48924819D02*
X62380952Y-48258152D01*
X61857143Y-48258152D02*
X62380952Y-48924819D01*
X62666667Y-48924819D02*
X63190476Y-48258152D01*
X62666667Y-48258152D02*
X63190476Y-48924819D01*
X63523810Y-48639104D02*
X64000000Y-48639104D01*
X63428572Y-48924819D02*
X63761905Y-47924819D01*
X63761905Y-47924819D02*
X64095238Y-48924819D01*
X55658095Y-44354819D02*
X55658095Y-43354819D01*
X56229523Y-44354819D02*
X55800952Y-43783390D01*
X56229523Y-43354819D02*
X55658095Y-43926247D01*
X60257828Y-79031233D02*
X60257828Y-78031233D01*
X60257828Y-78031233D02*
X60495923Y-78031233D01*
X60495923Y-78031233D02*
X60638780Y-78078852D01*
X60638780Y-78078852D02*
X60734018Y-78174090D01*
X60734018Y-78174090D02*
X60781637Y-78269328D01*
X60781637Y-78269328D02*
X60829256Y-78459804D01*
X60829256Y-78459804D02*
X60829256Y-78602661D01*
X60829256Y-78602661D02*
X60781637Y-78793137D01*
X60781637Y-78793137D02*
X60734018Y-78888375D01*
X60734018Y-78888375D02*
X60638780Y-78983614D01*
X60638780Y-78983614D02*
X60495923Y-79031233D01*
X60495923Y-79031233D02*
X60257828Y-79031233D01*
X61162590Y-78031233D02*
X61781637Y-78031233D01*
X61781637Y-78031233D02*
X61448304Y-78412185D01*
X61448304Y-78412185D02*
X61591161Y-78412185D01*
X61591161Y-78412185D02*
X61686399Y-78459804D01*
X61686399Y-78459804D02*
X61734018Y-78507423D01*
X61734018Y-78507423D02*
X61781637Y-78602661D01*
X61781637Y-78602661D02*
X61781637Y-78840756D01*
X61781637Y-78840756D02*
X61734018Y-78935994D01*
X61734018Y-78935994D02*
X61686399Y-78983614D01*
X61686399Y-78983614D02*
X61591161Y-79031233D01*
X61591161Y-79031233D02*
X61305447Y-79031233D01*
X61305447Y-79031233D02*
X61210209Y-78983614D01*
X61210209Y-78983614D02*
X61162590Y-78935994D01*
X58567351Y-83971233D02*
X57995923Y-83971233D01*
X58281637Y-83971233D02*
X58281637Y-82971233D01*
X58281637Y-82971233D02*
X58186399Y-83114090D01*
X58186399Y-83114090D02*
X58091161Y-83209328D01*
X58091161Y-83209328D02*
X57995923Y-83256947D01*
X58995923Y-83971233D02*
X58995923Y-82971233D01*
X58995923Y-82971233D02*
X59567351Y-83971233D01*
X59567351Y-83971233D02*
X59567351Y-82971233D01*
X60472113Y-83304566D02*
X60472113Y-83971233D01*
X60234018Y-82923614D02*
X59995923Y-83637899D01*
X59995923Y-83637899D02*
X60614970Y-83637899D01*
X60900685Y-82971233D02*
X61567351Y-82971233D01*
X61567351Y-82971233D02*
X61138780Y-83971233D01*
X61853066Y-83971233D02*
X62376875Y-83304566D01*
X61853066Y-83304566D02*
X62376875Y-83971233D01*
X62662590Y-83971233D02*
X63186399Y-83304566D01*
X62662590Y-83304566D02*
X63186399Y-83971233D01*
X63519733Y-83685518D02*
X63995923Y-83685518D01*
X63424495Y-83971233D02*
X63757828Y-82971233D01*
X63757828Y-82971233D02*
X64091161Y-83971233D01*
X55654018Y-79401233D02*
X55654018Y-78401233D01*
X56225446Y-79401233D02*
X55796875Y-78829804D01*
X56225446Y-78401233D02*
X55654018Y-78972661D01*
X49083333Y-76956929D02*
X49035714Y-77004549D01*
X49035714Y-77004549D02*
X48892857Y-77052168D01*
X48892857Y-77052168D02*
X48797619Y-77052168D01*
X48797619Y-77052168D02*
X48654762Y-77004549D01*
X48654762Y-77004549D02*
X48559524Y-76909310D01*
X48559524Y-76909310D02*
X48511905Y-76814072D01*
X48511905Y-76814072D02*
X48464286Y-76623596D01*
X48464286Y-76623596D02*
X48464286Y-76480739D01*
X48464286Y-76480739D02*
X48511905Y-76290263D01*
X48511905Y-76290263D02*
X48559524Y-76195025D01*
X48559524Y-76195025D02*
X48654762Y-76099787D01*
X48654762Y-76099787D02*
X48797619Y-76052168D01*
X48797619Y-76052168D02*
X48892857Y-76052168D01*
X48892857Y-76052168D02*
X49035714Y-76099787D01*
X49035714Y-76099787D02*
X49083333Y-76147406D01*
X49464286Y-76147406D02*
X49511905Y-76099787D01*
X49511905Y-76099787D02*
X49607143Y-76052168D01*
X49607143Y-76052168D02*
X49845238Y-76052168D01*
X49845238Y-76052168D02*
X49940476Y-76099787D01*
X49940476Y-76099787D02*
X49988095Y-76147406D01*
X49988095Y-76147406D02*
X50035714Y-76242644D01*
X50035714Y-76242644D02*
X50035714Y-76337882D01*
X50035714Y-76337882D02*
X49988095Y-76480739D01*
X49988095Y-76480739D02*
X49416667Y-77052168D01*
X49416667Y-77052168D02*
X50035714Y-77052168D01*
X63784819Y-53166666D02*
X63308628Y-53499999D01*
X63784819Y-53738094D02*
X62784819Y-53738094D01*
X62784819Y-53738094D02*
X62784819Y-53357142D01*
X62784819Y-53357142D02*
X62832438Y-53261904D01*
X62832438Y-53261904D02*
X62880057Y-53214285D01*
X62880057Y-53214285D02*
X62975295Y-53166666D01*
X62975295Y-53166666D02*
X63118152Y-53166666D01*
X63118152Y-53166666D02*
X63213390Y-53214285D01*
X63213390Y-53214285D02*
X63261009Y-53261904D01*
X63261009Y-53261904D02*
X63308628Y-53357142D01*
X63308628Y-53357142D02*
X63308628Y-53738094D01*
X62880057Y-52785713D02*
X62832438Y-52738094D01*
X62832438Y-52738094D02*
X62784819Y-52642856D01*
X62784819Y-52642856D02*
X62784819Y-52404761D01*
X62784819Y-52404761D02*
X62832438Y-52309523D01*
X62832438Y-52309523D02*
X62880057Y-52261904D01*
X62880057Y-52261904D02*
X62975295Y-52214285D01*
X62975295Y-52214285D02*
X63070533Y-52214285D01*
X63070533Y-52214285D02*
X63213390Y-52261904D01*
X63213390Y-52261904D02*
X63784819Y-52833332D01*
X63784819Y-52833332D02*
X63784819Y-52214285D01*
X60124819Y-53595238D02*
X60124819Y-54166666D01*
X60124819Y-53880952D02*
X59124819Y-53880952D01*
X59124819Y-53880952D02*
X59267676Y-53976190D01*
X59267676Y-53976190D02*
X59362914Y-54071428D01*
X59362914Y-54071428D02*
X59410533Y-54166666D01*
X59124819Y-52976190D02*
X59124819Y-52880952D01*
X59124819Y-52880952D02*
X59172438Y-52785714D01*
X59172438Y-52785714D02*
X59220057Y-52738095D01*
X59220057Y-52738095D02*
X59315295Y-52690476D01*
X59315295Y-52690476D02*
X59505771Y-52642857D01*
X59505771Y-52642857D02*
X59743866Y-52642857D01*
X59743866Y-52642857D02*
X59934342Y-52690476D01*
X59934342Y-52690476D02*
X60029580Y-52738095D01*
X60029580Y-52738095D02*
X60077200Y-52785714D01*
X60077200Y-52785714D02*
X60124819Y-52880952D01*
X60124819Y-52880952D02*
X60124819Y-52976190D01*
X60124819Y-52976190D02*
X60077200Y-53071428D01*
X60077200Y-53071428D02*
X60029580Y-53119047D01*
X60029580Y-53119047D02*
X59934342Y-53166666D01*
X59934342Y-53166666D02*
X59743866Y-53214285D01*
X59743866Y-53214285D02*
X59505771Y-53214285D01*
X59505771Y-53214285D02*
X59315295Y-53166666D01*
X59315295Y-53166666D02*
X59220057Y-53119047D01*
X59220057Y-53119047D02*
X59172438Y-53071428D01*
X59172438Y-53071428D02*
X59124819Y-52976190D01*
X60124819Y-52214285D02*
X59124819Y-52214285D01*
X59743866Y-52119047D02*
X60124819Y-51833333D01*
X59458152Y-51833333D02*
X59839104Y-52214285D01*
X56179580Y-71666666D02*
X56227200Y-71714285D01*
X56227200Y-71714285D02*
X56274819Y-71857142D01*
X56274819Y-71857142D02*
X56274819Y-71952380D01*
X56274819Y-71952380D02*
X56227200Y-72095237D01*
X56227200Y-72095237D02*
X56131961Y-72190475D01*
X56131961Y-72190475D02*
X56036723Y-72238094D01*
X56036723Y-72238094D02*
X55846247Y-72285713D01*
X55846247Y-72285713D02*
X55703390Y-72285713D01*
X55703390Y-72285713D02*
X55512914Y-72238094D01*
X55512914Y-72238094D02*
X55417676Y-72190475D01*
X55417676Y-72190475D02*
X55322438Y-72095237D01*
X55322438Y-72095237D02*
X55274819Y-71952380D01*
X55274819Y-71952380D02*
X55274819Y-71857142D01*
X55274819Y-71857142D02*
X55322438Y-71714285D01*
X55322438Y-71714285D02*
X55370057Y-71666666D01*
X56274819Y-70714285D02*
X56274819Y-71285713D01*
X56274819Y-70999999D02*
X55274819Y-70999999D01*
X55274819Y-70999999D02*
X55417676Y-71095237D01*
X55417676Y-71095237D02*
X55512914Y-71190475D01*
X55512914Y-71190475D02*
X55560533Y-71285713D01*
X55179580Y-177166666D02*
X55227200Y-177214285D01*
X55227200Y-177214285D02*
X55274819Y-177357142D01*
X55274819Y-177357142D02*
X55274819Y-177452380D01*
X55274819Y-177452380D02*
X55227200Y-177595237D01*
X55227200Y-177595237D02*
X55131961Y-177690475D01*
X55131961Y-177690475D02*
X55036723Y-177738094D01*
X55036723Y-177738094D02*
X54846247Y-177785713D01*
X54846247Y-177785713D02*
X54703390Y-177785713D01*
X54703390Y-177785713D02*
X54512914Y-177738094D01*
X54512914Y-177738094D02*
X54417676Y-177690475D01*
X54417676Y-177690475D02*
X54322438Y-177595237D01*
X54322438Y-177595237D02*
X54274819Y-177452380D01*
X54274819Y-177452380D02*
X54274819Y-177357142D01*
X54274819Y-177357142D02*
X54322438Y-177214285D01*
X54322438Y-177214285D02*
X54370057Y-177166666D01*
X54274819Y-176833332D02*
X54274819Y-176166666D01*
X54274819Y-176166666D02*
X55274819Y-176595237D01*
X43152319Y-36333333D02*
X43866604Y-36333333D01*
X43866604Y-36333333D02*
X44009461Y-36380952D01*
X44009461Y-36380952D02*
X44104700Y-36476190D01*
X44104700Y-36476190D02*
X44152319Y-36619047D01*
X44152319Y-36619047D02*
X44152319Y-36714285D01*
X43152319Y-35952380D02*
X43152319Y-35333333D01*
X43152319Y-35333333D02*
X43533271Y-35666666D01*
X43533271Y-35666666D02*
X43533271Y-35523809D01*
X43533271Y-35523809D02*
X43580890Y-35428571D01*
X43580890Y-35428571D02*
X43628509Y-35380952D01*
X43628509Y-35380952D02*
X43723747Y-35333333D01*
X43723747Y-35333333D02*
X43961842Y-35333333D01*
X43961842Y-35333333D02*
X44057080Y-35380952D01*
X44057080Y-35380952D02*
X44104700Y-35428571D01*
X44104700Y-35428571D02*
X44152319Y-35523809D01*
X44152319Y-35523809D02*
X44152319Y-35809523D01*
X44152319Y-35809523D02*
X44104700Y-35904761D01*
X44104700Y-35904761D02*
X44057080Y-35952380D01*
X61650057Y-132135238D02*
X61602438Y-132230476D01*
X61602438Y-132230476D02*
X61507200Y-132325714D01*
X61507200Y-132325714D02*
X61364342Y-132468571D01*
X61364342Y-132468571D02*
X61316723Y-132563809D01*
X61316723Y-132563809D02*
X61316723Y-132659047D01*
X61554819Y-132611428D02*
X61507200Y-132706666D01*
X61507200Y-132706666D02*
X61411961Y-132801904D01*
X61411961Y-132801904D02*
X61221485Y-132849523D01*
X61221485Y-132849523D02*
X60888152Y-132849523D01*
X60888152Y-132849523D02*
X60697676Y-132801904D01*
X60697676Y-132801904D02*
X60602438Y-132706666D01*
X60602438Y-132706666D02*
X60554819Y-132611428D01*
X60554819Y-132611428D02*
X60554819Y-132420952D01*
X60554819Y-132420952D02*
X60602438Y-132325714D01*
X60602438Y-132325714D02*
X60697676Y-132230476D01*
X60697676Y-132230476D02*
X60888152Y-132182857D01*
X60888152Y-132182857D02*
X61221485Y-132182857D01*
X61221485Y-132182857D02*
X61411961Y-132230476D01*
X61411961Y-132230476D02*
X61507200Y-132325714D01*
X61507200Y-132325714D02*
X61554819Y-132420952D01*
X61554819Y-132420952D02*
X61554819Y-132611428D01*
X60554819Y-131849523D02*
X60554819Y-131230476D01*
X60554819Y-131230476D02*
X60935771Y-131563809D01*
X60935771Y-131563809D02*
X60935771Y-131420952D01*
X60935771Y-131420952D02*
X60983390Y-131325714D01*
X60983390Y-131325714D02*
X61031009Y-131278095D01*
X61031009Y-131278095D02*
X61126247Y-131230476D01*
X61126247Y-131230476D02*
X61364342Y-131230476D01*
X61364342Y-131230476D02*
X61459580Y-131278095D01*
X61459580Y-131278095D02*
X61507200Y-131325714D01*
X61507200Y-131325714D02*
X61554819Y-131420952D01*
X61554819Y-131420952D02*
X61554819Y-131706666D01*
X61554819Y-131706666D02*
X61507200Y-131801904D01*
X61507200Y-131801904D02*
X61459580Y-131849523D01*
X55254819Y-134897142D02*
X54254819Y-134897142D01*
X55254819Y-133849524D02*
X54778628Y-134182857D01*
X55254819Y-134420952D02*
X54254819Y-134420952D01*
X54254819Y-134420952D02*
X54254819Y-134040000D01*
X54254819Y-134040000D02*
X54302438Y-133944762D01*
X54302438Y-133944762D02*
X54350057Y-133897143D01*
X54350057Y-133897143D02*
X54445295Y-133849524D01*
X54445295Y-133849524D02*
X54588152Y-133849524D01*
X54588152Y-133849524D02*
X54683390Y-133897143D01*
X54683390Y-133897143D02*
X54731009Y-133944762D01*
X54731009Y-133944762D02*
X54778628Y-134040000D01*
X54778628Y-134040000D02*
X54778628Y-134420952D01*
X55254819Y-132944762D02*
X55254819Y-133420952D01*
X55254819Y-133420952D02*
X54254819Y-133420952D01*
X54254819Y-132706666D02*
X54254819Y-132040000D01*
X54254819Y-132040000D02*
X55254819Y-132706666D01*
X55254819Y-132706666D02*
X55254819Y-132040000D01*
X54588152Y-131230476D02*
X55254819Y-131230476D01*
X54207200Y-131468571D02*
X54921485Y-131706666D01*
X54921485Y-131706666D02*
X54921485Y-131087619D01*
X54588152Y-130278095D02*
X55254819Y-130278095D01*
X54207200Y-130516190D02*
X54921485Y-130754285D01*
X54921485Y-130754285D02*
X54921485Y-130135238D01*
X55254819Y-129754285D02*
X54254819Y-129754285D01*
X54254819Y-129754285D02*
X55254819Y-129182857D01*
X55254819Y-129182857D02*
X54254819Y-129182857D01*
X54624819Y-53166666D02*
X54148628Y-53499999D01*
X54624819Y-53738094D02*
X53624819Y-53738094D01*
X53624819Y-53738094D02*
X53624819Y-53357142D01*
X53624819Y-53357142D02*
X53672438Y-53261904D01*
X53672438Y-53261904D02*
X53720057Y-53214285D01*
X53720057Y-53214285D02*
X53815295Y-53166666D01*
X53815295Y-53166666D02*
X53958152Y-53166666D01*
X53958152Y-53166666D02*
X54053390Y-53214285D01*
X54053390Y-53214285D02*
X54101009Y-53261904D01*
X54101009Y-53261904D02*
X54148628Y-53357142D01*
X54148628Y-53357142D02*
X54148628Y-53738094D01*
X54624819Y-52214285D02*
X54624819Y-52785713D01*
X54624819Y-52499999D02*
X53624819Y-52499999D01*
X53624819Y-52499999D02*
X53767676Y-52595237D01*
X53767676Y-52595237D02*
X53862914Y-52690475D01*
X53862914Y-52690475D02*
X53910533Y-52785713D01*
X58284819Y-53666666D02*
X58284819Y-54238094D01*
X58284819Y-53952380D02*
X57284819Y-53952380D01*
X57284819Y-53952380D02*
X57427676Y-54047618D01*
X57427676Y-54047618D02*
X57522914Y-54142856D01*
X57522914Y-54142856D02*
X57570533Y-54238094D01*
X57284819Y-53047618D02*
X57284819Y-52952380D01*
X57284819Y-52952380D02*
X57332438Y-52857142D01*
X57332438Y-52857142D02*
X57380057Y-52809523D01*
X57380057Y-52809523D02*
X57475295Y-52761904D01*
X57475295Y-52761904D02*
X57665771Y-52714285D01*
X57665771Y-52714285D02*
X57903866Y-52714285D01*
X57903866Y-52714285D02*
X58094342Y-52761904D01*
X58094342Y-52761904D02*
X58189580Y-52809523D01*
X58189580Y-52809523D02*
X58237200Y-52857142D01*
X58237200Y-52857142D02*
X58284819Y-52952380D01*
X58284819Y-52952380D02*
X58284819Y-53047618D01*
X58284819Y-53047618D02*
X58237200Y-53142856D01*
X58237200Y-53142856D02*
X58189580Y-53190475D01*
X58189580Y-53190475D02*
X58094342Y-53238094D01*
X58094342Y-53238094D02*
X57903866Y-53285713D01*
X57903866Y-53285713D02*
X57665771Y-53285713D01*
X57665771Y-53285713D02*
X57475295Y-53238094D01*
X57475295Y-53238094D02*
X57380057Y-53190475D01*
X57380057Y-53190475D02*
X57332438Y-53142856D01*
X57332438Y-53142856D02*
X57284819Y-53047618D01*
X57284819Y-52095237D02*
X57284819Y-51999999D01*
X57284819Y-51999999D02*
X57332438Y-51904761D01*
X57332438Y-51904761D02*
X57380057Y-51857142D01*
X57380057Y-51857142D02*
X57475295Y-51809523D01*
X57475295Y-51809523D02*
X57665771Y-51761904D01*
X57665771Y-51761904D02*
X57903866Y-51761904D01*
X57903866Y-51761904D02*
X58094342Y-51809523D01*
X58094342Y-51809523D02*
X58189580Y-51857142D01*
X58189580Y-51857142D02*
X58237200Y-51904761D01*
X58237200Y-51904761D02*
X58284819Y-51999999D01*
X58284819Y-51999999D02*
X58284819Y-52095237D01*
X58284819Y-52095237D02*
X58237200Y-52190475D01*
X58237200Y-52190475D02*
X58189580Y-52238094D01*
X58189580Y-52238094D02*
X58094342Y-52285713D01*
X58094342Y-52285713D02*
X57903866Y-52333332D01*
X57903866Y-52333332D02*
X57665771Y-52333332D01*
X57665771Y-52333332D02*
X57475295Y-52285713D01*
X57475295Y-52285713D02*
X57380057Y-52238094D01*
X57380057Y-52238094D02*
X57332438Y-52190475D01*
X57332438Y-52190475D02*
X57284819Y-52095237D01*
X55679580Y-106666666D02*
X55727200Y-106714285D01*
X55727200Y-106714285D02*
X55774819Y-106857142D01*
X55774819Y-106857142D02*
X55774819Y-106952380D01*
X55774819Y-106952380D02*
X55727200Y-107095237D01*
X55727200Y-107095237D02*
X55631961Y-107190475D01*
X55631961Y-107190475D02*
X55536723Y-107238094D01*
X55536723Y-107238094D02*
X55346247Y-107285713D01*
X55346247Y-107285713D02*
X55203390Y-107285713D01*
X55203390Y-107285713D02*
X55012914Y-107238094D01*
X55012914Y-107238094D02*
X54917676Y-107190475D01*
X54917676Y-107190475D02*
X54822438Y-107095237D01*
X54822438Y-107095237D02*
X54774819Y-106952380D01*
X54774819Y-106952380D02*
X54774819Y-106857142D01*
X54774819Y-106857142D02*
X54822438Y-106714285D01*
X54822438Y-106714285D02*
X54870057Y-106666666D01*
X54774819Y-106333332D02*
X54774819Y-105714285D01*
X54774819Y-105714285D02*
X55155771Y-106047618D01*
X55155771Y-106047618D02*
X55155771Y-105904761D01*
X55155771Y-105904761D02*
X55203390Y-105809523D01*
X55203390Y-105809523D02*
X55251009Y-105761904D01*
X55251009Y-105761904D02*
X55346247Y-105714285D01*
X55346247Y-105714285D02*
X55584342Y-105714285D01*
X55584342Y-105714285D02*
X55679580Y-105761904D01*
X55679580Y-105761904D02*
X55727200Y-105809523D01*
X55727200Y-105809523D02*
X55774819Y-105904761D01*
X55774819Y-105904761D02*
X55774819Y-106190475D01*
X55774819Y-106190475D02*
X55727200Y-106285713D01*
X55727200Y-106285713D02*
X55679580Y-106333332D01*
X55675503Y-141463080D02*
X55723123Y-141510699D01*
X55723123Y-141510699D02*
X55770742Y-141653556D01*
X55770742Y-141653556D02*
X55770742Y-141748794D01*
X55770742Y-141748794D02*
X55723123Y-141891651D01*
X55723123Y-141891651D02*
X55627884Y-141986889D01*
X55627884Y-141986889D02*
X55532646Y-142034508D01*
X55532646Y-142034508D02*
X55342170Y-142082127D01*
X55342170Y-142082127D02*
X55199313Y-142082127D01*
X55199313Y-142082127D02*
X55008837Y-142034508D01*
X55008837Y-142034508D02*
X54913599Y-141986889D01*
X54913599Y-141986889D02*
X54818361Y-141891651D01*
X54818361Y-141891651D02*
X54770742Y-141748794D01*
X54770742Y-141748794D02*
X54770742Y-141653556D01*
X54770742Y-141653556D02*
X54818361Y-141510699D01*
X54818361Y-141510699D02*
X54865980Y-141463080D01*
X54770742Y-140558318D02*
X54770742Y-141034508D01*
X54770742Y-141034508D02*
X55246932Y-141082127D01*
X55246932Y-141082127D02*
X55199313Y-141034508D01*
X55199313Y-141034508D02*
X55151694Y-140939270D01*
X55151694Y-140939270D02*
X55151694Y-140701175D01*
X55151694Y-140701175D02*
X55199313Y-140605937D01*
X55199313Y-140605937D02*
X55246932Y-140558318D01*
X55246932Y-140558318D02*
X55342170Y-140510699D01*
X55342170Y-140510699D02*
X55580265Y-140510699D01*
X55580265Y-140510699D02*
X55675503Y-140558318D01*
X55675503Y-140558318D02*
X55723123Y-140605937D01*
X55723123Y-140605937D02*
X55770742Y-140701175D01*
X55770742Y-140701175D02*
X55770742Y-140939270D01*
X55770742Y-140939270D02*
X55723123Y-141034508D01*
X55723123Y-141034508D02*
X55675503Y-141082127D01*
X60257828Y-149531233D02*
X60257828Y-148531233D01*
X60257828Y-148531233D02*
X60495923Y-148531233D01*
X60495923Y-148531233D02*
X60638780Y-148578852D01*
X60638780Y-148578852D02*
X60734018Y-148674090D01*
X60734018Y-148674090D02*
X60781637Y-148769328D01*
X60781637Y-148769328D02*
X60829256Y-148959804D01*
X60829256Y-148959804D02*
X60829256Y-149102661D01*
X60829256Y-149102661D02*
X60781637Y-149293137D01*
X60781637Y-149293137D02*
X60734018Y-149388375D01*
X60734018Y-149388375D02*
X60638780Y-149483614D01*
X60638780Y-149483614D02*
X60495923Y-149531233D01*
X60495923Y-149531233D02*
X60257828Y-149531233D01*
X61162590Y-148531233D02*
X61829256Y-148531233D01*
X61829256Y-148531233D02*
X61400685Y-149531233D01*
X58567351Y-154471233D02*
X57995923Y-154471233D01*
X58281637Y-154471233D02*
X58281637Y-153471233D01*
X58281637Y-153471233D02*
X58186399Y-153614090D01*
X58186399Y-153614090D02*
X58091161Y-153709328D01*
X58091161Y-153709328D02*
X57995923Y-153756947D01*
X58995923Y-154471233D02*
X58995923Y-153471233D01*
X58995923Y-153471233D02*
X59567351Y-154471233D01*
X59567351Y-154471233D02*
X59567351Y-153471233D01*
X60472113Y-153804566D02*
X60472113Y-154471233D01*
X60234018Y-153423614D02*
X59995923Y-154137899D01*
X59995923Y-154137899D02*
X60614970Y-154137899D01*
X60900685Y-153471233D02*
X61567351Y-153471233D01*
X61567351Y-153471233D02*
X61138780Y-154471233D01*
X61853066Y-154471233D02*
X62376875Y-153804566D01*
X61853066Y-153804566D02*
X62376875Y-154471233D01*
X62662590Y-154471233D02*
X63186399Y-153804566D01*
X62662590Y-153804566D02*
X63186399Y-154471233D01*
X63519733Y-154185518D02*
X63995923Y-154185518D01*
X63424495Y-154471233D02*
X63757828Y-153471233D01*
X63757828Y-153471233D02*
X64091161Y-154471233D01*
X55654018Y-149901233D02*
X55654018Y-148901233D01*
X56225446Y-149901233D02*
X55796875Y-149329804D01*
X56225446Y-148901233D02*
X55654018Y-149472661D01*
D12*
X32076667Y-105848811D02*
X32076667Y-106755954D01*
X32076667Y-106755954D02*
X32016190Y-106937382D01*
X32016190Y-106937382D02*
X31895238Y-107058335D01*
X31895238Y-107058335D02*
X31713809Y-107118811D01*
X31713809Y-107118811D02*
X31592857Y-107118811D01*
X32620952Y-105969763D02*
X32681428Y-105909287D01*
X32681428Y-105909287D02*
X32802381Y-105848811D01*
X32802381Y-105848811D02*
X33104762Y-105848811D01*
X33104762Y-105848811D02*
X33225714Y-105909287D01*
X33225714Y-105909287D02*
X33286190Y-105969763D01*
X33286190Y-105969763D02*
X33346667Y-106090715D01*
X33346667Y-106090715D02*
X33346667Y-106211668D01*
X33346667Y-106211668D02*
X33286190Y-106393096D01*
X33286190Y-106393096D02*
X32560476Y-107118811D01*
X32560476Y-107118811D02*
X33346667Y-107118811D01*
D11*
X63980742Y-92284508D02*
X62980742Y-92284508D01*
X62980742Y-92284508D02*
X62980742Y-92046413D01*
X62980742Y-92046413D02*
X63028361Y-91903556D01*
X63028361Y-91903556D02*
X63123599Y-91808318D01*
X63123599Y-91808318D02*
X63218837Y-91760699D01*
X63218837Y-91760699D02*
X63409313Y-91713080D01*
X63409313Y-91713080D02*
X63552170Y-91713080D01*
X63552170Y-91713080D02*
X63742646Y-91760699D01*
X63742646Y-91760699D02*
X63837884Y-91808318D01*
X63837884Y-91808318D02*
X63933123Y-91903556D01*
X63933123Y-91903556D02*
X63980742Y-92046413D01*
X63980742Y-92046413D02*
X63980742Y-92284508D01*
X63314075Y-90855937D02*
X63980742Y-90855937D01*
X62933123Y-91094032D02*
X63647408Y-91332127D01*
X63647408Y-91332127D02*
X63647408Y-90713080D01*
X68920742Y-93689271D02*
X68920742Y-94260699D01*
X68920742Y-93974985D02*
X67920742Y-93974985D01*
X67920742Y-93974985D02*
X68063599Y-94070223D01*
X68063599Y-94070223D02*
X68158837Y-94165461D01*
X68158837Y-94165461D02*
X68206456Y-94260699D01*
X68920742Y-93260699D02*
X67920742Y-93260699D01*
X67920742Y-93260699D02*
X68920742Y-92689271D01*
X68920742Y-92689271D02*
X67920742Y-92689271D01*
X67920742Y-91736890D02*
X67920742Y-92213080D01*
X67920742Y-92213080D02*
X68396932Y-92260699D01*
X68396932Y-92260699D02*
X68349313Y-92213080D01*
X68349313Y-92213080D02*
X68301694Y-92117842D01*
X68301694Y-92117842D02*
X68301694Y-91879747D01*
X68301694Y-91879747D02*
X68349313Y-91784509D01*
X68349313Y-91784509D02*
X68396932Y-91736890D01*
X68396932Y-91736890D02*
X68492170Y-91689271D01*
X68492170Y-91689271D02*
X68730265Y-91689271D01*
X68730265Y-91689271D02*
X68825503Y-91736890D01*
X68825503Y-91736890D02*
X68873123Y-91784509D01*
X68873123Y-91784509D02*
X68920742Y-91879747D01*
X68920742Y-91879747D02*
X68920742Y-92117842D01*
X68920742Y-92117842D02*
X68873123Y-92213080D01*
X68873123Y-92213080D02*
X68825503Y-92260699D01*
X68349313Y-91117842D02*
X68301694Y-91213080D01*
X68301694Y-91213080D02*
X68254075Y-91260699D01*
X68254075Y-91260699D02*
X68158837Y-91308318D01*
X68158837Y-91308318D02*
X68111218Y-91308318D01*
X68111218Y-91308318D02*
X68015980Y-91260699D01*
X68015980Y-91260699D02*
X67968361Y-91213080D01*
X67968361Y-91213080D02*
X67920742Y-91117842D01*
X67920742Y-91117842D02*
X67920742Y-90927366D01*
X67920742Y-90927366D02*
X67968361Y-90832128D01*
X67968361Y-90832128D02*
X68015980Y-90784509D01*
X68015980Y-90784509D02*
X68111218Y-90736890D01*
X68111218Y-90736890D02*
X68158837Y-90736890D01*
X68158837Y-90736890D02*
X68254075Y-90784509D01*
X68254075Y-90784509D02*
X68301694Y-90832128D01*
X68301694Y-90832128D02*
X68349313Y-90927366D01*
X68349313Y-90927366D02*
X68349313Y-91117842D01*
X68349313Y-91117842D02*
X68396932Y-91213080D01*
X68396932Y-91213080D02*
X68444551Y-91260699D01*
X68444551Y-91260699D02*
X68539789Y-91308318D01*
X68539789Y-91308318D02*
X68730265Y-91308318D01*
X68730265Y-91308318D02*
X68825503Y-91260699D01*
X68825503Y-91260699D02*
X68873123Y-91213080D01*
X68873123Y-91213080D02*
X68920742Y-91117842D01*
X68920742Y-91117842D02*
X68920742Y-90927366D01*
X68920742Y-90927366D02*
X68873123Y-90832128D01*
X68873123Y-90832128D02*
X68825503Y-90784509D01*
X68825503Y-90784509D02*
X68730265Y-90736890D01*
X68730265Y-90736890D02*
X68539789Y-90736890D01*
X68539789Y-90736890D02*
X68444551Y-90784509D01*
X68444551Y-90784509D02*
X68396932Y-90832128D01*
X68396932Y-90832128D02*
X68349313Y-90927366D01*
X68920742Y-89784509D02*
X68920742Y-90355937D01*
X68920742Y-90070223D02*
X67920742Y-90070223D01*
X67920742Y-90070223D02*
X68063599Y-90165461D01*
X68063599Y-90165461D02*
X68158837Y-90260699D01*
X68158837Y-90260699D02*
X68206456Y-90355937D01*
X68920742Y-89308318D02*
X68920742Y-89117842D01*
X68920742Y-89117842D02*
X68873123Y-89022604D01*
X68873123Y-89022604D02*
X68825503Y-88974985D01*
X68825503Y-88974985D02*
X68682646Y-88879747D01*
X68682646Y-88879747D02*
X68492170Y-88832128D01*
X68492170Y-88832128D02*
X68111218Y-88832128D01*
X68111218Y-88832128D02*
X68015980Y-88879747D01*
X68015980Y-88879747D02*
X67968361Y-88927366D01*
X67968361Y-88927366D02*
X67920742Y-89022604D01*
X67920742Y-89022604D02*
X67920742Y-89213080D01*
X67920742Y-89213080D02*
X67968361Y-89308318D01*
X67968361Y-89308318D02*
X68015980Y-89355937D01*
X68015980Y-89355937D02*
X68111218Y-89403556D01*
X68111218Y-89403556D02*
X68349313Y-89403556D01*
X68349313Y-89403556D02*
X68444551Y-89355937D01*
X68444551Y-89355937D02*
X68492170Y-89308318D01*
X68492170Y-89308318D02*
X68539789Y-89213080D01*
X68539789Y-89213080D02*
X68539789Y-89022604D01*
X68539789Y-89022604D02*
X68492170Y-88927366D01*
X68492170Y-88927366D02*
X68444551Y-88879747D01*
X68444551Y-88879747D02*
X68349313Y-88832128D01*
X64350742Y-96888318D02*
X63350742Y-96888318D01*
X64350742Y-96316890D02*
X63779313Y-96745461D01*
X63350742Y-96316890D02*
X63922170Y-96888318D01*
X25690476Y-166454819D02*
X25690476Y-167169104D01*
X25690476Y-167169104D02*
X25642857Y-167311961D01*
X25642857Y-167311961D02*
X25547619Y-167407200D01*
X25547619Y-167407200D02*
X25404762Y-167454819D01*
X25404762Y-167454819D02*
X25309524Y-167454819D01*
X26690476Y-167454819D02*
X26119048Y-167454819D01*
X26404762Y-167454819D02*
X26404762Y-166454819D01*
X26404762Y-166454819D02*
X26309524Y-166597676D01*
X26309524Y-166597676D02*
X26214286Y-166692914D01*
X26214286Y-166692914D02*
X26119048Y-166740533D01*
X27309524Y-166454819D02*
X27404762Y-166454819D01*
X27404762Y-166454819D02*
X27500000Y-166502438D01*
X27500000Y-166502438D02*
X27547619Y-166550057D01*
X27547619Y-166550057D02*
X27595238Y-166645295D01*
X27595238Y-166645295D02*
X27642857Y-166835771D01*
X27642857Y-166835771D02*
X27642857Y-167073866D01*
X27642857Y-167073866D02*
X27595238Y-167264342D01*
X27595238Y-167264342D02*
X27547619Y-167359580D01*
X27547619Y-167359580D02*
X27500000Y-167407200D01*
X27500000Y-167407200D02*
X27404762Y-167454819D01*
X27404762Y-167454819D02*
X27309524Y-167454819D01*
X27309524Y-167454819D02*
X27214286Y-167407200D01*
X27214286Y-167407200D02*
X27166667Y-167359580D01*
X27166667Y-167359580D02*
X27119048Y-167264342D01*
X27119048Y-167264342D02*
X27071429Y-167073866D01*
X27071429Y-167073866D02*
X27071429Y-166835771D01*
X27071429Y-166835771D02*
X27119048Y-166645295D01*
X27119048Y-166645295D02*
X27166667Y-166550057D01*
X27166667Y-166550057D02*
X27214286Y-166502438D01*
X27214286Y-166502438D02*
X27309524Y-166454819D01*
X63780742Y-123213080D02*
X63304551Y-123546413D01*
X63780742Y-123784508D02*
X62780742Y-123784508D01*
X62780742Y-123784508D02*
X62780742Y-123403556D01*
X62780742Y-123403556D02*
X62828361Y-123308318D01*
X62828361Y-123308318D02*
X62875980Y-123260699D01*
X62875980Y-123260699D02*
X62971218Y-123213080D01*
X62971218Y-123213080D02*
X63114075Y-123213080D01*
X63114075Y-123213080D02*
X63209313Y-123260699D01*
X63209313Y-123260699D02*
X63256932Y-123308318D01*
X63256932Y-123308318D02*
X63304551Y-123403556D01*
X63304551Y-123403556D02*
X63304551Y-123784508D01*
X62780742Y-122355937D02*
X62780742Y-122546413D01*
X62780742Y-122546413D02*
X62828361Y-122641651D01*
X62828361Y-122641651D02*
X62875980Y-122689270D01*
X62875980Y-122689270D02*
X63018837Y-122784508D01*
X63018837Y-122784508D02*
X63209313Y-122832127D01*
X63209313Y-122832127D02*
X63590265Y-122832127D01*
X63590265Y-122832127D02*
X63685503Y-122784508D01*
X63685503Y-122784508D02*
X63733123Y-122736889D01*
X63733123Y-122736889D02*
X63780742Y-122641651D01*
X63780742Y-122641651D02*
X63780742Y-122451175D01*
X63780742Y-122451175D02*
X63733123Y-122355937D01*
X63733123Y-122355937D02*
X63685503Y-122308318D01*
X63685503Y-122308318D02*
X63590265Y-122260699D01*
X63590265Y-122260699D02*
X63352170Y-122260699D01*
X63352170Y-122260699D02*
X63256932Y-122308318D01*
X63256932Y-122308318D02*
X63209313Y-122355937D01*
X63209313Y-122355937D02*
X63161694Y-122451175D01*
X63161694Y-122451175D02*
X63161694Y-122641651D01*
X63161694Y-122641651D02*
X63209313Y-122736889D01*
X63209313Y-122736889D02*
X63256932Y-122784508D01*
X63256932Y-122784508D02*
X63352170Y-122832127D01*
X60120742Y-123641652D02*
X60120742Y-124213080D01*
X60120742Y-123927366D02*
X59120742Y-123927366D01*
X59120742Y-123927366D02*
X59263599Y-124022604D01*
X59263599Y-124022604D02*
X59358837Y-124117842D01*
X59358837Y-124117842D02*
X59406456Y-124213080D01*
X59120742Y-123022604D02*
X59120742Y-122927366D01*
X59120742Y-122927366D02*
X59168361Y-122832128D01*
X59168361Y-122832128D02*
X59215980Y-122784509D01*
X59215980Y-122784509D02*
X59311218Y-122736890D01*
X59311218Y-122736890D02*
X59501694Y-122689271D01*
X59501694Y-122689271D02*
X59739789Y-122689271D01*
X59739789Y-122689271D02*
X59930265Y-122736890D01*
X59930265Y-122736890D02*
X60025503Y-122784509D01*
X60025503Y-122784509D02*
X60073123Y-122832128D01*
X60073123Y-122832128D02*
X60120742Y-122927366D01*
X60120742Y-122927366D02*
X60120742Y-123022604D01*
X60120742Y-123022604D02*
X60073123Y-123117842D01*
X60073123Y-123117842D02*
X60025503Y-123165461D01*
X60025503Y-123165461D02*
X59930265Y-123213080D01*
X59930265Y-123213080D02*
X59739789Y-123260699D01*
X59739789Y-123260699D02*
X59501694Y-123260699D01*
X59501694Y-123260699D02*
X59311218Y-123213080D01*
X59311218Y-123213080D02*
X59215980Y-123165461D01*
X59215980Y-123165461D02*
X59168361Y-123117842D01*
X59168361Y-123117842D02*
X59120742Y-123022604D01*
X60120742Y-122260699D02*
X59120742Y-122260699D01*
X59739789Y-122165461D02*
X60120742Y-121879747D01*
X59454075Y-121879747D02*
X59835027Y-122260699D01*
D12*
X32076667Y-176420240D02*
X32076667Y-177327383D01*
X32076667Y-177327383D02*
X32016190Y-177508811D01*
X32016190Y-177508811D02*
X31895238Y-177629764D01*
X31895238Y-177629764D02*
X31713809Y-177690240D01*
X31713809Y-177690240D02*
X31592857Y-177690240D01*
X33286190Y-176420240D02*
X32681428Y-176420240D01*
X32681428Y-176420240D02*
X32620952Y-177025002D01*
X32620952Y-177025002D02*
X32681428Y-176964525D01*
X32681428Y-176964525D02*
X32802381Y-176904049D01*
X32802381Y-176904049D02*
X33104762Y-176904049D01*
X33104762Y-176904049D02*
X33225714Y-176964525D01*
X33225714Y-176964525D02*
X33286190Y-177025002D01*
X33286190Y-177025002D02*
X33346667Y-177145954D01*
X33346667Y-177145954D02*
X33346667Y-177448335D01*
X33346667Y-177448335D02*
X33286190Y-177569287D01*
X33286190Y-177569287D02*
X33225714Y-177629764D01*
X33225714Y-177629764D02*
X33104762Y-177690240D01*
X33104762Y-177690240D02*
X32802381Y-177690240D01*
X32802381Y-177690240D02*
X32681428Y-177629764D01*
X32681428Y-177629764D02*
X32620952Y-177569287D01*
X32076667Y-70563097D02*
X32076667Y-71470240D01*
X32076667Y-71470240D02*
X32016190Y-71651668D01*
X32016190Y-71651668D02*
X31895238Y-71772621D01*
X31895238Y-71772621D02*
X31713809Y-71833097D01*
X31713809Y-71833097D02*
X31592857Y-71833097D01*
X33346667Y-71833097D02*
X32620952Y-71833097D01*
X32983809Y-71833097D02*
X32983809Y-70563097D01*
X32983809Y-70563097D02*
X32862857Y-70744525D01*
X32862857Y-70744525D02*
X32741905Y-70865478D01*
X32741905Y-70865478D02*
X32620952Y-70925954D01*
D11*
X54620742Y-88213080D02*
X54144551Y-88546413D01*
X54620742Y-88784508D02*
X53620742Y-88784508D01*
X53620742Y-88784508D02*
X53620742Y-88403556D01*
X53620742Y-88403556D02*
X53668361Y-88308318D01*
X53668361Y-88308318D02*
X53715980Y-88260699D01*
X53715980Y-88260699D02*
X53811218Y-88213080D01*
X53811218Y-88213080D02*
X53954075Y-88213080D01*
X53954075Y-88213080D02*
X54049313Y-88260699D01*
X54049313Y-88260699D02*
X54096932Y-88308318D01*
X54096932Y-88308318D02*
X54144551Y-88403556D01*
X54144551Y-88403556D02*
X54144551Y-88784508D01*
X53620742Y-87879746D02*
X53620742Y-87260699D01*
X53620742Y-87260699D02*
X54001694Y-87594032D01*
X54001694Y-87594032D02*
X54001694Y-87451175D01*
X54001694Y-87451175D02*
X54049313Y-87355937D01*
X54049313Y-87355937D02*
X54096932Y-87308318D01*
X54096932Y-87308318D02*
X54192170Y-87260699D01*
X54192170Y-87260699D02*
X54430265Y-87260699D01*
X54430265Y-87260699D02*
X54525503Y-87308318D01*
X54525503Y-87308318D02*
X54573123Y-87355937D01*
X54573123Y-87355937D02*
X54620742Y-87451175D01*
X54620742Y-87451175D02*
X54620742Y-87736889D01*
X54620742Y-87736889D02*
X54573123Y-87832127D01*
X54573123Y-87832127D02*
X54525503Y-87879746D01*
X58280742Y-88713080D02*
X58280742Y-89284508D01*
X58280742Y-88998794D02*
X57280742Y-88998794D01*
X57280742Y-88998794D02*
X57423599Y-89094032D01*
X57423599Y-89094032D02*
X57518837Y-89189270D01*
X57518837Y-89189270D02*
X57566456Y-89284508D01*
X57280742Y-88094032D02*
X57280742Y-87998794D01*
X57280742Y-87998794D02*
X57328361Y-87903556D01*
X57328361Y-87903556D02*
X57375980Y-87855937D01*
X57375980Y-87855937D02*
X57471218Y-87808318D01*
X57471218Y-87808318D02*
X57661694Y-87760699D01*
X57661694Y-87760699D02*
X57899789Y-87760699D01*
X57899789Y-87760699D02*
X58090265Y-87808318D01*
X58090265Y-87808318D02*
X58185503Y-87855937D01*
X58185503Y-87855937D02*
X58233123Y-87903556D01*
X58233123Y-87903556D02*
X58280742Y-87998794D01*
X58280742Y-87998794D02*
X58280742Y-88094032D01*
X58280742Y-88094032D02*
X58233123Y-88189270D01*
X58233123Y-88189270D02*
X58185503Y-88236889D01*
X58185503Y-88236889D02*
X58090265Y-88284508D01*
X58090265Y-88284508D02*
X57899789Y-88332127D01*
X57899789Y-88332127D02*
X57661694Y-88332127D01*
X57661694Y-88332127D02*
X57471218Y-88284508D01*
X57471218Y-88284508D02*
X57375980Y-88236889D01*
X57375980Y-88236889D02*
X57328361Y-88189270D01*
X57328361Y-88189270D02*
X57280742Y-88094032D01*
X57280742Y-87141651D02*
X57280742Y-87046413D01*
X57280742Y-87046413D02*
X57328361Y-86951175D01*
X57328361Y-86951175D02*
X57375980Y-86903556D01*
X57375980Y-86903556D02*
X57471218Y-86855937D01*
X57471218Y-86855937D02*
X57661694Y-86808318D01*
X57661694Y-86808318D02*
X57899789Y-86808318D01*
X57899789Y-86808318D02*
X58090265Y-86855937D01*
X58090265Y-86855937D02*
X58185503Y-86903556D01*
X58185503Y-86903556D02*
X58233123Y-86951175D01*
X58233123Y-86951175D02*
X58280742Y-87046413D01*
X58280742Y-87046413D02*
X58280742Y-87141651D01*
X58280742Y-87141651D02*
X58233123Y-87236889D01*
X58233123Y-87236889D02*
X58185503Y-87284508D01*
X58185503Y-87284508D02*
X58090265Y-87332127D01*
X58090265Y-87332127D02*
X57899789Y-87379746D01*
X57899789Y-87379746D02*
X57661694Y-87379746D01*
X57661694Y-87379746D02*
X57471218Y-87332127D01*
X57471218Y-87332127D02*
X57375980Y-87284508D01*
X57375980Y-87284508D02*
X57328361Y-87236889D01*
X57328361Y-87236889D02*
X57280742Y-87141651D01*
X26166666Y-60454819D02*
X26166666Y-61169104D01*
X26166666Y-61169104D02*
X26119047Y-61311961D01*
X26119047Y-61311961D02*
X26023809Y-61407200D01*
X26023809Y-61407200D02*
X25880952Y-61454819D01*
X25880952Y-61454819D02*
X25785714Y-61454819D01*
X26547619Y-60454819D02*
X27214285Y-60454819D01*
X27214285Y-60454819D02*
X26785714Y-61454819D01*
X69238095Y-177604819D02*
X69238095Y-176604819D01*
X69238095Y-177081009D02*
X69809523Y-177081009D01*
X69809523Y-177604819D02*
X69809523Y-176604819D01*
X70238095Y-176700057D02*
X70285714Y-176652438D01*
X70285714Y-176652438D02*
X70380952Y-176604819D01*
X70380952Y-176604819D02*
X70619047Y-176604819D01*
X70619047Y-176604819D02*
X70714285Y-176652438D01*
X70714285Y-176652438D02*
X70761904Y-176700057D01*
X70761904Y-176700057D02*
X70809523Y-176795295D01*
X70809523Y-176795295D02*
X70809523Y-176890533D01*
X70809523Y-176890533D02*
X70761904Y-177033390D01*
X70761904Y-177033390D02*
X70190476Y-177604819D01*
X70190476Y-177604819D02*
X70809523Y-177604819D01*
X63984819Y-57238094D02*
X62984819Y-57238094D01*
X62984819Y-57238094D02*
X62984819Y-56999999D01*
X62984819Y-56999999D02*
X63032438Y-56857142D01*
X63032438Y-56857142D02*
X63127676Y-56761904D01*
X63127676Y-56761904D02*
X63222914Y-56714285D01*
X63222914Y-56714285D02*
X63413390Y-56666666D01*
X63413390Y-56666666D02*
X63556247Y-56666666D01*
X63556247Y-56666666D02*
X63746723Y-56714285D01*
X63746723Y-56714285D02*
X63841961Y-56761904D01*
X63841961Y-56761904D02*
X63937200Y-56857142D01*
X63937200Y-56857142D02*
X63984819Y-56999999D01*
X63984819Y-56999999D02*
X63984819Y-57238094D01*
X63080057Y-56285713D02*
X63032438Y-56238094D01*
X63032438Y-56238094D02*
X62984819Y-56142856D01*
X62984819Y-56142856D02*
X62984819Y-55904761D01*
X62984819Y-55904761D02*
X63032438Y-55809523D01*
X63032438Y-55809523D02*
X63080057Y-55761904D01*
X63080057Y-55761904D02*
X63175295Y-55714285D01*
X63175295Y-55714285D02*
X63270533Y-55714285D01*
X63270533Y-55714285D02*
X63413390Y-55761904D01*
X63413390Y-55761904D02*
X63984819Y-56333332D01*
X63984819Y-56333332D02*
X63984819Y-55714285D01*
X68924819Y-58642857D02*
X68924819Y-59214285D01*
X68924819Y-58928571D02*
X67924819Y-58928571D01*
X67924819Y-58928571D02*
X68067676Y-59023809D01*
X68067676Y-59023809D02*
X68162914Y-59119047D01*
X68162914Y-59119047D02*
X68210533Y-59214285D01*
X68924819Y-58214285D02*
X67924819Y-58214285D01*
X67924819Y-58214285D02*
X68924819Y-57642857D01*
X68924819Y-57642857D02*
X67924819Y-57642857D01*
X67924819Y-56690476D02*
X67924819Y-57166666D01*
X67924819Y-57166666D02*
X68401009Y-57214285D01*
X68401009Y-57214285D02*
X68353390Y-57166666D01*
X68353390Y-57166666D02*
X68305771Y-57071428D01*
X68305771Y-57071428D02*
X68305771Y-56833333D01*
X68305771Y-56833333D02*
X68353390Y-56738095D01*
X68353390Y-56738095D02*
X68401009Y-56690476D01*
X68401009Y-56690476D02*
X68496247Y-56642857D01*
X68496247Y-56642857D02*
X68734342Y-56642857D01*
X68734342Y-56642857D02*
X68829580Y-56690476D01*
X68829580Y-56690476D02*
X68877200Y-56738095D01*
X68877200Y-56738095D02*
X68924819Y-56833333D01*
X68924819Y-56833333D02*
X68924819Y-57071428D01*
X68924819Y-57071428D02*
X68877200Y-57166666D01*
X68877200Y-57166666D02*
X68829580Y-57214285D01*
X68353390Y-56071428D02*
X68305771Y-56166666D01*
X68305771Y-56166666D02*
X68258152Y-56214285D01*
X68258152Y-56214285D02*
X68162914Y-56261904D01*
X68162914Y-56261904D02*
X68115295Y-56261904D01*
X68115295Y-56261904D02*
X68020057Y-56214285D01*
X68020057Y-56214285D02*
X67972438Y-56166666D01*
X67972438Y-56166666D02*
X67924819Y-56071428D01*
X67924819Y-56071428D02*
X67924819Y-55880952D01*
X67924819Y-55880952D02*
X67972438Y-55785714D01*
X67972438Y-55785714D02*
X68020057Y-55738095D01*
X68020057Y-55738095D02*
X68115295Y-55690476D01*
X68115295Y-55690476D02*
X68162914Y-55690476D01*
X68162914Y-55690476D02*
X68258152Y-55738095D01*
X68258152Y-55738095D02*
X68305771Y-55785714D01*
X68305771Y-55785714D02*
X68353390Y-55880952D01*
X68353390Y-55880952D02*
X68353390Y-56071428D01*
X68353390Y-56071428D02*
X68401009Y-56166666D01*
X68401009Y-56166666D02*
X68448628Y-56214285D01*
X68448628Y-56214285D02*
X68543866Y-56261904D01*
X68543866Y-56261904D02*
X68734342Y-56261904D01*
X68734342Y-56261904D02*
X68829580Y-56214285D01*
X68829580Y-56214285D02*
X68877200Y-56166666D01*
X68877200Y-56166666D02*
X68924819Y-56071428D01*
X68924819Y-56071428D02*
X68924819Y-55880952D01*
X68924819Y-55880952D02*
X68877200Y-55785714D01*
X68877200Y-55785714D02*
X68829580Y-55738095D01*
X68829580Y-55738095D02*
X68734342Y-55690476D01*
X68734342Y-55690476D02*
X68543866Y-55690476D01*
X68543866Y-55690476D02*
X68448628Y-55738095D01*
X68448628Y-55738095D02*
X68401009Y-55785714D01*
X68401009Y-55785714D02*
X68353390Y-55880952D01*
X68924819Y-54738095D02*
X68924819Y-55309523D01*
X68924819Y-55023809D02*
X67924819Y-55023809D01*
X67924819Y-55023809D02*
X68067676Y-55119047D01*
X68067676Y-55119047D02*
X68162914Y-55214285D01*
X68162914Y-55214285D02*
X68210533Y-55309523D01*
X68924819Y-54261904D02*
X68924819Y-54071428D01*
X68924819Y-54071428D02*
X68877200Y-53976190D01*
X68877200Y-53976190D02*
X68829580Y-53928571D01*
X68829580Y-53928571D02*
X68686723Y-53833333D01*
X68686723Y-53833333D02*
X68496247Y-53785714D01*
X68496247Y-53785714D02*
X68115295Y-53785714D01*
X68115295Y-53785714D02*
X68020057Y-53833333D01*
X68020057Y-53833333D02*
X67972438Y-53880952D01*
X67972438Y-53880952D02*
X67924819Y-53976190D01*
X67924819Y-53976190D02*
X67924819Y-54166666D01*
X67924819Y-54166666D02*
X67972438Y-54261904D01*
X67972438Y-54261904D02*
X68020057Y-54309523D01*
X68020057Y-54309523D02*
X68115295Y-54357142D01*
X68115295Y-54357142D02*
X68353390Y-54357142D01*
X68353390Y-54357142D02*
X68448628Y-54309523D01*
X68448628Y-54309523D02*
X68496247Y-54261904D01*
X68496247Y-54261904D02*
X68543866Y-54166666D01*
X68543866Y-54166666D02*
X68543866Y-53976190D01*
X68543866Y-53976190D02*
X68496247Y-53880952D01*
X68496247Y-53880952D02*
X68448628Y-53833333D01*
X68448628Y-53833333D02*
X68353390Y-53785714D01*
X64354819Y-61841904D02*
X63354819Y-61841904D01*
X64354819Y-61270476D02*
X63783390Y-61699047D01*
X63354819Y-61270476D02*
X63926247Y-61841904D01*
X49079256Y-112003343D02*
X49031637Y-112050963D01*
X49031637Y-112050963D02*
X48888780Y-112098582D01*
X48888780Y-112098582D02*
X48793542Y-112098582D01*
X48793542Y-112098582D02*
X48650685Y-112050963D01*
X48650685Y-112050963D02*
X48555447Y-111955724D01*
X48555447Y-111955724D02*
X48507828Y-111860486D01*
X48507828Y-111860486D02*
X48460209Y-111670010D01*
X48460209Y-111670010D02*
X48460209Y-111527153D01*
X48460209Y-111527153D02*
X48507828Y-111336677D01*
X48507828Y-111336677D02*
X48555447Y-111241439D01*
X48555447Y-111241439D02*
X48650685Y-111146201D01*
X48650685Y-111146201D02*
X48793542Y-111098582D01*
X48793542Y-111098582D02*
X48888780Y-111098582D01*
X48888780Y-111098582D02*
X49031637Y-111146201D01*
X49031637Y-111146201D02*
X49079256Y-111193820D01*
X49936399Y-111431915D02*
X49936399Y-112098582D01*
X49698304Y-111050963D02*
X49460209Y-111765248D01*
X49460209Y-111765248D02*
X50079256Y-111765248D01*
X54620742Y-158713080D02*
X54144551Y-159046413D01*
X54620742Y-159284508D02*
X53620742Y-159284508D01*
X53620742Y-159284508D02*
X53620742Y-158903556D01*
X53620742Y-158903556D02*
X53668361Y-158808318D01*
X53668361Y-158808318D02*
X53715980Y-158760699D01*
X53715980Y-158760699D02*
X53811218Y-158713080D01*
X53811218Y-158713080D02*
X53954075Y-158713080D01*
X53954075Y-158713080D02*
X54049313Y-158760699D01*
X54049313Y-158760699D02*
X54096932Y-158808318D01*
X54096932Y-158808318D02*
X54144551Y-158903556D01*
X54144551Y-158903556D02*
X54144551Y-159284508D01*
X53620742Y-158379746D02*
X53620742Y-157713080D01*
X53620742Y-157713080D02*
X54620742Y-158141651D01*
X58280742Y-159213080D02*
X58280742Y-159784508D01*
X58280742Y-159498794D02*
X57280742Y-159498794D01*
X57280742Y-159498794D02*
X57423599Y-159594032D01*
X57423599Y-159594032D02*
X57518837Y-159689270D01*
X57518837Y-159689270D02*
X57566456Y-159784508D01*
X57280742Y-158594032D02*
X57280742Y-158498794D01*
X57280742Y-158498794D02*
X57328361Y-158403556D01*
X57328361Y-158403556D02*
X57375980Y-158355937D01*
X57375980Y-158355937D02*
X57471218Y-158308318D01*
X57471218Y-158308318D02*
X57661694Y-158260699D01*
X57661694Y-158260699D02*
X57899789Y-158260699D01*
X57899789Y-158260699D02*
X58090265Y-158308318D01*
X58090265Y-158308318D02*
X58185503Y-158355937D01*
X58185503Y-158355937D02*
X58233123Y-158403556D01*
X58233123Y-158403556D02*
X58280742Y-158498794D01*
X58280742Y-158498794D02*
X58280742Y-158594032D01*
X58280742Y-158594032D02*
X58233123Y-158689270D01*
X58233123Y-158689270D02*
X58185503Y-158736889D01*
X58185503Y-158736889D02*
X58090265Y-158784508D01*
X58090265Y-158784508D02*
X57899789Y-158832127D01*
X57899789Y-158832127D02*
X57661694Y-158832127D01*
X57661694Y-158832127D02*
X57471218Y-158784508D01*
X57471218Y-158784508D02*
X57375980Y-158736889D01*
X57375980Y-158736889D02*
X57328361Y-158689270D01*
X57328361Y-158689270D02*
X57280742Y-158594032D01*
X57280742Y-157641651D02*
X57280742Y-157546413D01*
X57280742Y-157546413D02*
X57328361Y-157451175D01*
X57328361Y-157451175D02*
X57375980Y-157403556D01*
X57375980Y-157403556D02*
X57471218Y-157355937D01*
X57471218Y-157355937D02*
X57661694Y-157308318D01*
X57661694Y-157308318D02*
X57899789Y-157308318D01*
X57899789Y-157308318D02*
X58090265Y-157355937D01*
X58090265Y-157355937D02*
X58185503Y-157403556D01*
X58185503Y-157403556D02*
X58233123Y-157451175D01*
X58233123Y-157451175D02*
X58280742Y-157546413D01*
X58280742Y-157546413D02*
X58280742Y-157641651D01*
X58280742Y-157641651D02*
X58233123Y-157736889D01*
X58233123Y-157736889D02*
X58185503Y-157784508D01*
X58185503Y-157784508D02*
X58090265Y-157832127D01*
X58090265Y-157832127D02*
X57899789Y-157879746D01*
X57899789Y-157879746D02*
X57661694Y-157879746D01*
X57661694Y-157879746D02*
X57471218Y-157832127D01*
X57471218Y-157832127D02*
X57375980Y-157784508D01*
X57375980Y-157784508D02*
X57328361Y-157736889D01*
X57328361Y-157736889D02*
X57280742Y-157641651D01*
X63780742Y-158713080D02*
X63304551Y-159046413D01*
X63780742Y-159284508D02*
X62780742Y-159284508D01*
X62780742Y-159284508D02*
X62780742Y-158903556D01*
X62780742Y-158903556D02*
X62828361Y-158808318D01*
X62828361Y-158808318D02*
X62875980Y-158760699D01*
X62875980Y-158760699D02*
X62971218Y-158713080D01*
X62971218Y-158713080D02*
X63114075Y-158713080D01*
X63114075Y-158713080D02*
X63209313Y-158760699D01*
X63209313Y-158760699D02*
X63256932Y-158808318D01*
X63256932Y-158808318D02*
X63304551Y-158903556D01*
X63304551Y-158903556D02*
X63304551Y-159284508D01*
X63209313Y-158141651D02*
X63161694Y-158236889D01*
X63161694Y-158236889D02*
X63114075Y-158284508D01*
X63114075Y-158284508D02*
X63018837Y-158332127D01*
X63018837Y-158332127D02*
X62971218Y-158332127D01*
X62971218Y-158332127D02*
X62875980Y-158284508D01*
X62875980Y-158284508D02*
X62828361Y-158236889D01*
X62828361Y-158236889D02*
X62780742Y-158141651D01*
X62780742Y-158141651D02*
X62780742Y-157951175D01*
X62780742Y-157951175D02*
X62828361Y-157855937D01*
X62828361Y-157855937D02*
X62875980Y-157808318D01*
X62875980Y-157808318D02*
X62971218Y-157760699D01*
X62971218Y-157760699D02*
X63018837Y-157760699D01*
X63018837Y-157760699D02*
X63114075Y-157808318D01*
X63114075Y-157808318D02*
X63161694Y-157855937D01*
X63161694Y-157855937D02*
X63209313Y-157951175D01*
X63209313Y-157951175D02*
X63209313Y-158141651D01*
X63209313Y-158141651D02*
X63256932Y-158236889D01*
X63256932Y-158236889D02*
X63304551Y-158284508D01*
X63304551Y-158284508D02*
X63399789Y-158332127D01*
X63399789Y-158332127D02*
X63590265Y-158332127D01*
X63590265Y-158332127D02*
X63685503Y-158284508D01*
X63685503Y-158284508D02*
X63733123Y-158236889D01*
X63733123Y-158236889D02*
X63780742Y-158141651D01*
X63780742Y-158141651D02*
X63780742Y-157951175D01*
X63780742Y-157951175D02*
X63733123Y-157855937D01*
X63733123Y-157855937D02*
X63685503Y-157808318D01*
X63685503Y-157808318D02*
X63590265Y-157760699D01*
X63590265Y-157760699D02*
X63399789Y-157760699D01*
X63399789Y-157760699D02*
X63304551Y-157808318D01*
X63304551Y-157808318D02*
X63256932Y-157855937D01*
X63256932Y-157855937D02*
X63209313Y-157951175D01*
X60120742Y-159141652D02*
X60120742Y-159713080D01*
X60120742Y-159427366D02*
X59120742Y-159427366D01*
X59120742Y-159427366D02*
X59263599Y-159522604D01*
X59263599Y-159522604D02*
X59358837Y-159617842D01*
X59358837Y-159617842D02*
X59406456Y-159713080D01*
X59120742Y-158522604D02*
X59120742Y-158427366D01*
X59120742Y-158427366D02*
X59168361Y-158332128D01*
X59168361Y-158332128D02*
X59215980Y-158284509D01*
X59215980Y-158284509D02*
X59311218Y-158236890D01*
X59311218Y-158236890D02*
X59501694Y-158189271D01*
X59501694Y-158189271D02*
X59739789Y-158189271D01*
X59739789Y-158189271D02*
X59930265Y-158236890D01*
X59930265Y-158236890D02*
X60025503Y-158284509D01*
X60025503Y-158284509D02*
X60073123Y-158332128D01*
X60073123Y-158332128D02*
X60120742Y-158427366D01*
X60120742Y-158427366D02*
X60120742Y-158522604D01*
X60120742Y-158522604D02*
X60073123Y-158617842D01*
X60073123Y-158617842D02*
X60025503Y-158665461D01*
X60025503Y-158665461D02*
X59930265Y-158713080D01*
X59930265Y-158713080D02*
X59739789Y-158760699D01*
X59739789Y-158760699D02*
X59501694Y-158760699D01*
X59501694Y-158760699D02*
X59311218Y-158713080D01*
X59311218Y-158713080D02*
X59215980Y-158665461D01*
X59215980Y-158665461D02*
X59168361Y-158617842D01*
X59168361Y-158617842D02*
X59120742Y-158522604D01*
X60120742Y-157760699D02*
X59120742Y-157760699D01*
X59739789Y-157665461D02*
X60120742Y-157379747D01*
X59454075Y-157379747D02*
X59835027Y-157760699D01*
X63980742Y-162784508D02*
X62980742Y-162784508D01*
X62980742Y-162784508D02*
X62980742Y-162546413D01*
X62980742Y-162546413D02*
X63028361Y-162403556D01*
X63028361Y-162403556D02*
X63123599Y-162308318D01*
X63123599Y-162308318D02*
X63218837Y-162260699D01*
X63218837Y-162260699D02*
X63409313Y-162213080D01*
X63409313Y-162213080D02*
X63552170Y-162213080D01*
X63552170Y-162213080D02*
X63742646Y-162260699D01*
X63742646Y-162260699D02*
X63837884Y-162308318D01*
X63837884Y-162308318D02*
X63933123Y-162403556D01*
X63933123Y-162403556D02*
X63980742Y-162546413D01*
X63980742Y-162546413D02*
X63980742Y-162784508D01*
X63409313Y-161641651D02*
X63361694Y-161736889D01*
X63361694Y-161736889D02*
X63314075Y-161784508D01*
X63314075Y-161784508D02*
X63218837Y-161832127D01*
X63218837Y-161832127D02*
X63171218Y-161832127D01*
X63171218Y-161832127D02*
X63075980Y-161784508D01*
X63075980Y-161784508D02*
X63028361Y-161736889D01*
X63028361Y-161736889D02*
X62980742Y-161641651D01*
X62980742Y-161641651D02*
X62980742Y-161451175D01*
X62980742Y-161451175D02*
X63028361Y-161355937D01*
X63028361Y-161355937D02*
X63075980Y-161308318D01*
X63075980Y-161308318D02*
X63171218Y-161260699D01*
X63171218Y-161260699D02*
X63218837Y-161260699D01*
X63218837Y-161260699D02*
X63314075Y-161308318D01*
X63314075Y-161308318D02*
X63361694Y-161355937D01*
X63361694Y-161355937D02*
X63409313Y-161451175D01*
X63409313Y-161451175D02*
X63409313Y-161641651D01*
X63409313Y-161641651D02*
X63456932Y-161736889D01*
X63456932Y-161736889D02*
X63504551Y-161784508D01*
X63504551Y-161784508D02*
X63599789Y-161832127D01*
X63599789Y-161832127D02*
X63790265Y-161832127D01*
X63790265Y-161832127D02*
X63885503Y-161784508D01*
X63885503Y-161784508D02*
X63933123Y-161736889D01*
X63933123Y-161736889D02*
X63980742Y-161641651D01*
X63980742Y-161641651D02*
X63980742Y-161451175D01*
X63980742Y-161451175D02*
X63933123Y-161355937D01*
X63933123Y-161355937D02*
X63885503Y-161308318D01*
X63885503Y-161308318D02*
X63790265Y-161260699D01*
X63790265Y-161260699D02*
X63599789Y-161260699D01*
X63599789Y-161260699D02*
X63504551Y-161308318D01*
X63504551Y-161308318D02*
X63456932Y-161355937D01*
X63456932Y-161355937D02*
X63409313Y-161451175D01*
X68920742Y-164189271D02*
X68920742Y-164760699D01*
X68920742Y-164474985D02*
X67920742Y-164474985D01*
X67920742Y-164474985D02*
X68063599Y-164570223D01*
X68063599Y-164570223D02*
X68158837Y-164665461D01*
X68158837Y-164665461D02*
X68206456Y-164760699D01*
X68920742Y-163760699D02*
X67920742Y-163760699D01*
X67920742Y-163760699D02*
X68920742Y-163189271D01*
X68920742Y-163189271D02*
X67920742Y-163189271D01*
X67920742Y-162236890D02*
X67920742Y-162713080D01*
X67920742Y-162713080D02*
X68396932Y-162760699D01*
X68396932Y-162760699D02*
X68349313Y-162713080D01*
X68349313Y-162713080D02*
X68301694Y-162617842D01*
X68301694Y-162617842D02*
X68301694Y-162379747D01*
X68301694Y-162379747D02*
X68349313Y-162284509D01*
X68349313Y-162284509D02*
X68396932Y-162236890D01*
X68396932Y-162236890D02*
X68492170Y-162189271D01*
X68492170Y-162189271D02*
X68730265Y-162189271D01*
X68730265Y-162189271D02*
X68825503Y-162236890D01*
X68825503Y-162236890D02*
X68873123Y-162284509D01*
X68873123Y-162284509D02*
X68920742Y-162379747D01*
X68920742Y-162379747D02*
X68920742Y-162617842D01*
X68920742Y-162617842D02*
X68873123Y-162713080D01*
X68873123Y-162713080D02*
X68825503Y-162760699D01*
X68349313Y-161617842D02*
X68301694Y-161713080D01*
X68301694Y-161713080D02*
X68254075Y-161760699D01*
X68254075Y-161760699D02*
X68158837Y-161808318D01*
X68158837Y-161808318D02*
X68111218Y-161808318D01*
X68111218Y-161808318D02*
X68015980Y-161760699D01*
X68015980Y-161760699D02*
X67968361Y-161713080D01*
X67968361Y-161713080D02*
X67920742Y-161617842D01*
X67920742Y-161617842D02*
X67920742Y-161427366D01*
X67920742Y-161427366D02*
X67968361Y-161332128D01*
X67968361Y-161332128D02*
X68015980Y-161284509D01*
X68015980Y-161284509D02*
X68111218Y-161236890D01*
X68111218Y-161236890D02*
X68158837Y-161236890D01*
X68158837Y-161236890D02*
X68254075Y-161284509D01*
X68254075Y-161284509D02*
X68301694Y-161332128D01*
X68301694Y-161332128D02*
X68349313Y-161427366D01*
X68349313Y-161427366D02*
X68349313Y-161617842D01*
X68349313Y-161617842D02*
X68396932Y-161713080D01*
X68396932Y-161713080D02*
X68444551Y-161760699D01*
X68444551Y-161760699D02*
X68539789Y-161808318D01*
X68539789Y-161808318D02*
X68730265Y-161808318D01*
X68730265Y-161808318D02*
X68825503Y-161760699D01*
X68825503Y-161760699D02*
X68873123Y-161713080D01*
X68873123Y-161713080D02*
X68920742Y-161617842D01*
X68920742Y-161617842D02*
X68920742Y-161427366D01*
X68920742Y-161427366D02*
X68873123Y-161332128D01*
X68873123Y-161332128D02*
X68825503Y-161284509D01*
X68825503Y-161284509D02*
X68730265Y-161236890D01*
X68730265Y-161236890D02*
X68539789Y-161236890D01*
X68539789Y-161236890D02*
X68444551Y-161284509D01*
X68444551Y-161284509D02*
X68396932Y-161332128D01*
X68396932Y-161332128D02*
X68349313Y-161427366D01*
X68920742Y-160284509D02*
X68920742Y-160855937D01*
X68920742Y-160570223D02*
X67920742Y-160570223D01*
X67920742Y-160570223D02*
X68063599Y-160665461D01*
X68063599Y-160665461D02*
X68158837Y-160760699D01*
X68158837Y-160760699D02*
X68206456Y-160855937D01*
X68920742Y-159808318D02*
X68920742Y-159617842D01*
X68920742Y-159617842D02*
X68873123Y-159522604D01*
X68873123Y-159522604D02*
X68825503Y-159474985D01*
X68825503Y-159474985D02*
X68682646Y-159379747D01*
X68682646Y-159379747D02*
X68492170Y-159332128D01*
X68492170Y-159332128D02*
X68111218Y-159332128D01*
X68111218Y-159332128D02*
X68015980Y-159379747D01*
X68015980Y-159379747D02*
X67968361Y-159427366D01*
X67968361Y-159427366D02*
X67920742Y-159522604D01*
X67920742Y-159522604D02*
X67920742Y-159713080D01*
X67920742Y-159713080D02*
X67968361Y-159808318D01*
X67968361Y-159808318D02*
X68015980Y-159855937D01*
X68015980Y-159855937D02*
X68111218Y-159903556D01*
X68111218Y-159903556D02*
X68349313Y-159903556D01*
X68349313Y-159903556D02*
X68444551Y-159855937D01*
X68444551Y-159855937D02*
X68492170Y-159808318D01*
X68492170Y-159808318D02*
X68539789Y-159713080D01*
X68539789Y-159713080D02*
X68539789Y-159522604D01*
X68539789Y-159522604D02*
X68492170Y-159427366D01*
X68492170Y-159427366D02*
X68444551Y-159379747D01*
X68444551Y-159379747D02*
X68349313Y-159332128D01*
X64350742Y-167388318D02*
X63350742Y-167388318D01*
X64350742Y-166816890D02*
X63779313Y-167245461D01*
X63350742Y-166816890D02*
X63922170Y-167388318D01*
X60257828Y-114031233D02*
X60257828Y-113031233D01*
X60257828Y-113031233D02*
X60495923Y-113031233D01*
X60495923Y-113031233D02*
X60638780Y-113078852D01*
X60638780Y-113078852D02*
X60734018Y-113174090D01*
X60734018Y-113174090D02*
X60781637Y-113269328D01*
X60781637Y-113269328D02*
X60829256Y-113459804D01*
X60829256Y-113459804D02*
X60829256Y-113602661D01*
X60829256Y-113602661D02*
X60781637Y-113793137D01*
X60781637Y-113793137D02*
X60734018Y-113888375D01*
X60734018Y-113888375D02*
X60638780Y-113983614D01*
X60638780Y-113983614D02*
X60495923Y-114031233D01*
X60495923Y-114031233D02*
X60257828Y-114031233D01*
X61734018Y-113031233D02*
X61257828Y-113031233D01*
X61257828Y-113031233D02*
X61210209Y-113507423D01*
X61210209Y-113507423D02*
X61257828Y-113459804D01*
X61257828Y-113459804D02*
X61353066Y-113412185D01*
X61353066Y-113412185D02*
X61591161Y-113412185D01*
X61591161Y-113412185D02*
X61686399Y-113459804D01*
X61686399Y-113459804D02*
X61734018Y-113507423D01*
X61734018Y-113507423D02*
X61781637Y-113602661D01*
X61781637Y-113602661D02*
X61781637Y-113840756D01*
X61781637Y-113840756D02*
X61734018Y-113935994D01*
X61734018Y-113935994D02*
X61686399Y-113983614D01*
X61686399Y-113983614D02*
X61591161Y-114031233D01*
X61591161Y-114031233D02*
X61353066Y-114031233D01*
X61353066Y-114031233D02*
X61257828Y-113983614D01*
X61257828Y-113983614D02*
X61210209Y-113935994D01*
X58567351Y-118971233D02*
X57995923Y-118971233D01*
X58281637Y-118971233D02*
X58281637Y-117971233D01*
X58281637Y-117971233D02*
X58186399Y-118114090D01*
X58186399Y-118114090D02*
X58091161Y-118209328D01*
X58091161Y-118209328D02*
X57995923Y-118256947D01*
X58995923Y-118971233D02*
X58995923Y-117971233D01*
X58995923Y-117971233D02*
X59567351Y-118971233D01*
X59567351Y-118971233D02*
X59567351Y-117971233D01*
X60472113Y-118304566D02*
X60472113Y-118971233D01*
X60234018Y-117923614D02*
X59995923Y-118637899D01*
X59995923Y-118637899D02*
X60614970Y-118637899D01*
X60900685Y-117971233D02*
X61567351Y-117971233D01*
X61567351Y-117971233D02*
X61138780Y-118971233D01*
X61853066Y-118971233D02*
X62376875Y-118304566D01*
X61853066Y-118304566D02*
X62376875Y-118971233D01*
X62662590Y-118971233D02*
X63186399Y-118304566D01*
X62662590Y-118304566D02*
X63186399Y-118971233D01*
X63519733Y-118685518D02*
X63995923Y-118685518D01*
X63424495Y-118971233D02*
X63757828Y-117971233D01*
X63757828Y-117971233D02*
X64091161Y-118971233D01*
X55654018Y-114401233D02*
X55654018Y-113401233D01*
X56225446Y-114401233D02*
X55796875Y-113829804D01*
X56225446Y-113401233D02*
X55654018Y-113972661D01*
%TO.C,J9*%
D13*
X19821436Y-118567351D02*
X19821436Y-129807351D01*
X28671436Y-114967351D02*
X28671436Y-118567351D01*
X28671436Y-114967351D02*
X30291436Y-114967351D01*
X28671436Y-118567351D02*
X19821436Y-118567351D01*
X28671436Y-129807351D02*
X19821436Y-129807351D01*
X28671436Y-129807351D02*
X28671436Y-133407351D01*
X28671436Y-133407351D02*
X30291436Y-133407351D01*
X33091436Y-114967351D02*
X42991436Y-114967351D01*
X42991436Y-133407351D02*
X33091436Y-133407351D01*
X45791436Y-114967351D02*
X49911436Y-114967351D01*
X49911436Y-114967351D02*
X49911436Y-119717351D01*
X49911436Y-128657351D02*
X49911436Y-133407351D01*
X49911436Y-133407351D02*
X45791436Y-133407351D01*
X52911436Y-119717351D02*
X49911436Y-119717351D01*
X52911436Y-119757351D02*
X52911436Y-128657351D01*
X52911436Y-128657351D02*
X49911436Y-128657351D01*
%TO.C,Q1*%
X55640000Y-56930000D02*
X60260000Y-56930000D01*
X55640000Y-67150000D02*
X55640000Y-56930000D01*
X58880000Y-56930000D02*
X58880000Y-67150000D01*
X60260000Y-56930000D02*
X60260000Y-67150000D01*
X60260000Y-60190000D02*
X58880000Y-60190000D01*
X60260000Y-63890000D02*
X58880000Y-63890000D01*
X60260000Y-67150000D02*
X55640000Y-67150000D01*
%TO.C,C6*%
X48455923Y-141863763D02*
X45478923Y-141863763D01*
X48455923Y-141903763D02*
X45486923Y-141903763D01*
X48455923Y-141943763D02*
X45493923Y-141943763D01*
X48455923Y-141983763D02*
X45502923Y-141983763D01*
X48455923Y-142023763D02*
X45510923Y-142023763D01*
X48455923Y-142063763D02*
X45519923Y-142063763D01*
X48455923Y-142103763D02*
X45528923Y-142103763D01*
X48455923Y-142143763D02*
X45538923Y-142143763D01*
X48455923Y-142183763D02*
X45548923Y-142183763D01*
X48455923Y-142223763D02*
X45559923Y-142223763D01*
X48455923Y-142263763D02*
X45570923Y-142263763D01*
X48455923Y-142303763D02*
X45582923Y-142303763D01*
X48455923Y-142343763D02*
X45594923Y-142343763D01*
X48455923Y-142383763D02*
X45606923Y-142383763D01*
X48455923Y-142423763D02*
X45619923Y-142423763D01*
X48455923Y-142463763D02*
X45632923Y-142463763D01*
X48455923Y-142503763D02*
X45646923Y-142503763D01*
X48455923Y-142543763D02*
X45660923Y-142543763D01*
X48455923Y-142583763D02*
X45675923Y-142583763D01*
X48455923Y-142623763D02*
X45690923Y-142623763D01*
X48455923Y-142663763D02*
X45706923Y-142663763D01*
X48455923Y-142703763D02*
X45722923Y-142703763D01*
X48455923Y-142743763D02*
X45738923Y-142743763D01*
X48455923Y-142783763D02*
X45755923Y-142783763D01*
X48455923Y-142823763D02*
X45773923Y-142823763D01*
X48455923Y-142863763D02*
X45791923Y-142863763D01*
X48455923Y-142903763D02*
X45810923Y-142903763D01*
X48455923Y-142943763D02*
X45829923Y-142943763D01*
X48455923Y-142983763D02*
X45849923Y-142983763D01*
X48455923Y-143023763D02*
X45869923Y-143023763D01*
X48455923Y-143063763D02*
X45890923Y-143063763D01*
X48455923Y-143103763D02*
X45911923Y-143103763D01*
X48455923Y-143143763D02*
X45933923Y-143143763D01*
X48455923Y-143183763D02*
X45956923Y-143183763D01*
X48455923Y-143223763D02*
X45979923Y-143223763D01*
X48455923Y-143263763D02*
X46002923Y-143263763D01*
X48455923Y-143303763D02*
X46027923Y-143303763D01*
X48455923Y-143343763D02*
X46052923Y-143343763D01*
X48455923Y-143383763D02*
X46077923Y-143383763D01*
X48455923Y-143423763D02*
X46103923Y-143423763D01*
X48455923Y-143463763D02*
X46130923Y-143463763D01*
X48455923Y-143503763D02*
X46158923Y-143503763D01*
X48455923Y-143543763D02*
X46186923Y-143543763D01*
X48455923Y-143583763D02*
X46215923Y-143583763D01*
X48455923Y-143623763D02*
X46245923Y-143623763D01*
X48455923Y-143663763D02*
X46276923Y-143663763D01*
X48455923Y-143703763D02*
X46307923Y-143703763D01*
X48455923Y-143743763D02*
X46339923Y-143743763D01*
X48455923Y-143783763D02*
X46372923Y-143783763D01*
X48455923Y-143823763D02*
X46406923Y-143823763D01*
X48455923Y-143863763D02*
X46440923Y-143863763D01*
X48455923Y-143903763D02*
X46476923Y-143903763D01*
X50028923Y-145223763D02*
X48962923Y-145223763D01*
X50263923Y-145183763D02*
X48727923Y-145183763D01*
X50442923Y-145143763D02*
X48548923Y-145143763D01*
X50592923Y-145103763D02*
X48398923Y-145103763D01*
X50723923Y-145063763D02*
X48267923Y-145063763D01*
X50841923Y-145023763D02*
X48149923Y-145023763D01*
X50948923Y-144983763D02*
X48042923Y-144983763D01*
X51047923Y-144943763D02*
X47943923Y-144943763D01*
X51139923Y-144903763D02*
X47851923Y-144903763D01*
X51226923Y-144863763D02*
X47764923Y-144863763D01*
X51308923Y-144823763D02*
X47682923Y-144823763D01*
X51385923Y-144783763D02*
X47605923Y-144783763D01*
X51459923Y-144743763D02*
X47531923Y-144743763D01*
X51529923Y-144703763D02*
X47461923Y-144703763D01*
X51596923Y-144663763D02*
X47394923Y-144663763D01*
X51660923Y-144623763D02*
X47330923Y-144623763D01*
X51722923Y-144583763D02*
X47268923Y-144583763D01*
X51782923Y-144543763D02*
X47208923Y-144543763D01*
X51810923Y-136734065D02*
X51810923Y-137534065D01*
X51839923Y-144503763D02*
X47151923Y-144503763D01*
X51895923Y-144463763D02*
X47095923Y-144463763D01*
X51948923Y-144423763D02*
X47042923Y-144423763D01*
X52000923Y-144383763D02*
X46990923Y-144383763D01*
X52050923Y-144343763D02*
X46940923Y-144343763D01*
X52099923Y-144303763D02*
X46891923Y-144303763D01*
X52146923Y-144263763D02*
X46844923Y-144263763D01*
X52191923Y-144223763D02*
X46799923Y-144223763D01*
X52210923Y-137134065D02*
X51410923Y-137134065D01*
X52236923Y-144183763D02*
X46754923Y-144183763D01*
X52279923Y-144143763D02*
X46711923Y-144143763D01*
X52321923Y-144103763D02*
X46669923Y-144103763D01*
X52362923Y-144063763D02*
X46628923Y-144063763D01*
X52401923Y-144023763D02*
X46589923Y-144023763D01*
X52440923Y-143983763D02*
X46550923Y-143983763D01*
X52477923Y-143943763D02*
X46513923Y-143943763D01*
X52514923Y-143903763D02*
X50535923Y-143903763D01*
X52550923Y-143863763D02*
X50535923Y-143863763D01*
X52584923Y-143823763D02*
X50535923Y-143823763D01*
X52618923Y-143783763D02*
X50535923Y-143783763D01*
X52651923Y-143743763D02*
X50535923Y-143743763D01*
X52683923Y-143703763D02*
X50535923Y-143703763D01*
X52714923Y-143663763D02*
X50535923Y-143663763D01*
X52745923Y-143623763D02*
X50535923Y-143623763D01*
X52775923Y-143583763D02*
X50535923Y-143583763D01*
X52804923Y-143543763D02*
X50535923Y-143543763D01*
X52832923Y-143503763D02*
X50535923Y-143503763D01*
X52860923Y-143463763D02*
X50535923Y-143463763D01*
X52887923Y-143423763D02*
X50535923Y-143423763D01*
X52913923Y-143383763D02*
X50535923Y-143383763D01*
X52938923Y-143343763D02*
X50535923Y-143343763D01*
X52963923Y-143303763D02*
X50535923Y-143303763D01*
X52988923Y-143263763D02*
X50535923Y-143263763D01*
X53011923Y-143223763D02*
X50535923Y-143223763D01*
X53034923Y-143183763D02*
X50535923Y-143183763D01*
X53057923Y-143143763D02*
X50535923Y-143143763D01*
X53079923Y-143103763D02*
X50535923Y-143103763D01*
X53100923Y-143063763D02*
X50535923Y-143063763D01*
X53121923Y-143023763D02*
X50535923Y-143023763D01*
X53141923Y-142983763D02*
X50535923Y-142983763D01*
X53161923Y-142943763D02*
X50535923Y-142943763D01*
X53180923Y-142903763D02*
X50535923Y-142903763D01*
X53199923Y-142863763D02*
X50535923Y-142863763D01*
X53217923Y-142823763D02*
X50535923Y-142823763D01*
X53235923Y-142783763D02*
X50535923Y-142783763D01*
X53252923Y-142743763D02*
X50535923Y-142743763D01*
X53268923Y-142703763D02*
X50535923Y-142703763D01*
X53284923Y-142663763D02*
X50535923Y-142663763D01*
X53300923Y-142623763D02*
X50535923Y-142623763D01*
X53315923Y-142583763D02*
X50535923Y-142583763D01*
X53330923Y-142543763D02*
X50535923Y-142543763D01*
X53344923Y-142503763D02*
X50535923Y-142503763D01*
X53358923Y-142463763D02*
X50535923Y-142463763D01*
X53371923Y-142423763D02*
X50535923Y-142423763D01*
X53384923Y-142383763D02*
X50535923Y-142383763D01*
X53396923Y-142343763D02*
X50535923Y-142343763D01*
X53408923Y-142303763D02*
X50535923Y-142303763D01*
X53420923Y-142263763D02*
X50535923Y-142263763D01*
X53431923Y-142223763D02*
X50535923Y-142223763D01*
X53442923Y-142183763D02*
X50535923Y-142183763D01*
X53452923Y-142143763D02*
X50535923Y-142143763D01*
X53462923Y-142103763D02*
X50535923Y-142103763D01*
X53471923Y-142063763D02*
X50535923Y-142063763D01*
X53480923Y-142023763D02*
X50535923Y-142023763D01*
X53488923Y-141983763D02*
X50535923Y-141983763D01*
X53497923Y-141943763D02*
X50535923Y-141943763D01*
X53504923Y-141903763D02*
X50535923Y-141903763D01*
X53512923Y-141863763D02*
X50535923Y-141863763D01*
X53518923Y-141823763D02*
X45472923Y-141823763D01*
X53525923Y-141783763D02*
X45465923Y-141783763D01*
X53531923Y-141743763D02*
X45459923Y-141743763D01*
X53537923Y-141703763D02*
X45453923Y-141703763D01*
X53542923Y-141663763D02*
X45448923Y-141663763D01*
X53547923Y-141623763D02*
X45443923Y-141623763D01*
X53551923Y-141583763D02*
X45439923Y-141583763D01*
X53556923Y-141543763D02*
X45434923Y-141543763D01*
X53559923Y-141503763D02*
X45431923Y-141503763D01*
X53563923Y-141463763D02*
X45427923Y-141463763D01*
X53565923Y-141423763D02*
X45425923Y-141423763D01*
X53568923Y-141383763D02*
X45422923Y-141383763D01*
X53570923Y-141343763D02*
X45420923Y-141343763D01*
X53572923Y-141303763D02*
X45418923Y-141303763D01*
X53573923Y-141263763D02*
X45417923Y-141263763D01*
X53574923Y-141223763D02*
X45416923Y-141223763D01*
X53575923Y-141143763D02*
X45415923Y-141143763D01*
X53575923Y-141183763D02*
X45415923Y-141183763D01*
X53615923Y-141143763D02*
G75*
G02*
X45375923Y-141143763I-4120000J0D01*
G01*
X45375923Y-141143763D02*
G75*
G02*
X53615923Y-141143763I4120000J0D01*
G01*
%TO.C,J4*%
D14*
X24815000Y-135545208D02*
X40615000Y-135545208D01*
X24815000Y-138745208D02*
X24815000Y-135545208D01*
X24815000Y-142345208D02*
X24815000Y-145545208D01*
X24815000Y-145545208D02*
X35215000Y-145545208D01*
X26315000Y-146545208D02*
X26315000Y-146545208D01*
X26315000Y-146745208D02*
X26315000Y-146745208D01*
X40615000Y-135545208D02*
X40615000Y-137545208D01*
X26315000Y-146545208D02*
G75*
G02*
X26315000Y-146745208I0J-100000D01*
G01*
X26315000Y-146745208D02*
G75*
G02*
X26315000Y-146545208I0J100000D01*
G01*
%TO.C,C9*%
D13*
X61260000Y-37412323D02*
X57583000Y-37412323D01*
X61260000Y-37452323D02*
X57593000Y-37452323D01*
X61260000Y-37492323D02*
X57604000Y-37492323D01*
X61260000Y-37532323D02*
X57615000Y-37532323D01*
X61260000Y-37572323D02*
X57627000Y-37572323D01*
X61260000Y-37612323D02*
X57639000Y-37612323D01*
X61260000Y-37652323D02*
X57651000Y-37652323D01*
X61260000Y-37692323D02*
X57663000Y-37692323D01*
X61260000Y-37732323D02*
X57676000Y-37732323D01*
X61260000Y-37772323D02*
X57690000Y-37772323D01*
X61260000Y-37812323D02*
X57703000Y-37812323D01*
X61260000Y-37852323D02*
X57718000Y-37852323D01*
X61260000Y-37892323D02*
X57732000Y-37892323D01*
X61260000Y-37932323D02*
X57747000Y-37932323D01*
X61260000Y-37972323D02*
X57762000Y-37972323D01*
X61260000Y-38012323D02*
X57778000Y-38012323D01*
X61260000Y-38052323D02*
X57794000Y-38052323D01*
X61260000Y-38092323D02*
X57810000Y-38092323D01*
X61260000Y-38132323D02*
X57827000Y-38132323D01*
X61260000Y-38172323D02*
X57844000Y-38172323D01*
X61260000Y-38212323D02*
X57862000Y-38212323D01*
X61260000Y-38252323D02*
X57880000Y-38252323D01*
X61260000Y-38292323D02*
X57898000Y-38292323D01*
X61260000Y-38332323D02*
X57917000Y-38332323D01*
X61260000Y-38372323D02*
X57936000Y-38372323D01*
X61260000Y-38412323D02*
X57956000Y-38412323D01*
X61260000Y-38452323D02*
X57976000Y-38452323D01*
X61260000Y-38492323D02*
X57996000Y-38492323D01*
X61260000Y-38532323D02*
X58017000Y-38532323D01*
X61260000Y-38572323D02*
X58039000Y-38572323D01*
X61260000Y-38612323D02*
X58061000Y-38612323D01*
X61260000Y-38652323D02*
X58083000Y-38652323D01*
X61260000Y-38692323D02*
X58106000Y-38692323D01*
X61260000Y-38732323D02*
X58129000Y-38732323D01*
X61260000Y-38772323D02*
X58153000Y-38772323D01*
X61260000Y-38812323D02*
X58177000Y-38812323D01*
X61260000Y-38852323D02*
X58202000Y-38852323D01*
X61260000Y-38892323D02*
X58228000Y-38892323D01*
X61260000Y-38932323D02*
X58253000Y-38932323D01*
X61260000Y-38972323D02*
X58280000Y-38972323D01*
X61260000Y-39012323D02*
X58307000Y-39012323D01*
X61260000Y-39052323D02*
X58334000Y-39052323D01*
X61260000Y-39092323D02*
X58362000Y-39092323D01*
X61260000Y-39132323D02*
X58391000Y-39132323D01*
X61260000Y-39172323D02*
X58420000Y-39172323D01*
X61260000Y-39212323D02*
X58450000Y-39212323D01*
X61260000Y-39252323D02*
X58480000Y-39252323D01*
X61260000Y-39292323D02*
X58512000Y-39292323D01*
X61260000Y-39332323D02*
X58543000Y-39332323D01*
X61260000Y-39372323D02*
X58576000Y-39372323D01*
X61260000Y-39412323D02*
X58609000Y-39412323D01*
X61260000Y-39452323D02*
X58642000Y-39452323D01*
X61260000Y-39492323D02*
X58677000Y-39492323D01*
X61260000Y-39532323D02*
X58712000Y-39532323D01*
X61260000Y-39572323D02*
X58748000Y-39572323D01*
X61260000Y-39612323D02*
X58784000Y-39612323D01*
X61260000Y-39652323D02*
X58822000Y-39652323D01*
X61260000Y-39692323D02*
X58860000Y-39692323D01*
X61260000Y-39732323D02*
X58899000Y-39732323D01*
X61260000Y-39772323D02*
X58939000Y-39772323D01*
X61260000Y-39812323D02*
X58980000Y-39812323D01*
X61260000Y-39852323D02*
X59022000Y-39852323D01*
X63099000Y-41212323D02*
X61901000Y-41212323D01*
X63362000Y-41172323D02*
X61638000Y-41172323D01*
X63562000Y-41132323D02*
X61438000Y-41132323D01*
X63730000Y-41092323D02*
X61270000Y-41092323D01*
X63877000Y-41052323D02*
X61123000Y-41052323D01*
X64009000Y-41012323D02*
X60991000Y-41012323D01*
X64130000Y-40972323D02*
X60870000Y-40972323D01*
X64242000Y-40932323D02*
X60758000Y-40932323D01*
X64346000Y-40892323D02*
X60654000Y-40892323D01*
X64444000Y-40852323D02*
X60556000Y-40852323D01*
X64537000Y-40812323D02*
X60463000Y-40812323D01*
X64624000Y-40772323D02*
X60376000Y-40772323D01*
X64708000Y-40732323D02*
X60292000Y-40732323D01*
X64788000Y-40692323D02*
X60212000Y-40692323D01*
X64865000Y-40652323D02*
X60135000Y-40652323D01*
X64939000Y-40612323D02*
X60061000Y-40612323D01*
X65010000Y-40572323D02*
X59990000Y-40572323D01*
X65078000Y-40532323D02*
X59922000Y-40532323D01*
X65144000Y-40492323D02*
X59856000Y-40492323D01*
X65208000Y-40452323D02*
X59792000Y-40452323D01*
X65270000Y-40412323D02*
X59730000Y-40412323D01*
X65330000Y-40372323D02*
X59670000Y-40372323D01*
X65375000Y-30652677D02*
X65375000Y-31652677D01*
X65388000Y-40332323D02*
X59612000Y-40332323D01*
X65445000Y-40292323D02*
X59555000Y-40292323D01*
X65500000Y-40252323D02*
X59500000Y-40252323D01*
X65553000Y-40212323D02*
X59447000Y-40212323D01*
X65605000Y-40172323D02*
X59395000Y-40172323D01*
X65656000Y-40132323D02*
X59344000Y-40132323D01*
X65705000Y-40092323D02*
X59295000Y-40092323D01*
X65754000Y-40052323D02*
X59246000Y-40052323D01*
X65801000Y-40012323D02*
X59199000Y-40012323D01*
X65847000Y-39972323D02*
X59153000Y-39972323D01*
X65875000Y-31152677D02*
X64875000Y-31152677D01*
X65891000Y-39932323D02*
X59109000Y-39932323D01*
X65935000Y-39892323D02*
X59065000Y-39892323D01*
X65978000Y-39852323D02*
X63740000Y-39852323D01*
X66020000Y-39812323D02*
X63740000Y-39812323D01*
X66061000Y-39772323D02*
X63740000Y-39772323D01*
X66101000Y-39732323D02*
X63740000Y-39732323D01*
X66140000Y-39692323D02*
X63740000Y-39692323D01*
X66178000Y-39652323D02*
X63740000Y-39652323D01*
X66216000Y-39612323D02*
X63740000Y-39612323D01*
X66252000Y-39572323D02*
X63740000Y-39572323D01*
X66288000Y-39532323D02*
X63740000Y-39532323D01*
X66323000Y-39492323D02*
X63740000Y-39492323D01*
X66358000Y-39452323D02*
X63740000Y-39452323D01*
X66391000Y-39412323D02*
X63740000Y-39412323D01*
X66424000Y-39372323D02*
X63740000Y-39372323D01*
X66457000Y-39332323D02*
X63740000Y-39332323D01*
X66488000Y-39292323D02*
X63740000Y-39292323D01*
X66520000Y-39252323D02*
X63740000Y-39252323D01*
X66550000Y-39212323D02*
X63740000Y-39212323D01*
X66580000Y-39172323D02*
X63740000Y-39172323D01*
X66609000Y-39132323D02*
X63740000Y-39132323D01*
X66638000Y-39092323D02*
X63740000Y-39092323D01*
X66666000Y-39052323D02*
X63740000Y-39052323D01*
X66693000Y-39012323D02*
X63740000Y-39012323D01*
X66720000Y-38972323D02*
X63740000Y-38972323D01*
X66747000Y-38932323D02*
X63740000Y-38932323D01*
X66772000Y-38892323D02*
X63740000Y-38892323D01*
X66798000Y-38852323D02*
X63740000Y-38852323D01*
X66823000Y-38812323D02*
X63740000Y-38812323D01*
X66847000Y-38772323D02*
X63740000Y-38772323D01*
X66871000Y-38732323D02*
X63740000Y-38732323D01*
X66894000Y-38692323D02*
X63740000Y-38692323D01*
X66917000Y-38652323D02*
X63740000Y-38652323D01*
X66939000Y-38612323D02*
X63740000Y-38612323D01*
X66961000Y-38572323D02*
X63740000Y-38572323D01*
X66983000Y-38532323D02*
X63740000Y-38532323D01*
X67004000Y-38492323D02*
X63740000Y-38492323D01*
X67024000Y-38452323D02*
X63740000Y-38452323D01*
X67044000Y-38412323D02*
X63740000Y-38412323D01*
X67064000Y-38372323D02*
X63740000Y-38372323D01*
X67083000Y-38332323D02*
X63740000Y-38332323D01*
X67102000Y-38292323D02*
X63740000Y-38292323D01*
X67120000Y-38252323D02*
X63740000Y-38252323D01*
X67138000Y-38212323D02*
X63740000Y-38212323D01*
X67156000Y-38172323D02*
X63740000Y-38172323D01*
X67173000Y-38132323D02*
X63740000Y-38132323D01*
X67190000Y-38092323D02*
X63740000Y-38092323D01*
X67206000Y-38052323D02*
X63740000Y-38052323D01*
X67222000Y-38012323D02*
X63740000Y-38012323D01*
X67238000Y-37972323D02*
X63740000Y-37972323D01*
X67253000Y-37932323D02*
X63740000Y-37932323D01*
X67268000Y-37892323D02*
X63740000Y-37892323D01*
X67282000Y-37852323D02*
X63740000Y-37852323D01*
X67297000Y-37812323D02*
X63740000Y-37812323D01*
X67310000Y-37772323D02*
X63740000Y-37772323D01*
X67324000Y-37732323D02*
X63740000Y-37732323D01*
X67337000Y-37692323D02*
X63740000Y-37692323D01*
X67349000Y-37652323D02*
X63740000Y-37652323D01*
X67361000Y-37612323D02*
X63740000Y-37612323D01*
X67373000Y-37572323D02*
X63740000Y-37572323D01*
X67385000Y-37532323D02*
X63740000Y-37532323D01*
X67396000Y-37492323D02*
X63740000Y-37492323D01*
X67407000Y-37452323D02*
X63740000Y-37452323D01*
X67417000Y-37412323D02*
X63740000Y-37412323D01*
X67428000Y-37372323D02*
X57572000Y-37372323D01*
X67437000Y-37332323D02*
X57563000Y-37332323D01*
X67447000Y-37292323D02*
X57553000Y-37292323D01*
X67456000Y-37252323D02*
X57544000Y-37252323D01*
X67465000Y-37212323D02*
X57535000Y-37212323D01*
X67473000Y-37172323D02*
X57527000Y-37172323D01*
X67481000Y-37132323D02*
X57519000Y-37132323D01*
X67489000Y-37092323D02*
X57511000Y-37092323D01*
X67497000Y-37052323D02*
X57503000Y-37052323D01*
X67504000Y-37012323D02*
X57496000Y-37012323D01*
X67511000Y-36972323D02*
X57489000Y-36972323D01*
X67517000Y-36932323D02*
X57483000Y-36932323D01*
X67523000Y-36892323D02*
X57477000Y-36892323D01*
X67529000Y-36852323D02*
X57471000Y-36852323D01*
X67535000Y-36812323D02*
X57465000Y-36812323D01*
X67540000Y-36772323D02*
X57460000Y-36772323D01*
X67545000Y-36732323D02*
X57455000Y-36732323D01*
X67549000Y-36692323D02*
X57451000Y-36692323D01*
X67554000Y-36652323D02*
X57446000Y-36652323D01*
X67557000Y-36612323D02*
X57443000Y-36612323D01*
X67561000Y-36572323D02*
X57439000Y-36572323D01*
X67564000Y-36532323D02*
X57436000Y-36532323D01*
X67567000Y-36492323D02*
X57433000Y-36492323D01*
X67570000Y-36452323D02*
X57430000Y-36452323D01*
X67572000Y-36412323D02*
X57428000Y-36412323D01*
X67574000Y-36372323D02*
X57426000Y-36372323D01*
X67576000Y-36332323D02*
X57424000Y-36332323D01*
X67577000Y-36292323D02*
X57423000Y-36292323D01*
X67579000Y-36212323D02*
X57421000Y-36212323D01*
X67579000Y-36252323D02*
X57421000Y-36252323D01*
X67580000Y-36132323D02*
X57420000Y-36132323D01*
X67580000Y-36172323D02*
X57420000Y-36172323D01*
X67620000Y-36132323D02*
G75*
G02*
X57380000Y-36132323I-5120000J0D01*
G01*
X57380000Y-36132323D02*
G75*
G02*
X67620000Y-36132323I5120000J0D01*
G01*
%TO.C,R4*%
X60585923Y-87319350D02*
X60585923Y-88773478D01*
X62405923Y-87319350D02*
X62405923Y-88773478D01*
%TO.C,D6*%
X64525923Y-128246414D02*
X67465923Y-128246414D01*
X64525923Y-128366414D02*
X67465923Y-128366414D01*
X64525923Y-128486414D02*
X67465923Y-128486414D01*
X65995923Y-122806414D02*
X65995923Y-123826414D01*
X65995923Y-130286414D02*
X65995923Y-129266414D01*
X64525923Y-123826414D02*
X67465923Y-123826414D01*
X67465923Y-129266414D01*
X64525923Y-129266414D01*
X64525923Y-123826414D01*
%TO.C,C8*%
X48455923Y-177363763D02*
X45478923Y-177363763D01*
X48455923Y-177403763D02*
X45486923Y-177403763D01*
X48455923Y-177443763D02*
X45493923Y-177443763D01*
X48455923Y-177483763D02*
X45502923Y-177483763D01*
X48455923Y-177523763D02*
X45510923Y-177523763D01*
X48455923Y-177563763D02*
X45519923Y-177563763D01*
X48455923Y-177603763D02*
X45528923Y-177603763D01*
X48455923Y-177643763D02*
X45538923Y-177643763D01*
X48455923Y-177683763D02*
X45548923Y-177683763D01*
X48455923Y-177723763D02*
X45559923Y-177723763D01*
X48455923Y-177763763D02*
X45570923Y-177763763D01*
X48455923Y-177803763D02*
X45582923Y-177803763D01*
X48455923Y-177843763D02*
X45594923Y-177843763D01*
X48455923Y-177883763D02*
X45606923Y-177883763D01*
X48455923Y-177923763D02*
X45619923Y-177923763D01*
X48455923Y-177963763D02*
X45632923Y-177963763D01*
X48455923Y-178003763D02*
X45646923Y-178003763D01*
X48455923Y-178043763D02*
X45660923Y-178043763D01*
X48455923Y-178083763D02*
X45675923Y-178083763D01*
X48455923Y-178123763D02*
X45690923Y-178123763D01*
X48455923Y-178163763D02*
X45706923Y-178163763D01*
X48455923Y-178203763D02*
X45722923Y-178203763D01*
X48455923Y-178243763D02*
X45738923Y-178243763D01*
X48455923Y-178283763D02*
X45755923Y-178283763D01*
X48455923Y-178323763D02*
X45773923Y-178323763D01*
X48455923Y-178363763D02*
X45791923Y-178363763D01*
X48455923Y-178403763D02*
X45810923Y-178403763D01*
X48455923Y-178443763D02*
X45829923Y-178443763D01*
X48455923Y-178483763D02*
X45849923Y-178483763D01*
X48455923Y-178523763D02*
X45869923Y-178523763D01*
X48455923Y-178563763D02*
X45890923Y-178563763D01*
X48455923Y-178603763D02*
X45911923Y-178603763D01*
X48455923Y-178643763D02*
X45933923Y-178643763D01*
X48455923Y-178683763D02*
X45956923Y-178683763D01*
X48455923Y-178723763D02*
X45979923Y-178723763D01*
X48455923Y-178763763D02*
X46002923Y-178763763D01*
X48455923Y-178803763D02*
X46027923Y-178803763D01*
X48455923Y-178843763D02*
X46052923Y-178843763D01*
X48455923Y-178883763D02*
X46077923Y-178883763D01*
X48455923Y-178923763D02*
X46103923Y-178923763D01*
X48455923Y-178963763D02*
X46130923Y-178963763D01*
X48455923Y-179003763D02*
X46158923Y-179003763D01*
X48455923Y-179043763D02*
X46186923Y-179043763D01*
X48455923Y-179083763D02*
X46215923Y-179083763D01*
X48455923Y-179123763D02*
X46245923Y-179123763D01*
X48455923Y-179163763D02*
X46276923Y-179163763D01*
X48455923Y-179203763D02*
X46307923Y-179203763D01*
X48455923Y-179243763D02*
X46339923Y-179243763D01*
X48455923Y-179283763D02*
X46372923Y-179283763D01*
X48455923Y-179323763D02*
X46406923Y-179323763D01*
X48455923Y-179363763D02*
X46440923Y-179363763D01*
X48455923Y-179403763D02*
X46476923Y-179403763D01*
X50028923Y-180723763D02*
X48962923Y-180723763D01*
X50263923Y-180683763D02*
X48727923Y-180683763D01*
X50442923Y-180643763D02*
X48548923Y-180643763D01*
X50592923Y-180603763D02*
X48398923Y-180603763D01*
X50723923Y-180563763D02*
X48267923Y-180563763D01*
X50841923Y-180523763D02*
X48149923Y-180523763D01*
X50948923Y-180483763D02*
X48042923Y-180483763D01*
X51047923Y-180443763D02*
X47943923Y-180443763D01*
X51139923Y-180403763D02*
X47851923Y-180403763D01*
X51226923Y-180363763D02*
X47764923Y-180363763D01*
X51308923Y-180323763D02*
X47682923Y-180323763D01*
X51385923Y-180283763D02*
X47605923Y-180283763D01*
X51459923Y-180243763D02*
X47531923Y-180243763D01*
X51529923Y-180203763D02*
X47461923Y-180203763D01*
X51596923Y-180163763D02*
X47394923Y-180163763D01*
X51660923Y-180123763D02*
X47330923Y-180123763D01*
X51722923Y-180083763D02*
X47268923Y-180083763D01*
X51782923Y-180043763D02*
X47208923Y-180043763D01*
X51810923Y-172234065D02*
X51810923Y-173034065D01*
X51839923Y-180003763D02*
X47151923Y-180003763D01*
X51895923Y-179963763D02*
X47095923Y-179963763D01*
X51948923Y-179923763D02*
X47042923Y-179923763D01*
X52000923Y-179883763D02*
X46990923Y-179883763D01*
X52050923Y-179843763D02*
X46940923Y-179843763D01*
X52099923Y-179803763D02*
X46891923Y-179803763D01*
X52146923Y-179763763D02*
X46844923Y-179763763D01*
X52191923Y-179723763D02*
X46799923Y-179723763D01*
X52210923Y-172634065D02*
X51410923Y-172634065D01*
X52236923Y-179683763D02*
X46754923Y-179683763D01*
X52279923Y-179643763D02*
X46711923Y-179643763D01*
X52321923Y-179603763D02*
X46669923Y-179603763D01*
X52362923Y-179563763D02*
X46628923Y-179563763D01*
X52401923Y-179523763D02*
X46589923Y-179523763D01*
X52440923Y-179483763D02*
X46550923Y-179483763D01*
X52477923Y-179443763D02*
X46513923Y-179443763D01*
X52514923Y-179403763D02*
X50535923Y-179403763D01*
X52550923Y-179363763D02*
X50535923Y-179363763D01*
X52584923Y-179323763D02*
X50535923Y-179323763D01*
X52618923Y-179283763D02*
X50535923Y-179283763D01*
X52651923Y-179243763D02*
X50535923Y-179243763D01*
X52683923Y-179203763D02*
X50535923Y-179203763D01*
X52714923Y-179163763D02*
X50535923Y-179163763D01*
X52745923Y-179123763D02*
X50535923Y-179123763D01*
X52775923Y-179083763D02*
X50535923Y-179083763D01*
X52804923Y-179043763D02*
X50535923Y-179043763D01*
X52832923Y-179003763D02*
X50535923Y-179003763D01*
X52860923Y-178963763D02*
X50535923Y-178963763D01*
X52887923Y-178923763D02*
X50535923Y-178923763D01*
X52913923Y-178883763D02*
X50535923Y-178883763D01*
X52938923Y-178843763D02*
X50535923Y-178843763D01*
X52963923Y-178803763D02*
X50535923Y-178803763D01*
X52988923Y-178763763D02*
X50535923Y-178763763D01*
X53011923Y-178723763D02*
X50535923Y-178723763D01*
X53034923Y-178683763D02*
X50535923Y-178683763D01*
X53057923Y-178643763D02*
X50535923Y-178643763D01*
X53079923Y-178603763D02*
X50535923Y-178603763D01*
X53100923Y-178563763D02*
X50535923Y-178563763D01*
X53121923Y-178523763D02*
X50535923Y-178523763D01*
X53141923Y-178483763D02*
X50535923Y-178483763D01*
X53161923Y-178443763D02*
X50535923Y-178443763D01*
X53180923Y-178403763D02*
X50535923Y-178403763D01*
X53199923Y-178363763D02*
X50535923Y-178363763D01*
X53217923Y-178323763D02*
X50535923Y-178323763D01*
X53235923Y-178283763D02*
X50535923Y-178283763D01*
X53252923Y-178243763D02*
X50535923Y-178243763D01*
X53268923Y-178203763D02*
X50535923Y-178203763D01*
X53284923Y-178163763D02*
X50535923Y-178163763D01*
X53300923Y-178123763D02*
X50535923Y-178123763D01*
X53315923Y-178083763D02*
X50535923Y-178083763D01*
X53330923Y-178043763D02*
X50535923Y-178043763D01*
X53344923Y-178003763D02*
X50535923Y-178003763D01*
X53358923Y-177963763D02*
X50535923Y-177963763D01*
X53371923Y-177923763D02*
X50535923Y-177923763D01*
X53384923Y-177883763D02*
X50535923Y-177883763D01*
X53396923Y-177843763D02*
X50535923Y-177843763D01*
X53408923Y-177803763D02*
X50535923Y-177803763D01*
X53420923Y-177763763D02*
X50535923Y-177763763D01*
X53431923Y-177723763D02*
X50535923Y-177723763D01*
X53442923Y-177683763D02*
X50535923Y-177683763D01*
X53452923Y-177643763D02*
X50535923Y-177643763D01*
X53462923Y-177603763D02*
X50535923Y-177603763D01*
X53471923Y-177563763D02*
X50535923Y-177563763D01*
X53480923Y-177523763D02*
X50535923Y-177523763D01*
X53488923Y-177483763D02*
X50535923Y-177483763D01*
X53497923Y-177443763D02*
X50535923Y-177443763D01*
X53504923Y-177403763D02*
X50535923Y-177403763D01*
X53512923Y-177363763D02*
X50535923Y-177363763D01*
X53518923Y-177323763D02*
X45472923Y-177323763D01*
X53525923Y-177283763D02*
X45465923Y-177283763D01*
X53531923Y-177243763D02*
X45459923Y-177243763D01*
X53537923Y-177203763D02*
X45453923Y-177203763D01*
X53542923Y-177163763D02*
X45448923Y-177163763D01*
X53547923Y-177123763D02*
X45443923Y-177123763D01*
X53551923Y-177083763D02*
X45439923Y-177083763D01*
X53556923Y-177043763D02*
X45434923Y-177043763D01*
X53559923Y-177003763D02*
X45431923Y-177003763D01*
X53563923Y-176963763D02*
X45427923Y-176963763D01*
X53565923Y-176923763D02*
X45425923Y-176923763D01*
X53568923Y-176883763D02*
X45422923Y-176883763D01*
X53570923Y-176843763D02*
X45420923Y-176843763D01*
X53572923Y-176803763D02*
X45418923Y-176803763D01*
X53573923Y-176763763D02*
X45417923Y-176763763D01*
X53574923Y-176723763D02*
X45416923Y-176723763D01*
X53575923Y-176643763D02*
X45415923Y-176643763D01*
X53575923Y-176683763D02*
X45415923Y-176683763D01*
X53615923Y-176643763D02*
G75*
G02*
X45375923Y-176643763I-4120000J0D01*
G01*
X45375923Y-176643763D02*
G75*
G02*
X53615923Y-176643763I4120000J0D01*
G01*
%TO.C,J8*%
X19821436Y-83353065D02*
X19821436Y-94593065D01*
X28671436Y-79753065D02*
X28671436Y-83353065D01*
X28671436Y-79753065D02*
X30291436Y-79753065D01*
X28671436Y-83353065D02*
X19821436Y-83353065D01*
X28671436Y-94593065D02*
X19821436Y-94593065D01*
X28671436Y-94593065D02*
X28671436Y-98193065D01*
X28671436Y-98193065D02*
X30291436Y-98193065D01*
X33091436Y-79753065D02*
X42991436Y-79753065D01*
X42991436Y-98193065D02*
X33091436Y-98193065D01*
X45791436Y-79753065D02*
X49911436Y-79753065D01*
X49911436Y-79753065D02*
X49911436Y-84503065D01*
X49911436Y-93443065D02*
X49911436Y-98193065D01*
X49911436Y-98193065D02*
X45791436Y-98193065D01*
X52911436Y-84503065D02*
X49911436Y-84503065D01*
X52911436Y-84543065D02*
X52911436Y-93443065D01*
X52911436Y-93443065D02*
X49911436Y-93443065D01*
%TO.C,Q2*%
X55640000Y-91930000D02*
X60260000Y-91930000D01*
X55640000Y-102150000D02*
X55640000Y-91930000D01*
X58880000Y-91930000D02*
X58880000Y-102150000D01*
X60260000Y-91930000D02*
X60260000Y-102150000D01*
X60260000Y-95190000D02*
X58880000Y-95190000D01*
X60260000Y-98890000D02*
X58880000Y-98890000D01*
X60260000Y-102150000D02*
X55640000Y-102150000D01*
%TO.C,R5*%
X55085923Y-123773478D02*
X55085923Y-122319350D01*
X56905923Y-123773478D02*
X56905923Y-122319350D01*
%TO.C,Q4*%
X55640000Y-162430000D02*
X60260000Y-162430000D01*
X55640000Y-172650000D02*
X55640000Y-162430000D01*
X58880000Y-162430000D02*
X58880000Y-172650000D01*
X60260000Y-162430000D02*
X60260000Y-172650000D01*
X60260000Y-165690000D02*
X58880000Y-165690000D01*
X60260000Y-169390000D02*
X58880000Y-169390000D01*
X60260000Y-172650000D02*
X55640000Y-172650000D01*
%TO.C,D1*%
X57260000Y-46000000D02*
X58280000Y-46000000D01*
X59060000Y-44530000D02*
X59060000Y-47470000D01*
X59180000Y-44530000D02*
X59180000Y-47470000D01*
X59300000Y-44530000D02*
X59300000Y-47470000D01*
X64740000Y-46000000D02*
X63720000Y-46000000D01*
X58280000Y-44530000D02*
X63720000Y-44530000D01*
X63720000Y-47470000D01*
X58280000Y-47470000D01*
X58280000Y-44530000D01*
%TO.C,D3*%
X57255923Y-81046414D02*
X58275923Y-81046414D01*
X59055923Y-79576414D02*
X59055923Y-82516414D01*
X59175923Y-79576414D02*
X59175923Y-82516414D01*
X59295923Y-79576414D02*
X59295923Y-82516414D01*
X64735923Y-81046414D02*
X63715923Y-81046414D01*
X58275923Y-79576414D02*
X63715923Y-79576414D01*
X63715923Y-82516414D01*
X58275923Y-82516414D01*
X58275923Y-79576414D01*
%TO.C,C2*%
X48460000Y-71817349D02*
X45483000Y-71817349D01*
X48460000Y-71857349D02*
X45491000Y-71857349D01*
X48460000Y-71897349D02*
X45498000Y-71897349D01*
X48460000Y-71937349D02*
X45507000Y-71937349D01*
X48460000Y-71977349D02*
X45515000Y-71977349D01*
X48460000Y-72017349D02*
X45524000Y-72017349D01*
X48460000Y-72057349D02*
X45533000Y-72057349D01*
X48460000Y-72097349D02*
X45543000Y-72097349D01*
X48460000Y-72137349D02*
X45553000Y-72137349D01*
X48460000Y-72177349D02*
X45564000Y-72177349D01*
X48460000Y-72217349D02*
X45575000Y-72217349D01*
X48460000Y-72257349D02*
X45587000Y-72257349D01*
X48460000Y-72297349D02*
X45599000Y-72297349D01*
X48460000Y-72337349D02*
X45611000Y-72337349D01*
X48460000Y-72377349D02*
X45624000Y-72377349D01*
X48460000Y-72417349D02*
X45637000Y-72417349D01*
X48460000Y-72457349D02*
X45651000Y-72457349D01*
X48460000Y-72497349D02*
X45665000Y-72497349D01*
X48460000Y-72537349D02*
X45680000Y-72537349D01*
X48460000Y-72577349D02*
X45695000Y-72577349D01*
X48460000Y-72617349D02*
X45711000Y-72617349D01*
X48460000Y-72657349D02*
X45727000Y-72657349D01*
X48460000Y-72697349D02*
X45743000Y-72697349D01*
X48460000Y-72737349D02*
X45760000Y-72737349D01*
X48460000Y-72777349D02*
X45778000Y-72777349D01*
X48460000Y-72817349D02*
X45796000Y-72817349D01*
X48460000Y-72857349D02*
X45815000Y-72857349D01*
X48460000Y-72897349D02*
X45834000Y-72897349D01*
X48460000Y-72937349D02*
X45854000Y-72937349D01*
X48460000Y-72977349D02*
X45874000Y-72977349D01*
X48460000Y-73017349D02*
X45895000Y-73017349D01*
X48460000Y-73057349D02*
X45916000Y-73057349D01*
X48460000Y-73097349D02*
X45938000Y-73097349D01*
X48460000Y-73137349D02*
X45961000Y-73137349D01*
X48460000Y-73177349D02*
X45984000Y-73177349D01*
X48460000Y-73217349D02*
X46007000Y-73217349D01*
X48460000Y-73257349D02*
X46032000Y-73257349D01*
X48460000Y-73297349D02*
X46057000Y-73297349D01*
X48460000Y-73337349D02*
X46082000Y-73337349D01*
X48460000Y-73377349D02*
X46108000Y-73377349D01*
X48460000Y-73417349D02*
X46135000Y-73417349D01*
X48460000Y-73457349D02*
X46163000Y-73457349D01*
X48460000Y-73497349D02*
X46191000Y-73497349D01*
X48460000Y-73537349D02*
X46220000Y-73537349D01*
X48460000Y-73577349D02*
X46250000Y-73577349D01*
X48460000Y-73617349D02*
X46281000Y-73617349D01*
X48460000Y-73657349D02*
X46312000Y-73657349D01*
X48460000Y-73697349D02*
X46344000Y-73697349D01*
X48460000Y-73737349D02*
X46377000Y-73737349D01*
X48460000Y-73777349D02*
X46411000Y-73777349D01*
X48460000Y-73817349D02*
X46445000Y-73817349D01*
X48460000Y-73857349D02*
X46481000Y-73857349D01*
X50033000Y-75177349D02*
X48967000Y-75177349D01*
X50268000Y-75137349D02*
X48732000Y-75137349D01*
X50447000Y-75097349D02*
X48553000Y-75097349D01*
X50597000Y-75057349D02*
X48403000Y-75057349D01*
X50728000Y-75017349D02*
X48272000Y-75017349D01*
X50846000Y-74977349D02*
X48154000Y-74977349D01*
X50953000Y-74937349D02*
X48047000Y-74937349D01*
X51052000Y-74897349D02*
X47948000Y-74897349D01*
X51144000Y-74857349D02*
X47856000Y-74857349D01*
X51231000Y-74817349D02*
X47769000Y-74817349D01*
X51313000Y-74777349D02*
X47687000Y-74777349D01*
X51390000Y-74737349D02*
X47610000Y-74737349D01*
X51464000Y-74697349D02*
X47536000Y-74697349D01*
X51534000Y-74657349D02*
X47466000Y-74657349D01*
X51601000Y-74617349D02*
X47399000Y-74617349D01*
X51665000Y-74577349D02*
X47335000Y-74577349D01*
X51727000Y-74537349D02*
X47273000Y-74537349D01*
X51787000Y-74497349D02*
X47213000Y-74497349D01*
X51815000Y-66687651D02*
X51815000Y-67487651D01*
X51844000Y-74457349D02*
X47156000Y-74457349D01*
X51900000Y-74417349D02*
X47100000Y-74417349D01*
X51953000Y-74377349D02*
X47047000Y-74377349D01*
X52005000Y-74337349D02*
X46995000Y-74337349D01*
X52055000Y-74297349D02*
X46945000Y-74297349D01*
X52104000Y-74257349D02*
X46896000Y-74257349D01*
X52151000Y-74217349D02*
X46849000Y-74217349D01*
X52196000Y-74177349D02*
X46804000Y-74177349D01*
X52215000Y-67087651D02*
X51415000Y-67087651D01*
X52241000Y-74137349D02*
X46759000Y-74137349D01*
X52284000Y-74097349D02*
X46716000Y-74097349D01*
X52326000Y-74057349D02*
X46674000Y-74057349D01*
X52367000Y-74017349D02*
X46633000Y-74017349D01*
X52406000Y-73977349D02*
X46594000Y-73977349D01*
X52445000Y-73937349D02*
X46555000Y-73937349D01*
X52482000Y-73897349D02*
X46518000Y-73897349D01*
X52519000Y-73857349D02*
X50540000Y-73857349D01*
X52555000Y-73817349D02*
X50540000Y-73817349D01*
X52589000Y-73777349D02*
X50540000Y-73777349D01*
X52623000Y-73737349D02*
X50540000Y-73737349D01*
X52656000Y-73697349D02*
X50540000Y-73697349D01*
X52688000Y-73657349D02*
X50540000Y-73657349D01*
X52719000Y-73617349D02*
X50540000Y-73617349D01*
X52750000Y-73577349D02*
X50540000Y-73577349D01*
X52780000Y-73537349D02*
X50540000Y-73537349D01*
X52809000Y-73497349D02*
X50540000Y-73497349D01*
X52837000Y-73457349D02*
X50540000Y-73457349D01*
X52865000Y-73417349D02*
X50540000Y-73417349D01*
X52892000Y-73377349D02*
X50540000Y-73377349D01*
X52918000Y-73337349D02*
X50540000Y-73337349D01*
X52943000Y-73297349D02*
X50540000Y-73297349D01*
X52968000Y-73257349D02*
X50540000Y-73257349D01*
X52993000Y-73217349D02*
X50540000Y-73217349D01*
X53016000Y-73177349D02*
X50540000Y-73177349D01*
X53039000Y-73137349D02*
X50540000Y-73137349D01*
X53062000Y-73097349D02*
X50540000Y-73097349D01*
X53084000Y-73057349D02*
X50540000Y-73057349D01*
X53105000Y-73017349D02*
X50540000Y-73017349D01*
X53126000Y-72977349D02*
X50540000Y-72977349D01*
X53146000Y-72937349D02*
X50540000Y-72937349D01*
X53166000Y-72897349D02*
X50540000Y-72897349D01*
X53185000Y-72857349D02*
X50540000Y-72857349D01*
X53204000Y-72817349D02*
X50540000Y-72817349D01*
X53222000Y-72777349D02*
X50540000Y-72777349D01*
X53240000Y-72737349D02*
X50540000Y-72737349D01*
X53257000Y-72697349D02*
X50540000Y-72697349D01*
X53273000Y-72657349D02*
X50540000Y-72657349D01*
X53289000Y-72617349D02*
X50540000Y-72617349D01*
X53305000Y-72577349D02*
X50540000Y-72577349D01*
X53320000Y-72537349D02*
X50540000Y-72537349D01*
X53335000Y-72497349D02*
X50540000Y-72497349D01*
X53349000Y-72457349D02*
X50540000Y-72457349D01*
X53363000Y-72417349D02*
X50540000Y-72417349D01*
X53376000Y-72377349D02*
X50540000Y-72377349D01*
X53389000Y-72337349D02*
X50540000Y-72337349D01*
X53401000Y-72297349D02*
X50540000Y-72297349D01*
X53413000Y-72257349D02*
X50540000Y-72257349D01*
X53425000Y-72217349D02*
X50540000Y-72217349D01*
X53436000Y-72177349D02*
X50540000Y-72177349D01*
X53447000Y-72137349D02*
X50540000Y-72137349D01*
X53457000Y-72097349D02*
X50540000Y-72097349D01*
X53467000Y-72057349D02*
X50540000Y-72057349D01*
X53476000Y-72017349D02*
X50540000Y-72017349D01*
X53485000Y-71977349D02*
X50540000Y-71977349D01*
X53493000Y-71937349D02*
X50540000Y-71937349D01*
X53502000Y-71897349D02*
X50540000Y-71897349D01*
X53509000Y-71857349D02*
X50540000Y-71857349D01*
X53517000Y-71817349D02*
X50540000Y-71817349D01*
X53523000Y-71777349D02*
X45477000Y-71777349D01*
X53530000Y-71737349D02*
X45470000Y-71737349D01*
X53536000Y-71697349D02*
X45464000Y-71697349D01*
X53542000Y-71657349D02*
X45458000Y-71657349D01*
X53547000Y-71617349D02*
X45453000Y-71617349D01*
X53552000Y-71577349D02*
X45448000Y-71577349D01*
X53556000Y-71537349D02*
X45444000Y-71537349D01*
X53561000Y-71497349D02*
X45439000Y-71497349D01*
X53564000Y-71457349D02*
X45436000Y-71457349D01*
X53568000Y-71417349D02*
X45432000Y-71417349D01*
X53570000Y-71377349D02*
X45430000Y-71377349D01*
X53573000Y-71337349D02*
X45427000Y-71337349D01*
X53575000Y-71297349D02*
X45425000Y-71297349D01*
X53577000Y-71257349D02*
X45423000Y-71257349D01*
X53578000Y-71217349D02*
X45422000Y-71217349D01*
X53579000Y-71177349D02*
X45421000Y-71177349D01*
X53580000Y-71097349D02*
X45420000Y-71097349D01*
X53580000Y-71137349D02*
X45420000Y-71137349D01*
X53620000Y-71097349D02*
G75*
G02*
X45380000Y-71097349I-4120000J0D01*
G01*
X45380000Y-71097349D02*
G75*
G02*
X53620000Y-71097349I4120000J0D01*
G01*
%TO.C,R2*%
X60590000Y-52272936D02*
X60590000Y-53727064D01*
X62410000Y-52272936D02*
X62410000Y-53727064D01*
%TO.C,C1*%
X56765000Y-71761252D02*
X56765000Y-71238748D01*
X58235000Y-71761252D02*
X58235000Y-71238748D01*
%TO.C,C7*%
X55765000Y-177261252D02*
X55765000Y-176738748D01*
X57235000Y-177261252D02*
X57235000Y-176738748D01*
%TO.C,J3*%
X44697500Y-30880000D02*
X53037500Y-30880000D01*
X44697500Y-41120000D02*
X44697500Y-30880000D01*
X44817500Y-32250000D02*
X45817500Y-32250000D01*
X44817500Y-34750000D02*
X44817500Y-32250000D01*
X44817500Y-37250000D02*
X45817500Y-37250000D01*
X44817500Y-39750000D02*
X44817500Y-37250000D01*
X45817500Y-32250000D02*
X45817500Y-34750000D01*
X45817500Y-34750000D02*
X44817500Y-34750000D01*
X45817500Y-37250000D02*
X45817500Y-39750000D01*
X45817500Y-39750000D02*
X44817500Y-39750000D01*
X46817500Y-41120000D02*
X46817500Y-30880000D01*
X51717500Y-41120000D02*
X51717500Y-30880000D01*
X52317500Y-41120000D02*
X52317500Y-30880000D01*
X53037500Y-30880000D02*
X53037500Y-38200000D01*
X53037500Y-38800000D02*
X53037500Y-41120000D01*
X53037500Y-41120000D02*
X44697500Y-41120000D01*
X53037500Y-38500000D02*
X53647500Y-38060000D01*
X53647500Y-38940000D01*
X53037500Y-38500000D01*
G36*
X53647500Y-38940000D02*
G01*
X53037500Y-38500000D01*
X53647500Y-38060000D01*
X53647500Y-38940000D01*
G37*
%TO.C,Q3*%
X55640000Y-126930000D02*
X60260000Y-126930000D01*
X55640000Y-137150000D02*
X55640000Y-126930000D01*
X58880000Y-126930000D02*
X58880000Y-137150000D01*
X60260000Y-126930000D02*
X60260000Y-137150000D01*
X60260000Y-130190000D02*
X58880000Y-130190000D01*
X60260000Y-133890000D02*
X58880000Y-133890000D01*
X60260000Y-137150000D02*
X55640000Y-137150000D01*
%TO.C,R1*%
X55090000Y-53727064D02*
X55090000Y-52272936D01*
X56910000Y-53727064D02*
X56910000Y-52272936D01*
%TO.C,C3*%
X56265000Y-106761252D02*
X56265000Y-106238748D01*
X57735000Y-106761252D02*
X57735000Y-106238748D01*
%TO.C,C5*%
X56260923Y-141557666D02*
X56260923Y-141035162D01*
X57730923Y-141557666D02*
X57730923Y-141035162D01*
%TO.C,D7*%
X57255923Y-151546414D02*
X58275923Y-151546414D01*
X59055923Y-150076414D02*
X59055923Y-153016414D01*
X59175923Y-150076414D02*
X59175923Y-153016414D01*
X59295923Y-150076414D02*
X59295923Y-153016414D01*
X64735923Y-151546414D02*
X63715923Y-151546414D01*
X58275923Y-150076414D02*
X63715923Y-150076414D01*
X63715923Y-153016414D01*
X58275923Y-153016414D01*
X58275923Y-150076414D01*
%TO.C,J2*%
D14*
X24815000Y-100259493D02*
X40615000Y-100259493D01*
X24815000Y-103459493D02*
X24815000Y-100259493D01*
X24815000Y-107059493D02*
X24815000Y-110259493D01*
X24815000Y-110259493D02*
X35215000Y-110259493D01*
X26315000Y-111259493D02*
X26315000Y-111259493D01*
X26315000Y-111459493D02*
X26315000Y-111459493D01*
X40615000Y-100259493D02*
X40615000Y-102259493D01*
X26315000Y-111259493D02*
G75*
G02*
X26315000Y-111459493I0J-100000D01*
G01*
X26315000Y-111459493D02*
G75*
G02*
X26315000Y-111259493I0J100000D01*
G01*
%TO.C,D4*%
D13*
X64525923Y-93246414D02*
X67465923Y-93246414D01*
X64525923Y-93366414D02*
X67465923Y-93366414D01*
X64525923Y-93486414D02*
X67465923Y-93486414D01*
X65995923Y-87806414D02*
X65995923Y-88826414D01*
X65995923Y-95286414D02*
X65995923Y-94266414D01*
X64525923Y-88826414D02*
X67465923Y-88826414D01*
X67465923Y-94266414D01*
X64525923Y-94266414D01*
X64525923Y-88826414D01*
%TO.C,J10*%
X19821436Y-153781636D02*
X19821436Y-165021636D01*
X28671436Y-150181636D02*
X28671436Y-153781636D01*
X28671436Y-150181636D02*
X30291436Y-150181636D01*
X28671436Y-153781636D02*
X19821436Y-153781636D01*
X28671436Y-165021636D02*
X19821436Y-165021636D01*
X28671436Y-165021636D02*
X28671436Y-168621636D01*
X28671436Y-168621636D02*
X30291436Y-168621636D01*
X33091436Y-150181636D02*
X42991436Y-150181636D01*
X42991436Y-168621636D02*
X33091436Y-168621636D01*
X45791436Y-150181636D02*
X49911436Y-150181636D01*
X49911436Y-150181636D02*
X49911436Y-154931636D01*
X49911436Y-163871636D02*
X49911436Y-168621636D01*
X49911436Y-168621636D02*
X45791436Y-168621636D01*
X52911436Y-154931636D02*
X49911436Y-154931636D01*
X52911436Y-154971636D02*
X52911436Y-163871636D01*
X52911436Y-163871636D02*
X49911436Y-163871636D01*
%TO.C,R6*%
X60585923Y-122319350D02*
X60585923Y-123773478D01*
X62405923Y-122319350D02*
X62405923Y-123773478D01*
%TO.C,J5*%
D14*
X24815000Y-170830922D02*
X40615000Y-170830922D01*
X24815000Y-174030922D02*
X24815000Y-170830922D01*
X24815000Y-177630922D02*
X24815000Y-180830922D01*
X24815000Y-180830922D02*
X35215000Y-180830922D01*
X26315000Y-181830922D02*
X26315000Y-181830922D01*
X26315000Y-182030922D02*
X26315000Y-182030922D01*
X40615000Y-170830922D02*
X40615000Y-172830922D01*
X26315000Y-181830922D02*
G75*
G02*
X26315000Y-182030922I0J-100000D01*
G01*
X26315000Y-182030922D02*
G75*
G02*
X26315000Y-181830922I0J100000D01*
G01*
%TO.C,J1*%
X24815000Y-64973779D02*
X40615000Y-64973779D01*
X24815000Y-68173779D02*
X24815000Y-64973779D01*
X24815000Y-71773779D02*
X24815000Y-74973779D01*
X24815000Y-74973779D02*
X35215000Y-74973779D01*
X26315000Y-75973779D02*
X26315000Y-75973779D01*
X26315000Y-76173779D02*
X26315000Y-76173779D01*
X40615000Y-64973779D02*
X40615000Y-66973779D01*
X26315000Y-75973779D02*
G75*
G02*
X26315000Y-76173779I0J-100000D01*
G01*
X26315000Y-76173779D02*
G75*
G02*
X26315000Y-75973779I0J100000D01*
G01*
%TO.C,R3*%
D13*
X55085923Y-88773478D02*
X55085923Y-87319350D01*
X56905923Y-88773478D02*
X56905923Y-87319350D01*
%TO.C,J7*%
X19821436Y-47995922D02*
X19821436Y-59235922D01*
X28671436Y-44395922D02*
X28671436Y-47995922D01*
X28671436Y-44395922D02*
X30291436Y-44395922D01*
X28671436Y-47995922D02*
X19821436Y-47995922D01*
X28671436Y-59235922D02*
X19821436Y-59235922D01*
X28671436Y-59235922D02*
X28671436Y-62835922D01*
X28671436Y-62835922D02*
X30291436Y-62835922D01*
X33091436Y-44395922D02*
X42991436Y-44395922D01*
X42991436Y-62835922D02*
X33091436Y-62835922D01*
X45791436Y-44395922D02*
X49911436Y-44395922D01*
X49911436Y-44395922D02*
X49911436Y-49145922D01*
X49911436Y-58085922D02*
X49911436Y-62835922D01*
X49911436Y-62835922D02*
X45791436Y-62835922D01*
X52911436Y-49145922D02*
X49911436Y-49145922D01*
X52911436Y-49185922D02*
X52911436Y-58085922D01*
X52911436Y-58085922D02*
X49911436Y-58085922D01*
%TO.C,D2*%
X64530000Y-58200000D02*
X67470000Y-58200000D01*
X64530000Y-58320000D02*
X67470000Y-58320000D01*
X64530000Y-58440000D02*
X67470000Y-58440000D01*
X66000000Y-52760000D02*
X66000000Y-53780000D01*
X66000000Y-60240000D02*
X66000000Y-59220000D01*
X64530000Y-53780000D02*
X67470000Y-53780000D01*
X67470000Y-59220000D01*
X64530000Y-59220000D01*
X64530000Y-53780000D01*
%TO.C,C4*%
X48455923Y-106863763D02*
X45478923Y-106863763D01*
X48455923Y-106903763D02*
X45486923Y-106903763D01*
X48455923Y-106943763D02*
X45493923Y-106943763D01*
X48455923Y-106983763D02*
X45502923Y-106983763D01*
X48455923Y-107023763D02*
X45510923Y-107023763D01*
X48455923Y-107063763D02*
X45519923Y-107063763D01*
X48455923Y-107103763D02*
X45528923Y-107103763D01*
X48455923Y-107143763D02*
X45538923Y-107143763D01*
X48455923Y-107183763D02*
X45548923Y-107183763D01*
X48455923Y-107223763D02*
X45559923Y-107223763D01*
X48455923Y-107263763D02*
X45570923Y-107263763D01*
X48455923Y-107303763D02*
X45582923Y-107303763D01*
X48455923Y-107343763D02*
X45594923Y-107343763D01*
X48455923Y-107383763D02*
X45606923Y-107383763D01*
X48455923Y-107423763D02*
X45619923Y-107423763D01*
X48455923Y-107463763D02*
X45632923Y-107463763D01*
X48455923Y-107503763D02*
X45646923Y-107503763D01*
X48455923Y-107543763D02*
X45660923Y-107543763D01*
X48455923Y-107583763D02*
X45675923Y-107583763D01*
X48455923Y-107623763D02*
X45690923Y-107623763D01*
X48455923Y-107663763D02*
X45706923Y-107663763D01*
X48455923Y-107703763D02*
X45722923Y-107703763D01*
X48455923Y-107743763D02*
X45738923Y-107743763D01*
X48455923Y-107783763D02*
X45755923Y-107783763D01*
X48455923Y-107823763D02*
X45773923Y-107823763D01*
X48455923Y-107863763D02*
X45791923Y-107863763D01*
X48455923Y-107903763D02*
X45810923Y-107903763D01*
X48455923Y-107943763D02*
X45829923Y-107943763D01*
X48455923Y-107983763D02*
X45849923Y-107983763D01*
X48455923Y-108023763D02*
X45869923Y-108023763D01*
X48455923Y-108063763D02*
X45890923Y-108063763D01*
X48455923Y-108103763D02*
X45911923Y-108103763D01*
X48455923Y-108143763D02*
X45933923Y-108143763D01*
X48455923Y-108183763D02*
X45956923Y-108183763D01*
X48455923Y-108223763D02*
X45979923Y-108223763D01*
X48455923Y-108263763D02*
X46002923Y-108263763D01*
X48455923Y-108303763D02*
X46027923Y-108303763D01*
X48455923Y-108343763D02*
X46052923Y-108343763D01*
X48455923Y-108383763D02*
X46077923Y-108383763D01*
X48455923Y-108423763D02*
X46103923Y-108423763D01*
X48455923Y-108463763D02*
X46130923Y-108463763D01*
X48455923Y-108503763D02*
X46158923Y-108503763D01*
X48455923Y-108543763D02*
X46186923Y-108543763D01*
X48455923Y-108583763D02*
X46215923Y-108583763D01*
X48455923Y-108623763D02*
X46245923Y-108623763D01*
X48455923Y-108663763D02*
X46276923Y-108663763D01*
X48455923Y-108703763D02*
X46307923Y-108703763D01*
X48455923Y-108743763D02*
X46339923Y-108743763D01*
X48455923Y-108783763D02*
X46372923Y-108783763D01*
X48455923Y-108823763D02*
X46406923Y-108823763D01*
X48455923Y-108863763D02*
X46440923Y-108863763D01*
X48455923Y-108903763D02*
X46476923Y-108903763D01*
X50028923Y-110223763D02*
X48962923Y-110223763D01*
X50263923Y-110183763D02*
X48727923Y-110183763D01*
X50442923Y-110143763D02*
X48548923Y-110143763D01*
X50592923Y-110103763D02*
X48398923Y-110103763D01*
X50723923Y-110063763D02*
X48267923Y-110063763D01*
X50841923Y-110023763D02*
X48149923Y-110023763D01*
X50948923Y-109983763D02*
X48042923Y-109983763D01*
X51047923Y-109943763D02*
X47943923Y-109943763D01*
X51139923Y-109903763D02*
X47851923Y-109903763D01*
X51226923Y-109863763D02*
X47764923Y-109863763D01*
X51308923Y-109823763D02*
X47682923Y-109823763D01*
X51385923Y-109783763D02*
X47605923Y-109783763D01*
X51459923Y-109743763D02*
X47531923Y-109743763D01*
X51529923Y-109703763D02*
X47461923Y-109703763D01*
X51596923Y-109663763D02*
X47394923Y-109663763D01*
X51660923Y-109623763D02*
X47330923Y-109623763D01*
X51722923Y-109583763D02*
X47268923Y-109583763D01*
X51782923Y-109543763D02*
X47208923Y-109543763D01*
X51810923Y-101734065D02*
X51810923Y-102534065D01*
X51839923Y-109503763D02*
X47151923Y-109503763D01*
X51895923Y-109463763D02*
X47095923Y-109463763D01*
X51948923Y-109423763D02*
X47042923Y-109423763D01*
X52000923Y-109383763D02*
X46990923Y-109383763D01*
X52050923Y-109343763D02*
X46940923Y-109343763D01*
X52099923Y-109303763D02*
X46891923Y-109303763D01*
X52146923Y-109263763D02*
X46844923Y-109263763D01*
X52191923Y-109223763D02*
X46799923Y-109223763D01*
X52210923Y-102134065D02*
X51410923Y-102134065D01*
X52236923Y-109183763D02*
X46754923Y-109183763D01*
X52279923Y-109143763D02*
X46711923Y-109143763D01*
X52321923Y-109103763D02*
X46669923Y-109103763D01*
X52362923Y-109063763D02*
X46628923Y-109063763D01*
X52401923Y-109023763D02*
X46589923Y-109023763D01*
X52440923Y-108983763D02*
X46550923Y-108983763D01*
X52477923Y-108943763D02*
X46513923Y-108943763D01*
X52514923Y-108903763D02*
X50535923Y-108903763D01*
X52550923Y-108863763D02*
X50535923Y-108863763D01*
X52584923Y-108823763D02*
X50535923Y-108823763D01*
X52618923Y-108783763D02*
X50535923Y-108783763D01*
X52651923Y-108743763D02*
X50535923Y-108743763D01*
X52683923Y-108703763D02*
X50535923Y-108703763D01*
X52714923Y-108663763D02*
X50535923Y-108663763D01*
X52745923Y-108623763D02*
X50535923Y-108623763D01*
X52775923Y-108583763D02*
X50535923Y-108583763D01*
X52804923Y-108543763D02*
X50535923Y-108543763D01*
X52832923Y-108503763D02*
X50535923Y-108503763D01*
X52860923Y-108463763D02*
X50535923Y-108463763D01*
X52887923Y-108423763D02*
X50535923Y-108423763D01*
X52913923Y-108383763D02*
X50535923Y-108383763D01*
X52938923Y-108343763D02*
X50535923Y-108343763D01*
X52963923Y-108303763D02*
X50535923Y-108303763D01*
X52988923Y-108263763D02*
X50535923Y-108263763D01*
X53011923Y-108223763D02*
X50535923Y-108223763D01*
X53034923Y-108183763D02*
X50535923Y-108183763D01*
X53057923Y-108143763D02*
X50535923Y-108143763D01*
X53079923Y-108103763D02*
X50535923Y-108103763D01*
X53100923Y-108063763D02*
X50535923Y-108063763D01*
X53121923Y-108023763D02*
X50535923Y-108023763D01*
X53141923Y-107983763D02*
X50535923Y-107983763D01*
X53161923Y-107943763D02*
X50535923Y-107943763D01*
X53180923Y-107903763D02*
X50535923Y-107903763D01*
X53199923Y-107863763D02*
X50535923Y-107863763D01*
X53217923Y-107823763D02*
X50535923Y-107823763D01*
X53235923Y-107783763D02*
X50535923Y-107783763D01*
X53252923Y-107743763D02*
X50535923Y-107743763D01*
X53268923Y-107703763D02*
X50535923Y-107703763D01*
X53284923Y-107663763D02*
X50535923Y-107663763D01*
X53300923Y-107623763D02*
X50535923Y-107623763D01*
X53315923Y-107583763D02*
X50535923Y-107583763D01*
X53330923Y-107543763D02*
X50535923Y-107543763D01*
X53344923Y-107503763D02*
X50535923Y-107503763D01*
X53358923Y-107463763D02*
X50535923Y-107463763D01*
X53371923Y-107423763D02*
X50535923Y-107423763D01*
X53384923Y-107383763D02*
X50535923Y-107383763D01*
X53396923Y-107343763D02*
X50535923Y-107343763D01*
X53408923Y-107303763D02*
X50535923Y-107303763D01*
X53420923Y-107263763D02*
X50535923Y-107263763D01*
X53431923Y-107223763D02*
X50535923Y-107223763D01*
X53442923Y-107183763D02*
X50535923Y-107183763D01*
X53452923Y-107143763D02*
X50535923Y-107143763D01*
X53462923Y-107103763D02*
X50535923Y-107103763D01*
X53471923Y-107063763D02*
X50535923Y-107063763D01*
X53480923Y-107023763D02*
X50535923Y-107023763D01*
X53488923Y-106983763D02*
X50535923Y-106983763D01*
X53497923Y-106943763D02*
X50535923Y-106943763D01*
X53504923Y-106903763D02*
X50535923Y-106903763D01*
X53512923Y-106863763D02*
X50535923Y-106863763D01*
X53518923Y-106823763D02*
X45472923Y-106823763D01*
X53525923Y-106783763D02*
X45465923Y-106783763D01*
X53531923Y-106743763D02*
X45459923Y-106743763D01*
X53537923Y-106703763D02*
X45453923Y-106703763D01*
X53542923Y-106663763D02*
X45448923Y-106663763D01*
X53547923Y-106623763D02*
X45443923Y-106623763D01*
X53551923Y-106583763D02*
X45439923Y-106583763D01*
X53556923Y-106543763D02*
X45434923Y-106543763D01*
X53559923Y-106503763D02*
X45431923Y-106503763D01*
X53563923Y-106463763D02*
X45427923Y-106463763D01*
X53565923Y-106423763D02*
X45425923Y-106423763D01*
X53568923Y-106383763D02*
X45422923Y-106383763D01*
X53570923Y-106343763D02*
X45420923Y-106343763D01*
X53572923Y-106303763D02*
X45418923Y-106303763D01*
X53573923Y-106263763D02*
X45417923Y-106263763D01*
X53574923Y-106223763D02*
X45416923Y-106223763D01*
X53575923Y-106143763D02*
X45415923Y-106143763D01*
X53575923Y-106183763D02*
X45415923Y-106183763D01*
X53615923Y-106143763D02*
G75*
G02*
X45375923Y-106143763I-4120000J0D01*
G01*
X45375923Y-106143763D02*
G75*
G02*
X53615923Y-106143763I4120000J0D01*
G01*
%TO.C,R7*%
X55085923Y-159273478D02*
X55085923Y-157819350D01*
X56905923Y-159273478D02*
X56905923Y-157819350D01*
%TO.C,R8*%
X60585923Y-157819350D02*
X60585923Y-159273478D01*
X62405923Y-157819350D02*
X62405923Y-159273478D01*
%TO.C,D8*%
X64525923Y-163746414D02*
X67465923Y-163746414D01*
X64525923Y-163866414D02*
X67465923Y-163866414D01*
X64525923Y-163986414D02*
X67465923Y-163986414D01*
X65995923Y-158306414D02*
X65995923Y-159326414D01*
X65995923Y-165786414D02*
X65995923Y-164766414D01*
X64525923Y-159326414D02*
X67465923Y-159326414D01*
X67465923Y-164766414D01*
X64525923Y-164766414D01*
X64525923Y-159326414D01*
%TO.C,D5*%
X57255923Y-116046414D02*
X58275923Y-116046414D01*
X59055923Y-114576414D02*
X59055923Y-117516414D01*
X59175923Y-114576414D02*
X59175923Y-117516414D01*
X59295923Y-114576414D02*
X59295923Y-117516414D01*
X64735923Y-116046414D02*
X63715923Y-116046414D01*
X58275923Y-114576414D02*
X63715923Y-114576414D01*
X63715923Y-117516414D01*
X58275923Y-117516414D01*
X58275923Y-114576414D01*
%TD*%
M02*
